<svg width="154" height="130" viewBox="0 0 154 130" fill="none" xmlns="http://www.w3.org/2000/svg">
<path d="M81.5962 79.1229H51.1479L50.9637 78.8413L25.675 40.6411L0.992918 72.2989L0 71.5226L25.7617 38.4819L51.8267 77.8592H81.1449L93.3523 67.7748L93.6267 19.2157L94.2297 19.194L141.933 17.2732L141.984 18.5333L94.8832 20.4289L94.6124 68.3706L81.5962 79.1229Z" fill="#BF9D50"/>
<path d="M103.783 121.392L102.823 120.576L119.598 100.87L80.921 78.9713L81.5456 77.8737L121.551 100.523L103.783 121.392Z" fill="#BF9D50"/>
<path d="M143.738 30.6505L141.384 22.5555C141.066 21.4615 140.092 20.7069 138.951 20.6744L130.599 20.4289L139.705 16.9844L141.222 7.63647L144.204 16.255L153.927 17.6018L145.258 20.4289C145.096 20.483 144.977 20.6275 144.955 20.7972L143.738 30.6505ZM137.012 19.3493L138.99 19.4071C140.677 19.4576 142.128 20.5805 142.597 22.1981L143.237 24.4042L143.702 20.6347C143.782 19.9812 144.24 19.4251 144.869 19.223L148.327 18.0964L143.265 17.396L141.669 12.778L140.922 17.3851C140.872 17.7029 140.651 17.9737 140.348 18.0856L137.012 19.3493Z" fill="#BF9D50"/>
<path d="M101.306 26.9243L95.71 22.783C95.107 22.3353 94.2911 22.3316 93.6809 22.7685L88.0374 26.8088L92.1933 20.1581L88.6801 13.5759L94.6774 17.562L101.447 13.7456L97.2553 19.8078C97.2228 19.8548 97.2192 19.9198 97.2481 19.9703L101.306 26.9243ZM94.6846 21.1835C95.3093 21.1835 95.9339 21.3784 96.461 21.772L97.1254 22.263L96.1577 20.6058C95.8833 20.1364 95.905 19.5407 96.2155 19.093L97.2915 17.5368L94.6196 19.0424L92.15 17.3996L93.4245 19.7862C93.5653 20.0497 93.5545 20.3675 93.3956 20.6202L92.4857 22.0753L92.9443 21.7467C93.4678 21.3676 94.0744 21.1835 94.6846 21.1835ZM92.3233 19.945C92.3233 19.9487 92.3233 19.9487 92.3233 19.945V19.945Z" fill="#BF9D50"/>
<path d="M82.6938 89.3192L80.3433 81.2242C80.0256 80.1302 79.0471 79.3756 77.9098 79.3431L69.5584 79.0976L78.6643 75.6531L80.1808 66.3052L83.1631 74.9237L92.8866 76.2705L84.2175 79.0976C84.055 79.1517 83.9358 79.2962 83.9142 79.4659L82.6938 89.3192ZM75.9672 78.018L77.9494 78.0758C79.6356 78.1263 81.0871 79.2492 81.5564 80.8668L82.1955 83.0729L82.6613 79.3034C82.7407 78.6499 83.1993 78.0939 83.8275 77.8917L87.2865 76.7651L82.2244 76.0647L80.6285 71.4467L79.8811 76.0538C79.827 76.3752 79.6067 76.6424 79.3034 76.7579L75.9672 78.018Z" fill="#BF9D50"/>
<path d="M42.6991 85.965L46.0425 79.1663C46.4469 78.3467 46.2735 77.3718 45.62 76.7363L40.2113 71.4973L48.2341 74.6855L54.7368 69.5295L51.5703 76.8771L57.0837 83.5098L49.7036 80.1736C49.6098 80.1303 49.4942 80.1483 49.4148 80.2169L42.6991 85.965ZM45.6634 75.0249L46.4938 75.83C47.5445 76.8482 47.8153 78.4116 47.1726 79.7223L46.5371 81.0149L48.5915 79.2565C49.0429 78.8702 49.682 78.7799 50.2199 79.0255L52.6066 80.105L50.1008 77.0902L51.592 73.6312L48.8299 75.8192C48.588 76.0106 48.263 76.0611 47.9741 75.9456L45.6634 75.0249Z" fill="#BF9D50"/>
<path d="M104.404 130L102.635 123.909C102.473 123.346 101.967 122.956 101.379 122.938L95.0421 122.75L101.628 120.259L102.686 113.731L104.776 119.768L111.618 120.717L105.314 122.772L104.404 130ZM101.451 121.678C102.574 121.724 103.534 122.475 103.848 123.559L103.906 123.757L104.043 122.642C104.105 122.147 104.448 121.732 104.921 121.576L106.018 121.219L103.837 120.916L103.133 118.876L102.834 120.728C102.787 121.01 102.595 121.248 102.328 121.349L101.451 121.678Z" fill="#BF9D50"/>
<path d="M33.5931 49.895L27.224 44.3743C26.3646 43.6305 25.1334 43.5258 24.1585 44.1144L17.0095 48.4435L22.7865 40.6085L18.9845 31.9358L26.1661 37.5539L35.0626 33.4053L29.3181 40.4857C29.2098 40.6193 29.1882 40.8034 29.264 40.9587L33.5931 49.895ZM25.5125 42.468C26.4224 42.468 27.3251 42.7893 28.0508 43.4176L29.7839 44.9195L28.1302 41.5003C27.8414 40.9082 27.9244 40.1932 28.3397 39.6805L30.6323 36.8571L26 39.0162L22.151 36.0086L24.025 40.2835C24.155 40.5796 24.1153 40.9262 23.9239 41.1862L21.808 44.0566L23.5014 43.0312C24.126 42.6521 24.8229 42.468 25.5125 42.468Z" fill="#BF9D50"/>
<path d="M18.0494 55.5059L16.5041 50.1911C16.3994 49.83 16.078 49.5808 15.7025 49.57L10.1385 49.4039L15.753 47.2809L16.634 41.8397L18.378 46.8837L24.108 47.6781L18.7968 49.4112L18.0494 55.5059ZM16.3416 48.411C16.8471 48.5771 17.2767 48.9273 17.5367 49.3967L17.5656 49.1728C17.6197 48.7396 17.9195 48.3749 18.3347 48.2413L18.5188 48.1799L17.4464 48.0319L17.0853 46.9884L16.959 47.7755C16.9157 48.0391 16.7351 48.2666 16.4824 48.3605L16.3416 48.411Z" fill="#BF9D50"/>
<path d="M70.4901 79.8422C70.7325 78.3482 69.7179 76.9405 68.2239 76.6981C66.73 76.4556 65.3223 77.4702 65.0798 78.9642C64.8374 80.4582 65.8519 81.8659 67.3459 82.1083C68.8399 82.3508 70.2476 81.3362 70.4901 79.8422Z" fill="#BF9D50"/>
<path d="M67.7531 82.2244C66.2005 82.2244 64.9332 80.9606 64.9332 79.4045C64.9332 77.8483 66.1969 76.5846 67.7531 76.5846C69.3093 76.5846 70.573 77.8483 70.573 79.4045C70.573 80.9606 69.3093 82.2244 67.7531 82.2244ZM67.7531 76.7398C66.2836 76.7398 65.0885 77.9349 65.0885 79.4045C65.0885 80.874 66.2836 82.0691 67.7531 82.0691C69.2226 82.0691 70.4178 80.874 70.4178 79.4045C70.4178 77.9349 69.2226 76.7398 67.7531 76.7398Z" fill="#BF9D50"/>
<path d="M94.255 53.3539C92.901 53.3539 91.7961 52.2491 91.7961 50.8951C91.7961 49.5411 92.8974 48.4363 94.255 48.4363C95.6126 48.4363 96.7137 49.5375 96.7137 50.8951C96.7137 52.2527 95.6126 53.3539 94.255 53.3539ZM94.255 49.6964C93.5942 49.6964 93.0599 50.2344 93.0599 50.8915C93.0599 51.5523 93.5979 52.0866 94.255 52.0866C94.9157 52.0866 95.45 51.5486 95.45 50.8915C95.4536 50.2344 94.9157 49.6964 94.255 49.6964Z" fill="#BF9D50"/>
<path d="M105.405 93.197C106.156 93.197 106.766 92.6684 106.766 92.0164C106.766 91.3643 106.156 90.8357 105.405 90.8357C104.653 90.8357 104.043 91.3643 104.043 92.0164C104.043 92.6684 104.653 93.197 105.405 93.197Z" fill="#BF9D50"/>
<path d="M37.4167 59.9325C35.9616 59.9325 34.7737 58.7482 34.7737 57.2896C34.7737 55.8345 35.958 54.6466 37.4167 54.6466C38.8718 54.6466 40.0597 55.8309 40.0597 57.2896C40.0561 58.7482 38.8718 59.9325 37.4167 59.9325ZM37.4167 55.9103C36.6549 55.9103 36.0374 56.5277 36.0374 57.2896C36.0374 58.0514 36.6549 58.6688 37.4167 58.6688C38.1785 58.6688 38.796 58.0514 38.796 57.2896C38.796 56.5277 38.1749 55.9103 37.4167 55.9103Z" fill="#BF9D50"/>
<path d="M108.878 116.771C107.524 116.771 106.419 115.666 106.419 114.312C106.419 112.958 107.524 111.853 108.878 111.853C110.232 111.853 111.337 112.954 111.337 114.312C111.337 115.669 110.232 116.771 108.878 116.771ZM108.878 113.117C108.217 113.117 107.683 113.655 107.683 114.312C107.683 114.973 108.221 115.507 108.878 115.507C109.539 115.507 110.073 114.969 110.073 114.312C110.073 113.655 109.535 113.117 108.878 113.117Z" fill="#BF9D50"/>
<path d="M113.081 23.014C110.817 23.014 108.975 21.1726 108.975 18.9087C108.975 16.6449 110.817 14.8035 113.081 14.8035C115.345 14.8035 117.186 16.6449 117.186 18.9087C117.186 21.1726 115.345 23.014 113.081 23.014ZM113.081 16.0672C111.514 16.0672 110.239 17.3417 110.239 18.9087C110.239 20.4757 111.514 21.7503 113.081 21.7503C114.648 21.7503 115.922 20.4757 115.922 18.9087C115.922 17.3417 114.648 16.0672 113.081 16.0672Z" fill="#BF9D50"/>
<path d="M24.4691 71.8836C23.1548 71.8836 22.0825 70.8148 22.0825 69.497C22.0825 68.1791 23.1512 67.1104 24.4691 67.1104C25.787 67.1104 26.8557 68.1791 26.8557 69.497C26.8557 70.8148 25.787 71.8836 24.4691 71.8836ZM24.4691 68.3741C23.8481 68.3741 23.3462 68.8795 23.3462 69.497C23.3462 70.1144 23.8517 70.6199 24.4691 70.6199C25.0865 70.6199 25.592 70.1144 25.592 69.497C25.592 68.8795 25.0901 68.3741 24.4691 68.3741Z" fill="#BF9D50"/>
<path d="M72.9921 118.19C41.4787 118.19 15.8433 93.5364 15.8433 63.2325C15.8433 32.9287 41.4787 8.27539 72.9921 8.27539C104.505 8.27539 130.141 32.9287 130.141 63.2325H128.877C128.877 33.6255 103.805 9.5391 72.9885 9.5391C42.1719 9.5391 17.1034 33.6255 17.1034 63.2325C17.1034 92.8395 42.1755 116.926 72.9885 116.926V118.19H72.9921Z" fill="#BF9D50"/>
<path d="M72.9921 105.776C48.5988 105.776 28.7549 86.6907 28.7549 63.2326H30.0186C30.0186 85.9939 49.2956 104.516 72.9921 104.516C96.6885 104.516 115.966 85.9975 115.966 63.2326C115.966 40.4677 96.6885 21.9524 72.9921 21.9524V20.6887C97.3853 20.6887 117.229 39.7744 117.229 63.2326C117.229 86.6907 97.3853 105.776 72.9921 105.776Z" fill="#BF9D50"/>
<path d="M92.6807 63.2326H91.417C91.417 53.4803 83.1523 45.5478 72.9921 45.5478V44.2841C83.8492 44.2841 92.6807 52.7835 92.6807 63.2326Z" fill="#BF9D50"/>
<path d="M72.9921 75.0177C66.2475 75.0177 60.7594 69.7318 60.7594 63.2327C60.7594 56.7336 66.2475 51.4476 72.9921 51.4476C79.7367 51.4476 85.2249 56.7336 85.2249 63.2327H83.9612C83.9612 57.4304 79.0398 52.7113 72.9885 52.7113C66.9371 52.7113 62.0159 57.4304 62.0159 63.2327C62.0159 69.0349 66.9371 73.754 72.9885 73.754V75.0177H72.9921Z" fill="#BF9D50"/>
<path d="M74.0427 126.458L74.0247 125.194C75.1007 125.18 76.1875 125.136 77.2635 125.068L77.3429 126.328C76.2489 126.397 75.1367 126.44 74.0427 126.458ZM70.7391 126.429C69.645 126.393 68.5366 126.332 67.4426 126.245L67.5436 124.988C68.616 125.075 69.7065 125.137 70.7824 125.169L70.7391 126.429ZM80.6321 126.043L80.4913 124.79C81.5601 124.671 82.6432 124.523 83.7047 124.353L83.9033 125.599C82.8238 125.772 81.7225 125.92 80.6321 126.043ZM64.1569 125.898C63.0701 125.758 61.9725 125.588 60.8929 125.396L61.1168 124.154C62.1747 124.342 63.2543 124.508 64.3194 124.649L64.1569 125.898ZM87.1529 124.996L86.8929 123.761C87.9472 123.537 89.0087 123.288 90.0486 123.013L90.37 124.234C89.3085 124.512 88.2288 124.768 87.1529 124.996ZM57.6578 124.736C56.5891 124.49 55.5131 124.216 54.4552 123.916L54.7983 122.699C55.8345 122.992 56.8888 123.263 57.9395 123.501L57.6578 124.736ZM93.54 123.317L93.161 122.114C94.19 121.789 95.2226 121.436 96.2264 121.06L96.6669 122.244C95.6415 122.624 94.5907 122.985 93.54 123.317ZM51.2995 122.941C50.2596 122.591 49.2162 122.212 48.1944 121.811L48.6566 120.638C49.6604 121.031 50.6821 121.403 51.7039 121.746L51.2995 122.941ZM99.7323 121.017L99.234 119.858C100.223 119.432 101.216 118.98 102.18 118.507L102.736 119.641C101.754 120.121 100.743 120.584 99.7323 121.017ZM45.1507 120.533C44.147 120.082 43.1396 119.598 42.1647 119.1L42.7388 117.977C43.6956 118.468 44.6813 118.941 45.667 119.385L45.1507 120.533ZM105.661 118.121L105.051 117.016C105.989 116.496 106.932 115.948 107.845 115.384L108.51 116.457C107.578 117.034 106.621 117.594 105.661 118.121ZM39.2546 117.518C38.3014 116.969 37.3517 116.388 36.4274 115.796L37.1099 114.734C38.0161 115.319 38.9477 115.886 39.8828 116.424L39.2546 117.518ZM111.272 114.651L110.557 113.611C111.438 113.005 112.319 112.366 113.175 111.709L113.944 112.712C113.066 113.38 112.167 114.034 111.272 114.651ZM33.6942 113.933C32.8023 113.294 31.9142 112.622 31.0549 111.936L31.842 110.95C32.6832 111.622 33.557 112.283 34.4307 112.907L33.6942 113.933ZM116.507 110.64L115.691 109.679C116.514 108.979 117.327 108.253 118.107 107.52L118.97 108.441C118.175 109.188 117.348 109.929 116.507 110.64ZM28.5202 109.809C27.697 109.08 26.881 108.322 26.0975 107.556L26.9821 106.654C27.7512 107.405 28.549 108.149 29.3578 108.864L28.5202 109.809ZM121.317 106.119L120.407 105.246C121.15 104.473 121.883 103.668 122.587 102.852L123.541 103.679C122.822 104.509 122.075 105.329 121.317 106.119ZM23.7939 105.188C23.0501 104.379 22.3171 103.545 21.6131 102.7L22.5844 101.895C23.2704 102.722 23.9889 103.541 24.7218 104.332L23.7939 105.188ZM125.638 101.126L124.642 100.35C125.303 99.5012 125.953 98.6238 126.566 97.7464L127.603 98.4686C126.978 99.364 126.317 100.259 125.638 101.126ZM19.5659 100.104C18.9088 99.2268 18.2661 98.3169 17.6559 97.407L18.703 96.703C19.3024 97.5984 19.9306 98.4866 20.5733 99.3459L19.5659 100.104ZM129.426 95.71L128.354 95.0421C128.924 94.1286 129.477 93.1862 129.996 92.2475L131.101 92.8577C130.57 93.8145 130.007 94.7749 129.426 95.71ZM15.8903 94.6124C15.3271 93.67 14.7855 92.6988 14.2764 91.7311L15.392 91.1426C15.8903 92.0922 16.4247 93.0418 16.9735 93.9661L15.8903 94.6124ZM132.625 89.9222L131.491 89.3698C131.961 88.3985 132.412 87.4056 132.827 86.4163L133.99 86.9038C133.564 87.9147 133.105 88.9293 132.625 89.9222ZM12.8177 88.7705C12.3591 87.7739 11.9222 86.7557 11.5214 85.7339L12.6949 85.2681C13.0921 86.2647 13.5181 87.2648 13.9658 88.2433L12.8177 88.7705ZM135.185 83.8203L133.997 83.3943C134.362 82.3797 134.701 81.3398 135.008 80.3108L136.218 80.6718C135.903 81.7225 135.557 82.7804 135.185 83.8203ZM10.3877 82.636C10.0375 81.5962 9.71611 80.5311 9.42365 79.4731L10.6405 79.1373C10.9257 80.1736 11.2434 81.2135 11.5864 82.2353L10.3877 82.636ZM137.073 77.4765L135.846 77.184C136.095 76.1405 136.322 75.0718 136.514 74.0175L137.756 74.245C137.561 75.3209 137.33 76.4113 137.073 77.4765ZM8.63295 76.2633C8.39826 75.1909 8.19247 74.0969 8.01555 73.0138L9.26119 72.8115C9.43089 73.8694 9.63667 74.9418 9.86414 75.9925L8.63295 76.2633ZM138.261 70.9737L137.008 70.8149C137.142 69.7498 137.25 68.6666 137.33 67.5942L138.59 67.6845C138.51 68.7821 138.402 69.887 138.261 70.9737ZM7.57868 69.7353C7.46314 68.6485 7.3765 67.5401 7.31873 66.4388L8.57883 66.3738C8.63659 67.4498 8.71962 68.5366 8.83516 69.6017L7.57868 69.7353ZM138.741 64.3844L137.481 64.3627C137.488 63.9872 137.492 63.6117 137.492 63.2362C137.492 62.5285 137.478 61.8172 137.456 61.124L138.716 61.0807C138.741 61.7883 138.752 62.5141 138.752 63.2362C138.752 63.6189 138.749 64.0017 138.741 64.3844ZM137.25 57.8889C137.156 56.8202 137.03 55.737 136.875 54.6718L138.124 54.4913C138.279 55.5781 138.409 56.6829 138.507 57.777L137.25 57.8889ZM136.329 51.4837C136.12 50.4294 135.878 49.3679 135.607 48.328L136.828 48.0139C137.102 49.0754 137.348 50.1622 137.564 51.2381L136.329 51.4837ZM134.719 45.2121C134.398 44.1903 134.04 43.1649 133.665 42.1575L134.845 41.7133C135.232 42.7388 135.596 43.7895 135.925 44.8329L134.719 45.2121ZM132.444 39.1643C132.011 38.1822 131.549 37.1965 131.065 36.2397L132.192 35.6728C132.686 36.6513 133.159 37.655 133.6 38.6588L132.444 39.1643ZM129.531 33.3909C128.996 32.4594 128.429 31.5278 127.848 30.6252L128.91 29.9428C129.505 30.8635 130.083 31.8131 130.628 32.7663L129.531 33.3909ZM126.021 27.9497C125.393 27.0795 124.732 26.213 124.057 25.3717L125.039 24.581C125.729 25.4367 126.404 26.3213 127.043 27.2096L126.021 27.9497ZM121.959 22.9021C121.241 22.1005 120.493 21.3026 119.739 20.5407L120.634 19.6525C121.407 20.4324 122.169 21.2412 122.898 22.0608L121.959 22.9021ZM117.399 18.2913C116.605 17.5656 115.781 16.8507 114.947 16.1647L115.749 15.1898C116.597 15.8903 117.439 16.6196 118.247 17.3562L117.399 18.2913ZM112.395 14.168C111.528 13.5253 110.636 12.8971 109.741 12.2977L110.441 11.247C111.355 11.8572 112.265 12.4963 113.146 13.1534L112.395 14.168ZM106.993 10.5646C106.069 10.0122 105.119 9.47784 104.166 8.96874L104.758 7.85308C105.729 8.3694 106.701 8.9146 107.643 9.47785L106.993 10.5646ZM101.26 7.51727C100.288 7.05872 99.2846 6.62184 98.2844 6.21023L98.7647 5.04401C99.7865 5.46284 100.805 5.91054 101.798 6.37631L101.26 7.51727ZM95.2587 5.05485C94.2477 4.6974 93.2115 4.358 92.1753 4.05109L92.5364 2.84155C93.5907 3.15567 94.6449 3.50228 95.6776 3.86695L95.2587 5.05485ZM89.0485 3.199C88.0086 2.94264 86.9435 2.70793 85.8819 2.50213L86.1239 1.26371C87.2071 1.47313 88.2903 1.71503 89.3518 1.97499L89.0485 3.199ZM82.6866 1.96054C81.6215 1.80528 80.5382 1.67532 79.4659 1.57422L79.5851 0.317735C80.6755 0.422443 81.7767 0.556023 82.8635 0.71128L82.6866 1.96054ZM76.2344 1.33952C75.162 1.28897 74.0716 1.26371 72.9921 1.26371V0C74.0897 0 75.1982 0.0252637 76.2922 0.0794228L76.2344 1.33952Z" fill="#BF9D50"/>
<path d="M106.188 128.469C105.82 128.469 105.441 128.458 105.065 128.44L105.127 127.18C105.484 127.198 105.841 127.205 106.192 127.205L106.188 128.469ZM107.311 128.444L107.253 127.184C107.607 127.166 107.964 127.14 108.315 127.108L108.434 128.364C108.066 128.401 107.686 128.426 107.311 128.444ZM103.939 128.361C103.57 128.325 103.195 128.281 102.823 128.227L103.004 126.978C103.357 127.028 103.711 127.072 104.061 127.104L103.939 128.361ZM109.553 128.231L109.373 126.982C109.719 126.931 110.073 126.873 110.423 126.805L110.662 128.043C110.293 128.115 109.918 128.177 109.553 128.231ZM101.711 128.036C101.346 127.964 100.978 127.884 100.613 127.794L100.913 126.57C101.26 126.657 101.61 126.732 101.953 126.801L101.711 128.036ZM111.763 127.801L111.463 126.577C111.81 126.494 112.153 126.4 112.489 126.299L112.85 127.509C112.492 127.613 112.128 127.711 111.763 127.801ZM99.5264 127.494C99.169 127.386 98.8079 127.27 98.4541 127.144L98.8765 125.956C99.2123 126.075 99.5517 126.187 99.8875 126.288L99.5264 127.494ZM113.922 127.158L113.503 125.971C113.839 125.851 114.175 125.725 114.496 125.591L114.973 126.761C114.63 126.899 114.276 127.032 113.922 127.158ZM97.4034 126.743C97.0604 126.602 96.7138 126.451 96.3708 126.288L96.9051 125.147C97.2301 125.299 97.5586 125.443 97.8836 125.577L97.4034 126.743ZM116.005 126.306L115.471 125.162C115.792 125.01 116.114 124.851 116.421 124.689L117.013 125.804C116.684 125.978 116.345 126.148 116.005 126.306ZM95.3598 125.783C95.0312 125.606 94.6991 125.422 94.3777 125.227L95.024 124.144C95.3273 124.324 95.6415 124.501 95.952 124.667L95.3598 125.783ZM117.991 125.252L117.345 124.169C117.648 123.988 117.951 123.797 118.244 123.602L118.944 124.653C118.634 124.859 118.312 125.061 117.991 125.252ZM93.4245 124.624C93.1104 124.414 92.7999 124.198 92.5002 123.974L93.2549 122.963C93.5365 123.172 93.8289 123.378 94.125 123.577L93.4245 124.624ZM119.865 124.006L119.114 122.992C119.396 122.782 119.677 122.566 119.952 122.338L120.753 123.313C120.464 123.555 120.165 123.786 119.865 124.006ZM91.612 123.277C91.3232 123.039 91.0379 122.79 90.7599 122.537L91.612 121.605C91.872 121.844 92.1428 122.078 92.4172 122.302L91.612 123.277ZM121.605 122.577L120.757 121.641C121.02 121.403 121.277 121.154 121.526 120.909L122.421 121.797C122.158 122.064 121.883 122.324 121.605 122.577ZM89.9475 121.753C89.6875 121.49 89.4276 121.212 89.1749 120.93L90.1172 120.089C90.3555 120.356 90.5974 120.616 90.8465 120.865L89.9475 121.753ZM123.194 120.981L122.255 120.139C122.49 119.876 122.721 119.605 122.945 119.331L123.927 120.125C123.689 120.414 123.443 120.703 123.194 120.981ZM88.4455 120.071C88.2108 119.782 87.9833 119.479 87.763 119.172L88.7849 118.435C88.9943 118.724 89.2073 119.006 89.4276 119.28L88.4455 120.071ZM124.609 119.226L123.588 118.486C123.793 118.201 123.996 117.908 124.191 117.608L125.248 118.294C125.043 118.612 124.826 118.926 124.609 119.226ZM87.1276 118.24C86.9254 117.923 86.7268 117.598 86.5427 117.276L87.6403 116.652C87.8137 116.955 87.9978 117.262 88.1928 117.558L87.1276 118.24ZM125.837 117.334L124.743 116.706C124.92 116.399 125.09 116.085 125.248 115.771L126.375 116.341C126.205 116.673 126.025 117.009 125.837 117.334ZM86.0083 116.283C85.8423 115.951 85.6797 115.608 85.5281 115.265L86.6835 114.76C86.8243 115.085 86.9759 115.406 87.1348 115.72L86.0083 116.283ZM126.859 115.319L125.703 114.81C125.844 114.489 125.981 114.16 126.108 113.828L127.288 114.276C127.151 114.626 127.007 114.98 126.859 115.319ZM85.1057 114.218C84.9757 113.868 84.8493 113.51 84.7374 113.153L85.9398 112.774C86.0445 113.11 86.16 113.445 86.2864 113.774L85.1057 114.218ZM127.66 113.203L126.458 112.821C126.563 112.485 126.664 112.142 126.75 111.799L127.971 112.117C127.877 112.481 127.772 112.846 127.66 113.203ZM84.4268 112.066C84.333 111.701 84.2499 111.33 84.1777 110.965L85.4162 110.719C85.4848 111.062 85.5642 111.409 85.6509 111.752L84.4268 112.066ZM128.224 111.015L126.985 110.766C127.054 110.42 127.115 110.069 127.166 109.719L128.415 109.9C128.364 110.275 128.299 110.647 128.224 111.015ZM83.9864 109.853C83.9322 109.481 83.8889 109.102 83.8564 108.73L85.1129 108.622C85.1418 108.968 85.1851 109.326 85.2356 109.676L83.9864 109.853ZM128.549 108.78L127.292 108.669C127.325 108.315 127.346 107.957 127.361 107.611L128.621 107.658C128.606 108.026 128.585 108.405 128.549 108.78ZM83.7878 107.603C83.7805 107.365 83.777 107.127 83.777 106.889C83.777 106.513 83.7878 106.134 83.8058 105.758L85.0659 105.827C85.0479 106.177 85.0371 106.535 85.0371 106.889C85.0371 107.112 85.0407 107.34 85.0479 107.564L83.7878 107.603ZM127.368 106.546C127.364 106.199 127.346 105.841 127.321 105.488L128.581 105.397C128.61 105.776 128.624 106.156 128.632 106.527L127.368 106.546ZM85.1526 104.765L83.8997 104.628C83.9394 104.253 83.99 103.877 84.0514 103.509L85.2971 103.711C85.2393 104.061 85.1923 104.415 85.1526 104.765ZM127.22 104.43C127.176 104.079 127.122 103.729 127.061 103.383L128.303 103.159C128.372 103.527 128.426 103.903 128.473 104.274L127.22 104.43ZM85.4957 102.675L84.2644 102.404C84.3438 102.039 84.4341 101.671 84.5352 101.31L85.752 101.646C85.6545 101.985 85.5679 102.332 85.4957 102.675ZM126.844 102.343C126.761 102 126.671 101.657 126.57 101.317L127.779 100.96C127.884 101.321 127.985 101.686 128.072 102.05L126.844 102.343ZM86.0625 100.628L84.8674 100.223C84.9866 99.8695 85.1165 99.512 85.2573 99.1618L86.4308 99.6276C86.2972 99.9597 86.1744 100.296 86.0625 100.628ZM126.241 100.314C126.126 99.985 125.996 99.6529 125.859 99.3279L127.021 98.8405C127.166 99.1871 127.303 99.5445 127.429 99.8911L126.241 100.314ZM86.846 98.6527L85.7014 98.1255C85.8567 97.7861 86.0264 97.4432 86.2033 97.111L87.3189 97.6995C87.1529 98.0136 86.9941 98.335 86.846 98.6527ZM125.425 98.3602C125.27 98.0425 125.108 97.7248 124.938 97.4179L126.043 96.8113C126.223 97.1399 126.397 97.4756 126.559 97.815L125.425 98.3602ZM87.8389 96.7752L86.7558 96.1289C86.9507 95.804 87.1529 95.4862 87.3623 95.1757L88.4094 95.8798C88.2144 96.1686 88.0231 96.4719 87.8389 96.7752ZM124.404 96.5008C124.219 96.2011 124.021 95.905 123.819 95.6126L124.855 94.8905C125.068 95.1974 125.277 95.5151 125.476 95.8328L124.404 96.5008ZM89.0231 95.0132L88.0159 94.255C88.2433 93.9553 88.478 93.6556 88.7163 93.3704L89.6839 94.1792C89.4601 94.45 89.2398 94.728 89.0231 95.0132ZM123.19 94.7569C122.974 94.4752 122.746 94.2008 122.515 93.9336L123.472 93.1104C123.714 93.3921 123.956 93.6845 124.187 93.9842L123.19 94.7569ZM90.388 93.3848L89.4637 92.5255C89.7165 92.2547 89.98 91.9803 90.2508 91.7203L91.1318 92.623C90.8754 92.8721 90.6263 93.1248 90.388 93.3848ZM121.804 93.1465C121.558 92.8902 121.302 92.6374 121.049 92.3955L121.916 91.4784C122.187 91.7348 122.454 92.002 122.717 92.2728L121.804 93.1465ZM91.9081 91.9009L91.074 90.9513C91.3557 90.7021 91.6481 90.4602 91.9369 90.2291L92.7205 91.2184C92.4497 91.4387 92.1753 91.6662 91.9081 91.9009ZM120.255 91.6842C119.984 91.4568 119.706 91.2293 119.428 91.0127L120.197 90.0125C120.493 90.24 120.789 90.4783 121.075 90.7238L120.255 91.6842ZM93.5689 90.5794L92.8324 89.554C93.1357 89.3373 93.4498 89.1243 93.7639 88.9221L94.4463 89.9836C94.1538 90.175 93.8578 90.3736 93.5689 90.5794ZM118.569 90.388C118.276 90.1858 117.977 89.9909 117.677 89.8031L118.341 88.7308C118.659 88.9294 118.977 89.1351 119.284 89.3482L118.569 90.388ZM95.3562 89.4312L94.7279 88.3372C95.0493 88.153 95.3814 87.9725 95.7172 87.8028L96.2914 88.9257C95.9736 89.0882 95.6595 89.2579 95.3562 89.4312ZM116.76 89.2651C116.446 89.0918 116.128 88.9257 115.814 88.7705L116.37 87.6367C116.702 87.7992 117.038 87.9761 117.37 88.1567L116.76 89.2651ZM97.2517 88.4672L96.7354 87.3154C97.0785 87.1638 97.4287 87.0157 97.7754 86.8785L98.2338 88.0556C97.9053 88.182 97.5731 88.3227 97.2517 88.4672ZM114.843 88.3264C114.521 88.1892 114.189 88.0556 113.857 87.9292L114.297 86.7449C114.651 86.8749 115.005 87.0157 115.345 87.1637L114.843 88.3264ZM99.2303 87.6909L98.8296 86.4958C99.1871 86.3766 99.5481 86.2647 99.9056 86.1636L100.245 87.3804C99.9128 87.4743 99.5697 87.579 99.2303 87.6909ZM112.85 87.5826C112.51 87.4743 112.167 87.3768 111.828 87.2865L112.149 86.0661C112.51 86.16 112.871 86.2647 113.232 86.3803L112.85 87.5826ZM101.281 87.1168L101 85.8856C101.361 85.8026 101.733 85.7267 102.104 85.6618L102.325 86.9038C101.974 86.9688 101.624 87.0374 101.281 87.1168ZM110.792 87.041C110.445 86.9688 110.095 86.9038 109.744 86.846L109.947 85.6004C110.315 85.6617 110.687 85.7303 111.051 85.8061L110.792 87.041ZM103.375 86.7449L103.213 85.492C103.585 85.4451 103.96 85.4054 104.332 85.3765L104.433 86.633C104.083 86.6619 103.726 86.698 103.375 86.7449ZM108.69 86.7016C108.336 86.6619 107.979 86.6294 107.629 86.6077L107.708 85.3476C108.08 85.3729 108.455 85.4054 108.827 85.4451L108.69 86.7016ZM105.498 86.5752L105.459 85.3151C105.708 85.3079 105.942 85.3007 106.206 85.3043C106.332 85.3043 106.455 85.3043 106.582 85.3079L106.564 86.5716C106.434 86.5716 106.307 86.568 106.174 86.568C105.95 86.5644 105.722 86.568 105.498 86.5752Z" fill="#BF9D50"/>
<path d="M126.992 18.053C126.992 17.0132 127.834 16.1719 128.873 16.1719C129.913 16.1719 130.755 17.0132 130.755 18.053C130.755 19.0929 129.913 19.9341 128.873 19.9341C127.834 19.9341 126.992 19.0929 126.992 18.053Z" fill="#BF9D50"/>
<path d="M128.873 20.0098C127.794 20.0098 126.917 19.1325 126.917 18.0529C126.917 16.9733 127.794 16.0959 128.873 16.0959C129.953 16.0959 130.83 16.9733 130.83 18.0529C130.83 19.1325 129.953 20.0098 128.873 20.0098ZM128.873 16.2476C127.881 16.2476 127.068 17.0564 127.068 18.0529C127.068 19.0494 127.877 19.8582 128.873 19.8582C129.87 19.8582 130.679 19.0494 130.679 18.0529C130.679 17.0564 129.866 16.2476 128.873 16.2476Z" fill="#BF9D50"/>
<path d="M91.4675 85.3404C91.4675 84.185 92.4027 83.2499 93.5581 83.2499C94.7135 83.2499 95.6486 84.185 95.6486 85.3404C95.6486 86.4958 94.7135 87.4309 93.5581 87.4309C92.4027 87.4309 91.4675 86.4958 91.4675 85.3404Z" fill="#BF9D50"/>
<path d="M93.5581 87.5068C92.363 87.5068 91.3917 86.5356 91.3917 85.3404C91.3917 84.1453 92.363 83.1741 93.5581 83.1741C94.7532 83.1741 95.7245 84.1453 95.7245 85.3404C95.7245 86.5356 94.7496 87.5068 93.5581 87.5068ZM93.5581 83.3293C92.4496 83.3293 91.5434 84.232 91.5434 85.3441C91.5434 86.4561 92.446 87.3551 93.5581 87.3551C94.6702 87.3551 95.5692 86.4525 95.5692 85.3441C95.5692 84.2356 94.6665 83.3293 93.5581 83.3293Z" fill="#BF9D50"/>
<path d="M11.2217 56.0873C11.2217 55.0474 12.063 54.2062 13.1029 54.2062C14.1427 54.2062 14.984 55.0474 14.984 56.0873C14.984 57.1271 14.1427 57.9684 13.1029 57.9684C12.063 57.9648 11.2217 57.1235 11.2217 56.0873Z" fill="#BF9D50"/>
<path d="M13.1029 58.0442C12.0233 58.0442 11.1459 57.1668 11.1459 56.0872C11.1459 55.0076 12.0233 54.1302 13.1029 54.1302C14.1825 54.1302 15.0598 55.0076 15.0598 56.0872C15.0598 57.1668 14.1825 58.0442 13.1029 58.0442ZM13.1029 54.2819C12.11 54.2819 11.2976 55.0907 11.2976 56.0872C11.2976 57.0837 12.1064 57.8925 13.1029 57.8925C14.0994 57.8925 14.9082 57.0837 14.9082 56.0872C14.9082 55.0907 14.0958 54.2819 13.1029 54.2819Z" fill="#BF9D50"/>
<path d="M120.573 104.141C122.475 104.141 124.017 102.599 124.017 100.696C124.017 98.794 122.475 97.2518 120.573 97.2518C118.67 97.2518 117.128 98.794 117.128 100.696C117.128 102.599 118.67 104.141 120.573 104.141Z" fill="#BF9D50"/>
<path d="M120.573 104.217C118.63 104.217 117.052 102.635 117.052 100.696C117.052 98.7574 118.634 97.1759 120.573 97.1759C122.512 97.1759 124.093 98.7574 124.093 100.696C124.093 102.635 122.515 104.217 120.573 104.217ZM120.573 97.3312C118.717 97.3312 117.204 98.8404 117.204 100.7C117.204 102.559 118.713 104.069 120.573 104.069C122.432 104.069 123.941 102.559 123.941 100.7C123.941 98.8404 122.432 97.3312 120.573 97.3312Z" fill="#BF9D50"/>
</svg>
