<svg width="136" height="130" viewBox="0 0 136 130" fill="none" xmlns="http://www.w3.org/2000/svg">
<path d="M65.0017 130C52.4585 130 40.2939 126.422 29.8071 119.652L29.6543 119.555C11.0878 107.501 0 87.1078 0 65.0017C0 29.161 29.1609 0 65.0017 0C77.8784 0 90.3209 3.75845 100.992 10.8655L100.318 11.8763C89.8485 4.90127 77.6352 1.21576 65.0017 1.21576C29.8279 1.21576 1.21229 29.8314 1.21229 65.0052C1.21229 86.6458 12.0361 106.612 30.1753 118.45L30.3177 118.541C40.6413 125.245 52.6356 128.791 65.0017 128.791C77.5032 128.791 89.6053 125.179 99.9984 118.343C118.023 106.491 128.784 86.552 128.784 65.0087C128.784 63.2337 128.708 61.4274 128.562 59.6419C128.343 56.9916 127.951 54.3169 127.391 51.6978C125.71 43.7571 122.553 36.2958 118.009 29.5222L119.016 28.8449C123.647 35.747 126.863 43.3507 128.579 51.4442C129.145 54.1154 129.548 56.8387 129.771 59.5412C129.92 61.3614 129.997 63.2024 129.997 65.0087C129.997 86.9619 119.03 107.279 100.662 119.357C90.0708 126.314 77.7394 130 65.0017 130Z" fill="#BF9D50"/>
<path d="M121.003 31.4328L109.551 24.3327L97.6954 30.7172L104.816 19.9247L97.9594 7.86084L108.318 14.9644C108.658 15.1971 109.106 15.2145 109.461 15.0061L121.215 8.09705L114.525 17.2014C113.379 18.761 113.372 20.8591 114.504 22.4292L121.003 31.4328ZM101.621 11.8416L106.241 19.9699L101.364 27.3652L109.071 23.2177C109.398 23.044 109.794 23.0544 110.107 23.249L116.436 27.1707L113.525 23.1343C112.083 21.137 112.093 18.4623 113.552 16.4789L116.745 12.1299L110.079 16.0482C109.318 16.4928 108.359 16.4615 107.633 15.9613L101.621 11.8416Z" fill="#BF9D50"/>
<path d="M68.3989 115.414L45.1084 85.7775V37.529L45.2299 37.3657L68.3989 6.60339V115.414ZM46.3207 85.3572L67.1831 111.903V10.2333L46.3207 37.9319V85.3572Z" fill="#BF9D50"/>
<path d="M67.3152 114.032L45.1084 85.7774V36.6293L68.0029 51.0552L89.5046 37.1885L90.1611 38.2098L68.0099 52.4967L46.3207 38.8315V85.3571L68.2704 113.282L67.3152 114.032Z" fill="#BF9D50"/>
<path d="M67.2735 115.414L67.0928 6.60681L90.4356 37.4977L90.5155 85.7462L90.3869 85.9129L67.2735 115.414ZM68.3155 10.2333L68.4823 111.902L89.3032 85.3258L89.2268 37.9041L68.3155 10.2333Z" fill="#BF9D50"/>
<path d="M68.3573 114.032L67.402 113.285L89.3032 85.3259L89.2233 37.6992L90.439 37.6957L90.5189 85.7427L90.3869 85.9094L68.3573 114.032Z" fill="#BF9D50"/>
<path d="M67.1241 115.574L62.0318 94.1384L73.922 68.8053L94.4406 57.3737L67.1241 115.574ZM63.3101 94.2704L67.4993 111.909L91.7382 60.2672L74.8529 69.6737L63.3101 94.2704Z" fill="#BF9D50"/>
<path d="M66.7212 113.882L62.0318 94.1384L74.2971 68.0099L82.8665 80.831L97.3202 78.3717L97.5217 79.5701L82.2968 82.1614L74.4812 70.4727L63.3101 94.2704L67.9022 113.601L66.7212 113.882Z" fill="#BF9D50"/>
<path d="M66.0369 115.154L93.2596 56.9152L98.0601 79.0421L86.2116 104.393L86.0344 104.486L66.0369 115.154ZM92.8323 60.691L68.6768 112.368L85.2772 103.51L96.7819 78.8997L92.8323 60.691Z" fill="#BF9D50"/>
<path d="M67.6417 114.296L67.072 113.226L85.2807 103.51L96.8721 78.712L97.9698 79.2261L86.2081 104.392L86.031 104.486L67.6417 114.296Z" fill="#BF9D50"/>
<path d="M68.7428 115.348L40.7871 98.2824L25.7082 60.0484L34.5764 28.7129L68.7428 115.348ZM41.7667 97.4592L66.2835 112.427L34.764 32.5026L26.9865 59.9858L41.7667 97.4592Z" fill="#BF9D50"/>
<path d="M67.2005 114.403L40.7871 98.2824L25.3678 59.1799L48.12 64.1784L60.7639 47.2098L61.7365 47.9358L48.6271 65.5332L27.3338 60.8542L41.7667 97.4591L67.8327 113.368L67.2005 114.403Z" fill="#BF9D50"/>
<path d="M67.6591 115.699L33.3502 29.1124L61.7435 47.1648L76.885 85.378L67.6591 115.699ZM35.8581 32.1484L67.5097 112.024L75.5997 85.4336L60.7604 47.9811L35.8581 32.1484Z" fill="#BF9D50"/>
<path d="M68.1662 114.039L67.0025 113.684L75.5997 85.4336L60.6875 47.797L61.8164 47.3489L76.885 85.378L68.1662 114.039Z" fill="#BF9D50"/>
<path d="M96.3372 91.9084L95.5522 81.8662L86.6493 77.6284L96.1253 77.156L100.297 67.8397L100.596 77.2602C100.603 77.4686 100.731 77.6562 100.919 77.7361L110.343 81.7932L101.683 81.7863C100.443 81.7863 99.3558 82.5783 98.9737 83.7558L96.3372 91.9084ZM91.5193 78.601L96.2365 80.8449C96.5248 80.9804 96.7193 81.2652 96.7471 81.5848L97.0701 85.6976L97.8205 83.3807C98.3658 81.6994 99.915 80.5705 101.683 80.5705C101.683 80.5705 101.683 80.5705 101.687 80.5705L104.445 80.574L100.443 78.8511C99.8212 78.5836 99.4044 77.9723 99.3836 77.2984L99.2516 73.1474L96.9312 78.33L91.5193 78.601Z" fill="#BF9D50"/>
<path d="M49.9471 50.6661L49.9506 42.906C49.9506 42.8053 49.8915 42.715 49.8046 42.6733L42.1384 39.0781L49.3948 39.3178C50.2667 39.349 51.0482 38.8141 51.34 37.9943L53.782 31.2L54.1606 39.4602L61.2224 43.104L53.5631 43.2395L49.9471 50.6661ZM47.9984 40.4884L50.3188 41.5791C50.8329 41.8188 51.1664 42.3433 51.1664 42.9095V45.3966L52.7989 42.0411L56.3872 41.9786L53.4068 40.4398C53.1463 40.3043 52.9726 40.0368 52.9587 39.7416L52.851 37.383L52.4829 38.4042C52.0105 39.7207 50.753 40.5752 49.3531 40.5301L47.9984 40.4884ZM53.9626 39.3595C53.9626 39.3629 53.9626 39.3595 53.9626 39.3595V39.3595Z" fill="#BF9D50"/>
<path d="M65.1059 119.489L65.1024 118.273C66.1341 118.27 67.1763 118.238 68.201 118.179L68.2739 119.392C67.2283 119.454 66.1619 119.489 65.1059 119.489ZM61.938 119.405C60.8855 119.346 59.8226 119.256 58.7805 119.138L58.916 117.933C59.9338 118.047 60.9723 118.138 62.004 118.193L61.938 119.405ZM71.4314 119.114L71.289 117.908C72.3137 117.787 73.3419 117.637 74.3527 117.457L74.5646 118.652C73.5294 118.836 72.4769 118.992 71.4314 119.114ZM55.6473 118.69C54.6087 118.509 53.5631 118.297 52.5419 118.058L52.8198 116.877C53.8202 117.109 54.8414 117.318 55.8557 117.495L55.6473 118.69ZM77.6666 118.009L77.3852 116.828C78.3856 116.588 79.3929 116.317 80.3759 116.022L80.7268 117.186C79.7194 117.488 78.6913 117.766 77.6666 118.009ZM49.4781 117.245C48.4708 116.946 47.46 116.613 46.4665 116.255L46.8799 115.112C47.849 115.463 48.839 115.789 49.822 116.081L49.4781 117.245ZM83.735 116.182L83.3181 115.043C84.2803 114.688 85.2459 114.303 86.1907 113.896L86.6736 115.011C85.708 115.428 84.7215 115.824 83.735 116.182ZM43.514 115.091C42.5483 114.678 41.5792 114.226 40.6343 113.754L41.1762 112.667C42.1002 113.129 43.0485 113.57 43.9898 113.973L43.514 115.091ZM89.5359 113.667L88.987 112.583C89.9041 112.121 90.8176 111.625 91.7069 111.107L92.3182 112.156C91.4116 112.684 90.4737 113.191 89.5359 113.667ZM37.8415 112.25C36.9314 111.725 36.0213 111.166 35.139 110.586L35.806 109.572C36.6675 110.138 37.5567 110.683 38.4459 111.197L37.8415 112.25ZM95.0103 110.489L94.3399 109.474C95.1979 108.908 96.0489 108.307 96.8721 107.692L97.5981 108.665C96.7575 109.297 95.8856 109.909 95.0103 110.489ZM32.5408 108.773C31.6967 108.147 30.8596 107.484 30.0502 106.81L30.8283 105.879C31.6203 106.539 32.4366 107.185 33.2633 107.8L32.5408 108.773ZM100.082 106.695L99.3002 105.768C100.089 105.105 100.863 104.41 101.61 103.705L102.444 104.587C101.683 105.309 100.888 106.018 100.082 106.695ZM27.6812 104.705C26.9135 103.983 26.1598 103.232 25.4373 102.468L26.3196 101.634C27.0282 102.381 27.7646 103.118 28.5149 103.823L27.6812 104.705ZM104.684 102.343L103.802 101.509C104.507 100.759 105.202 99.9775 105.862 99.1925L106.793 99.974C106.115 100.776 105.407 101.575 104.684 102.343ZM23.3253 100.106C22.6479 99.3036 21.9845 98.4699 21.3523 97.6259L22.3249 96.8964C22.9432 97.7231 23.5928 98.5359 24.2528 99.321L23.3253 100.106ZM108.752 97.4869L107.779 96.7609C108.394 95.9377 108.992 95.0832 109.558 94.2217L110.572 94.8886C109.992 95.7675 109.381 96.6428 108.752 97.4869ZM19.5286 95.038C18.9486 94.1592 18.3858 93.2561 17.8578 92.3494L18.9069 91.7381C19.4244 92.6239 19.9732 93.5096 20.5394 94.3676L19.5286 95.038ZM112.236 92.1862L111.183 91.5783C111.698 90.6856 112.194 89.7651 112.653 88.848L113.74 89.3934C113.268 90.3313 112.764 91.2726 112.236 92.1862ZM16.3468 89.5671C15.8744 88.6292 15.4194 87.667 15.0025 86.7048L16.1175 86.222C16.5274 87.1633 16.9686 88.1047 17.434 89.0217L16.3468 89.5671ZM115.077 86.5173L113.962 86.0379C114.369 85.0931 114.754 84.1239 115.105 83.1513L116.248 83.5647C115.887 84.5581 115.494 85.5516 115.077 86.5173ZM13.825 83.7661C13.4637 82.7796 13.1268 81.7688 12.8211 80.7615L13.9848 80.4106C14.2835 81.3971 14.6135 82.3836 14.9678 83.3493L13.825 83.7661ZM117.238 80.553L116.074 80.2057C116.37 79.2192 116.637 78.2118 116.87 77.2114L118.051 77.4893C117.815 78.514 117.54 79.5457 117.238 80.553ZM11.9979 77.7012C11.7547 76.68 11.5358 75.6379 11.3517 74.5993L12.5467 74.3874C12.7274 75.4017 12.9392 76.4229 13.1789 77.4199L11.9979 77.7012ZM118.686 74.3874L117.492 74.179C117.669 73.1647 117.815 72.133 117.933 71.1118L119.138 71.2507C119.016 72.2963 118.867 73.3488 118.686 74.3874ZM10.8863 71.4626C10.7613 70.417 10.6675 69.3576 10.605 68.3051L11.8172 68.2321C11.8798 69.2603 11.9701 70.2989 12.0917 71.3167L10.8863 71.4626ZM119.405 68.0932L118.193 68.0237C118.249 67.0198 118.277 66.0021 118.277 64.9947V64.9253H119.492V65.0051C119.492 66.0264 119.465 67.0685 119.405 68.0932ZM11.7234 65.1371H10.5077V65.0017C10.5077 63.9457 10.5389 62.8793 10.598 61.8303L11.8103 61.8997C11.7512 62.9245 11.7234 63.9665 11.7234 64.9982V65.1371ZM118.186 61.8303C118.127 60.8021 118.037 59.7635 117.915 58.7457L119.121 58.6033C119.242 59.6488 119.336 60.7083 119.399 61.7608L118.186 61.8303ZM12.0778 58.8152L10.8724 58.6762C10.994 57.6307 11.1469 56.5747 11.3275 55.5396L12.5224 55.748C12.3452 56.7588 12.1959 57.7905 12.0778 58.8152ZM117.467 55.6785C117.287 54.6642 117.078 53.643 116.839 52.646L118.02 52.3647C118.263 53.3859 118.478 54.4315 118.662 55.4666L117.467 55.6785ZM13.1442 52.712L11.9631 52.4341C12.2028 51.4129 12.4807 50.3812 12.7794 49.3739L13.943 49.7212C13.6513 50.7078 13.3804 51.7151 13.1442 52.712ZM116.036 49.6518C115.741 48.6653 115.411 47.6753 115.06 46.7131L116.199 46.2963C116.561 47.2828 116.897 48.2936 117.2 49.3044L116.036 49.6518ZM14.9192 46.7791L13.7763 46.3623C14.1376 45.3723 14.5301 44.3788 14.9504 43.4132L16.0655 43.8925C15.6556 44.8408 15.27 45.81 14.9192 46.7791ZM113.91 43.8404C113.504 42.8991 113.063 41.9577 112.597 41.0407L113.681 40.4953C114.153 41.4367 114.605 42.3989 115.022 43.3611L113.91 43.8404ZM17.3785 41.0824L16.2947 40.537C16.7671 39.5957 17.2743 38.6578 17.8023 37.7442L18.8548 38.3521C18.3372 39.2448 17.8405 40.1653 17.3785 41.0824ZM111.128 38.3174C110.614 37.4316 110.065 36.5458 109.499 35.6844L110.513 35.014C111.093 35.8928 111.652 36.7994 112.18 37.706L111.128 38.3174ZM20.4839 35.7156L19.4696 35.0487C20.0462 34.1699 20.6611 33.298 21.2898 32.4539L22.2624 33.1799C21.6476 34.0066 21.0466 34.8611 20.4839 35.7156ZM107.717 33.1521C107.102 32.3289 106.452 31.5091 105.792 30.7241L106.723 29.9425C107.401 30.7449 108.061 31.582 108.693 32.4261L107.717 33.1521ZM24.1867 30.7484L23.2558 29.9668C23.9297 29.1609 24.6418 28.3655 25.3643 27.6013L26.2466 28.4349C25.5415 29.1852 24.8467 29.9633 24.1867 30.7484ZM103.732 28.4141C103.027 27.6673 102.288 26.9309 101.541 26.2223L102.374 25.34C103.142 26.0625 103.896 26.8162 104.618 27.5804L103.732 28.4141ZM28.4419 26.2431L27.6083 25.3608C28.3725 24.6383 29.1714 23.9297 29.9738 23.2523L30.7554 24.1832C29.9669 24.8432 29.1887 25.5345 28.4419 26.2431ZM99.2237 24.1624C98.4318 23.4989 97.6155 22.8528 96.7922 22.238L97.5182 21.2654C98.3588 21.8907 99.196 22.5541 100.005 23.2315L99.2237 24.1624ZM33.1834 22.2589L32.4574 21.2863C33.3015 20.6575 34.1734 20.0462 35.0487 19.4661L35.7157 20.4804C34.8612 21.0466 34.0067 21.644 33.1834 22.2589ZM94.2496 20.4595C93.3881 19.8933 92.5023 19.3445 91.6096 18.8304L92.2175 17.7779C93.1276 18.3059 94.0377 18.8651 94.9165 19.4452L94.2496 20.4595ZM38.3521 18.8547L37.7443 17.8022C38.6543 17.2777 39.5888 16.7706 40.5301 16.2981L41.0755 17.3819C40.155 17.8439 39.2379 18.3406 38.3521 18.8547ZM88.8828 17.3611C87.9623 16.8991 87.014 16.4579 86.0692 16.0515L86.5485 14.9365C87.5142 15.3533 88.4833 15.8049 89.4247 16.2773L88.8828 17.3611ZM43.8752 16.0724L43.3924 14.9573C44.3545 14.5405 45.3445 14.148 46.331 13.7867L46.7479 14.9261C45.7823 15.2804 44.8166 15.6659 43.8752 16.0724ZM83.1861 14.9052C82.2204 14.5544 81.2305 14.2279 80.244 13.9326L80.5913 12.7689C81.6021 13.0712 82.6129 13.4046 83.5994 13.7624L83.1861 14.9052ZM49.6901 13.9535L49.3427 12.7898C50.3501 12.4876 51.3783 12.2132 52.403 11.97L52.6843 13.151C51.6769 13.3873 50.6731 13.6582 49.6901 13.9535ZM77.2497 13.1337C76.2493 12.8975 75.228 12.6891 74.2137 12.5119L74.4222 11.317C75.4608 11.4976 76.5029 11.713 77.5276 11.9526L77.2497 13.1337ZM55.7167 12.5258L55.5049 11.3309C56.54 11.1502 57.5925 10.9939 58.6416 10.8724L58.7805 12.0777C57.7558 12.1993 56.7241 12.3486 55.7167 12.5258ZM71.1501 12.0708C70.1323 11.9527 69.0936 11.8658 68.062 11.8068L68.1314 10.5945C69.1839 10.6535 70.2469 10.7438 71.289 10.8654L71.1501 12.0708ZM61.8651 11.8102L61.7956 10.5979C62.8446 10.5389 63.911 10.5076 64.9635 10.5042V11.7199C63.9353 11.7199 62.8933 11.7512 61.8651 11.8102Z" fill="#BF9D50"/>
<path d="M99.2099 41.7459C99.2099 40.0161 100.61 38.6162 102.34 38.6162C104.07 38.6162 105.469 40.0161 105.469 41.7459C105.469 43.4758 104.07 44.8757 102.34 44.8757C100.61 44.8757 99.2099 43.4723 99.2099 41.7459Z" fill="#BF9D50"/>
<path d="M24.3083 24.3049C24.3083 21.9602 26.2119 20.0566 28.5566 20.0566C30.9013 20.0566 32.8048 21.9602 32.8048 24.3049C32.8048 26.6496 30.9013 28.5531 28.5566 28.5531C26.2119 28.5531 24.3083 26.6496 24.3083 24.3049Z" fill="#BF9D50"/>
<path d="M26.3196 95.8543C26.3196 94.8678 27.122 94.0654 28.1085 94.0654C29.095 94.0654 29.8974 94.8678 29.8974 95.8543C29.8974 96.8408 29.095 97.6433 28.1085 97.6433C27.1185 97.6433 26.3196 96.8408 26.3196 95.8543Z" fill="#BF9D50"/>
<path d="M90.7134 104.573C90.7134 103.337 91.7139 102.336 92.9505 102.336C94.1871 102.336 95.1875 103.337 95.1875 104.573C95.1875 105.806 94.1871 106.81 92.9505 106.81C91.7139 106.81 90.7134 105.806 90.7134 104.573Z" fill="#BF9D50"/>
<path d="M134.022 56.3267C134.564 54.0438 133.153 51.7538 130.87 51.2119C128.587 50.6699 126.297 52.0812 125.755 54.364C125.213 56.6469 126.624 58.9369 128.907 59.4789C131.19 60.0209 133.48 58.6096 134.022 56.3267Z" fill="#BF9D50"/>
<path d="M88.2541 54.0424C88.2541 52.6843 89.3552 51.5831 90.7134 51.5831C92.0716 51.5831 93.1727 52.6843 93.1727 54.0424C93.1727 55.4006 92.0716 56.5018 90.7134 56.5018C89.3552 56.5018 88.2541 55.4006 88.2541 54.0424Z" fill="#BF9D50"/>
<path d="M18.9416 57.6204C18.9416 56.8805 19.5425 56.2795 20.2824 56.2795C21.0223 56.2795 21.6232 56.8805 21.6232 57.6204C21.6232 58.3602 21.0223 58.9612 20.2824 58.9612C19.5425 58.9612 18.9416 58.3602 18.9416 57.6204Z" fill="#BF9D50"/>
<path d="M27.8827 84.8986C31.5872 84.8986 34.5903 81.8955 34.5903 78.1911C34.5903 74.4866 31.5872 71.4835 27.8827 71.4835C24.1782 71.4835 21.1751 74.4866 21.1751 78.1911C21.1751 81.8955 24.1782 84.8986 27.8827 84.8986Z" fill="#BF9D50"/>
<path d="M90.1542 20.998C88.7092 20.998 87.5351 19.8239 87.5351 18.3789C87.5351 16.9338 88.7092 15.7598 90.1542 15.7598C91.5992 15.7598 92.7733 16.9338 92.7733 18.3789C92.7733 19.8239 91.5992 20.998 90.1542 20.998ZM90.1542 16.9755C89.3796 16.9755 88.7508 17.6043 88.7508 18.3789C88.7508 19.1535 89.3796 19.7822 90.1542 19.7822C90.9288 19.7822 91.5575 19.1535 91.5575 18.3789C91.5575 17.6043 90.9288 16.9755 90.1542 16.9755Z" fill="#BF9D50"/>
<path d="M55.2756 112.893C53.0907 112.893 51.3157 111.114 51.3157 108.933C51.3157 106.751 53.0941 104.973 55.2756 104.973C57.457 104.973 59.2355 106.751 59.2355 108.933C59.2355 111.114 57.457 112.893 55.2756 112.893ZM55.2756 106.185C53.7611 106.185 52.528 107.418 52.528 108.933C52.528 110.447 53.7611 111.68 55.2756 111.68C56.7901 111.68 58.0233 110.447 58.0233 108.933C58.0198 107.418 56.7901 106.185 55.2756 106.185Z" fill="#BF9D50"/>
<path d="M34.816 117.926C32.2629 117.926 30.1857 115.848 30.1857 113.295C30.1857 110.742 32.2629 108.665 34.816 108.665C37.3691 108.665 39.4464 110.742 39.4464 113.295C39.4464 115.845 37.3691 117.926 34.816 117.926ZM34.816 109.874C32.9333 109.874 31.398 111.406 31.398 113.292C31.398 115.178 32.9299 116.71 34.816 116.71C36.7022 116.71 38.2341 115.178 38.2341 113.292C38.2341 111.406 36.6987 109.874 34.816 109.874Z" fill="#BF9D50"/>
<path d="M116.314 94.4476C113.945 94.4476 112.017 92.5197 112.017 90.1507C112.017 87.7817 113.945 85.8539 116.314 85.8539C118.683 85.8539 120.611 87.7817 120.611 90.1507C120.611 92.5197 118.683 94.4476 116.314 94.4476ZM116.314 87.0696C114.615 87.0696 113.233 88.4521 113.233 90.1507C113.233 91.8493 114.615 93.2318 116.314 93.2318C118.013 93.2318 119.395 91.8493 119.395 90.1507C119.395 88.4521 118.013 87.0696 116.314 87.0696Z" fill="#BF9D50"/>
<path d="M117.321 48.1651C115.508 48.1651 114.032 46.6888 114.032 44.8756C114.032 43.0623 115.508 41.5861 117.321 41.5861C119.135 41.5861 120.611 43.0623 120.611 44.8756C120.611 46.6888 119.135 48.1651 117.321 48.1651ZM117.321 42.7983C116.178 42.7983 115.244 43.7293 115.244 44.8756C115.244 46.0219 116.175 46.9528 117.321 46.9528C118.468 46.9528 119.399 46.0219 119.399 44.8756C119.395 43.7293 118.464 42.7983 117.321 42.7983Z" fill="#BF9D50"/>
<path d="M52.9275 36.7612C49.2628 36.7612 46.2824 33.7809 46.2824 30.1162C46.2824 26.4516 49.2628 23.4712 52.9275 23.4712C56.5922 23.4712 59.5725 26.4516 59.5725 30.1162C59.569 33.7809 56.5887 36.7612 52.9275 36.7612ZM52.9275 24.687C49.9332 24.687 47.4982 27.122 47.4982 30.1162C47.4982 33.1105 49.9332 35.5455 52.9275 35.5455C55.9218 35.5455 58.3567 33.1105 58.3567 30.1162C58.3567 27.1254 55.9218 24.687 52.9275 24.687Z" fill="#BF9D50"/>
</svg>
