<svg width="189" height="130" viewBox="0 0 189 130" fill="none" xmlns="http://www.w3.org/2000/svg">
<path d="M116.52 106.385C114.682 105.225 112.71 103.146 110.652 100.201C105.523 92.8547 101.134 81.964 99.9106 78.8032C99.5133 77.778 99.4423 76.7209 99.7084 75.7489C99.9283 74.9472 100.319 74.4753 100.868 74.3441C101.798 74.1277 102.575 75.0075 103.266 75.7808C103.348 75.8695 103.426 75.9617 103.504 76.0433C103.589 76.1356 103.834 76.1959 104.072 76.2526C104.448 76.3449 104.916 76.4584 105.303 76.806C107.463 78.7394 110.017 83.1666 112.068 86.7247C113.057 88.4417 114.182 90.3892 114.53 90.6766C114.579 90.7156 114.682 90.783 114.817 90.8752C115.25 91.1661 115.97 91.6521 116.69 92.2658C118.336 93.6671 120.273 94.5788 122.291 94.9016L123.448 95.0861C124.587 94.3837 129.66 91.1732 134.534 86.8879C141.047 81.1623 146.9 83.273 151.764 86.0933C157.213 89.2505 188.373 92.7093 188.686 92.7447L188.519 94.2701C187.224 94.1282 156.72 90.7369 150.994 87.42C144.679 83.7626 140.206 83.9399 135.545 88.0408C129.933 92.9753 124.058 96.5121 124.001 96.5441L123.76 96.686L122.05 96.4128C119.755 96.0439 117.559 95.0151 115.697 93.4294C115.041 92.8724 114.363 92.4148 113.958 92.1417C113.781 92.021 113.65 91.9324 113.583 91.8792C113.04 91.4535 112.277 90.1551 110.737 87.4874C108.847 84.206 106.257 79.7149 104.281 77.9448C104.178 77.8525 103.941 77.7958 103.706 77.739C103.288 77.6361 102.766 77.5084 102.369 77.0721C102.287 76.9834 102.206 76.8912 102.121 76.7954C101.897 76.5435 101.514 76.1143 101.262 75.9263C101.241 75.983 101.216 76.054 101.188 76.1497C101.01 76.8025 101.06 77.5262 101.34 78.2463C102.546 81.3681 106.878 92.1133 111.908 99.3182C113.845 102.092 115.672 104.033 117.336 105.083L116.52 106.385Z" fill="#BF9D50"/>
<path d="M185.596 118.754C180.055 114.576 154.814 107.449 146.521 105.111L145.659 104.866C141.313 103.639 132.842 108.712 126.655 112.415C122.04 115.179 119.354 116.74 117.903 116.64C113.831 116.363 97.4167 106.697 96.8243 106.26C96.5866 106.086 95.87 105.558 91.1944 90.9743L91.166 90.8892L91.1589 90.797L90.3324 79.7254C90.2686 78.8669 90.5878 78.0545 91.1838 77.5472C91.7514 77.0612 92.319 77.0506 92.6915 77.1286C93.7096 77.3379 94.451 78.4305 94.7632 78.9733C98.9031 80.8925 99.5735 87.9022 99.6728 89.5802C102.529 92.0705 103.905 96.7815 104.246 98.1012C105.97 98.9384 109.797 99.1867 111.199 99.2115L111.174 100.744C110.588 100.733 105.377 100.609 103.181 99.2647L102.905 99.0945L102.834 98.7787C102.819 98.722 101.489 92.9716 98.4454 90.5522L98.1652 90.3323L98.1546 89.9775C98.151 89.8959 97.8601 81.8432 93.9295 80.2859L93.6564 80.1759L93.5251 79.9134C93.2768 79.4238 92.7412 78.7037 92.3793 78.6292C92.3438 78.6221 92.2906 78.6115 92.1735 78.7143C91.9501 78.9059 91.8295 79.2429 91.8579 79.6118L92.6773 90.5912C94.7312 96.9944 97.1897 104.139 97.7892 105.065C99.2614 106.062 114.547 114.87 117.999 115.104C119.035 115.168 122.511 113.1 125.86 111.096C132.646 107.034 141.089 101.979 146.07 103.383L146.929 103.628C155.29 105.987 180.736 113.171 186.507 117.523L185.596 118.754Z" fill="#BF9D50"/>
<path d="M107.726 111.986L93.8479 108.08C93.4258 107.963 93.0711 107.69 92.8405 107.321L80.8713 87.8989C80.2186 87.122 77.4658 83.72 77.6396 81.7724C77.6822 81.3006 77.8808 80.9068 78.2143 80.6337C79.0196 79.9703 79.722 79.9242 80.1725 80.0022C80.6407 80.0838 80.9955 80.3215 81.2438 80.5521C82.0739 80.3286 83.72 80.0838 85.3696 80.9849C87.0972 81.9285 91.8046 89.5413 92.7305 91.0596L91.4215 91.8578C89.2079 88.2323 85.6391 82.8792 84.6352 82.3294C83.0105 81.4425 81.3148 82.1378 81.2971 82.1449L80.6763 82.4039L80.3322 81.8256C80.3322 81.8256 80.1476 81.5489 79.8993 81.5099C79.6652 81.4709 79.3849 81.6553 79.1934 81.8114C78.8777 82.2194 80.1512 84.6707 82.0846 86.9517L82.152 87.0439L94.1495 106.516C94.1743 106.558 94.2168 106.59 94.2665 106.605L108.144 110.51L107.726 111.986Z" fill="#BF9D50"/>
<path d="M93.6635 107.963L91.5492 107.608C91.2228 107.555 90.9142 107.417 90.6552 107.208L77.1571 96.4021C75.4118 95.3449 71.5558 92.7376 72.3362 90.7616C72.6377 90.006 73.1592 89.6974 73.5459 89.5768C74.3724 89.3143 75.277 89.6619 75.7666 89.9138C76.923 89.5555 80.2683 89.2114 86.2706 93.8763L85.3305 95.086C78.906 90.0912 76.1071 91.4144 76.0823 91.4286L75.6779 91.6556L75.2912 91.4037C74.9684 91.198 74.337 90.9355 74.0106 91.0419C73.9645 91.0561 73.8581 91.0916 73.7658 91.3292C73.6559 91.8223 75.5183 93.6244 77.9944 95.1179L78.0795 95.1747L91.6166 106.009C91.6698 106.051 91.7372 106.083 91.8081 106.094L93.9224 106.448L93.6635 107.963Z" fill="#BF9D50"/>
<path d="M101.113 92.9609L100.943 91.4355C102.809 91.2262 106.065 90.9247 106.888 91.2298L106.356 92.6665C105.895 92.5423 103.274 92.7197 101.113 92.9609Z" fill="#BF9D50"/>
<path d="M175.975 92.6631C174.425 92.6631 165.308 90.3395 164.222 90.0628C158.962 88.7148 152.324 86.8665 150.582 85.7065C148.138 84.0782 145.474 83.5 142.434 83.9292C140.298 84.2308 137.006 83.8015 133.824 83.3829C132.753 83.241 131.742 83.1098 130.784 83.0069C128.173 82.7266 119.226 87.7037 113.849 91.1235L113.025 89.8286C114.441 88.9276 126.974 81.0558 130.951 81.4815C131.926 81.5879 132.944 81.7227 134.026 81.8611C137.106 82.2655 140.291 82.6841 142.221 82.4074C145.651 81.9214 148.667 82.5812 151.437 84.4259C154.222 86.2812 174.343 91.0845 175.872 91.1519C175.659 91.1448 175.308 91.2973 175.188 91.6662L176.646 92.1487L176.16 92.6382C176.113 92.656 176.053 92.6631 175.975 92.6631Z" fill="#BF9D50"/>
<path d="M124.15 98.2255C123.934 97.6685 123.246 96.6859 122.997 96.356L122.157 95.235L123.554 95.1321C125.81 94.9689 127.159 95.2704 127.801 96.0828L126.598 97.0335C126.541 96.9626 126.243 96.6788 125.037 96.6291C125.254 96.9803 125.459 97.3528 125.583 97.6721L124.15 98.2255Z" fill="#BF9D50"/>
<path d="M91.5954 85.5326C91.5918 85.5326 91.5847 85.5326 91.5811 85.5326L91.6095 84.0001C91.6095 84.0001 91.5918 83.9966 91.5634 84.0001C91.9678 83.954 93.0959 83.053 93.4578 79.4984L94.9831 79.6545C94.4013 85.3269 91.943 85.5326 91.5954 85.5326Z" fill="#BF9D50"/>
<path d="M81.5205 87.8313L80.9175 86.4195L80.8891 86.4337C80.9033 86.4266 82.2584 85.6319 80.3109 81.7829L81.6802 81.0876C82.826 83.3438 83.163 85.153 82.6877 86.4585C82.3223 87.4624 81.6021 87.7959 81.5205 87.8313Z" fill="#BF9D50"/>
<path d="M77.7319 96.4482L77.1075 95.0469C77.1075 95.0469 77.0933 95.0505 77.0756 95.0647C77.0969 95.0505 77.1998 94.9795 77.2282 94.7738C77.2743 94.4368 77.1643 93.4222 75.1458 91.2937L76.2596 90.2366C78.1717 92.2515 78.9771 93.8479 78.7252 95.1143C78.5372 96.065 77.8135 96.4127 77.7319 96.4482Z" fill="#BF9D50"/>
<path d="M101.553 81.6694L101.468 80.9067L101.361 80.1476C101.376 80.144 101.706 80.0837 101.972 79.697C102.255 79.2855 102.521 78.4306 102.188 76.7065L103.696 76.4156C104.054 78.2674 103.884 79.69 103.185 80.6407C102.525 81.5346 101.649 81.6588 101.553 81.6694Z" fill="#BF9D50"/>
<path d="M90.226 49.9233C89.4881 49.9233 88.7609 49.299 88.1081 48.7385C88.0159 48.6604 87.9272 48.5824 87.8385 48.5079C87.7428 48.4263 87.4909 48.4015 87.2461 48.3766C86.863 48.3376 86.384 48.2844 85.9513 47.9935C83.5496 46.3688 80.4244 42.3247 77.9128 39.0752C76.6995 37.5072 75.3266 35.7264 74.9435 35.4887C74.8867 35.4568 74.7768 35.4036 74.6314 35.3291C74.1666 35.0985 73.3827 34.7119 72.588 34.201C70.7682 33.0339 68.7248 32.3918 66.6815 32.3422L65.5109 32.3138C64.475 33.1652 59.881 37.0283 55.6312 41.9274C49.9482 48.4795 43.8643 47.1741 38.6637 45.0349C32.8388 42.6404 1.49704 43.4102 1.18132 43.4173L1.14226 41.8848C2.44417 41.8529 33.1262 41.1008 39.2491 43.6195C45.9963 46.3936 50.4093 45.6132 54.4747 40.927C59.3702 35.283 64.7162 30.987 64.7694 30.9445L64.9894 30.7706L66.7205 30.8132C69.0441 30.87 71.3606 31.5936 73.4182 32.9133C74.1454 33.378 74.8761 33.7399 75.316 33.9562C75.5076 34.052 75.6495 34.123 75.724 34.1655C76.32 34.5132 77.2494 35.698 79.1331 38.1351C81.4496 41.1292 84.6209 45.2336 86.8168 46.72C86.9303 46.798 87.1752 46.8229 87.4129 46.8477C87.8421 46.8938 88.3742 46.9506 88.8283 47.3302C88.9205 47.4082 89.0163 47.4898 89.1121 47.5714C89.3675 47.7913 89.8038 48.1638 90.077 48.3199C90.0912 48.2631 90.1053 48.1851 90.1195 48.0893C90.2082 47.4188 90.0592 46.7058 89.6867 46.0318C88.0691 43.1016 82.3329 33.0375 76.3767 26.574C74.0815 24.0837 72.0134 22.4093 70.2219 21.5934L70.8568 20.1992C72.8328 21.1003 75.0676 22.8953 77.5012 25.5381C83.5744 32.1258 89.3888 42.3247 91.0277 45.2939C91.5598 46.2588 91.7691 47.2947 91.6378 48.2951C91.5279 49.1216 91.2051 49.6395 90.6765 49.8417C90.5275 49.8985 90.375 49.9233 90.226 49.9233Z" fill="#BF9D50"/>
<path d="M98.5199 45.9821C98.4809 45.9821 98.4419 45.9821 98.4029 45.9785C97.3635 45.9111 96.4837 44.9285 96.1006 44.4283C91.7408 43.0838 90.1338 36.2266 89.8074 34.577C86.6431 32.4946 84.6459 28.0107 84.1279 26.7478C82.3081 26.1518 78.4803 26.4214 77.0897 26.5846L76.9088 25.0627C77.4906 24.9953 82.6699 24.4171 85.0254 25.4494L85.3234 25.5806L85.4369 25.8857C85.4582 25.9425 87.5512 31.4588 90.8929 33.4489L91.198 33.6298L91.2583 33.981C91.2724 34.0626 92.6453 42.0018 96.7497 43.0164L97.0335 43.0873L97.1967 43.3286C97.5089 43.7826 98.1368 44.4212 98.5058 44.446C98.5377 44.446 98.5944 44.4531 98.7008 44.336C98.8995 44.1161 98.9704 43.7684 98.8924 43.4031L96.6043 32.633C93.706 26.5668 90.3076 19.816 89.5874 18.9788C87.9946 18.1913 71.6728 11.5185 68.2105 11.7527C67.164 11.8236 64.0103 14.3459 60.963 16.7865C54.7869 21.7246 47.096 27.8723 41.9771 27.1486L41.0937 27.0245C32.4876 25.8112 6.30383 22.1219 0 18.5851L0.752102 17.2477C6.80761 20.6426 32.7785 24.3036 41.3102 25.5062L42.1935 25.6303C46.6633 26.2618 54.3754 20.0927 60.0088 15.5875C64.209 12.228 66.6567 10.323 68.1111 10.2237C72.1871 9.95056 89.7506 17.3186 90.3962 17.6698C90.6517 17.8082 91.4357 18.2374 98.0339 32.0583L98.073 32.1399L98.0907 32.2286L100.4 43.0873C100.577 43.9281 100.372 44.7759 99.8502 45.3612C99.3926 45.8614 98.8924 45.9821 98.5199 45.9821Z" fill="#BF9D50"/>
<path d="M107.013 41.516C106.434 41.516 105.799 41.4238 105.147 41.1719C103.309 40.4695 97.6188 33.5591 96.4978 32.1791L97.6863 31.2107C100.368 34.5063 104.629 39.3308 105.693 39.7388C107.442 40.4092 109.006 39.4833 109.024 39.4762L109.606 39.125L110.024 39.6607C110.024 39.6607 110.244 39.909 110.496 39.9161C110.5 39.9161 110.503 39.9161 110.507 39.9161C110.741 39.9161 110.989 39.7033 111.156 39.5188C111.411 39.0718 109.822 36.8156 107.601 34.8149L107.523 34.7333L93.0143 17.0563C92.9824 17.0173 92.9362 16.9925 92.8866 16.9854L78.6081 14.9846L78.8209 13.4663L93.0994 15.4671C93.5322 15.5274 93.9224 15.7473 94.1991 16.0843L108.673 33.7187C109.425 34.3998 112.61 37.401 112.703 39.3556C112.724 39.8274 112.582 40.246 112.288 40.5618C111.582 41.328 110.886 41.4664 110.432 41.4486C109.957 41.4309 109.574 41.2429 109.297 41.0478C108.797 41.2571 107.981 41.516 107.013 41.516Z" fill="#BF9D50"/>
<path d="M111.156 31.4623C109.35 31.4623 106.558 30.8557 102.518 28.5144L103.288 27.1877C110.287 31.2495 112.937 29.5715 112.962 29.5538L113.331 29.2771L113.731 29.4864C114.079 29.6496 114.739 29.8199 115.048 29.6744C115.09 29.6531 115.189 29.607 115.253 29.3551C115.296 28.8514 113.21 27.3189 110.553 26.1695L110.464 26.1234L95.5898 17.2087C95.5295 17.1732 95.462 17.1519 95.3911 17.1484L93.2484 17.0845L93.2945 15.552L95.4372 15.6159C95.7671 15.6265 96.0935 15.7223 96.3773 15.8926L111.209 24.7789C113.082 25.5913 117.254 27.6559 116.747 29.7205C116.552 30.5116 116.073 30.8841 115.707 31.0579C114.923 31.4304 113.983 31.2069 113.458 31.026C113.036 31.2247 112.291 31.4623 111.156 31.4623Z" fill="#BF9D50"/>
<path d="M82.8083 33.9492C82.6593 33.9492 82.5351 33.9386 82.4393 33.9173L82.7728 32.4203C83.241 32.4841 85.82 31.9556 87.9308 31.427L88.3033 32.9134C86.6892 33.3213 83.9931 33.9492 82.8083 33.9492Z" fill="#BF9D50"/>
<path d="M44.783 47.9756C42.8745 47.9756 41.0334 47.5357 39.2207 46.6559C36.2124 45.1944 15.6301 43.1439 14.1011 43.2823C14.3104 43.2646 14.6403 43.0623 14.7113 42.6792L13.2036 42.3954L13.6187 41.8456C14.3459 41.4802 24.6158 42.6615 25.7865 42.7963C31.1822 43.4242 38.0075 44.3607 39.8876 45.276C42.5269 46.5601 45.2478 46.7765 48.2028 45.9393C50.2816 45.3505 53.5985 45.3363 56.8054 45.3185C57.8838 45.315 58.9055 45.3079 59.8704 45.283C62.8077 45.205 72.1907 37.805 75.5572 34.96L76.547 36.1306C75.2663 37.2126 63.911 46.7056 59.9094 46.8156C58.9268 46.8404 57.9016 46.8475 56.8125 46.851C53.7049 46.8652 50.4945 46.8794 48.6179 47.4115C47.3053 47.7911 46.0317 47.9756 44.783 47.9756Z" fill="#BF9D50"/>
<path d="M63.1518 32.5762C62.1975 32.5762 61.5164 32.3598 61.0659 31.927L62.1337 30.8237C62.1976 30.8876 62.531 31.1288 63.7336 31.0153C63.4746 30.696 63.2192 30.3555 63.0524 30.0539L64.3969 29.3125C64.6878 29.8375 65.5038 30.7137 65.7912 31.0082L66.7773 32.0086L65.4045 32.2995C64.5247 32.4839 63.7797 32.5762 63.1518 32.5762Z" fill="#BF9D50"/>
<path d="M95.799 43.7862C95.6075 37.9968 98.0943 37.5356 98.3816 37.5037L98.5625 39.0255C98.5625 39.0255 98.5802 39.0255 98.6086 39.0184C98.2148 39.1178 97.2181 40.1643 97.3351 43.733L95.799 43.7862Z" fill="#BF9D50"/>
<path d="M108.79 40.5721C107.353 38.4898 106.771 36.7444 107.066 35.3857C107.293 34.3463 107.96 33.9206 108.034 33.8745L108.822 35.1906L108.85 35.1729C108.836 35.1835 107.601 36.152 110.049 39.703L108.79 40.5721Z" fill="#BF9D50"/>
<path d="M112.923 30.7778C110.755 29.036 109.744 27.5638 109.822 26.2761C109.882 25.3077 110.553 24.8678 110.627 24.8181L111.433 26.1236C111.433 26.1236 111.447 26.1165 111.465 26.1023C111.447 26.1165 111.351 26.2016 111.351 26.4109C111.351 26.7515 111.596 27.7448 113.88 29.5788L112.923 30.7778Z" fill="#BF9D50"/>
<path d="M87.6044 48.1672C86.9978 46.3793 86.9764 44.9497 87.5405 43.9103C88.0726 42.9347 88.9205 42.6971 89.0163 42.6722L89.3922 44.1586L89.2043 43.4137L89.4136 44.1515C89.3994 44.1551 89.0801 44.2615 88.8708 44.6801C88.6437 45.1271 88.4948 46.0068 89.0588 47.6706L87.6044 48.1672Z" fill="#BF9D50"/>
<path d="M107.268 62.946C101.784 58.0399 96.2318 55.7659 90.7688 56.1881C82.9573 56.7912 77.9483 62.797 77.8986 62.8573L76.7102 61.8853C76.9301 61.6192 82.1626 55.319 90.6304 54.6591C96.5333 54.1944 102.475 56.5996 108.29 61.8002L107.268 62.946Z" fill="#BF9D50"/>
<path d="M92.4005 70.5057C92.0954 70.5057 91.7869 70.4986 91.4818 70.4808C82.7018 70.0197 76.9549 63.1518 76.7137 62.8609L77.8986 61.8854C77.9518 61.9528 83.4752 68.5333 91.5776 68.9519C96.8917 69.2251 102.16 66.8305 107.243 61.8286L108.318 62.9212C103.199 67.9551 97.8494 70.5057 92.4005 70.5057Z" fill="#BF9D50"/>
<path d="M77.5154 60.665C77.2919 60.665 77.0685 60.5656 76.9159 60.3776L72.7193 55.1487C72.4532 54.8188 72.5065 54.3363 72.8364 54.0703C73.1663 53.8042 73.6487 53.8574 73.9148 54.1873L78.1115 59.4163C78.3775 59.7462 78.3243 60.2286 77.9944 60.4947C77.8525 60.6082 77.6822 60.665 77.5154 60.665Z" fill="#BF9D50"/>
<path d="M106.381 60.4486C106.218 60.4486 106.051 60.3954 105.909 60.2854C105.576 60.0265 105.516 59.544 105.775 59.2105L109.893 53.9213C110.152 53.5878 110.635 53.5275 110.968 53.7865C111.301 54.0455 111.362 54.5279 111.103 54.8614L106.984 60.1506C106.835 60.3493 106.608 60.4486 106.381 60.4486Z" fill="#BF9D50"/>
<path d="M101.869 57.2205C101.769 57.2205 101.67 57.2027 101.574 57.1602C101.184 56.997 101 56.5464 101.163 56.1562L103.745 49.9695C103.909 49.5792 104.356 49.3948 104.749 49.558C105.139 49.7211 105.324 50.1717 105.161 50.5619L102.578 56.7486C102.454 57.0431 102.167 57.2205 101.869 57.2205Z" fill="#BF9D50"/>
<path d="M95.7494 55.3865C95.721 55.3865 95.6926 55.3865 95.6607 55.3829C95.2385 55.3368 94.9369 54.9537 94.983 54.5351L95.7387 47.873C95.7848 47.4508 96.1715 47.1493 96.5865 47.199C97.0087 47.2451 97.3102 47.6282 97.2641 48.0468L96.5085 54.7089C96.4659 55.0956 96.136 55.3865 95.7494 55.3865Z" fill="#BF9D50"/>
<path d="M89.3178 55.3084C88.9524 55.3084 88.6296 55.0458 88.5622 54.6734L87.3951 48.0716C87.3206 47.653 87.6008 47.2556 88.0159 47.1811C88.4309 47.1102 88.8318 47.3869 88.9063 47.8019L90.0734 54.4038C90.1479 54.8224 89.8677 55.2197 89.4526 55.2942C89.4065 55.3048 89.3639 55.3084 89.3178 55.3084Z" fill="#BF9D50"/>
<path d="M83.7128 56.8266C83.4219 56.8266 83.1453 56.6599 83.0176 56.3797L80.208 50.2922C80.0306 49.9091 80.1974 49.4515 80.584 49.2741C80.9672 49.0967 81.4247 49.2635 81.6021 49.6501L84.4118 55.7376C84.5891 56.1207 84.4224 56.5783 84.0357 56.7557C83.9293 56.8018 83.8228 56.8266 83.7128 56.8266Z" fill="#BF9D50"/>
<path d="M73.6843 72.0097C73.5105 72.0097 73.3366 71.9529 73.1947 71.8323C72.8683 71.5627 72.8222 71.0767 73.0953 70.7539L77.3771 65.5959C77.6468 65.2695 78.1328 65.2234 78.4556 65.4966C78.782 65.7662 78.8281 66.2522 78.5549 66.575L74.2731 71.733C74.1206 71.9175 73.9042 72.0097 73.6843 72.0097Z" fill="#BF9D50"/>
<path d="M110.854 72.8896C110.62 72.8896 110.393 72.7832 110.241 72.5845L106.207 67.2278C105.952 66.8908 106.019 66.4084 106.36 66.153C106.697 65.8975 107.179 65.9649 107.435 66.3055L111.468 71.6622C111.724 71.9992 111.656 72.4816 111.316 72.737C111.177 72.8399 111.018 72.8896 110.854 72.8896Z" fill="#BF9D50"/>
<path d="M104.742 76.9159C104.437 76.9159 104.15 76.7314 104.029 76.4334L101.546 70.2077C101.39 69.8139 101.581 69.3669 101.975 69.2108C102.369 69.0547 102.816 69.2463 102.972 69.6401L105.455 75.8659C105.611 76.2596 105.42 76.7066 105.026 76.8627C104.93 76.8982 104.834 76.9159 104.742 76.9159Z" fill="#BF9D50"/>
<path d="M96.7568 79.0975C96.3666 79.0975 96.0332 78.7995 95.9942 78.4057L95.3485 71.733C95.3059 71.3108 95.6145 70.9348 96.0367 70.8958C96.4553 70.8532 96.8349 71.1618 96.8739 71.584L97.5196 78.2567C97.5622 78.6789 97.2535 79.0549 96.8314 79.0939C96.8066 79.0975 96.7817 79.0975 96.7568 79.0975Z" fill="#BF9D50"/>
<path d="M88.4062 78.977C88.3566 78.977 88.3104 78.9735 88.2607 78.9628C87.8457 78.8812 87.5725 78.4804 87.6541 78.0653L88.9312 71.4848C89.0128 71.0697 89.4101 70.7966 89.8322 70.8782C90.2473 70.9598 90.5205 71.3606 90.4389 71.7757L89.1618 78.3562C89.0873 78.7251 88.7645 78.977 88.4062 78.977Z" fill="#BF9D50"/>
<path d="M81.1907 76.8309C81.0807 76.8309 80.9672 76.806 80.8572 76.7564C80.4741 76.5719 80.3145 76.1143 80.4989 75.7312L83.4078 69.6898C83.5923 69.3067 84.0499 69.1471 84.433 69.3316C84.8161 69.516 84.9758 69.9736 84.7913 70.3568L81.8824 76.3981C81.7511 76.6712 81.478 76.8309 81.1907 76.8309Z" fill="#BF9D50"/>
<path d="M98.3877 65.12C99.8165 61.7168 98.216 57.7996 94.8127 56.3708C91.4095 54.9419 87.4923 56.5425 86.0635 59.9457C84.6346 63.349 86.2352 67.2661 89.6385 68.6949C93.0417 70.1238 96.9588 68.5233 98.3877 65.12Z" fill="#BF9D50"/>
<path d="M91.5563 130C90.3679 129.996 89.1298 129.968 87.9272 129.904L88.0088 128.372C89.183 128.436 90.3643 128.464 91.5563 128.468C91.684 128.468 91.8117 128.468 91.9394 128.468L91.9501 130C91.8188 130 91.6875 130 91.5563 130ZM95.9693 129.851L95.8664 128.322C97.1683 128.233 98.4844 128.102 99.7757 127.935L99.9744 129.457C98.6512 129.624 97.3067 129.759 95.9693 129.851ZM83.915 129.564C82.5847 129.408 81.2474 129.212 79.9348 128.975L80.2044 127.464C81.485 127.694 82.794 127.886 84.0924 128.038L83.915 129.564ZM103.948 128.808L103.657 127.3C104.937 127.052 106.225 126.761 107.488 126.431L107.875 127.918C106.58 128.255 105.26 128.556 103.948 128.808ZM75.9971 128.141C74.6987 127.822 73.3933 127.46 72.1198 127.063L72.5774 125.598C73.8225 125.984 75.0961 126.339 76.3625 126.651L75.9971 128.141ZM111.738 126.79L111.259 125.332C112.5 124.924 113.742 124.477 114.952 123.994L115.519 125.42C114.281 125.91 113.008 126.371 111.738 126.79ZM68.3098 125.743C67.0611 125.268 65.8124 124.743 64.5921 124.189L65.2271 122.792C66.419 123.334 67.6393 123.845 68.8597 124.31L68.3098 125.743ZM119.205 123.817L118.549 122.43C119.727 121.873 120.901 121.273 122.047 120.645L122.785 121.99C121.617 122.632 120.411 123.249 119.205 123.817ZM60.9772 122.405C59.7959 121.777 58.6217 121.103 57.483 120.401L58.2882 119.095C59.4021 119.78 60.548 120.436 61.7009 121.05L60.9772 122.405ZM126.25 119.943L125.431 118.648C126.531 117.953 127.623 117.211 128.684 116.445L129.585 117.687C128.496 118.471 127.375 119.23 126.25 119.943ZM54.1164 118.187C53.0238 117.417 51.9418 116.605 50.8953 115.768L51.8532 114.569C52.8713 115.384 53.9284 116.179 54.9962 116.931L54.1164 118.187ZM132.763 115.228L131.788 114.044C132.795 113.213 133.792 112.344 134.747 111.454L135.793 112.578C134.814 113.487 133.796 114.377 132.763 115.228ZM47.8339 113.157C46.8442 112.259 45.8686 111.319 44.9357 110.361L46.0353 109.29C46.947 110.223 47.8977 111.142 48.8626 112.018L47.8339 113.157ZM138.649 109.744L137.538 108.687C138.436 107.743 139.316 106.757 140.156 105.753L141.331 106.739C140.472 107.768 139.568 108.779 138.649 109.744ZM42.2182 107.392C41.3456 106.378 40.4942 105.327 39.689 104.263L40.9128 103.334C41.7003 104.373 42.5304 105.398 43.3854 106.388L42.2182 107.392ZM143.821 103.579L142.586 102.667C143.363 101.617 144.115 100.531 144.825 99.4316L146.113 100.265C145.389 101.39 144.616 102.504 143.821 103.579ZM37.3547 100.989C36.6133 99.8786 35.9002 98.7292 35.2298 97.5727L36.5565 96.8029C37.2093 97.931 37.9081 99.052 38.6318 100.138L37.3547 100.989ZM148.198 96.8171L146.861 96.0651C147.5 94.9263 148.113 93.7557 148.681 92.5779L150.061 93.2448C149.479 94.451 148.851 95.6536 148.198 96.8171ZM33.3213 94.0359C32.7253 92.8404 32.1577 91.613 31.6363 90.3856L33.0481 89.7861C33.5554 90.9851 34.1123 92.1842 34.6941 93.3477L33.3213 94.0359ZM151.703 89.5661L150.284 88.9879C150.777 87.7747 151.242 86.5366 151.657 85.2985L153.112 85.7881C152.682 87.051 152.211 88.3245 151.703 89.5661ZM30.1818 86.6395C29.7383 85.3801 29.3268 84.0924 28.9615 82.8047L30.4372 82.3861C30.7955 83.6419 31.1964 84.9012 31.6291 86.1322L30.1818 86.6395ZM154.279 81.9355L152.796 81.5347C153.133 80.2789 153.438 78.9912 153.697 77.7105L155.201 78.0156C154.935 79.3282 154.623 80.6478 154.279 81.9355ZM27.9824 78.9025C27.6986 77.597 27.4502 76.2632 27.248 74.9471L28.7663 74.7129C28.965 76.0007 29.2062 77.299 29.4829 78.5761L27.9824 78.9025ZM155.882 74.0496L154.364 73.8367C154.545 72.549 154.687 71.2329 154.786 69.931L156.315 70.048C156.212 71.3819 156.067 72.7299 155.882 74.0496ZM26.7585 70.9491C26.6379 69.6223 26.5562 68.2743 26.5172 66.9334L28.0497 66.8873C28.0888 68.1963 28.1668 69.5159 28.2838 70.8107L26.7585 70.9491ZM156.5 66.0288L154.967 66.0039C154.971 65.6669 154.974 65.3299 154.974 64.9894C154.974 64.0245 154.953 63.0418 154.907 62.0734L156.439 62.0024C156.485 62.9957 156.507 63.9996 156.507 64.9894C156.507 65.337 156.503 65.6847 156.5 66.0288ZM28.0213 64.9929H26.4889C26.4889 63.6555 26.5314 62.3039 26.613 60.9701L28.1455 61.0623C28.0639 62.3642 28.0213 63.6874 28.0213 64.9929ZM154.609 58.157C154.47 56.8586 154.289 55.5496 154.069 54.2654L155.581 54.0064C155.804 55.3225 155.992 56.6635 156.134 57.9938L154.609 58.157ZM28.5038 57.1495L26.9819 56.9615C27.1451 55.6347 27.3509 54.2938 27.5957 52.9848L29.1033 53.265C28.8656 54.5457 28.6635 55.8547 28.5038 57.1495ZM153.293 50.4129C152.995 49.1393 152.65 47.8623 152.274 46.6171L153.743 46.1737C154.126 47.4507 154.477 48.7562 154.786 50.0617L153.293 50.4129ZM29.9441 49.4302L28.4577 49.0542C28.784 47.7594 29.1565 46.4575 29.561 45.1839L31.0225 45.6522C30.6252 46.8938 30.2634 48.1673 29.9441 49.4302ZM151.022 42.8923C150.568 41.6684 150.072 40.4481 149.543 39.2597L150.944 38.6353C151.483 39.8521 151.994 41.1044 152.459 42.3566L151.022 42.8923ZM32.3386 41.9416L30.909 41.3846C31.395 40.1359 31.9271 38.8872 32.4912 37.6775L33.8817 38.3231C33.3319 39.5044 32.814 40.7212 32.3386 41.9416ZM147.84 35.7229C147.237 34.5664 146.591 33.4135 145.921 32.2996L147.237 31.5085C147.925 32.6508 148.589 33.8321 149.202 35.0169L147.84 35.7229ZM35.6484 34.8041L34.3004 34.0733C34.9389 32.8955 35.62 31.7249 36.3295 30.5932L37.6314 31.4056C36.9361 32.5124 36.2692 33.6547 35.6484 34.8041ZM143.789 29.0004C143.048 27.9256 142.267 26.8613 141.462 25.8361L142.668 24.8889C143.491 25.939 144.296 27.0281 145.052 28.1278L143.789 29.0004ZM39.8131 28.1349L38.5644 27.2444C39.3413 26.1554 40.1643 25.077 41.005 24.0411L42.197 25.0096C41.374 26.0206 40.5722 27.0742 39.8131 28.1349ZM138.94 22.8208C138.074 21.8488 137.166 20.8874 136.24 19.9651L137.322 18.876C138.273 19.8196 139.202 20.8023 140.089 21.7991L138.94 22.8208ZM44.7654 22.0332L43.6372 20.9938C44.5418 20.0112 45.4891 19.0427 46.4504 18.1169L47.5147 19.2237C46.5746 20.1283 45.6487 21.0754 44.7654 22.0332ZM133.367 17.2832C132.384 16.4212 131.366 15.5804 130.334 14.7822L131.274 13.569C132.327 14.3849 133.374 15.247 134.378 16.1303L133.367 17.2832ZM50.4307 16.5879L49.4374 15.4172C50.4555 14.5517 51.5126 13.7074 52.5839 12.9092L53.5027 14.1366C52.4598 14.9206 51.4239 15.7436 50.4307 16.5879ZM127.155 12.4693C126.073 11.735 124.956 11.0255 123.835 10.3586L124.619 9.03892C125.768 9.72003 126.91 10.4473 128.017 11.1993L127.155 12.4693ZM56.7167 11.884L55.8759 10.5998C56.9934 9.86902 58.1464 9.15953 59.3064 8.4997L60.0655 9.83C58.9339 10.4792 57.8058 11.1709 56.7167 11.884ZM120.39 8.45713C119.226 7.86116 118.031 7.29711 116.832 6.77209L117.446 5.3673C118.673 5.90297 119.897 6.4812 121.089 7.09136L120.39 8.45713ZM63.5349 7.99241L62.8574 6.61601C64.0564 6.02713 65.2873 5.47017 66.5183 4.95579L67.1072 6.37123C65.9047 6.87142 64.702 7.41773 63.5349 7.99241ZM113.178 5.31409C111.951 4.86711 110.695 4.4556 109.446 4.08667L109.879 2.61448C111.159 2.99051 112.447 3.41265 113.703 3.87027L113.178 5.31409ZM70.7753 4.97708L70.2751 3.52617C71.538 3.08983 72.8328 2.68897 74.117 2.33068L74.5249 3.80997C73.2691 4.15762 72.0062 4.55138 70.7753 4.97708ZM105.643 3.09693C104.373 2.80604 103.075 2.55417 101.787 2.34487L102.035 0.830103C103.355 1.0465 104.682 1.30547 105.987 1.59991L105.643 3.09693ZM78.342 2.88054L78.0263 1.37996C79.3318 1.10326 80.6656 0.865582 81.9888 0.67402L82.2122 2.19233C80.921 2.38034 79.6191 2.61093 78.342 2.88054ZM97.8921 1.83403C96.5972 1.70632 95.2776 1.61409 93.9721 1.56443L94.0324 0.0319258C95.3698 0.0815901 96.7214 0.177376 98.0481 0.308632L97.8921 1.83403ZM86.1144 1.7418L85.9868 0.212849C87.3135 0.102878 88.6651 0.0283796 90.006 0L90.0415 1.5325C88.7325 1.56088 87.4128 1.63183 86.1144 1.7418Z" fill="#BF9D50"/>
</svg>
