<svg width="157" height="130" viewBox="0 0 157 130" fill="none" xmlns="http://www.w3.org/2000/svg">
<path d="M142.616 63.5937C119.303 42.7402 95.6073 33.0911 72.2027 34.9259C38.6778 37.5498 17.3224 63.2566 17.1118 63.5171L16.0737 62.6705C16.1273 62.6054 21.582 55.9824 31.1583 49.1334C39.9992 42.813 54.2796 34.9833 72.0993 33.589C95.8946 31.7274 119.916 41.4876 143.512 62.5939L142.616 63.5937Z" fill="#BF9D50"/>
<path d="M79.2278 94.3338C78.0021 94.3338 76.7763 94.3032 75.5506 94.2381C57.072 93.2651 41.8877 84.9681 32.3994 78.1766C22.1297 70.8257 16.1312 63.5937 16.0737 63.5209L17.1079 62.6705C17.1654 62.7433 23.0759 69.8643 33.2154 77.1155C42.5504 83.7922 57.4857 91.9512 75.631 92.9012C98.4304 94.0925 120.958 83.9071 142.589 62.6207L143.527 63.5745C122.774 83.999 101.158 94.3338 79.2278 94.3338Z" fill="#BF9D50"/>
<path d="M78.4694 94.4066L78.4617 93.0659C78.841 93.0621 79.2202 93.0544 79.5994 93.0353L79.6607 94.3721C79.2624 94.3951 78.8639 94.4028 78.4694 94.4066ZM77.2781 94.3913C76.8798 94.3798 76.4852 94.3568 76.0906 94.33L76.1826 92.9931C76.558 93.02 76.9372 93.0391 77.3164 93.0506L77.2781 94.3913ZM80.8405 94.2994L80.7295 92.9663C81.1087 92.9357 81.4841 92.8974 81.8595 92.8514L82.0242 94.1806C81.6296 94.2266 81.235 94.2687 80.8405 94.2994ZM74.9108 94.2266C74.5163 94.1844 74.1218 94.1346 73.7311 94.0733L73.9303 92.748C74.3018 92.8016 74.681 92.8514 75.0564 92.8935L74.9108 94.2266ZM83.2002 94.0082L82.9856 92.6867C83.361 92.6254 83.7325 92.5565 84.1041 92.4837L84.3685 93.7975C83.9816 93.8742 83.5909 93.947 83.2002 94.0082ZM72.5627 93.878C72.172 93.8052 71.7851 93.7248 71.3982 93.6367L71.697 92.3305C72.0648 92.4147 72.4363 92.4913 72.8078 92.5641L72.5627 93.878ZM85.5291 93.5371L85.2112 92.2385C85.5789 92.1466 85.9466 92.0508 86.3105 91.9474L86.6782 93.2345C86.2952 93.3417 85.9121 93.4413 85.5291 93.5371ZM70.2452 93.3456C69.8622 93.2421 69.483 93.1311 69.1037 93.0123L69.5021 91.7329C69.8622 91.844 70.226 91.9512 70.5938 92.0508L70.2452 93.3456ZM87.8121 92.882L87.3946 91.6103C87.7547 91.4916 88.1147 91.3652 88.4672 91.2349L88.9345 92.4913C88.5629 92.6292 88.1875 92.7595 87.8121 92.882ZM67.9737 92.6331C67.5983 92.499 67.2267 92.3572 66.859 92.2079L67.3608 90.9668C67.7132 91.1085 68.0656 91.2426 68.4257 91.369L67.9737 92.6331ZM90.0338 92.0547L89.5167 90.8212C89.8653 90.6756 90.21 90.5224 90.5548 90.3654L91.1179 91.5797C90.7616 91.7444 90.3977 91.9015 90.0338 92.0547ZM65.7635 91.7444C65.3996 91.5835 65.0433 91.4111 64.6871 91.2349L65.2847 90.036C65.6256 90.2045 65.9665 90.3654 66.3151 90.5225L65.7635 91.7444ZM92.1828 91.0549L91.5737 89.8636C91.9108 89.6912 92.2441 89.5112 92.5735 89.3273L93.2285 90.4918C92.8837 90.6871 92.5352 90.8748 92.1828 91.0549ZM63.6337 90.6871C63.2851 90.4956 62.9404 90.3002 62.5995 90.0972L63.2852 88.9481C63.6108 89.1434 63.9401 89.3312 64.2734 89.515L63.6337 90.6871ZM94.2512 89.8904L93.5503 88.7489C93.8721 88.5497 94.19 88.3467 94.5041 88.136L95.251 89.2469C94.9216 89.469 94.5883 89.6836 94.2512 89.8904ZM61.592 89.4652C61.2587 89.2469 60.9332 89.0247 60.6076 88.7949L61.3814 87.7031C61.6917 87.9215 62.0058 88.136 62.3237 88.3428L61.592 89.4652ZM96.2202 88.5688L95.4311 87.4886C95.7375 87.2665 96.0402 87.0366 96.3351 86.803L97.1663 87.8525C96.856 88.0977 96.5419 88.339 96.2202 88.5688ZM59.65 88.09C59.3359 87.8487 59.0255 87.5997 58.7229 87.3469L59.581 86.3203C59.8721 86.5616 60.1671 86.7992 60.4697 87.029L59.65 88.09ZM98.0856 87.1018L97.2161 86.0828C97.5033 85.8377 97.7869 85.5849 98.0665 85.3282L98.9743 86.3127C98.6832 86.5808 98.3844 86.8413 98.0856 87.1018ZM57.8266 86.5693C57.5317 86.305 57.2444 86.033 56.9609 85.7572L57.8956 84.7958C58.1675 85.0601 58.4433 85.3206 58.7268 85.5734L57.8266 86.5693ZM99.8285 85.4891L98.8824 84.5429C99.1505 84.2748 99.4149 84.0029 99.6715 83.7232L100.652 84.6349C100.384 84.926 100.112 85.2095 99.8285 85.4891ZM56.1221 84.9145C55.8501 84.6272 55.5819 84.3361 55.3214 84.0373L56.325 83.1525C56.574 83.436 56.8306 83.7156 57.0911 83.9914L56.1221 84.9145ZM101.445 83.7462L100.43 82.8728C100.679 82.5855 100.92 82.2944 101.154 81.9957L102.203 82.8269C101.958 83.141 101.705 83.4474 101.445 83.7462ZM54.5515 83.1295C54.3025 82.823 54.0574 82.509 53.8199 82.1949L54.8924 81.3904C55.1184 81.693 55.3521 81.9918 55.5934 82.2829L54.5515 83.1295ZM102.924 81.8846L101.843 81.0954C102.066 80.789 102.284 80.4788 102.498 80.1646L103.609 80.9154C103.383 81.241 103.157 81.5666 102.924 81.8846ZM53.1265 81.2334C52.9005 80.9078 52.6822 80.5783 52.4677 80.2451L53.5977 79.5249C53.8007 79.8429 54.0114 80.1608 54.2259 80.4711L53.1265 81.2334ZM104.253 79.9118L103.115 79.207C103.314 78.8852 103.51 78.5596 103.694 78.2302L104.858 78.8891C104.663 79.2338 104.46 79.5747 104.253 79.9118ZM51.8509 79.2338C51.6518 78.8929 51.4602 78.5482 51.2725 78.1996L52.4524 77.5675C52.6324 77.9008 52.8162 78.2302 53.0039 78.5596L51.8509 79.2338ZM105.425 77.8433L104.234 77.2304C104.406 76.8933 104.575 76.5525 104.735 76.2077L105.95 76.7746C105.781 77.1347 105.605 77.4909 105.425 77.8433ZM50.7363 77.1385C50.5639 76.7823 50.3992 76.426 50.2421 76.0621L51.4679 75.5259C51.6211 75.8744 51.7782 76.2153 51.9429 76.5563L50.7363 77.1385ZM106.432 75.6867L105.199 75.1696C105.345 74.821 105.486 74.4686 105.62 74.1124L106.873 74.5835C106.731 74.9512 106.586 75.3228 106.432 75.6867ZM49.7902 74.9666C49.6446 74.5988 49.5105 74.2273 49.3803 73.8519L50.6444 73.4114C50.7669 73.7715 50.901 74.1239 51.0389 74.4763L49.7902 74.9666ZM107.267 73.4574L105.996 73.036C106.114 72.6759 106.226 72.3158 106.333 71.9519L107.62 72.3235C107.509 72.7028 107.394 73.082 107.267 73.4574ZM49.0125 72.7219C48.8976 72.3427 48.7903 71.9634 48.6907 71.5765L49.9855 71.2395C50.0813 71.6072 50.1846 71.9711 50.2919 72.335L49.0125 72.7219ZM107.926 71.1705L106.628 70.8526C106.716 70.4848 106.8 70.1171 106.877 69.7456L108.191 70.0137C108.106 70.4006 108.022 70.7875 107.926 71.1705ZM48.415 70.4235C48.3307 70.0367 48.254 69.6498 48.1813 69.2591L49.499 69.0216C49.5641 69.397 49.6407 69.7685 49.7211 70.1363L48.415 70.4235ZM108.401 68.8454L107.08 68.627C107.141 68.2555 107.195 67.8801 107.241 67.5047L108.57 67.6694C108.524 68.064 108.466 68.4547 108.401 68.8454ZM47.9974 68.0831C47.9438 67.6924 47.8978 67.2978 47.8557 66.9033L49.1887 66.7692C49.227 67.1485 49.2692 67.5238 49.3228 67.8992L47.9974 68.0831ZM108.696 66.4858L107.363 66.3708C107.394 65.9955 107.421 65.6162 107.436 65.237L108.773 65.2983C108.758 65.7005 108.731 66.0951 108.696 66.4858ZM47.7599 65.7197C47.737 65.3251 47.7216 64.9305 47.7101 64.5322L49.047 64.5015C49.0546 64.8808 49.07 65.26 49.093 65.6354L47.7599 65.7197ZM108.807 64.1147L107.467 64.1032V63.858C107.467 63.5592 107.463 63.2643 107.455 62.9693L108.792 62.931C108.8 63.2413 108.807 63.5516 108.807 63.8618V64.1147ZM49.047 63.858H47.7063C47.7063 63.4596 47.714 63.0651 47.7293 62.6705L49.0661 62.7242C49.0546 63.0996 49.047 63.4788 49.047 63.858ZM107.402 61.8317C107.375 61.4524 107.34 61.0732 107.302 60.6978L108.635 60.5561C108.677 60.9468 108.712 61.3414 108.738 61.7397L107.402 61.8317ZM49.1313 61.5865L47.7982 61.4831C47.8288 61.0847 47.8672 60.694 47.9131 60.2994L49.2423 60.4527C49.1964 60.8319 49.162 61.2073 49.1313 61.5865ZM107.156 59.5716C107.103 59.1962 107.038 58.8208 106.969 58.4531L108.286 58.2079C108.359 58.5948 108.424 58.9856 108.482 59.3801L107.156 59.5716ZM49.3956 59.3303L48.0741 59.1234C48.1354 58.7289 48.2042 58.342 48.2808 57.9513L49.5948 58.2079C49.5182 58.5833 49.4531 58.9549 49.3956 59.3303ZM106.739 57.3423C106.655 56.9707 106.563 56.603 106.463 56.2391L107.758 55.8905C107.861 56.2735 107.957 56.6566 108.045 57.0435L106.739 57.3423ZM49.8322 57.101L48.5299 56.7945C48.6218 56.4076 48.7214 56.0245 48.8287 55.6415L50.1195 56.0016C50.0123 56.3655 49.9165 56.7332 49.8322 57.101ZM106.149 55.1473C106.038 54.7834 105.915 54.4272 105.789 54.071L107.049 53.6228C107.183 53.9944 107.306 54.3698 107.425 54.749L106.149 55.1473ZM50.4413 54.9137L49.1657 54.5038C49.2883 54.1246 49.4147 53.7492 49.5526 53.3776L50.809 53.8373C50.6788 54.1936 50.5562 54.5498 50.4413 54.9137ZM105.387 53.0099C105.245 52.6575 105.099 52.3089 104.946 51.968L106.168 51.4241C106.329 51.7841 106.482 52.148 106.632 52.5158L105.387 53.0099ZM51.2228 52.7763L49.9855 52.2668C50.1349 51.8991 50.2958 51.5351 50.4605 51.1751L51.6786 51.7305C51.5177 52.0753 51.3645 52.4238 51.2228 52.7763ZM104.464 50.9376C104.295 50.5967 104.123 50.2634 103.943 49.9301L105.119 49.2905C105.306 49.639 105.49 49.9876 105.666 50.3439L104.464 50.9376ZM52.1689 50.7039L50.9737 50.0987C51.1538 49.7425 51.3376 49.3939 51.533 49.0453L52.7013 49.6965C52.5174 50.0297 52.3375 50.3668 52.1689 50.7039ZM103.383 48.9457C103.188 48.6201 102.989 48.2983 102.786 47.9804L103.908 47.2526C104.123 47.5858 104.333 47.9191 104.532 48.26L103.383 48.9457ZM53.2721 48.7159L52.1267 48.0187C52.3336 47.6778 52.5443 47.3445 52.7627 47.0151L53.8773 47.7544C53.6705 48.0724 53.4674 48.3903 53.2721 48.7159ZM102.146 47.0419C101.928 46.7317 101.702 46.429 101.472 46.1264L102.537 45.3144C102.778 45.6285 103.012 45.9464 103.238 46.272L102.146 47.0419ZM54.5285 46.8197L53.4407 46.0383C53.6705 45.7166 53.9079 45.3986 54.1531 45.0883L55.2103 45.9119C54.9767 46.2069 54.7468 46.5095 54.5285 46.8197ZM100.767 45.2416C100.526 44.9504 100.277 44.6631 100.024 44.3797L101.024 43.4872C101.288 43.7821 101.545 44.0809 101.797 44.3874L100.767 45.2416ZM55.9229 45.0271L54.9 44.1652C55.1567 43.8626 55.4172 43.5638 55.6853 43.2726L56.6736 44.1767C56.417 44.4525 56.168 44.7359 55.9229 45.0271ZM99.2539 43.5485C98.9896 43.2765 98.7215 43.0083 98.4457 42.7479L99.3727 41.7788C99.66 42.0507 99.9396 42.3303 100.215 42.6138L99.2539 43.5485ZM57.4551 43.3493L56.5013 42.4108C56.7809 42.1273 57.0644 41.8515 57.3516 41.5796L58.2671 42.5563C57.9913 42.813 57.7232 43.0773 57.4551 43.3493ZM97.6106 41.9779C97.3272 41.7251 97.0399 41.48 96.7449 41.2425L97.5914 40.2044C97.8979 40.4572 98.2005 40.7138 98.4955 40.9743L97.6106 41.9779ZM59.1136 41.7941L58.2364 40.7828C58.5352 40.5223 58.8379 40.2695 59.1482 40.0205L59.987 41.0663C59.6882 41.3037 59.3971 41.5451 59.1136 41.7941ZM95.8525 40.5377C95.5498 40.3078 95.2433 40.0856 94.9331 39.8711L95.6992 38.7718C96.0248 38.9978 96.3465 39.2315 96.6606 39.4689L95.8525 40.5377ZM60.8834 40.3729L60.0866 39.2965C60.4045 39.0629 60.7263 38.8331 61.0519 38.6071L61.8065 39.7141C61.4963 39.9286 61.186 40.1469 60.8834 40.3729ZM93.9869 39.2391C93.669 39.0361 93.3434 38.8369 93.0178 38.6454L93.6958 37.4885C94.0367 37.6877 94.3777 37.8984 94.711 38.1091L93.9869 39.2391ZM62.7565 39.0936L62.0441 37.9597C62.3773 37.749 62.7182 37.546 63.063 37.3506L63.7295 38.5113C63.4 38.6952 63.0783 38.8905 62.7565 39.0936ZM92.0257 38.0861C91.6925 37.9061 91.3553 37.7337 91.0106 37.569L91.5967 36.3662C91.9529 36.5386 92.3092 36.7186 92.6577 36.9063L92.0257 38.0861ZM64.7254 37.9635L64.1049 36.7761C64.4534 36.5922 64.8097 36.416 65.1659 36.2474L65.7405 37.4579C65.3958 37.6188 65.0587 37.7873 64.7254 37.9635ZM89.9764 37.0902C89.6278 36.937 89.2792 36.7914 88.923 36.6535L89.4133 35.4086C89.7849 35.5541 90.1487 35.7073 90.5126 35.8644L89.9764 37.0902ZM66.7709 36.9906L66.2423 35.761C66.6062 35.6077 66.9701 35.4584 67.3416 35.3166L67.8205 36.5654C67.4681 36.6994 67.1156 36.8412 66.7709 36.9906ZM87.8581 36.2589C87.5018 36.1325 87.1379 36.0176 86.774 35.9065L87.1647 34.6271C87.5478 34.742 87.9232 34.8646 88.2986 34.9987L87.8581 36.2589ZM68.8892 36.1785L68.4602 34.9106C68.8356 34.7842 69.211 34.6655 69.5941 34.5505L69.9733 35.8338C69.6094 35.9448 69.2454 36.0598 68.8892 36.1785ZM85.6823 35.5963C85.3184 35.5005 84.9507 35.4124 84.5791 35.3319L84.8664 34.0258C85.2533 34.11 85.6402 34.2058 86.0232 34.3054L85.6823 35.5963ZM71.0688 35.5388L70.7394 34.2402C71.1224 34.1445 71.5093 34.0526 71.8962 33.9721L72.172 35.2821C71.8004 35.3588 71.4327 35.443 71.0688 35.5388ZM83.4644 35.1098C83.0929 35.0447 82.7175 34.9834 82.3421 34.9298L82.526 33.6044C82.9205 33.658 83.3113 33.7231 83.6981 33.7921L83.4644 35.1098ZM73.2905 35.0677L73.0645 33.7461C73.4553 33.681 73.8459 33.6197 74.2405 33.5699L74.4166 34.8991C74.0374 34.9451 73.6621 35.0025 73.2905 35.0677ZM81.2159 34.7957C80.8405 34.7573 80.4613 34.7267 80.082 34.7037L80.1625 33.3669C80.5608 33.3899 80.9554 33.4243 81.3461 33.4626L81.2159 34.7957ZM75.5429 34.7689L75.4203 33.4358C75.8148 33.4014 76.2094 33.3707 76.604 33.3516L76.6767 34.6884C76.2937 34.7076 75.9183 34.7344 75.5429 34.7689ZM78.9482 34.6539C78.569 34.6463 78.1898 34.6424 77.8106 34.6501L77.7914 33.3094C78.1859 33.3056 78.5843 33.3056 78.9789 33.3132L78.9482 34.6539Z" fill="#BF9D50"/>
<path d="M78.2587 90.4114C63.6184 90.4114 51.7054 78.4983 51.7054 63.858C51.7054 49.2177 63.6184 37.3047 78.2587 37.3047C92.8991 37.3047 104.812 49.2177 104.812 63.858C104.812 78.4983 92.8991 90.4114 78.2587 90.4114ZM78.2587 38.6415C64.3538 38.6415 53.0423 49.9532 53.0423 63.8542C53.0423 77.7553 64.3538 89.0668 78.2587 89.0668C92.1636 89.0668 103.475 77.7553 103.475 63.8542C103.475 49.9532 92.1598 38.6415 78.2587 38.6415Z" fill="#BF9D50"/>
<path d="M78.0366 84.7C77.6344 84.6962 77.2321 84.6809 76.8376 84.654L76.9257 83.3172C77.2934 83.344 77.6727 83.3555 78.0481 83.3593L78.0366 84.7ZM79.2355 84.677L79.1742 83.3402C79.5458 83.3249 79.9212 83.2942 80.2966 83.2559L80.4345 84.589C80.0361 84.6311 79.6339 84.6617 79.2355 84.677ZM75.6425 84.5392C75.2441 84.4894 74.8457 84.428 74.455 84.3552L74.7002 83.0376C75.0641 83.1065 75.4356 83.164 75.811 83.2099L75.6425 84.5392ZM81.6258 84.4319L81.4112 83.1103C81.779 83.049 82.1506 82.9801 82.5145 82.8997L82.8056 84.2059C82.4149 84.2902 82.0165 84.3668 81.6258 84.4319ZM73.2828 84.1025C72.8998 84.0105 72.5129 83.9032 72.126 83.7845L72.5167 82.5051C72.8768 82.6162 73.2445 82.7158 73.6008 82.8039L73.2828 84.1025ZM83.9663 83.9109L83.5985 82.6239C83.9586 82.5205 84.3186 82.4094 84.671 82.2868L85.1116 83.5508C84.7362 83.6773 84.3493 83.7999 83.9663 83.9109ZM70.9883 83.3976C70.6168 83.2597 70.2414 83.1065 69.8737 82.9456L70.4137 81.7198C70.7547 81.8692 71.1071 82.011 71.4556 82.1412L70.9883 83.3976ZM86.2339 83.1218L85.7206 81.8846C86.0615 81.7428 86.4025 81.5896 86.7434 81.4249L87.3257 82.6315C86.9656 82.8039 86.5978 82.9686 86.2339 83.1218ZM68.7858 82.4285C68.4295 82.2485 68.0733 82.0531 67.7324 81.8501L68.4104 80.6933C68.7321 80.881 69.0616 81.0648 69.3949 81.2334L68.7858 82.4285ZM88.3906 82.0761L87.7393 80.9078C88.0611 80.7277 88.3867 80.5362 88.7046 80.3332L89.4248 81.4632C89.0839 81.6777 88.7353 81.8846 88.3906 82.0761ZM66.7135 81.2142C66.3802 80.9921 66.0508 80.7584 65.7328 80.5209L66.5373 79.4522C66.8322 79.6744 67.1425 79.8927 67.4527 80.1034L66.7135 81.2142ZM90.4168 80.789L89.6355 79.7012C89.9419 79.4828 90.2407 79.253 90.5279 79.0193L91.3706 80.0612C91.0604 80.3102 90.7424 80.5554 90.4168 80.789ZM64.7944 79.7701C64.4918 79.5135 64.1891 79.2415 63.9018 78.9695L64.825 78.0004C65.097 78.257 65.3766 78.5098 65.6601 78.7512L64.7944 79.7701ZM92.2785 79.2798L91.3783 78.2915C91.6541 78.0387 91.9261 77.7782 92.1866 77.5101L93.1442 78.4486C92.8646 78.7282 92.5773 79.0116 92.2785 79.2798ZM63.0553 78.1192C62.7833 77.828 62.5152 77.5254 62.2585 77.2228L63.2852 76.3647C63.5227 76.652 63.7754 76.9317 64.0321 77.2075L63.0553 78.1192ZM93.9601 77.5675L92.9527 76.6865C93.1979 76.4069 93.4391 76.112 93.669 75.8208L94.7262 76.6406C94.4772 76.9547 94.2206 77.2649 93.9601 77.5675ZM61.5154 76.2766C61.2779 75.9587 61.0481 75.6255 60.8259 75.2922L61.9445 74.5567C62.1513 74.867 62.3658 75.1773 62.588 75.4761L61.5154 76.2766ZM95.4311 75.6714L94.3279 74.913C94.5386 74.6066 94.7454 74.2886 94.9369 73.9706L96.0822 74.6678C95.8754 75.0049 95.6571 75.3458 95.4311 75.6714ZM60.1977 74.2733C59.9985 73.9247 59.8032 73.5723 59.627 73.216L60.8221 72.6147C60.9868 72.9441 61.1669 73.2773 61.3545 73.6029L60.1977 74.2733ZM96.6798 73.6183L95.4961 72.9901C95.6724 72.6568 95.8409 72.3197 95.9941 71.9826L97.2122 72.5419C97.0475 72.8981 96.8675 73.262 96.6798 73.6183ZM59.1213 72.132C58.9643 71.7681 58.8149 71.3927 58.677 71.0173L59.9334 70.5577C60.0598 70.9101 60.2015 71.2586 60.3471 71.5996L59.1213 72.132ZM97.6796 71.431L96.4309 70.9445C96.5649 70.5998 96.6952 70.2436 96.8101 69.8873L98.0856 70.301C97.963 70.6802 97.8252 71.0633 97.6796 71.431ZM58.2978 69.8797C58.1829 69.4966 58.0756 69.1059 57.9837 68.719L59.286 68.4087C59.3741 68.7726 59.4699 69.1365 59.5771 69.4928L58.2978 69.8797ZM98.4227 69.148L97.128 68.8109C97.2237 68.4508 97.3081 68.0831 97.3808 67.7154L98.6947 67.9797C98.6143 68.3666 98.5262 68.7611 98.4227 69.148ZM57.7385 67.5468C57.6696 67.1561 57.6082 66.7539 57.5623 66.3594L58.8915 66.1985C58.9375 66.5701 58.9911 66.9416 59.0562 67.3093L57.7385 67.5468ZM98.8939 66.7922L97.5685 66.6045C97.6183 66.2368 97.6642 65.8614 97.6949 65.4898L99.0279 65.6009C98.9934 65.9993 98.9513 66.4015 98.8939 66.7922ZM57.4551 65.1642C57.4321 64.7659 57.4167 64.3636 57.4129 63.9653L58.7536 63.9576C58.7536 64.3292 58.769 64.7084 58.7919 65.08L57.4551 65.1642ZM99.0931 64.402L97.7562 64.3675C97.7601 64.1989 97.7639 64.0265 97.7639 63.858C97.7639 63.6512 97.7601 63.4481 97.7562 63.2451L99.0931 63.203C99.1007 63.4213 99.1046 63.6397 99.1046 63.858C99.1008 64.038 99.0969 64.2219 99.0931 64.402ZM58.7536 63.858H57.4129C57.4129 63.4635 57.4244 63.0575 57.4474 62.6591L58.7843 62.7357C58.7613 63.1072 58.7536 63.4864 58.7536 63.858ZM97.6872 62.1228C97.6566 61.7551 97.6107 61.3797 97.557 61.0081L98.8824 60.8127C98.9398 61.2073 98.9858 61.6095 99.0203 62.004L97.6872 62.1228ZM58.88 61.6133L57.5508 61.4601C57.5968 61.0656 57.6542 60.6672 57.7232 60.2726L59.0409 60.5025C58.9758 60.8741 58.9222 61.2456 58.88 61.6133ZM97.3617 59.9011C97.2851 59.5372 97.2008 59.1694 97.1051 58.8094L98.3997 58.4646C98.5032 58.8515 98.5951 59.2461 98.6755 59.6329L97.3617 59.9011ZM59.2631 59.4031L57.9606 59.1005C58.0526 58.7136 58.156 58.3229 58.2671 57.9398L59.5504 58.319C59.4431 58.6753 59.3474 59.0392 59.2631 59.4031ZM96.7794 57.7291C96.6645 57.3767 96.5343 57.0205 96.3964 56.6719L97.6413 56.1778C97.7868 56.5493 97.9286 56.9286 98.0512 57.3078L96.7794 57.7291ZM59.8989 57.2503L58.6387 56.7983C58.7727 56.4229 58.9222 56.0475 59.0792 55.6798L60.3088 56.2084C60.1633 56.5455 60.0253 56.8979 59.8989 57.2503ZM95.9559 55.6453C95.7988 55.3082 95.6303 54.9712 95.4541 54.6417L96.6338 54.0097C96.8215 54.3621 97.0016 54.7222 97.1701 55.0823L95.9559 55.6453ZM60.7838 55.1819L59.5848 54.5843C59.761 54.228 59.9525 53.8718 60.1517 53.5232L61.3162 54.1859C61.1285 54.5153 60.9485 54.8486 60.7838 55.1819ZM94.8948 53.6688C94.6995 53.3547 94.4926 53.0367 94.2819 52.7303L95.3813 51.9642C95.6111 52.2936 95.8295 52.6307 96.0363 52.9678L94.8948 53.6688ZM61.8985 53.2282L60.7761 52.4966C60.9945 52.1596 61.2243 51.8301 61.4618 51.5083L62.5382 52.3013C62.3199 52.6039 62.1053 52.9141 61.8985 53.2282ZM93.6115 51.8263C93.3817 51.5313 93.1366 51.2402 92.8915 50.9644L93.895 50.0795C94.1555 50.3783 94.416 50.6886 94.6611 51.0027L93.6115 51.8263ZM63.2315 51.4202L62.2011 50.566C62.4539 50.2596 62.7221 49.957 62.994 49.662L63.9747 50.5737C63.718 50.8495 63.469 51.1329 63.2315 51.4202ZM92.1253 50.1447C91.861 49.8765 91.589 49.6161 91.3132 49.3671L92.2096 48.3711C92.5046 48.6354 92.7957 48.9151 93.0791 49.1985L92.1253 50.1447ZM64.7637 49.7731L63.8367 48.8078C64.124 48.532 64.4228 48.2601 64.7254 48.0034L65.595 49.0223C65.3115 49.2636 65.0318 49.5165 64.7637 49.7731ZM90.4552 48.6393C90.1602 48.4018 89.8614 48.1758 89.5588 47.9612L90.3364 46.8695C90.6582 47.0994 90.9799 47.3407 91.2941 47.5935L90.4552 48.6393ZM66.4683 48.3175L65.6562 47.2526C65.9742 47.0113 66.3036 46.7776 66.633 46.5555L67.38 47.6663C67.0735 47.8693 66.7671 48.0915 66.4683 48.3175ZM88.628 47.3331C88.3101 47.1339 87.9845 46.9424 87.6589 46.7623L88.3062 45.5902C88.6548 45.7817 89.0034 45.9885 89.3405 46.1992L88.628 47.3331ZM68.33 47.0649L67.6481 45.9119C67.989 45.7089 68.3453 45.5135 68.6977 45.3297L69.3144 46.521C68.9812 46.6895 68.6517 46.8734 68.33 47.0649ZM86.6553 46.249C86.3182 46.0881 85.9734 45.9349 85.6287 45.7932L86.1343 44.5521C86.5021 44.7015 86.8737 44.8662 87.2337 45.0386L86.6553 46.249ZM70.3257 46.0345L69.7817 44.8125C70.1456 44.6517 70.5172 44.4985 70.8887 44.3567L71.3637 45.6093C71.0113 45.7396 70.6627 45.8813 70.3257 46.0345ZM84.5753 45.3986C84.2229 45.2761 83.859 45.165 83.5028 45.0654L83.8628 43.7745C84.2459 43.8817 84.6328 44.0005 85.0082 44.1307L84.5753 45.3986ZM72.421 45.2416L72.0226 43.9622C72.4056 43.8434 72.7925 43.7324 73.1794 43.6366L73.505 44.9351C73.1411 45.0271 72.7772 45.1266 72.421 45.2416ZM82.411 44.7973C82.0471 44.7168 81.6756 44.6478 81.3079 44.5904L81.5147 43.2688C81.9054 43.3301 82.3038 43.4029 82.6945 43.4872L82.411 44.7973ZM74.6006 44.6938L74.3516 43.3799C74.7423 43.3071 75.1407 43.242 75.5352 43.1922L75.7076 44.5214C75.3399 44.5674 74.9645 44.6249 74.6006 44.6938ZM80.1931 44.4487C79.8216 44.4104 79.4424 44.3873 79.0708 44.372L79.1244 43.0352C79.5228 43.0505 79.925 43.0812 80.3196 43.1195L80.1931 44.4487ZM76.8261 44.4027L76.7303 43.0658C77.1249 43.0352 77.5309 43.0199 77.9293 43.0122L77.9485 44.3529C77.5769 44.3606 77.1976 44.3759 76.8261 44.4027Z" fill="#BF9D50"/>
<path d="M78.2587 78.8009C70.0192 78.8009 63.3157 72.0975 63.3157 63.858C63.3157 55.6184 70.0192 48.915 78.2587 48.915C86.4982 48.915 93.2017 55.6184 93.2017 63.858C93.2017 72.0975 86.4982 78.8009 78.2587 78.8009ZM78.2587 50.2519C70.7585 50.2519 64.6526 56.3539 64.6526 63.858C64.6526 71.362 70.7547 77.4641 78.2587 77.4641C85.7627 77.4641 91.8648 71.362 91.8648 63.858C91.8648 56.3539 85.7589 50.2519 78.2587 50.2519Z" fill="#BF9D50"/>
<path d="M95.0288 78.1306C102.911 78.1306 109.301 71.7406 109.301 63.858C109.301 55.9755 102.911 49.5854 95.0288 49.5854C87.1463 49.5854 80.7562 55.9755 80.7562 63.858C80.7562 71.7406 87.1463 78.1306 95.0288 78.1306Z" fill="#BF9D50"/>
<path d="M105.636 67.1446L103.364 59.3302C103.088 58.3764 102.23 57.7137 101.238 57.6831L93.1519 57.4456L101.843 54.159L103.276 45.3296L106.095 53.4772L115.3 54.7528L107.015 57.4533C106.9 57.4916 106.819 57.5912 106.804 57.7099L105.636 67.1446ZM99.9511 56.3041L101.276 56.3424C102.855 56.3884 104.211 57.438 104.651 58.9549L105.107 60.5215L105.475 57.5452C105.551 56.9132 105.996 56.3769 106.601 56.1816L109.359 55.2814L105.099 54.6915L103.747 50.7881L103.127 54.6149C103.073 54.9405 102.851 55.2124 102.544 55.3273L99.9511 56.3041Z" fill="#BF9D50"/>
<path d="M18.0809 50.9568C17.8855 50.9568 17.6901 50.8726 17.5599 50.7078L0.146239 29.0116C-0.0835935 28.7243 -0.0376195 28.303 0.249671 28.0693C0.536962 27.8395 0.958307 27.8855 1.19197 28.1728L18.6056 49.869C18.8354 50.1563 18.7895 50.5776 18.5022 50.8113C18.3758 50.9109 18.2264 50.9568 18.0809 50.9568Z" fill="#BF9D50"/>
<path d="M137.885 50.0717C137.739 50.0717 137.598 50.0258 137.475 49.93C137.184 49.704 137.13 49.2827 137.36 48.9915L154.452 27.0387C154.678 26.7476 155.099 26.6939 155.391 26.9199C155.682 27.146 155.735 27.5673 155.506 27.8584L138.414 49.8113C138.28 49.9837 138.084 50.0717 137.885 50.0717Z" fill="#BF9D50"/>
<path d="M119.154 36.6766C119.069 36.6766 118.981 36.6612 118.897 36.6229C118.556 36.4812 118.395 36.0867 118.537 35.7458L129.259 10.0734C129.4 9.73252 129.791 9.57161 130.136 9.71334C130.477 9.85507 130.638 10.2496 130.496 10.5906L119.774 36.2629C119.663 36.5233 119.418 36.6766 119.154 36.6766Z" fill="#BF9D50"/>
<path d="M93.7648 29.0498C93.738 29.0498 93.715 29.0499 93.6882 29.046C93.3204 29.0039 93.0561 28.6745 93.0983 28.3067L96.2317 0.661669C96.2738 0.293937 96.5994 0.0296609 96.971 0.0717969C97.3387 0.113933 97.603 0.443334 97.5609 0.811066L94.4275 28.4561C94.3892 28.8009 94.1019 29.0498 93.7648 29.0498Z" fill="#BF9D50"/>
<path d="M67.0735 28.7357C66.7556 28.7357 66.4722 28.5059 66.4147 28.1842L61.5653 0.788094C61.5001 0.424193 61.7453 0.0756018 62.1092 0.0104825C62.4731 -0.0546367 62.8217 0.190535 62.8868 0.554437L67.7362 27.9505C67.8013 28.3144 67.5562 28.6629 67.1923 28.7281C67.154 28.7357 67.1118 28.7357 67.0735 28.7357Z" fill="#BF9D50"/>
<path d="M43.8106 35.0293C43.5578 35.0293 43.3164 34.8838 43.2015 34.6386L31.5452 9.37613C31.392 9.03905 31.5376 8.64069 31.8708 8.48747C32.2079 8.33425 32.6024 8.4798 32.7595 8.81305L44.4159 34.0755C44.5691 34.4126 44.4235 34.811 44.0902 34.9642C44.0021 35.0102 43.9064 35.0293 43.8106 35.0293Z" fill="#BF9D50"/>
<path d="M1.54825 100.581C1.39886 100.581 1.24569 100.532 1.11928 100.428C0.835819 100.191 0.79369 99.7693 1.03118 99.4858L18.7972 78.0769C19.0347 77.7935 19.456 77.7513 19.7395 77.9888C20.023 78.2263 20.0652 78.6477 19.8277 78.9312L2.06158 100.34C1.93134 100.497 1.74361 100.581 1.54825 100.581Z" fill="#BF9D50"/>
<path d="M155.823 104.236C155.62 104.236 155.421 104.144 155.287 103.968L138.555 81.739C138.333 81.4441 138.391 81.0227 138.689 80.8005C138.984 80.5784 139.406 80.6358 139.628 80.9346L156.36 103.163C156.582 103.458 156.524 103.88 156.226 104.102C156.103 104.19 155.961 104.236 155.823 104.236Z" fill="#BF9D50"/>
<path d="M130.446 120.941C130.178 120.941 129.929 120.78 129.822 120.519L119.521 94.6748C119.383 94.33 119.552 93.9431 119.897 93.8052C120.242 93.6712 120.628 93.8359 120.766 94.1806L131.067 120.025C131.204 120.37 131.036 120.757 130.691 120.895C130.611 120.925 130.526 120.941 130.446 120.941Z" fill="#BF9D50"/>
<path d="M97.3118 130C96.9709 130 96.6798 129.74 96.6453 129.395L93.9639 101.704C93.9294 101.336 94.1976 101.007 94.5653 100.972C94.9369 100.934 95.2625 101.206 95.2969 101.574L97.9783 129.264C98.0128 129.632 97.7447 129.962 97.377 129.996C97.3578 129.996 97.3348 130 97.3118 130Z" fill="#BF9D50"/>
<path d="M62.6454 129.498C62.6033 129.498 62.5612 129.494 62.5191 129.487C62.1552 129.418 61.9176 129.065 61.9904 128.701L67.2881 101.39C67.357 101.026 67.7095 100.788 68.0734 100.861C68.4373 100.93 68.6747 101.282 68.6019 101.646L63.3044 128.958C63.2392 129.276 62.9595 129.498 62.6454 129.498Z" fill="#BF9D50"/>
<path d="M32.7174 120.584C32.6216 120.584 32.522 120.561 32.4263 120.519C32.093 120.358 31.9513 119.96 32.1121 119.627L44.1784 94.5597C44.3392 94.2265 44.7377 94.0886 45.0709 94.2456C45.4042 94.4065 45.5459 94.8049 45.385 95.1382L33.3188 120.205C33.2039 120.447 32.9664 120.584 32.7174 120.584Z" fill="#BF9D50"/>
<path d="M52.3719 66.0453C53.5799 66.0453 54.5592 65.066 54.5592 63.858C54.5592 62.65 53.5799 61.6708 52.3719 61.6708C51.164 61.6708 50.1847 62.65 50.1847 63.858C50.1847 65.066 51.164 66.0453 52.3719 66.0453Z" fill="#BF9D50"/>
<path d="M56.9877 46.9653C56.9877 45.9387 57.8189 45.1113 58.8417 45.1113C59.8683 45.1113 60.6957 45.9425 60.6957 46.9653C60.6957 47.9919 59.8644 48.8193 58.8417 48.8193C57.8189 48.8231 56.9877 47.9919 56.9877 46.9653Z" fill="#BF9D50"/>
<path d="M64.9821 82.6507C64.9821 80.4443 66.7709 78.6554 68.9773 78.6554C71.1837 78.6554 72.9726 80.4443 72.9726 82.6507C72.9726 84.8571 71.1837 86.646 68.9773 86.646C66.7709 86.6498 64.9821 84.8609 64.9821 82.6507Z" fill="#BF9D50"/>
<path d="M75.9719 52.918C74.1064 52.918 72.5896 51.4011 72.5896 49.5356C72.5896 47.6701 74.1064 46.1532 75.9719 46.1532C77.8374 46.1532 79.3543 47.6701 79.3543 49.5356C79.3543 51.4011 77.8374 52.918 75.9719 52.918ZM75.9719 47.4939C74.8457 47.4939 73.9303 48.4094 73.9303 49.5356C73.9303 50.6618 74.8457 51.5773 75.9719 51.5773C77.0981 51.5773 78.0136 50.6618 78.0136 49.5356C78.0136 48.4094 77.0981 47.4939 75.9719 47.4939Z" fill="#BF9D50"/>
<path d="M72.8347 42.2116C71.2067 42.2116 69.8813 40.8862 69.8813 39.2583C69.8813 37.6303 71.2067 36.3049 72.8347 36.3049C74.4627 36.3049 75.788 37.6303 75.788 39.2583C75.788 40.8862 74.4627 42.2116 72.8347 42.2116ZM72.8347 37.6418C71.946 37.6418 71.222 38.3657 71.222 39.2544C71.222 40.1431 71.946 40.8671 72.8347 40.8671C73.7234 40.8671 74.4473 40.1431 74.4473 39.2544C74.4473 38.3657 73.7234 37.6418 72.8347 37.6418Z" fill="#BF9D50"/>
<path d="M51.7054 79.4675C50.1541 79.4675 48.8938 78.2072 48.8938 76.6558C48.8938 75.1045 50.1541 73.8442 51.7054 73.8442C53.2568 73.8442 54.517 75.1045 54.517 76.6558C54.517 78.2072 53.2568 79.4675 51.7054 79.4675ZM51.7054 75.1849C50.8933 75.1849 50.2345 75.8438 50.2345 76.6558C50.2345 77.4679 50.8933 78.1268 51.7054 78.1268C52.5175 78.1268 53.1763 77.4679 53.1763 76.6558C53.1801 75.8438 52.5175 75.1849 51.7054 75.1849Z" fill="#BF9D50"/>
<path d="M98.9552 87.3162C98.0358 87.3162 97.2851 86.5692 97.2851 85.6461C97.2851 84.7229 98.032 83.976 98.9552 83.976C99.8783 83.976 100.625 84.7229 100.625 85.6461C100.625 86.5692 99.8745 87.3162 98.9552 87.3162ZM98.9552 85.3205C98.7751 85.3205 98.6258 85.4699 98.6258 85.6499C98.6258 85.8299 98.7751 85.9793 98.9552 85.9793C99.1352 85.9793 99.2846 85.8299 99.2846 85.6499C99.2846 85.4699 99.1352 85.3205 98.9552 85.3205Z" fill="#BF9D50"/>
<path d="M79.1743 98.1298C78.4464 98.1298 77.7072 98.1183 76.9755 98.0953L77.0176 96.7585C77.7492 96.7815 78.5 96.7853 79.2087 96.793C79.6224 96.793 80.0399 96.7892 80.4574 96.7815L80.4804 98.1183C80.0438 98.126 79.6071 98.126 79.1743 98.1298ZM83.9854 97.9651L83.8935 96.6283C85.0274 96.5516 86.1803 96.4406 87.318 96.3065L87.475 97.6357C86.3144 97.7736 85.1384 97.8847 83.9854 97.9651ZM73.4782 97.8924C72.3175 97.7966 71.1454 97.6702 69.9925 97.517L70.1686 96.1916C71.2987 96.341 72.4478 96.4636 73.5855 96.5593L73.4782 97.8924ZM90.9417 97.1377L90.7195 95.8162C91.838 95.6285 92.9757 95.4063 94.098 95.1612L94.3853 96.4674C93.24 96.7202 92.0832 96.9423 90.9417 97.1377ZM66.5296 96.973C65.3881 96.7662 64.2313 96.5248 63.0975 96.2605L63.4001 94.9581C64.5148 95.2148 65.6485 95.4523 66.7671 95.6553L66.5296 96.973ZM97.7868 95.6362L97.4383 94.3414C98.5338 94.0465 99.6447 93.7209 100.74 93.3723L101.146 94.6479C100.032 95.0041 98.9015 95.3374 97.7868 95.6362ZM59.7074 95.3872C58.5927 95.0731 57.4665 94.7283 56.3595 94.3606L56.7809 93.0888C57.8688 93.4489 58.9757 93.7898 60.0713 94.0963L59.7074 95.3872ZM104.46 93.514L103.996 92.2576C105.061 91.8669 106.141 91.4417 107.202 91.0012L107.716 92.2385C106.635 92.6866 105.54 93.1156 104.46 93.514ZM53.0576 93.1884C51.9812 92.7786 50.8895 92.338 49.8131 91.8745L50.3417 90.6449C51.4028 91.1008 52.4754 91.5375 53.5326 91.9397L53.0576 93.1884ZM110.918 90.8288L110.355 89.6146C111.378 89.1396 112.42 88.6301 113.454 88.1015L114.063 89.2928C113.017 89.829 111.956 90.3462 110.918 90.8288ZM46.6261 90.4228C45.5881 89.9248 44.5346 89.3962 43.5003 88.8484L44.1248 87.6648C45.1437 88.2049 46.1818 88.7259 47.2045 89.2162L46.6261 90.4228ZM117.143 87.6418L116.488 86.4735C117.472 85.9219 118.476 85.3396 119.468 84.7382L120.161 85.8836C119.157 86.4926 118.142 87.0826 117.143 87.6418ZM40.4359 87.1553C39.4323 86.5769 38.4249 85.9679 37.4367 85.3512L38.1491 84.2173C39.122 84.8263 40.118 85.4277 41.1063 85.9985L40.4359 87.1553ZM123.122 84.0219L122.39 82.8996C123.344 82.2791 124.306 81.6278 125.252 80.969L126.018 82.0684C125.06 82.7349 124.087 83.3937 123.122 84.0219ZM34.5062 83.4397C33.5486 82.7885 32.5871 82.1143 31.6448 81.4248L32.4339 80.3446C33.3609 81.0226 34.3147 81.693 35.257 82.3327L34.5062 83.4397ZM128.849 80.0267L128.052 78.9503C128.96 78.2761 129.883 77.5713 130.795 76.8512L131.622 77.9046C130.699 78.6324 129.768 79.3449 128.849 80.0267ZM28.8523 79.3142C27.9407 78.5979 27.0252 77.8586 26.1327 77.1117L26.9946 76.085C27.8756 76.8243 28.7796 77.556 29.6798 78.2608L28.8523 79.3142ZM134.334 75.7097L133.48 74.6792C134.353 73.9552 135.238 73.2006 136.108 72.4384L136.989 73.4458C136.111 74.2157 135.215 74.978 134.334 75.7097ZM23.4896 74.8133C22.62 74.0319 21.7544 73.2275 20.927 72.4269L21.8578 71.4654C22.6775 72.2545 23.5279 73.0474 24.386 73.8212L23.4896 74.8133ZM139.586 71.1207L138.682 70.1324C139.521 69.3624 140.367 68.5657 141.202 67.7651L142.129 68.7304C141.29 69.5387 140.432 70.3431 139.586 71.1207ZM18.4525 69.9408C16.9164 68.332 16.1082 67.3552 16.0737 67.3169L17.1079 66.4666C17.1156 66.478 17.92 67.451 19.4178 69.0177L18.4525 69.9408Z" fill="#BF9D50"/>
<path d="M17.1118 59.725L16.0737 58.8784C16.1082 58.8362 16.9087 57.8556 18.4525 56.2506L19.4178 57.1776C17.9162 58.7405 17.1194 59.7135 17.1118 59.725ZM142.309 59.5258C141.447 58.7597 140.57 57.9935 139.701 57.2542L140.57 56.2353C141.447 56.9823 142.328 57.7522 143.198 58.526L142.309 59.5258ZM137.046 55.0364C136.154 54.3047 135.242 53.5808 134.342 52.8836L135.165 51.8264C136.073 52.5312 136.993 53.2628 137.893 53.9983L137.046 55.0364ZM21.8654 54.7452L20.9423 53.7761C21.7774 52.9794 22.6469 52.1826 23.5241 51.4088L24.409 52.4125C23.5433 53.1786 22.689 53.9638 21.8654 54.7452ZM131.591 50.7921C130.661 50.1026 129.718 49.4246 128.787 48.7734L129.557 47.6779C130.496 48.3367 131.45 49.0224 132.388 49.7157L131.591 50.7921ZM27.0443 50.1792L26.1978 49.1412C27.0942 48.4057 28.0211 47.6779 28.9481 46.9731L29.7602 48.038C28.8371 48.7351 27.9254 49.4552 27.0443 50.1792ZM125.934 46.8313C124.968 46.1916 123.988 45.5673 123.026 44.9697L123.731 43.832C124.704 44.4373 125.692 45.0693 126.669 45.7166L125.934 46.8313ZM32.5412 46.0039L31.7713 44.9084C32.7289 44.2342 33.7019 43.5754 34.671 42.9472L35.3988 44.0695C34.445 44.6901 33.4835 45.3412 32.5412 46.0039ZM120.065 43.1923C119.062 42.6101 118.05 42.0431 117.054 41.5069L117.69 40.3271C118.698 40.871 119.724 41.4456 120.74 42.0316L120.065 43.1923ZM38.3291 42.2462L37.6434 41.097C38.647 40.4995 39.6699 39.9172 40.6849 39.3618L41.3246 40.5378C40.3248 41.0817 39.3174 41.6601 38.3291 42.2462ZM113.99 39.921C112.96 39.4077 111.91 38.9098 110.876 38.4424L111.431 37.2243C112.481 37.6993 113.542 38.2049 114.588 38.7259L113.99 39.921ZM44.3852 38.9519L43.7915 37.753C44.8372 37.2358 45.9021 36.7379 46.9632 36.2667L47.5071 37.4925C46.4652 37.9483 45.4156 38.4425 44.3852 38.9519ZM107.708 37.0749C106.643 36.6383 105.563 36.2169 104.494 35.8262L104.954 34.5698C106.034 34.9681 107.133 35.3933 108.214 35.8377L107.708 37.0749ZM50.6826 36.1594L50.1923 34.9145C51.2763 34.4855 52.3834 34.0794 53.4789 33.704L53.9157 34.972C52.8393 35.3359 51.7513 35.7381 50.6826 36.1594ZM101.238 34.7038C100.146 34.3514 99.0356 34.0182 97.9401 33.7155L98.2963 32.4247C99.411 32.7349 100.537 33.072 101.648 33.4283L101.238 34.7038ZM57.1945 33.9186L56.8153 32.6354C57.9338 32.3059 59.0715 31.9995 60.1977 31.7198L60.5195 33.0184C59.4087 33.2904 58.2901 33.593 57.1945 33.9186ZM94.6037 32.8652C93.4852 32.6047 92.3513 32.371 91.2328 32.1642L91.4779 30.8465C92.6156 31.0572 93.7687 31.2985 94.9063 31.5628L94.6037 32.8652ZM63.8751 32.2753L63.6145 30.9614C64.756 30.7354 65.9167 30.5362 67.0659 30.3638L67.2612 31.6892C66.1389 31.8577 64.9974 32.0531 63.8751 32.2753ZM87.8351 31.6126C86.7012 31.4555 85.5521 31.3215 84.4183 31.218L84.5408 29.885C85.6977 29.9923 86.8659 30.1263 88.0189 30.2872L87.8351 31.6126ZM70.6781 31.2678L70.544 29.9348C71.7009 29.8199 72.8768 29.7318 74.0374 29.6705L74.1065 31.0074C72.9688 31.0687 71.8158 31.1529 70.6781 31.2678ZM80.9861 30.9844C79.925 30.9384 78.8486 30.9154 77.7914 30.9154H77.5463L77.5386 29.5747H77.7914C78.8678 29.5747 79.9633 29.5977 81.0435 29.6475L80.9861 30.9844Z" fill="#BF9D50"/>
</svg>
