<svg width="126" height="130" viewBox="0 0 126 130" fill="none" xmlns="http://www.w3.org/2000/svg">
<path d="M62.724 119.81C32.6617 119.81 8.203 95.351 8.203 65.2888C8.203 35.2266 32.6617 10.7678 62.724 10.7678C92.7862 10.7678 117.245 35.2266 117.245 65.2888C117.245 95.3549 92.7862 119.81 62.724 119.81ZM62.724 12.1157C33.405 12.1157 9.55091 35.9699 9.55091 65.2888C9.55091 94.6077 33.405 118.462 62.724 118.462C92.0429 118.462 115.897 94.6077 115.897 65.2888C115.897 35.9699 92.0429 12.1157 62.724 12.1157Z" fill="#BF9D50"/>
<path d="M61.0603 115.504C59.8934 115.466 58.7188 115.389 57.5634 115.269L57.7021 113.929C58.8266 114.045 59.9704 114.122 61.1065 114.156L61.0603 115.504ZM64.5648 115.5L64.5148 114.156C65.6509 114.114 66.7947 114.033 67.9192 113.914L68.0617 115.254C66.9064 115.373 65.7317 115.458 64.5648 115.5ZM54.0897 114.792C52.942 114.591 51.7867 114.353 50.6583 114.072L50.9818 112.766C52.0793 113.036 53.2039 113.27 54.3207 113.467L54.0897 114.792ZM71.5316 114.761L71.2967 113.436C72.4135 113.24 73.5342 113.001 74.6318 112.724L74.9591 114.029C73.8346 114.314 72.6792 114.561 71.5316 114.761ZM47.2847 113.116C46.1755 112.758 45.0664 112.358 43.9842 111.923L44.4848 110.675C45.5362 111.098 46.6184 111.487 47.6968 111.838L47.2847 113.116ZM78.3289 113.063L77.9091 111.784C78.9875 111.433 80.0658 111.037 81.1133 110.613L81.6217 111.861C80.5434 112.292 79.438 112.7 78.3289 113.063ZM40.7762 110.498C39.7287 109.989 38.685 109.435 37.676 108.853L38.35 107.686C39.332 108.252 40.3487 108.792 41.3654 109.288L40.7762 110.498ZM84.8181 110.424L84.2251 109.215C85.2418 108.718 86.2546 108.175 87.2328 107.609L87.9068 108.772C86.9016 109.358 85.8656 109.912 84.8181 110.424ZM34.6991 106.997C33.7324 106.346 32.7773 105.653 31.8608 104.937L32.6887 103.874C33.5822 104.571 34.5142 105.245 35.4539 105.876L34.6991 106.997ZM90.876 106.908L90.1212 105.795C91.057 105.16 91.9852 104.482 92.8748 103.785L93.7066 104.844C92.7901 105.56 91.8388 106.257 90.876 106.908ZM29.1687 102.687C28.3022 101.91 27.4512 101.093 26.6424 100.257L27.6091 99.3215C28.3985 100.134 29.2227 100.931 30.0661 101.69L29.1687 102.687ZM96.387 102.587L95.4859 101.59C96.3254 100.831 97.1534 100.03 97.9391 99.2176L98.9096 100.153C98.1008 100.985 97.2535 101.806 96.387 102.587ZM24.2932 97.654C23.5422 96.7644 22.8144 95.8362 22.1289 94.8965L23.2149 94.1032C23.8811 95.0159 24.5897 95.921 25.3214 96.7875L24.2932 97.654ZM101.251 97.5385L100.219 96.6719C100.947 95.8016 101.655 94.8966 102.318 93.98L103.408 94.7695C102.726 95.7169 101.998 96.645 101.251 97.5385ZM20.1609 91.9966C19.5409 91.0107 18.9478 89.994 18.4009 88.9657L19.5871 88.3303C20.1224 89.3278 20.6962 90.3214 21.3008 91.2765L20.1609 91.9966ZM105.368 91.8657L104.228 91.1532C104.829 90.1904 105.403 89.1968 105.934 88.1955L107.124 88.8271C106.577 89.8554 105.984 90.8798 105.368 91.8657ZM16.8566 85.8232C16.3829 84.7641 15.9362 83.6704 15.5357 82.5805L16.7988 82.1184C17.1878 83.1813 17.6191 84.2442 18.0813 85.2763L16.8566 85.8232ZM108.661 85.673L107.432 85.1261C107.894 84.0902 108.322 83.0234 108.707 81.9566L109.974 82.4149C109.573 83.5086 109.134 84.6062 108.661 85.673ZM14.4457 79.2493C14.1222 78.1286 13.8373 76.9848 13.5908 75.8487L14.9079 75.5675C15.1428 76.6728 15.424 77.7858 15.7359 78.8757L14.4457 79.2493ZM111.048 79.0798L109.754 78.7101C110.066 77.6202 110.34 76.5034 110.575 75.3981L111.892 75.6754C111.649 76.8115 111.368 77.9591 111.048 79.0798ZM12.9823 72.398C12.8206 71.2465 12.6935 70.0758 12.6126 68.9127L13.9566 68.8164C14.0375 69.9487 14.1569 71.0886 14.3187 72.2093L12.9823 72.398ZM112.489 72.2209L111.156 72.036C111.31 70.9153 111.43 69.7715 111.507 68.6431L112.851 68.7356C112.77 69.8986 112.651 71.0694 112.489 72.2209ZM13.8296 65.4082H12.4817V65.2965C12.4817 64.1296 12.5202 62.9511 12.6011 61.7919L13.9451 61.8843C13.8681 63.0127 13.8296 64.1604 13.8296 65.2926V65.4082ZM111.618 65.2349C111.618 64.0988 111.576 62.9511 111.499 61.8227L112.843 61.7303C112.924 62.8895 112.966 64.068 112.966 65.2349H111.618ZM14.2994 58.4876L12.9669 58.3028C13.1287 57.1513 13.3289 55.9882 13.5715 54.8482L14.8886 55.1255C14.6537 56.2347 14.4534 57.3669 14.2994 58.4876ZM111.141 58.4298C110.983 57.3053 110.783 56.1769 110.548 55.0716L111.865 54.7905C112.108 55.9266 112.312 57.0896 112.473 58.2411L111.141 58.4298ZM15.7089 51.8174L14.415 51.4477C14.7346 50.327 15.1004 49.2063 15.4971 48.1126L16.7642 48.5747C16.3752 49.6376 16.0209 50.7275 15.7089 51.8174ZM109.724 51.7596C109.412 50.6697 109.054 49.5798 108.668 48.5169L109.932 48.0548C110.332 49.1485 110.698 50.2692 111.018 51.3899L109.724 51.7596ZM18.0428 45.4052L16.8142 44.8583C17.2879 43.7954 17.8078 42.7363 18.3547 41.7042L19.5408 42.3358C19.0094 43.3371 18.5049 44.3692 18.0428 45.4052ZM107.386 45.359C106.924 44.3269 106.419 43.2986 105.888 42.2973L107.074 41.6619C107.621 42.6901 108.141 43.7492 108.614 44.8083L107.386 45.359ZM21.2508 39.382L20.1108 38.6657C20.727 37.6798 21.3894 36.7015 22.0749 35.758L23.1648 36.5513C22.4947 37.4679 21.8516 38.4192 21.2508 39.382ZM104.178 39.3473C103.577 38.3884 102.934 37.4371 102.268 36.5244L103.358 35.7311C104.043 36.6708 104.706 37.6489 105.322 38.6348L104.178 39.3473ZM25.2637 33.8632L24.2316 32.9967C24.9787 32.1071 25.7682 31.229 26.5769 30.3933L27.5436 31.3292C26.7618 32.1418 25.9916 32.9967 25.2637 33.8632ZM100.161 33.8401C99.4333 32.9736 98.6631 32.1225 97.8774 31.3061L98.8441 30.3702C99.6528 31.2098 100.446 32.084 101.193 32.9736L100.161 33.8401ZM30.0045 28.9569L29.1033 27.9556C29.966 27.1776 30.871 26.4189 31.7876 25.6988L32.6156 26.7578C31.7221 27.4626 30.844 28.1982 30.0045 28.9569ZM95.4204 28.9337C94.577 28.1751 93.699 27.4356 92.8055 26.7386L93.6334 25.6795C94.55 26.3958 95.4551 27.1545 96.3216 27.9325L95.4204 28.9337ZM35.373 24.7552L34.6182 23.6384C35.581 22.9875 36.5823 22.3598 37.5874 21.7783L38.2614 22.9452C37.2832 23.5113 36.3127 24.1198 35.373 24.7552ZM90.0442 24.736C89.1045 24.1005 88.1301 23.4921 87.1481 22.9259L87.822 21.759C88.8311 22.3405 89.8323 22.9683 90.7951 23.6191L90.0442 24.736ZM41.273 21.3392L40.6799 20.13C41.7236 19.6178 42.8019 19.1402 43.8764 18.7012L44.3809 19.949C43.3372 20.3764 42.2897 20.8424 41.273 21.3392ZM84.1326 21.32C83.1121 20.8232 82.0607 20.3533 81.0132 19.9297L81.5177 18.6819C82.596 19.1171 83.6743 19.5985 84.7257 20.1107L84.1326 21.32ZM47.5889 18.7821L47.173 17.5035C48.2782 17.1453 49.4143 16.818 50.5427 16.5368L50.8663 17.8424C49.7687 18.1158 48.6672 18.4316 47.5889 18.7821ZM77.8013 18.7667C76.7268 18.4162 75.6215 18.1043 74.5201 17.8308L74.8436 16.5253C75.9759 16.8064 77.1081 17.1299 78.2134 17.4881L77.8013 18.7667ZM54.2052 17.1338L53.9703 15.809C55.1141 15.6087 56.281 15.4431 57.444 15.3237L57.5827 16.6639C56.4543 16.7795 55.3182 16.9412 54.2052 17.1338ZM71.185 17.1261C70.072 16.9335 68.9359 16.7756 67.8075 16.6562L67.9462 15.316C69.1054 15.4354 70.2761 15.5972 71.4199 15.7974L71.185 17.1261ZM60.9871 16.4252L60.9409 15.0811C62.1078 15.0387 63.2863 15.0387 64.4455 15.0773L64.3993 16.4213C63.2709 16.3867 62.1232 16.3867 60.9871 16.4252Z" fill="#BF9D50"/>
<path d="M44.5657 102.78C31.9801 102.78 21.7437 92.5435 21.7437 79.9579C21.7437 67.3723 31.9801 57.1359 44.5657 57.1359C57.1513 57.1359 67.3878 67.3723 67.3878 79.9579C67.3878 92.5396 57.1513 102.78 44.5657 102.78ZM44.5657 58.4799C32.7234 58.4799 23.0878 68.1155 23.0878 79.9579C23.0878 91.8002 32.7234 101.436 44.5657 101.436C56.4081 101.436 66.0437 91.8002 66.0437 79.9579C66.0437 68.1155 56.4081 58.4799 44.5657 58.4799Z" fill="#BF9D50"/>
<path d="M62.724 107.509C39.4437 107.509 20.5075 88.5691 20.5075 65.2927C20.5075 42.0124 39.4475 23.0762 62.724 23.0762C86.0043 23.0762 104.94 42.0162 104.94 65.2927C104.94 88.5691 86.0043 107.509 62.724 107.509ZM62.724 24.4202C40.1869 24.4202 21.8515 42.7556 21.8515 65.2927C21.8515 87.8297 40.1869 106.165 62.724 106.165C85.261 106.165 103.596 87.8297 103.596 65.2927C103.596 42.7556 85.261 24.4202 62.724 24.4202Z" fill="#BF9D50"/>
<path d="M62.7239 93.0096C47.4387 93.0096 35.0071 80.5742 35.0071 65.2928C35.0071 50.0113 47.4425 37.5759 62.7239 37.5759C78.0054 37.5759 90.4408 50.0113 90.4408 65.2928C90.4408 80.5742 78.0054 93.0096 62.7239 93.0096ZM62.7239 38.92C48.1819 38.92 36.3512 50.7508 36.3512 65.2928C36.3512 79.8348 48.1819 91.6656 62.7239 91.6656C77.266 91.6656 89.0968 79.8348 89.0968 65.2928C89.0929 50.7508 77.266 38.92 62.7239 38.92Z" fill="#BF9D50"/>
<path d="M83.7629 53.0152C81.1634 53.0152 79.0491 50.9009 79.0491 48.3013C79.0491 45.7018 81.1634 43.5875 83.7629 43.5875C86.3624 43.5875 88.4767 45.7018 88.4767 48.3013C88.4767 50.897 86.3624 53.0152 83.7629 53.0152ZM83.7629 44.9316C81.9066 44.9316 80.3931 46.4412 80.3931 48.3013C80.3931 50.1615 81.9028 51.6711 83.7629 51.6711C85.623 51.6711 87.1327 50.1615 87.1327 48.3013C87.1327 46.4412 85.6192 44.9316 83.7629 44.9316Z" fill="#BF9D50"/>
<path d="M89.7669 65.3235C88.6655 65.3235 87.772 64.4301 87.772 63.3286C87.772 62.2272 88.6655 61.3337 89.7669 61.3337C90.8683 61.3337 91.7618 62.2272 91.7618 63.3286C91.7618 64.4301 90.8683 65.3235 89.7669 65.3235ZM89.7669 62.6816C89.4087 62.6816 89.1199 62.9743 89.1199 63.3286C89.1199 63.6868 89.4126 63.9756 89.7669 63.9756C90.1212 63.9756 90.4139 63.6829 90.4139 63.3286C90.4177 62.9705 90.1251 62.6816 89.7669 62.6816Z" fill="#BF9D50"/>
<path d="M102.942 59.3233C100.469 59.3233 98.4551 57.313 98.4551 54.8367C98.4551 52.3604 100.465 50.3501 102.942 50.3501C105.418 50.3501 107.428 52.3604 107.428 54.8367C107.428 57.313 105.414 59.3233 102.942 59.3233ZM102.942 51.7019C101.213 51.7019 99.803 53.1114 99.803 54.8406C99.803 56.5697 101.213 57.9793 102.942 57.9793C104.671 57.9793 106.08 56.5697 106.08 54.8406C106.08 53.1075 104.671 51.7019 102.942 51.7019Z" fill="#BF9D50"/>
<path d="M48.8174 29.8581C46.4798 29.8581 44.5773 27.9556 44.5773 25.6179C44.5773 23.2803 46.4798 21.3778 48.8174 21.3778C51.1551 21.3778 53.0575 23.2803 53.0575 25.6179C53.0537 27.9556 51.1551 29.8581 48.8174 29.8581ZM48.8174 22.7257C47.223 22.7257 45.9252 24.0236 45.9252 25.6179C45.9252 27.2123 47.223 28.5102 48.8174 28.5102C50.4118 28.5102 51.7096 27.2123 51.7096 25.6179C51.7096 24.0236 50.4118 22.7257 48.8174 22.7257Z" fill="#BF9D50"/>
<path d="M58.0294 40.11C57.2284 40.11 56.5737 39.4591 56.5737 38.6542C56.5737 37.8532 57.2245 37.1985 58.0294 37.1985C58.8343 37.1985 59.4852 37.8493 59.4852 38.6542C59.4813 39.4553 58.8305 40.11 58.0294 40.11ZM58.0294 38.5464C57.9678 38.5464 57.9216 38.5964 57.9216 38.6542C57.9216 38.7158 57.9717 38.7621 58.0294 38.7621C58.0872 38.7621 58.1373 38.712 58.1373 38.6542C58.1373 38.5926 58.0872 38.5464 58.0294 38.5464Z" fill="#BF9D50"/>
<path d="M56.7277 65.2156C54.6481 65.2156 52.9574 63.525 52.9574 61.4453C52.9574 59.3657 54.6481 57.675 56.7277 57.675C58.8073 57.675 60.498 59.3657 60.498 61.4453C60.498 63.525 58.8073 65.2156 56.7277 65.2156ZM56.7277 59.0191C55.3914 59.0191 54.3015 60.1051 54.3015 61.4415C54.3015 62.7778 55.3875 63.8677 56.7277 63.8677C58.0679 63.8677 59.1501 62.7817 59.1501 61.4415C59.154 60.109 58.0641 59.0191 56.7277 59.0191Z" fill="#BF9D50"/>
<path d="M46.3296 88.469C45.4091 88.469 44.662 87.7219 44.662 86.8015C44.662 85.881 45.4091 85.1339 46.3296 85.1339C47.25 85.1339 47.9971 85.881 47.9971 86.8015C47.9971 87.7181 47.25 88.469 46.3296 88.469ZM46.3296 86.478C46.1524 86.478 46.0061 86.6243 46.0061 86.8015C46.0061 86.9786 46.1524 87.125 46.3296 87.125C46.5067 87.125 46.653 86.9786 46.653 86.8015C46.6492 86.6205 46.5067 86.478 46.3296 86.478Z" fill="#BF9D50"/>
<path d="M36.8557 77.6973C34.3794 77.6973 32.3614 75.6831 32.3614 73.2029C32.3614 70.7228 34.3755 68.7086 36.8557 68.7086C39.3358 68.7086 41.35 70.7228 41.35 73.2029C41.35 75.6831 39.332 77.6973 36.8557 77.6973ZM36.8557 70.0565C35.1188 70.0565 33.7093 71.4699 33.7093 73.2029C33.7093 74.936 35.1227 76.3493 36.8557 76.3493C38.5887 76.3493 40.0021 74.936 40.0021 73.2029C40.0021 71.4661 38.5926 70.0565 36.8557 70.0565Z" fill="#BF9D50"/>
<path d="M73.0182 94.4846C70.7152 94.4846 68.8396 92.6091 68.8396 90.3061C68.8396 88.0031 70.7152 86.1276 73.0182 86.1276C75.3212 86.1276 77.1967 88.0031 77.1967 90.3061C77.2005 92.6091 75.325 94.4846 73.0182 94.4846ZM73.0182 87.4716C71.4546 87.4716 70.1837 88.7425 70.1837 90.3061C70.1837 91.8696 71.4546 93.1405 73.0182 93.1405C74.5817 93.1405 75.8526 91.8696 75.8526 90.3061C75.8526 88.7425 74.5817 87.4716 73.0182 87.4716Z" fill="#BF9D50"/>
<path d="M84.7026 79.9579C84.7026 79.5458 85.0376 79.2146 85.4459 79.2146C85.8579 79.2146 86.1892 79.5496 86.1892 79.9579C86.1892 80.3661 85.8541 80.7011 85.4459 80.7011C85.0338 80.7011 84.7026 80.3661 84.7026 79.9579Z" fill="#BF9D50"/>
<path d="M53.6313 91.3613C53.6313 90.3138 54.4825 89.4626 55.53 89.4626C56.5775 89.4626 57.4286 90.3138 57.4286 91.3613C57.4286 92.4088 56.5775 93.2599 55.53 93.2599C54.4786 93.2599 53.6313 92.4088 53.6313 91.3613Z" fill="#BF9D50"/>
<path d="M60.8677 73.9694C60.8677 71.5662 62.8164 69.6176 65.2195 69.6176C67.6227 69.6176 69.5713 71.5662 69.5713 73.9694C69.5713 76.3725 67.6227 78.3212 65.2195 78.3212C62.8164 78.3212 60.8677 76.3725 60.8677 73.9694Z" fill="#BF9D50"/>
<path d="M42.5169 45.2473C42.5169 44.1151 43.4335 43.1985 44.5658 43.1985C45.698 43.1985 46.6146 44.1151 46.6146 45.2473C46.6146 46.3796 45.698 47.2961 44.5658 47.2961C43.4335 47.3 42.5169 46.3796 42.5169 45.2473Z" fill="#BF9D50"/>
<path d="M108.606 76.9886C109.54 73.8714 107.77 70.587 104.653 69.6527C101.536 68.7184 98.2513 70.4881 97.317 73.6053C96.3828 76.7225 98.1524 80.0069 101.27 80.9412C104.387 81.8755 107.671 80.1058 108.606 76.9886Z" fill="#BF9D50"/>
<path d="M44.5658 105.233C46.6012 105.233 48.2513 103.583 48.2513 101.548C48.2513 99.5121 46.6012 97.8621 44.5658 97.8621C42.5303 97.8621 40.8802 99.5121 40.8802 101.548C40.8802 103.583 42.5303 105.233 44.5658 105.233Z" fill="#BF9D50"/>
<path d="M80.8784 29.1842C80.8784 27.8555 81.9567 26.7772 83.2853 26.7772C84.614 26.7772 85.6923 27.8555 85.6923 29.1842C85.6923 30.5129 84.614 31.5912 83.2853 31.5912C81.9567 31.5912 80.8784 30.5129 80.8784 29.1842Z" fill="#BF9D50"/>
<path d="M20.4035 54.3554C20.4035 53.2424 21.3047 52.3412 22.4177 52.3412C23.5307 52.3412 24.4318 53.2424 24.4318 54.3554C24.4318 55.4684 23.5307 56.3695 22.4177 56.3695C21.3047 56.3695 20.4035 55.4684 20.4035 54.3554Z" fill="#BF9D50"/>
<path d="M62.7239 84.1211C52.3412 84.1211 43.8956 75.6754 43.8956 65.2927C43.8956 54.9099 52.3412 46.4644 62.7239 46.4644C73.1067 46.4644 81.5523 54.9099 81.5523 65.2927C81.5523 75.6754 73.1067 84.1211 62.7239 84.1211ZM62.7239 47.8084C53.0845 47.8084 45.2397 55.6494 45.2397 65.2889C45.2397 74.9283 53.0806 82.7693 62.7239 82.7693C72.3634 82.7693 80.2044 74.9283 80.2044 65.2889C80.2044 55.6494 72.3634 47.8084 62.7239 47.8084Z" fill="#BF9D50"/>
<path d="M62.7239 77.0195C56.2578 77.0195 50.9972 71.7588 50.9972 65.2927C50.9972 58.8266 56.2578 53.5659 62.7239 53.5659C69.1901 53.5659 74.4508 58.8266 74.4508 65.2927C74.4508 71.7588 69.1901 77.0195 62.7239 77.0195ZM62.7239 54.91C57.0011 54.91 52.3412 59.566 52.3412 65.2927C52.3412 71.0155 56.9973 75.6755 62.7239 75.6755C68.4468 75.6755 73.1067 71.0194 73.1067 65.2927C73.1067 59.566 68.4468 54.91 62.7239 54.91Z" fill="#BF9D50"/>
<path d="M72.4906 62.2465C71.3121 62.2465 70.357 61.2875 70.357 60.1129C70.357 58.9345 71.316 57.9794 72.4906 57.9794C73.669 57.9794 74.6241 58.9383 74.6241 60.1129C74.6241 61.2875 73.669 62.2465 72.4906 62.2465ZM72.4906 59.3234C72.0554 59.3234 71.701 59.6777 71.701 60.1129C71.701 60.5481 72.0554 60.9024 72.4906 60.9024C72.9257 60.9024 73.28 60.5481 73.28 60.1129C73.28 59.6777 72.9257 59.3234 72.4906 59.3234Z" fill="#BF9D50"/>
<path d="M65.2196 56.1154C64.5148 56.1154 63.9448 55.5416 63.9448 54.8407C63.9448 54.1359 64.5186 53.5659 65.2196 53.5659C65.9205 53.5659 66.4943 54.1397 66.4943 54.8407C66.4943 55.5416 65.9243 56.1154 65.2196 56.1154ZM65.2196 54.7675C65.181 54.7675 65.1502 54.7983 65.1502 54.8368C65.1502 54.9138 65.2927 54.9138 65.2927 54.8368C65.2889 54.7983 65.2581 54.7675 65.2196 54.7675Z" fill="#BF9D50"/>
<path d="M56.7277 53.277C53.4311 53.277 50.7468 50.5966 50.7468 47.2962C50.7468 43.9996 53.4272 41.3153 56.7277 41.3153C60.0243 41.3153 62.7086 43.9957 62.7086 47.2962C62.7086 50.5966 60.0243 53.277 56.7277 53.277ZM56.7277 42.667C54.1744 42.667 52.0947 44.7467 52.0947 47.3C52.0947 49.8533 54.1744 51.933 56.7277 51.933C59.281 51.933 61.3607 49.8533 61.3607 47.3C61.3607 44.7467 59.281 42.667 56.7277 42.667Z" fill="#BF9D50"/>
<path d="M85.4458 103.947C83.3123 103.947 81.5754 102.21 81.5754 100.076C81.5754 97.9429 83.3123 96.2061 85.4458 96.2061C87.5794 96.2061 89.3163 97.9429 89.3163 100.076C89.3163 102.21 87.5794 103.947 85.4458 103.947ZM85.4458 97.554C84.0556 97.554 82.9233 98.6862 82.9233 100.076C82.9233 101.467 84.0556 102.599 85.4458 102.599C86.8361 102.599 87.9684 101.467 87.9684 100.076C87.9684 98.6862 86.8361 97.554 85.4458 97.554Z" fill="#BF9D50"/>
<path d="M93.4409 94.8581C92.559 94.8581 91.8427 94.1418 91.8427 93.2598C91.8427 92.3779 92.559 91.6616 93.4409 91.6616C94.3228 91.6616 95.0391 92.3779 95.0391 93.2598C95.0391 94.1418 94.3228 94.8581 93.4409 94.8581ZM93.4409 93.0095C93.3022 93.0095 93.1906 93.1212 93.1906 93.2598C93.1906 93.3985 93.3022 93.5102 93.4409 93.5102C93.5795 93.5102 93.6912 93.3985 93.6912 93.2598C93.6951 93.1212 93.5834 93.0095 93.4409 93.0095Z" fill="#BF9D50"/>
<path d="M23.1994 88.496C21.7167 88.496 20.5075 87.2867 20.5075 85.804C20.5075 84.3213 21.7167 83.1121 23.1994 83.1121C24.6821 83.1121 25.8914 84.3213 25.8914 85.804C25.8876 87.2867 24.6821 88.496 23.1994 88.496ZM23.1994 84.46C22.4562 84.46 21.8554 85.0646 21.8554 85.804C21.8554 86.5473 22.46 87.1481 23.1994 87.1481C23.9389 87.1481 24.5435 86.5434 24.5435 85.804C24.5435 85.0607 23.9389 84.46 23.1994 84.46Z" fill="#BF9D50"/>
<path d="M36.5476 100.908C36.5476 100.45 36.9212 100.076 37.3794 100.076C37.8377 100.076 38.2113 100.45 38.2113 100.908C38.2113 101.367 37.8377 101.74 37.3794 101.74C36.9212 101.74 36.5476 101.367 36.5476 100.908Z" fill="#BF9D50"/>
<path d="M73.7768 66.5789C74.4872 66.5789 75.0631 66.003 75.0631 65.2926C75.0631 64.5822 74.4872 64.0063 73.7768 64.0063C73.0664 64.0063 72.4906 64.5822 72.4906 65.2926C72.4906 66.003 73.0664 66.5789 73.7768 66.5789Z" fill="#BF9D50"/>
<path d="M55.5261 74.2736C56.1174 74.2736 56.5968 73.7942 56.5968 73.203C56.5968 72.6117 56.1174 72.1323 55.5261 72.1323C54.9349 72.1323 54.4555 72.6117 54.4555 73.203C54.4555 73.7942 54.9349 74.2736 55.5261 74.2736Z" fill="#BF9D50"/>
<path d="M43.9149 70.2184C43.9149 69.4828 44.5118 68.8859 45.2473 68.8859C45.9829 68.8859 46.5799 69.4828 46.5799 70.2184C46.5799 70.9539 45.9829 71.5509 45.2473 71.5509C44.5118 71.5509 43.9149 70.9539 43.9149 70.2184Z" fill="#BF9D50"/>
<path d="M61.9268 128.009C60.756 127.993 59.5699 127.947 58.403 127.866L58.4954 126.522C59.6353 126.599 60.7984 126.646 61.9461 126.661L61.9268 128.009ZM65.4545 127.955L65.3967 126.611C66.5443 126.561 67.7035 126.48 68.8396 126.368L68.9706 127.709C67.8075 127.82 66.6252 127.905 65.4545 127.955ZM54.8907 127.528C53.7276 127.381 52.5531 127.204 51.4054 126.992L51.648 125.667C52.7726 125.872 53.9202 126.049 55.0602 126.191L54.8907 127.528ZM72.4713 127.262L72.2633 125.933C73.3956 125.756 74.5355 125.544 75.6562 125.305L75.9373 126.622C74.7935 126.865 73.6266 127.081 72.4713 127.262ZM47.9509 126.264C46.8109 125.991 45.6672 125.679 44.5465 125.34L44.9354 124.05C46.033 124.381 47.1537 124.685 48.2667 124.955L47.9509 126.264ZM79.3687 125.779L79.0106 124.481C80.1158 124.177 81.225 123.838 82.311 123.472L82.7424 124.747C81.6332 125.124 80.4971 125.471 79.3687 125.779ZM41.1921 124.219C40.0907 123.819 38.9854 123.376 37.9071 122.914L38.4385 121.678C39.4937 122.132 40.5759 122.563 41.6504 122.956L41.1921 124.219ZM86.0544 123.53L85.5537 122.278C86.6166 121.855 87.6796 121.393 88.7155 120.907L89.2855 122.128C88.2264 122.625 87.1365 123.095 86.0544 123.53ZM34.7029 121.423C33.6554 120.9 32.6078 120.337 31.5911 119.756L32.2612 118.589C33.2587 119.159 34.2831 119.71 35.3075 120.222L34.7029 121.423ZM92.4319 120.545L91.7926 119.359C92.8016 118.816 93.8068 118.238 94.7811 117.638L95.4859 118.785C94.4884 119.398 93.4601 119.991 92.4319 120.545ZM28.5757 117.911C27.5936 117.272 26.6154 116.598 25.6719 115.905L26.4691 114.819C27.3934 115.496 28.3485 116.159 29.3113 116.783L28.5757 117.911ZM98.4359 116.86L97.6695 115.754C98.6092 115.1 99.545 114.414 100.45 113.71L101.278 114.772C100.354 115.489 99.3987 116.194 98.4359 116.86ZM22.8837 113.74C21.9786 112.997 21.0851 112.215 20.2225 111.422L21.1352 110.432C21.9786 111.21 22.8567 111.973 23.7386 112.701L22.8837 113.74ZM103.997 112.523L103.111 111.51C103.974 110.756 104.825 109.966 105.645 109.165L106.585 110.128C105.749 110.944 104.875 111.753 103.997 112.523ZM17.6961 108.957C16.8797 108.118 16.0786 107.243 15.3122 106.358L16.329 105.476C17.0799 106.342 17.8656 107.197 18.6628 108.021L17.6961 108.957ZM109.038 107.59L108.045 106.681C108.815 105.838 109.577 104.956 110.301 104.066L111.345 104.917C110.602 105.83 109.828 106.727 109.038 107.59ZM13.0786 103.631C12.3623 102.703 11.6614 101.748 10.999 100.781L12.1081 100.019C12.7551 100.962 13.4406 101.898 14.1415 102.807L13.0786 103.631ZM113.498 102.121L112.408 101.332C113.082 100.404 113.737 99.4448 114.36 98.482L115.493 99.2099C114.857 100.196 114.187 101.174 113.498 102.121ZM9.08494 97.8196C8.47645 96.8183 7.89106 95.79 7.34035 94.7579L8.52649 94.1263C9.06565 95.1353 9.6395 96.1443 10.2326 97.1225L9.08494 97.8196ZM117.322 96.1867L116.151 95.5243C116.717 94.5268 117.26 93.4986 117.773 92.4703L118.978 93.0673C118.454 94.1186 117.9 95.1662 117.322 96.1867ZM5.7729 91.6038C5.2838 90.5447 4.81396 89.4549 4.38649 88.3688L5.63811 87.872C6.05789 88.935 6.51619 90.0017 6.99759 91.0377L5.7729 91.6038ZM120.453 89.8554L119.213 89.3278C119.663 88.2687 120.087 87.1865 120.476 86.1082L121.743 86.5665C121.346 87.6679 120.915 88.7771 120.453 89.8554ZM3.17721 85.053C2.8075 83.94 2.46864 82.8039 2.16055 81.6755L3.4622 81.325C3.76259 82.4303 4.09382 83.5433 4.45583 84.6294L3.17721 85.053ZM122.848 83.216L121.558 82.8309C121.886 81.7333 122.186 80.6126 122.448 79.4957L123.757 79.8077C123.488 80.9476 123.18 82.0953 122.848 83.216ZM1.34025 78.2403C1.10147 77.0926 0.889657 75.9257 0.712504 74.7665L2.04499 74.5663C2.21829 75.6985 2.42239 76.8423 2.65731 77.963L1.34025 78.2403ZM124.474 76.3493L123.149 76.1144C123.349 74.986 123.519 73.8384 123.657 72.6984L124.994 72.8602C124.855 74.0232 124.678 75.1978 124.474 76.3493ZM0.281175 71.2697C0.169491 70.1066 0.0924261 68.9204 0.0462121 67.7497L1.39031 67.6996C1.43268 68.8473 1.50969 70.0065 1.61752 71.1426L0.281175 71.2697ZM125.317 69.3479L123.973 69.2632C124.046 68.1232 124.089 66.9602 124.096 65.8126L125.444 65.8241C125.433 66.9987 125.39 68.1849 125.317 69.3479ZM1.34791 65.2926H0C0 64.118 0.0346605 62.9319 0.0962792 61.7688L1.44033 61.842C1.37871 62.9819 1.34791 64.1411 1.34791 65.2926ZM124.031 62.358C123.977 61.2104 123.892 60.055 123.773 58.9151L125.113 58.7765C125.232 59.9395 125.321 61.1218 125.375 62.2926L124.031 62.358ZM1.72917 58.3991L0.392827 58.2489C0.523766 57.0858 0.689374 55.9073 0.881932 54.7558L2.21057 54.9792C2.01801 56.1115 1.85626 57.2591 1.72917 58.3991ZM123.322 55.4953C123.141 54.363 122.925 53.2192 122.679 52.1024L123.996 51.8135C124.246 52.9573 124.466 54.1204 124.655 55.2796L123.322 55.4953ZM2.88071 51.594L1.56745 51.2937C1.82548 50.1537 2.12203 49.0022 2.44938 47.8777L3.74337 48.2512C3.42757 49.3527 3.13489 50.4772 2.88071 51.594ZM121.847 48.7519C121.539 47.6466 121.196 46.5375 120.827 45.4553L122.101 45.0201C122.479 46.1292 122.829 47.2615 123.145 48.3899L121.847 48.7519ZM4.79473 44.9623L3.52383 44.5156C3.9128 43.4103 4.33643 42.2973 4.78702 41.2152L6.03094 41.7312C5.58806 42.7941 5.17215 43.8802 4.79473 44.9623ZM119.617 42.2242C119.186 41.1651 118.72 40.1022 118.231 39.07L119.448 38.4924C119.948 39.5476 120.426 40.6336 120.865 41.7158L119.617 42.2242ZM7.44819 38.5809L6.23506 37.9956C6.74342 36.9403 7.29413 35.8851 7.8641 34.8607L9.04258 35.5154C8.48416 36.5167 7.94884 37.5488 7.44819 38.5809ZM116.671 35.993C116.124 34.9878 115.543 33.9865 114.938 33.0121L116.082 32.3035C116.698 33.301 117.295 34.3254 117.853 35.3498L116.671 35.993ZM10.8064 32.5423L9.66647 31.8221C10.2942 30.8324 10.9566 29.8465 11.6383 28.8914L12.732 29.6732C12.0696 30.6052 11.4187 31.5718 10.8064 32.5423ZM113.036 30.1315C112.381 29.1956 111.688 28.2637 110.979 27.3625L112.038 26.5306C112.762 27.4511 113.471 28.4023 114.141 29.3612L113.036 30.1315ZM14.8193 26.9196L13.7679 26.0762C14.4996 25.1635 15.2699 24.2584 16.0517 23.3881L17.053 24.2893C16.2866 25.1404 15.5356 26.0261 14.8193 26.9196ZM108.769 24.709C108.01 23.8502 107.22 23.003 106.415 22.1865L107.374 21.2391C108.199 22.0749 109.007 22.9413 109.781 23.8194L108.769 24.709ZM19.433 21.7822L18.4817 20.8271C19.3097 20.0029 20.1763 19.1903 21.0505 18.4085L21.944 19.4137C21.089 20.1801 20.2456 20.9773 19.433 21.7822ZM103.924 19.795C103.073 19.0247 102.191 18.2699 101.301 17.5497L102.148 16.5022C103.057 17.2378 103.962 18.0119 104.829 18.7975L103.924 19.795ZM24.5897 17.1954L23.754 16.1402C24.6706 15.4123 25.6218 14.6999 26.5769 14.0259L27.3549 15.1273C26.4152 15.7897 25.4871 16.483 24.5897 17.1954ZM98.5514 15.4547C97.6194 14.7846 96.6566 14.1299 95.6938 13.5137L96.4179 12.3776C97.4038 13.0092 98.3896 13.6754 99.3409 14.3609L98.5514 15.4547ZM30.224 13.2172L29.5115 12.0772C30.5051 11.4572 31.5257 10.8564 32.5501 10.2941L33.1971 11.4726C32.1958 12.0233 31.1945 12.6087 30.224 13.2172ZM92.7284 11.7383C91.7271 11.176 90.6989 10.6369 89.6668 10.1324L90.2598 8.9231C91.315 9.43916 92.3664 9.98988 93.3869 10.5637L92.7284 11.7383ZM36.2626 9.8936L35.6811 8.68047C36.7324 8.17597 37.8185 7.69459 38.9006 7.25171L39.4129 8.49563C38.3538 8.93081 37.2947 9.40065 36.2626 9.8936ZM86.5203 8.69975C85.4613 8.25301 84.3791 7.83324 83.2969 7.44812L83.7475 6.18107C84.8528 6.57389 85.9619 7.00522 87.0441 7.45966L86.5203 8.69975ZM42.644 7.27481L42.205 6.00393C43.3141 5.61882 44.4464 5.26451 45.5709 4.94486L45.9367 6.23885C44.8353 6.55079 43.7262 6.90125 42.644 7.27481ZM80.0119 6.38519C78.9143 6.0617 77.7898 5.769 76.6729 5.50712L76.9771 4.19388C78.1209 4.45961 79.2686 4.75998 80.3893 5.09118L80.0119 6.38519ZM49.2834 5.39159L48.9907 4.07835C50.1307 3.82417 51.2976 3.59693 52.4529 3.40823L52.6724 4.73688C51.5402 4.92174 50.4003 5.14126 49.2834 5.39159ZM73.2916 4.82162C72.1632 4.62521 71.0155 4.4596 69.8756 4.32866L70.0297 2.99232C71.1927 3.12711 72.3673 3.29656 73.5226 3.49682L73.2916 4.82162ZM56.0923 4.27091L55.9498 2.93068C57.1128 2.80745 58.2951 2.71118 59.4659 2.65341L59.5352 3.99747C58.3876 4.05523 57.2284 4.14767 56.0923 4.27091ZM66.4365 4.02443C65.2965 3.95511 64.1335 3.92043 62.9859 3.91273L62.9897 2.56482C64.1643 2.56867 65.3505 2.6072 66.5135 2.67652L66.4365 4.02443Z" fill="#BF9D50"/>
<path d="M94.0956 130C93.6951 129.996 93.2907 129.977 92.8902 129.95L92.9826 128.606C93.36 128.633 93.7374 128.648 94.111 128.652L94.0956 130ZM95.301 129.981L95.2432 128.637C95.6168 128.621 95.998 128.594 96.3716 128.556L96.5026 129.896C96.1021 129.934 95.6977 129.965 95.301 129.981ZM91.6886 129.834C91.292 129.784 90.8876 129.723 90.4948 129.653L90.7374 128.329C91.1071 128.394 91.4806 128.452 91.8542 128.498L91.6886 129.834ZM97.7003 129.742L97.4923 128.413C97.8659 128.355 98.2394 128.286 98.6053 128.209L98.8864 129.526C98.4936 129.607 98.097 129.68 97.7003 129.742ZM89.3163 129.403C88.9235 129.307 88.5345 129.203 88.1532 129.087L88.5422 127.797C88.9004 127.905 89.2662 128.005 89.6321 128.094L89.3163 129.403ZM100.057 129.237L99.7029 127.94C100.065 127.839 100.427 127.728 100.785 127.608L101.213 128.883C100.831 129.014 100.442 129.13 100.057 129.237ZM87.0056 128.702C86.632 128.563 86.2546 128.413 85.881 128.255L86.4125 127.019C86.7591 127.169 87.1135 127.308 87.4639 127.439L87.0056 128.702ZM102.341 128.467L101.84 127.216C102.187 127.077 102.533 126.927 102.876 126.765L103.446 127.986C103.084 128.159 102.711 128.321 102.341 128.467ZM84.7873 127.747C84.4292 127.566 84.071 127.373 83.7244 127.177L84.3945 126.01C84.718 126.195 85.0531 126.376 85.392 126.545L84.7873 127.747ZM104.525 127.447L103.885 126.26C104.213 126.083 104.544 125.895 104.863 125.698L105.568 126.846C105.225 127.058 104.875 127.258 104.525 127.447ZM82.6962 126.545C82.3611 126.326 82.026 126.095 81.7025 125.86L82.4997 124.774C82.804 124.997 83.1159 125.213 83.4317 125.417L82.6962 126.545ZM106.577 126.187L105.811 125.082C106.119 124.87 106.423 124.643 106.72 124.412L107.548 125.475C107.232 125.721 106.905 125.96 106.577 126.187ZM80.7474 125.12C80.4394 124.866 80.1313 124.601 79.8386 124.327L80.7513 123.337C81.0286 123.592 81.3136 123.842 81.6024 124.081L80.7474 125.12ZM108.476 124.705L107.59 123.692C107.871 123.445 108.152 123.187 108.418 122.925L109.358 123.888C109.077 124.165 108.776 124.443 108.476 124.705ZM78.9759 123.488C78.6986 123.203 78.4252 122.902 78.1595 122.598L79.1762 121.716C79.4227 122.001 79.6807 122.282 79.9387 122.548L78.9759 123.488ZM110.201 123.018L109.208 122.109C109.462 121.832 109.712 121.543 109.947 121.254L110.991 122.105C110.736 122.413 110.471 122.721 110.201 123.018ZM77.397 121.666C77.1543 121.35 76.9155 121.023 76.6883 120.692L77.7974 119.929C78.0131 120.241 78.2365 120.545 78.4637 120.842L77.397 121.666ZM111.726 121.15L110.636 120.36C110.856 120.056 111.072 119.744 111.276 119.428L112.408 120.156C112.188 120.491 111.957 120.826 111.726 121.15ZM76.0336 119.679C75.8257 119.336 75.6254 118.986 75.4367 118.631L76.6229 117.996C76.8 118.327 76.9887 118.658 77.1813 118.978L76.0336 119.679ZM113.032 119.12L111.861 118.458C112.046 118.131 112.227 117.796 112.393 117.457L113.598 118.054C113.421 118.412 113.228 118.77 113.032 119.12ZM74.8975 117.553C74.7281 117.191 74.5702 116.817 74.4238 116.448L75.6754 115.951C75.8141 116.297 75.9643 116.648 76.1183 116.987L74.8975 117.553ZM114.102 116.956L112.862 116.428C113.009 116.082 113.147 115.728 113.278 115.373L114.545 115.831C114.407 116.209 114.26 116.586 114.102 116.956ZM74.0118 115.315C73.8847 114.934 73.7691 114.545 73.6651 114.16L74.9668 113.81C75.0631 114.172 75.1748 114.534 75.2903 114.892L74.0118 115.315ZM114.919 114.684L113.629 114.299C113.737 113.941 113.833 113.571 113.921 113.209L115.231 113.521C115.138 113.91 115.034 114.303 114.919 114.684ZM73.384 112.985C73.3031 112.593 73.2299 112.192 73.1683 111.799L74.5009 111.599C74.5586 111.969 74.6241 112.342 74.7011 112.712L73.384 112.985ZM115.477 112.338L114.152 112.104C114.218 111.734 114.276 111.356 114.318 110.987L115.654 111.148C115.608 111.541 115.547 111.946 115.477 112.338ZM73.022 110.602C72.9835 110.205 72.9565 109.801 72.9411 109.4L74.2852 109.35C74.3006 109.724 74.3237 110.105 74.3584 110.478L73.022 110.602ZM115.766 109.947L114.422 109.862C114.445 109.489 114.461 109.107 114.464 108.734L115.812 108.745C115.805 109.142 115.789 109.546 115.766 109.947ZM74.2737 108.56H72.9258C72.9258 108.16 72.9373 107.756 72.9604 107.355L74.3045 107.428C74.2813 107.806 74.2737 108.183 74.2737 108.56ZM114.441 107.598C114.422 107.22 114.395 106.843 114.357 106.469L115.697 106.331C115.739 106.727 115.766 107.132 115.785 107.532L114.441 107.598ZM74.3969 106.304L73.0605 106.154C73.1067 105.757 73.1606 105.352 73.2261 104.96L74.5548 105.183C74.4932 105.553 74.4392 105.93 74.3969 106.304ZM114.206 105.352C114.149 104.983 114.075 104.609 113.995 104.243L115.312 103.954C115.396 104.347 115.473 104.744 115.535 105.141L114.206 105.352ZM74.7743 104.074L73.461 103.773C73.5496 103.385 73.6497 102.992 73.7614 102.607L75.0554 102.98C74.9514 103.342 74.859 103.708 74.7743 104.074ZM113.725 103.146C113.625 102.784 113.513 102.422 113.39 102.067L114.665 101.632C114.796 102.014 114.915 102.399 115.023 102.784L113.725 103.146ZM75.402 101.902L74.1311 101.455C74.2621 101.078 74.4085 100.696 74.5625 100.327L75.8064 100.843C75.6601 101.193 75.5253 101.547 75.402 101.902ZM112.997 101.004C112.858 100.658 112.704 100.311 112.543 99.9724L113.76 99.3985C113.933 99.7606 114.095 100.134 114.245 100.5L112.997 101.004ZM76.2685 99.8145L75.0554 99.2291C75.2326 98.8671 75.4174 98.5051 75.6139 98.1585L76.7884 98.8132C76.6113 99.1367 76.4341 99.4756 76.2685 99.8145ZM112.03 98.9672C111.853 98.6399 111.661 98.3087 111.464 97.9929L112.608 97.2843C112.82 97.6232 113.024 97.9736 113.213 98.3279L112.03 98.9672ZM77.37 97.835L76.23 97.1148C76.4457 96.7759 76.6691 96.4409 76.904 96.1135L78.0016 96.8953C77.782 97.2034 77.5702 97.5192 77.37 97.835ZM110.84 97.0493C110.625 96.7412 110.398 96.437 110.167 96.1443L111.226 95.3125C111.472 95.6283 111.715 95.9518 111.946 96.2791L110.84 97.0493ZM78.6832 95.9941L77.6319 95.1507C77.8822 94.8349 78.1479 94.5268 78.4137 94.2303L79.415 95.1315C79.1646 95.4126 78.9181 95.7014 78.6832 95.9941ZM109.442 95.274C109.192 94.9928 108.934 94.7117 108.672 94.4459L109.631 93.5024C109.912 93.7874 110.19 94.0839 110.455 94.3843L109.442 95.274ZM80.1929 94.315L79.2416 93.3599C79.5266 93.0788 79.8232 92.7977 80.1197 92.5319L81.0132 93.5371C80.7359 93.7874 80.4625 94.0493 80.1929 94.315ZM107.856 93.6642C107.579 93.4138 107.29 93.1635 106.997 92.9286L107.844 91.8811C108.156 92.1314 108.464 92.3971 108.761 92.6667L107.856 93.6642ZM81.8835 92.8131L81.0478 91.7578C81.3636 91.5075 81.6871 91.2649 82.0106 91.0338L82.7886 92.1352C82.4805 92.3509 82.1762 92.5781 81.8835 92.8131ZM106.1 92.2392C105.795 92.0197 105.48 91.8079 105.164 91.6038L105.888 90.4677C106.227 90.6833 106.562 90.9106 106.885 91.1455L106.1 92.2392ZM83.7282 91.5075L83.0158 90.3676C83.3547 90.1558 83.7051 89.9516 84.0556 89.7591L84.7026 90.9375C84.3714 91.1185 84.044 91.3111 83.7282 91.5075ZM104.193 91.0261C103.866 90.8413 103.527 90.6641 103.192 90.4985L103.785 89.2892C104.147 89.4664 104.505 89.6551 104.856 89.8515L104.193 91.0261ZM85.7039 90.4215L85.1224 89.2084C85.4844 89.0351 85.8541 88.8695 86.2238 88.7193L86.736 89.9632C86.3894 90.1057 86.0428 90.2597 85.7039 90.4215ZM102.16 90.0287C101.813 89.8823 101.459 89.7437 101.105 89.6204L101.555 88.3534C101.933 88.4882 102.314 88.6345 102.684 88.7924L102.16 90.0287ZM87.7912 89.5627L87.3522 88.2918C87.7296 88.1608 88.1147 88.0376 88.5037 87.9298L88.8734 89.2238C88.5075 89.3277 88.1456 89.4433 87.7912 89.5627ZM100.03 89.2738C99.6721 89.1699 99.3024 89.0736 98.9365 88.985L99.2408 87.6756C99.6297 87.768 100.023 87.8682 100.408 87.9837L100.03 89.2738ZM89.9672 88.9465L89.6745 87.6332C90.0673 87.5447 90.4639 87.4676 90.8606 87.4022L91.0801 88.7308C90.7065 88.7924 90.333 88.8656 89.9672 88.9465ZM97.8274 88.7616C97.4577 88.6961 97.0803 88.6422 96.7067 88.5999L96.8607 87.2635C97.2574 87.3097 97.6579 87.3675 98.0546 87.4368L97.8274 88.7616ZM92.197 88.5806L92.0545 87.2404C92.4511 87.1981 92.8555 87.1673 93.256 87.1441L93.3254 88.4882C92.948 88.5113 92.5667 88.5383 92.197 88.5806ZM95.5822 88.4997C95.2086 88.4766 94.8273 88.4651 94.4499 88.4651L94.4537 87.1172C94.8543 87.1172 95.2586 87.1326 95.6592 87.1557L95.5822 88.4997Z" fill="#BF9D50"/>
<path d="M42.5169 31.4486C33.8441 31.4486 26.7926 24.3933 26.7926 15.7243C26.7926 7.05149 33.8479 0 42.5169 0C51.1859 0 58.2412 7.05535 58.2412 15.7243C58.2412 24.3933 51.1859 31.4486 42.5169 31.4486ZM42.5169 1.34405C34.5873 1.34405 28.1367 7.79477 28.1367 15.7243C28.1367 23.6539 34.5873 30.1046 42.5169 30.1046C50.4465 30.1046 56.8971 23.6539 56.8971 15.7243C56.8971 7.79477 50.4465 1.34405 42.5169 1.34405Z" fill="#BF9D50"/>
</svg>
