<svg width="130" height="130" viewBox="0 0 130 130" fill="none" xmlns="http://www.w3.org/2000/svg">
<path d="M66.6481 40.6019C68.9449 41.2538 71.2017 42.2746 73.3172 43.6859C83.4269 50.4318 86.5755 63.4626 80.3522 72.7883C74.1289 82.114 60.886 84.2048 50.7793 77.4588C46.1211 74.3503 42.9479 69.9073 41.4782 65.1107C42.2469 77.425 52.6057 87.052 65.0584 86.7907C77.8371 86.5232 87.9806 75.9461 87.71 63.1674C87.461 51.2528 78.2491 41.635 66.6481 40.6019Z" fill="#BF9D50"/>
<path d="M64.5572 90.3358C49.7892 90.3358 37.7732 78.3198 37.7732 63.5518C37.7732 48.7838 49.7892 36.7677 64.5572 36.7677C79.3252 36.7677 91.3413 48.7838 91.3413 63.5518C91.3413 78.3198 79.3252 90.3358 64.5572 90.3358ZM64.5572 37.8439C50.3827 37.8439 38.8494 49.3772 38.8494 63.5518C38.8494 77.7263 50.3827 89.2597 64.5572 89.2597C78.7318 89.2597 90.2651 77.7263 90.2651 63.5518C90.2651 49.3772 78.7318 37.8439 64.5572 37.8439Z" fill="#BF9D50"/>
<path d="M54.5705 39.5534C54.4413 39.4643 51.4219 37.3488 51.1145 32.9735C50.764 27.9647 54.057 22.2519 60.9045 15.9917L62.9092 14.1592L61.7562 16.6159C61.7193 16.6958 58.0664 24.5794 61.0028 28.0478C63.9023 31.4761 64.9262 34.3633 64.3143 37.4104L63.2597 37.1982C63.6225 35.3841 63.601 32.7829 60.1819 28.7396C57.8635 26.0031 58.9305 21.268 59.8806 18.4484C54.5582 23.7524 51.9047 28.7088 52.1876 32.869C52.4489 36.7247 55.1547 38.6433 55.1823 38.6618L54.5705 39.5534Z" fill="#BF9D50"/>
<path d="M81.1085 110.023L81.2684 107.315C81.2746 107.229 81.7389 98.5485 77.7263 96.4177C73.7599 94.3115 71.7398 92.0085 71.1771 88.9523L72.2348 88.7585C72.57 90.5788 73.557 92.9863 78.2306 95.4707C81.4006 97.1556 82.1662 101.958 82.3292 104.929C86.2649 95.9227 85.6776 91.0031 84.4108 88.4265C82.9657 85.4839 80.4044 84.9151 80.2937 84.8936L80.509 83.842C80.6381 83.8666 83.6698 84.5185 85.3609 87.9253C87.5224 92.2822 86.4893 98.896 82.2892 107.585L81.1085 110.023Z" fill="#BF9D50"/>
<path d="M76.5979 40.4267L75.6601 39.9009C76.8869 37.7179 77.3635 33.6408 75.654 29.4468C74.3011 26.1261 76.7824 21.9537 78.5596 19.5677C71.7736 22.9929 67.6812 26.8978 66.6757 30.9319C65.7687 34.5755 67.6688 37.0937 67.6873 37.1183L66.8356 37.7732C66.7433 37.6533 64.6002 34.8122 65.6334 30.6705C66.8417 25.8217 71.7736 21.4064 80.2968 17.5445L82.7689 16.4253L80.9086 18.4023C80.8471 18.4669 74.9314 24.8316 76.6471 29.0379C78.6211 33.8744 77.8554 38.1975 76.5979 40.4267Z" fill="#BF9D50"/>
<path d="M86.5201 49.1467L86.0558 48.1782C88.0205 47.2404 89.5549 45.6322 90.6526 40.8418C91.4551 37.3427 95.8919 35.3565 98.7176 34.4279C89.066 32.9889 84.4447 34.8461 82.2462 36.7493C79.6788 38.9755 79.771 41.6935 79.7772 41.8073L78.7041 41.8596C78.698 41.7243 78.5657 38.5327 81.5205 35.9561C85.2225 32.7245 91.8732 31.9896 101.294 33.773L103.96 34.2772L101.3 34.8276C101.214 34.8461 92.7157 36.6509 91.698 41.0816C90.508 46.2902 88.7677 48.0736 86.5201 49.1467Z" fill="#BF9D50"/>
<path d="M91.0615 60.5816C90.8893 60.5816 90.714 60.5754 90.5388 60.5662L90.6033 59.4931C92.5865 59.61 94.9018 59.1826 98.3824 55.293C100.778 52.618 105.617 53.0208 108.541 53.5773C100.855 47.7169 95.8827 47.1265 92.9986 47.7353C89.5026 48.4733 88.162 51.0899 88.1466 51.1175L87.1843 50.6379C87.2488 50.5118 88.777 47.5293 92.7741 46.6838C97.6384 45.6537 103.806 48.2027 111.112 54.2507L113.203 55.9818L110.611 55.1762C110.528 55.1516 102.214 52.6211 99.1819 56.0095C96.3408 59.1887 93.881 60.5816 91.0615 60.5816Z" fill="#BF9D50"/>
<path d="M113.704 75.9706L111.487 74.4025C111.416 74.3502 104.295 69.3722 100.366 71.6506C95.8488 74.2703 91.4643 74.1073 89.0814 73.1726L89.4749 72.1733C91.8056 73.0865 95.9103 72.9943 99.8276 70.722C102.93 68.9202 107.404 70.802 110.011 72.2348C105.682 65.987 101.248 62.4725 97.1157 62.0359C93.383 61.6423 91.1506 63.8685 91.126 63.8931L90.3573 63.1397C90.4619 63.0321 92.9771 60.517 97.2263 60.969C102.195 61.4948 107.25 65.7717 112.253 73.6799L113.704 75.9706Z" fill="#BF9D50"/>
<path d="M98.9482 99.4248L98.0381 96.8666C98.0074 96.7836 95.0463 88.614 90.5203 88.2205C86.1972 87.8453 83.3377 86.3879 81.5205 83.6422L82.4184 83.0487C83.4392 84.5923 85.3978 86.6954 90.6156 87.1474C94.1916 87.4579 96.7713 91.5719 98.0811 94.2439C98.1395 86.5662 96.5591 81.1209 93.4598 78.4243C90.7663 76.0783 87.8945 76.5856 87.7715 76.6072L87.5686 75.5525C87.71 75.5248 91.0461 74.913 94.1424 77.5941C97.8782 80.8288 99.5416 87.2611 99.0835 96.7098L98.9482 99.4248Z" fill="#BF9D50"/>
<path d="M69.3199 112.665L67.2076 110.955C59.693 104.867 55.9295 99.3171 56.0248 94.459C56.0986 90.6802 58.5399 88.8169 58.6445 88.7369L59.2902 89.5979C59.2041 89.6655 57.1532 91.2552 57.1009 94.5082C57.0548 97.38 58.626 102.081 66.0423 108.569C64.9231 105.814 63.5702 101.144 65.7194 98.2686C68.8926 94.0286 68.7573 91.4304 68.2869 89.6409L69.3261 89.3673C70.1163 92.3713 69.2708 95.3169 66.5804 98.9113C63.8562 102.555 67.9763 110.202 68.0163 110.279L69.3199 112.665Z" fill="#BF9D50"/>
<path d="M43.7505 47.7722C41.6627 46.2871 39.1292 42.7051 38.8524 37.4903C38.6126 32.9458 30.5476 29.7143 30.4676 29.6835L27.9401 28.6873L30.6582 28.6474C40.0177 28.5151 46.3579 30.4061 49.5156 34.2772C52.2152 37.5856 51.4865 41.0693 51.4527 41.2169L50.4011 40.9863C50.4073 40.9555 51.0407 37.8347 48.6639 34.9352C46.0289 31.7251 40.6696 29.9449 33.0873 29.7358C35.7131 31.1348 39.7349 33.8529 39.9255 37.4349C40.1654 41.9579 42.333 45.4446 44.3716 46.8959L43.7505 47.7722Z" fill="#BF9D50"/>
<path d="M38.6371 59.9851C35.6792 59.9666 33.2072 58.417 30.3661 54.798C27.5558 51.219 19.1003 53.2115 19.0173 53.2299L16.373 53.8664L18.5745 52.2706C26.3566 46.6315 32.706 44.4485 37.438 45.786C41.1831 46.8437 42.4252 49.7462 42.4775 49.8692L41.4844 50.2812L41.9794 50.0752L41.4844 50.2812C41.4413 50.1767 40.3652 47.7169 37.1182 46.8129C34.3141 46.0319 29.3268 46.3302 21.1818 51.7632C24.1336 51.3973 28.9948 51.3051 31.2117 54.1308C34.4924 58.3094 36.7216 58.8966 38.6433 58.9059L38.6371 59.9851Z" fill="#BF9D50"/>
<path d="M17.2554 77.4404L18.4084 74.9836C22.4087 66.4697 26.8947 61.5778 31.7436 60.4432C35.8238 59.49 38.5665 61.6239 38.6833 61.7161L38.016 62.5586C37.9177 62.4817 35.5317 60.6492 31.965 61.4978C27.9371 62.4541 23.983 66.5096 20.4563 73.2772C22.8638 71.5307 27.07 69.1048 30.3754 70.5068C35.2488 72.5731 37.7424 71.8228 39.3659 70.9373L39.8794 71.8812C37.149 73.3663 34.0896 73.2495 29.9572 71.4969C25.7755 69.7228 19.3278 75.5525 19.2632 75.6109L17.2554 77.4404Z" fill="#BF9D50"/>
<path d="M25.3174 95.7412L25.6525 93.0446C26.8086 83.762 29.5606 77.7386 33.8314 75.1435C37.4811 72.9266 40.8295 74.1319 40.9709 74.1811L40.5989 75.1896C40.5681 75.1773 37.5641 74.1196 34.3664 76.0752C30.8243 78.2398 28.3184 83.3008 27.0639 90.7847C28.8134 88.3772 32.0634 84.7705 35.6331 85.0749C40.768 85.5146 44.4023 83.2393 45.7368 81.8249L46.5178 82.5629C44.5499 84.6445 40.396 86.5631 35.541 86.1449C30.9996 85.7668 26.6918 93.2968 26.6488 93.3737L25.3174 95.7412Z" fill="#BF9D50"/>
<path d="M48.6608 110.672L47.3848 108.271C42.9418 99.9136 41.6996 93.3644 43.689 88.8046C45.334 85.0349 48.5932 84.1341 48.7284 84.0972L49.0051 85.1364C48.8883 85.1672 46.0873 85.9635 44.6606 89.2597C43.0187 93.057 43.9134 98.6807 47.2402 105.614C47.2864 102.641 47.8675 97.8197 50.9699 96.0149C54.4598 93.9855 56.4399 91.5073 56.855 88.657L57.9188 88.8107C57.4545 92.0023 55.2992 94.7388 51.5111 96.9434C47.5785 99.231 48.384 107.88 48.3902 107.969L48.6608 110.672Z" fill="#BF9D50"/>
<path d="M65 130C29.1577 130 0 100.842 0 65C0 29.1578 29.1577 0 65 0C100.842 0 130 29.1578 130 65C130 100.842 100.842 130 65 130ZM65 1.07616C29.7512 1.07616 1.07308 29.7543 1.07308 65.0031C1.07308 100.252 29.7512 128.93 65 128.93C100.249 128.93 128.927 100.252 128.927 65.0031C128.927 29.7543 100.249 1.07616 65 1.07616Z" fill="#BF9D50"/>
<path d="M64.8401 122.279C63.9115 122.276 62.9645 122.252 62.0298 122.202L62.0851 121.129C63.0045 121.175 63.93 121.2 64.8431 121.203L64.8401 122.279ZM67.6535 122.218L67.6043 121.145C68.5175 121.105 69.443 121.04 70.3562 120.951L70.4576 122.021C69.526 122.11 68.5821 122.175 67.6535 122.218ZM59.2226 121.99C58.2909 121.898 57.3531 121.778 56.4307 121.643L56.5906 120.579C57.4946 120.714 58.4139 120.831 59.3302 120.92L59.2226 121.99ZM73.2526 121.689L73.0989 120.625C74.0028 120.496 74.9191 120.339 75.82 120.164L76.026 121.219C75.1067 121.397 74.1719 121.557 73.2526 121.689ZM53.6634 121.157C52.7441 120.973 51.8217 120.763 50.9208 120.536L51.1852 119.494C52.0707 119.718 52.9778 119.924 53.8756 120.102L53.6634 121.157ZM78.7717 120.613L78.5135 119.57C79.4021 119.352 80.2999 119.106 81.1762 118.842L81.4837 119.872C80.592 120.139 79.6788 120.388 78.7717 120.613ZM48.2089 119.776C47.3141 119.503 46.4132 119.202 45.5338 118.885L45.8997 117.873C46.7637 118.187 47.6462 118.479 48.5256 118.75L48.2089 119.776ZM84.1587 118.995L83.799 117.984C84.663 117.676 85.53 117.344 86.3756 116.997L86.7845 117.99C85.9236 118.344 85.0381 118.682 84.1587 118.995ZM42.908 117.861C42.044 117.501 41.18 117.111 40.3344 116.708L40.7987 115.739C41.6258 116.136 42.4744 116.514 43.3231 116.871L42.908 117.861ZM89.355 116.859L88.8968 115.887C89.7239 115.5 90.551 115.084 91.3597 114.654L91.864 115.604C91.043 116.038 90.1975 116.462 89.355 116.859ZM37.8224 115.432C36.9983 114.986 36.1774 114.516 35.378 114.033L35.9344 113.114C36.7185 113.587 37.5241 114.048 38.3328 114.485L37.8224 115.432ZM94.3146 114.22L93.7642 113.298C94.5513 112.828 95.3354 112.333 96.0979 111.828L96.6944 112.723C95.9134 113.237 95.114 113.741 94.3146 114.22ZM33.0074 112.517C32.2356 111.997 31.4638 111.447 30.7135 110.887L31.3562 110.026C32.0941 110.577 32.8505 111.115 33.6069 111.628L33.0074 112.517ZM98.9912 111.106L98.3517 110.242C99.0865 109.697 99.8183 109.129 100.529 108.551L101.208 109.384C100.489 109.974 99.7415 110.552 98.9912 111.106ZM28.4997 109.144C27.7833 108.551 27.0669 107.929 26.3751 107.299L27.1007 106.506C27.7802 107.124 28.4813 107.736 29.1854 108.317L28.4997 109.144ZM103.345 107.551L102.626 106.752C103.308 106.137 103.982 105.497 104.63 104.855L105.387 105.617C104.726 106.272 104.04 106.924 103.345 107.551ZM24.3458 105.35C23.6878 104.686 23.039 104 22.4148 103.305L23.2143 102.586C23.8262 103.265 24.4657 103.942 25.1114 104.59L24.3458 105.35ZM107.333 103.585L106.54 102.859C107.155 102.186 107.763 101.485 108.351 100.775L109.181 101.46C108.581 102.183 107.96 102.896 107.333 103.585ZM20.5854 101.171C19.995 100.449 19.417 99.7015 18.8636 98.9482L19.7275 98.3117C20.2717 99.0497 20.8406 99.7845 21.4186 100.492L20.5854 101.171ZM110.918 99.2465L110.057 98.6038C110.605 97.8721 111.143 97.1126 111.656 96.35L112.548 96.9496C112.022 97.7275 111.475 98.4993 110.918 99.2465ZM17.2493 96.6452C16.7328 95.8642 16.2285 95.0648 15.7519 94.2654L16.6743 93.715C17.1417 94.4991 17.6336 95.2831 18.144 96.0487L17.2493 96.6452ZM114.061 94.5759L113.141 94.0194C113.615 93.2323 114.076 92.4267 114.513 91.618L115.46 92.1284C115.014 92.9525 114.546 93.7765 114.061 94.5759ZM14.3744 91.821C13.9378 90.9969 13.5165 90.1544 13.1199 89.3089L14.0916 88.8507C14.479 89.6778 14.8941 90.508 15.3245 91.3167L14.3744 91.821ZM116.732 89.6163L115.761 89.1551C116.158 88.325 116.536 87.4733 116.889 86.6308L117.882 87.0459C117.523 87.9037 117.135 88.7708 116.732 89.6163ZM11.9915 86.7384C11.6379 85.8775 11.2997 84.992 10.9891 84.1095L12.0007 83.7498C12.3082 84.6168 12.6372 85.4839 12.9846 86.3295L11.9915 86.7384ZM118.903 84.417L117.892 84.0542C118.202 83.1902 118.497 82.3077 118.765 81.4283L119.792 81.742C119.518 82.6367 119.22 83.5376 118.903 84.417ZM10.1128 81.4345C9.84528 80.5428 9.59626 79.6296 9.37488 78.7195L10.4172 78.4643C10.6355 79.356 10.8815 80.2538 11.1429 81.127L10.1128 81.4345ZM120.548 79.03L119.506 78.7687C119.73 77.877 119.933 76.97 120.115 76.0752L121.169 76.2843C120.985 77.1975 120.776 78.1199 120.548 79.03ZM8.77224 75.9737C8.59391 75.0575 8.43709 74.1258 8.30487 73.2003L9.36872 73.0466C9.49786 73.9536 9.65159 74.8699 9.82685 75.7678L8.77224 75.9737ZM121.649 73.5139L120.585 73.354C120.72 72.4501 120.834 71.5277 120.923 70.6145L121.993 70.7221C121.904 71.6537 121.787 72.5946 121.649 73.5139ZM7.97278 70.4054C7.88669 69.4737 7.81908 68.5298 7.77911 67.5981L8.85219 67.552C8.89216 68.4652 8.95669 69.3938 9.04278 70.307L7.97278 70.4054ZM122.206 67.9179L121.132 67.8656C121.179 66.9494 121.203 66.0208 121.203 65.1076L122.279 65.1107C122.276 66.0393 122.252 66.9863 122.206 67.9179ZM8.79686 65H7.7207C7.7207 64.0653 7.74222 63.1213 7.78834 62.1897L8.86142 62.242C8.81837 63.1552 8.79686 64.0837 8.79686 65ZM121.142 62.3434C121.099 61.4272 121.034 60.4986 120.948 59.5916L122.018 59.4901C122.107 60.4156 122.172 61.3595 122.218 62.2942L121.142 62.3434ZM9.06433 59.487L7.99432 59.3825C8.08349 58.4539 8.20036 57.5161 8.33565 56.5906L9.3995 56.7474C9.26421 57.6545 9.15042 58.5769 9.06433 59.487ZM120.616 56.8519C120.484 55.9418 120.327 55.0256 120.152 54.1308L121.206 53.9248C121.385 54.8349 121.544 55.7696 121.68 56.6982L120.616 56.8519ZM9.86687 54.0293L8.81218 53.8203C8.99359 52.904 9.19959 51.9815 9.42712 51.0745L10.4695 51.3358C10.2481 52.2244 10.0452 53.1315 9.86687 54.0293ZM119.555 51.4343C119.337 50.5487 119.091 49.6509 118.826 48.7715L119.856 48.461C120.127 49.3557 120.376 50.2689 120.601 51.1729L119.555 51.4343ZM11.2043 48.6731L10.1743 48.3626C10.4449 47.4709 10.7431 46.57 11.0598 45.6845L12.0714 46.0473C11.7609 46.9175 11.4688 47.7999 11.2043 48.6731ZM117.965 46.1518C117.658 45.2909 117.326 44.4238 116.975 43.5752L117.969 43.1663C118.325 44.0303 118.663 44.9158 118.977 45.7921L117.965 46.1518ZM13.0676 43.4676L12.0745 43.0556C12.4343 42.1885 12.8186 41.3245 13.2183 40.479L14.1899 40.9402C13.7994 41.7673 13.4212 42.6159 13.0676 43.4676ZM115.862 41.0539C115.472 40.2238 115.054 39.3966 114.626 38.5911L115.573 38.0868C116.01 38.9078 116.434 39.7502 116.834 40.5958L115.862 41.0539ZM15.4383 38.4711L14.4912 37.9638C14.9309 37.1429 15.4013 36.3188 15.8841 35.5163L16.8065 36.0698C16.3299 36.86 15.8718 37.6656 15.4383 38.4711ZM113.267 36.1928C112.797 35.4056 112.302 34.6216 111.794 33.8621L112.689 33.2656C113.206 34.0405 113.71 34.8399 114.19 35.6424L113.267 36.1928ZM18.2855 33.7391L17.3938 33.1396C17.9135 32.3647 18.4608 31.593 19.0204 30.8397L19.8812 31.4823C19.3309 32.2202 18.7959 32.9797 18.2855 33.7391ZM110.211 31.6053C109.667 30.8673 109.095 30.1355 108.517 29.4283L109.35 28.7488C109.94 29.4714 110.522 30.2155 111.078 30.9657L110.211 31.6053ZM21.5847 29.3054L20.7545 28.6227C21.3479 27.9002 21.969 27.1869 22.5963 26.4951L23.3926 27.2176C22.7746 27.8971 22.1658 28.5982 21.5847 29.3054ZM106.715 27.3345C106.1 26.6549 105.46 25.9816 104.815 25.3328L105.577 24.5733C106.235 25.2344 106.887 25.9201 107.514 26.615L106.715 27.3345ZM25.2959 25.2221L24.5364 24.4627C25.1975 23.8047 25.8831 23.1528 26.575 22.5256L27.2975 23.3219C26.615 23.9338 25.9447 24.5733 25.2959 25.2221ZM102.819 23.4265C102.14 22.8084 101.439 22.1996 100.732 21.6185L101.414 20.7883C102.134 21.3817 102.847 21.9998 103.542 22.6301L102.819 23.4265ZM29.3853 21.517L28.7027 20.6869C29.4253 20.0965 30.1694 19.5154 30.9196 18.9589L31.5591 19.8228C30.8273 20.3671 30.0956 20.939 29.3853 21.517ZM98.5608 19.912C97.8229 19.3616 97.0634 18.8235 96.307 18.3162L96.9065 17.4246C97.6783 17.9442 98.4531 18.4915 99.2034 19.0511L98.5608 19.912ZM33.8191 18.2332L33.2226 17.3385C33.9974 16.8219 34.7968 16.3146 35.5963 15.8349L36.1497 16.7573C35.3626 17.2278 34.5785 17.7259 33.8191 18.2332ZM93.9763 16.8311C93.1922 16.3576 92.3837 15.8964 91.575 15.4629L92.0854 14.5158C92.9094 14.9586 93.7334 15.4291 94.5329 15.9118L93.9763 16.8311ZM38.545 15.3983L38.0376 14.4513C38.8616 14.0116 39.7041 13.5873 40.5466 13.1876L41.0048 14.1592C40.1807 14.5497 39.3536 14.9678 38.545 15.3983ZM89.106 14.2145C88.2789 13.821 87.4272 13.4428 86.5816 13.0892L86.9936 12.096C87.8576 12.4558 88.7247 12.8432 89.5672 13.2429L89.106 14.2145ZM43.526 13.0461L43.114 12.053C43.9749 11.6963 44.8605 11.355 45.7398 11.0414L46.1026 12.053C45.2386 12.3604 44.3716 12.6956 43.526 13.0461ZM84.0019 12.0899C83.1348 11.7793 82.2523 11.4872 81.376 11.2197L81.6897 10.1928C82.5844 10.4634 83.4822 10.7616 84.3677 11.0814L84.0019 12.0899ZM48.7223 11.189L48.4118 10.159C49.3065 9.88838 50.2167 9.63931 51.1237 9.41178L51.382 10.4541C50.4934 10.6786 49.5986 10.9246 48.7223 11.189ZM78.7164 10.4818C77.8247 10.2573 76.9208 10.0544 76.0229 9.87607L76.232 8.82146C77.1452 9.00287 78.0707 9.21192 78.9778 9.43945L78.7164 10.4818ZM54.0785 9.85764L53.8694 8.80299C54.7857 8.62158 55.7204 8.46168 56.6428 8.32639L56.7997 9.39028C55.8926 9.52249 54.9763 9.67931 54.0785 9.85764ZM73.3048 9.40563C72.4009 9.27034 71.4785 9.15966 70.5653 9.06741L70.6698 7.99741C71.5984 8.08965 72.5392 8.20342 73.4617 8.34178L73.3048 9.40563ZM59.5392 9.05818L59.4347 7.98818C60.3633 7.89901 61.3072 7.83136 62.2389 7.78523L62.2912 8.85835C61.378 8.90447 60.4493 8.97209 59.5392 9.05818ZM67.8103 8.86755C66.8971 8.82143 65.9686 8.79991 65.0523 8.79991V7.72375C65.987 7.72375 66.934 7.74835 67.8626 7.79447L67.8103 8.86755Z" fill="#BF9D50"/>
<path d="M70.513 72.7729L63.5395 60.1726L55.1239 59.5054L51.5327 62.0205L51.997 67.7119L50.9238 67.798L50.4134 61.4948L54.8226 58.4016L64.2006 59.1488L70.7313 70.9465L78.5012 62.4633L79.2944 63.189L70.513 72.7729Z" fill="#BF9D50"/>
<path d="M54.7703 59.4563L41.5889 52.8118L47.8552 46.6069L48.6117 47.3695L43.4061 52.5258L55.2561 58.497L54.7703 59.4563Z" fill="#BF9D50"/>
<path d="M55.0501 64.0376L54.0724 60.2679L49.9399 59.3578L53.9278 58.3985L54.838 53.9647L55.6896 58.0941C55.7265 58.2786 55.8773 58.4139 56.0648 58.4354L60.2987 58.8966L56.0063 60.1419L55.0501 64.0376ZM54.5982 59.284L54.9486 59.3609L55.0224 59.6407L55.0255 59.6315C55.0624 59.4808 55.1547 59.3486 55.2807 59.2656C55.1362 59.1703 55.0102 59.0503 54.9056 58.9089C54.838 59.0626 54.7304 59.1918 54.5982 59.284Z" fill="#BF9D50"/>
<path d="M48.1811 51.1176L47.4094 48.1382L44.1256 47.4156L47.314 46.65L48.0459 43.0771L48.7715 46.5916C48.7776 46.6162 48.7961 46.6316 48.8176 46.6346L52.452 47.0313L48.9314 48.0521L48.1811 51.1176ZM49.0021 47.7754C49.0021 47.7784 49.0021 47.7754 49.0021 47.7754V47.7754Z" fill="#BF9D50"/>
<path d="M79.273 66.4174L78.4981 63.438L75.2112 62.7124L78.3997 61.9467L79.1315 58.3739L79.8571 61.8883C79.8633 61.9129 79.8817 61.9283 79.9032 61.9314L83.5376 62.328L80.0201 63.3488L79.273 66.4174ZM79.7618 63.4226L79.7495 63.4257C79.7556 63.4257 79.7587 63.4257 79.7618 63.4226ZM80.0908 63.0721C80.0877 63.0752 80.0877 63.0752 80.0908 63.0721V63.0721Z" fill="#BF9D50"/>
<path d="M73.231 75.4849L70.3624 72.8498L66.3959 74.3288L69.2246 71.3585L67.5797 67.14L70.5376 70.144C70.6698 70.2763 70.8697 70.3101 71.0388 70.2271L74.8453 68.3146L71.915 71.6906L73.231 75.4849ZM70.6052 71.6138L70.8174 71.8075L70.8143 71.7983C70.7621 71.6507 70.7713 71.4908 70.8297 71.3524C70.6545 71.3494 70.4822 71.3186 70.3224 71.2571C70.35 71.4201 70.3316 71.5861 70.2701 71.7368L70.6052 71.6138ZM69.32 71.2602C69.32 71.2632 69.32 71.2632 69.32 71.2602V71.2602Z" fill="#BF9D50"/>
<path d="M59.8652 59.0688C59.8283 59.5208 59.4347 59.856 58.9827 59.8191C58.5308 59.7822 58.1956 59.3886 58.2325 58.9366C58.2693 58.4846 58.663 58.1495 59.1149 58.1864C59.5638 58.2233 59.9021 58.6168 59.8652 59.0688Z" fill="#BF9D50"/>
<path d="M59.0504 59.8867C59.0258 59.8867 59.0043 59.8867 58.9797 59.8836C58.7429 59.8652 58.5308 59.7545 58.377 59.5761C58.2233 59.3978 58.1495 59.1672 58.1679 58.9335C58.1864 58.6968 58.297 58.4846 58.4754 58.3309C58.6537 58.1771 58.8844 58.1034 59.118 58.1218C59.6038 58.1618 59.9666 58.5861 59.9297 59.0719C59.8928 59.5362 59.5055 59.8867 59.0504 59.8867ZM59.0473 58.2509C58.869 58.2509 58.6968 58.3124 58.5584 58.4324C58.4047 58.5615 58.3125 58.7459 58.2971 58.9458C58.2817 59.1457 58.3432 59.3425 58.4754 59.4931C58.6076 59.6438 58.7891 59.7391 58.9889 59.7545C59.4009 59.7852 59.7668 59.4777 59.8006 59.0626C59.8344 58.6476 59.5239 58.2847 59.1088 58.2509C59.0873 58.2509 59.0688 58.2509 59.0473 58.2509Z" fill="#BF9D50"/>
<path d="M67.5612 67.4444C67.5305 67.4444 67.4997 67.4444 67.469 67.4413C67.1676 67.4167 66.8909 67.2753 66.6941 67.0447C66.4973 66.8141 66.4021 66.5189 66.4267 66.2145C66.4513 65.9132 66.5927 65.6364 66.8233 65.4396C67.0539 65.2429 67.3491 65.1475 67.6504 65.1721C68.2746 65.2213 68.745 65.7717 68.6958 66.3959C68.6712 66.6972 68.5297 66.9739 68.2991 67.1707C68.09 67.3491 67.8318 67.4444 67.5612 67.4444ZM67.5612 66.2422C67.5335 66.2422 67.4997 66.2698 67.4967 66.3006C67.4936 66.3313 67.5243 66.3651 67.5551 66.3682C67.5827 66.3682 67.6196 66.3406 67.6227 66.3098C67.6258 66.276 67.5981 66.2453 67.5612 66.2422C67.5643 66.2422 67.5612 66.2422 67.5612 66.2422Z" fill="#BF9D50"/>
<path d="M45.5646 50.9023C45.5338 50.9023 45.5061 50.9023 45.4754 50.8992C45.1864 50.8777 44.925 50.7424 44.7375 50.521C44.5499 50.2997 44.4576 50.0198 44.4822 49.7308C44.5038 49.4418 44.639 49.1804 44.8604 48.9929C45.0818 48.8053 45.3616 48.7131 45.6507 48.7377C45.9397 48.7592 46.201 48.8945 46.3886 49.1159C46.5761 49.3372 46.6684 49.6171 46.6438 49.9061C46.6223 50.1951 46.487 50.4564 46.2656 50.644C46.0657 50.8131 45.8198 50.9023 45.5646 50.9023ZM45.5615 49.8108L45.5676 49.82C45.5707 49.8169 45.5646 49.8108 45.5615 49.8108Z" fill="#BF9D50"/>
<path d="M78.2368 64.6218C78.2091 64.6218 78.1814 64.6218 78.1537 64.6187C77.8801 64.5972 77.631 64.4712 77.4527 64.2621C77.2744 64.053 77.1883 63.7855 77.2098 63.5119C77.256 62.9461 77.751 62.5218 78.3167 62.5679C78.8825 62.614 79.3068 63.109 79.2607 63.6748C79.2392 63.9484 79.113 64.1975 78.904 64.3758C78.7133 64.5357 78.4797 64.6218 78.2368 64.6218ZM78.2337 63.5487C78.2245 63.5487 78.2122 63.5518 78.203 63.561C78.1907 63.5702 78.1876 63.5825 78.1876 63.5918C78.1845 63.6164 78.2029 63.6379 78.2306 63.641C78.2644 63.641 78.2799 63.6256 78.2799 63.5979C78.2799 63.5887 78.2768 63.5733 78.2675 63.5641C78.2583 63.5549 78.246 63.5487 78.2337 63.5487C78.2368 63.5487 78.2368 63.5487 78.2337 63.5487Z" fill="#BF9D50"/>
<path d="M50.0875 68.6252C50.0875 67.8012 50.7547 67.1339 51.5787 67.1339C52.4028 67.1339 53.07 67.8012 53.07 68.6252C53.07 69.4492 52.4028 70.1164 51.5787 70.1164C50.7578 70.1195 50.0875 69.4492 50.0875 68.6252Z" fill="#BF9D50"/>
<path d="M51.5818 70.184C50.724 70.184 50.0229 69.486 50.0229 68.6251C50.0229 67.7641 50.7209 67.0662 51.5818 67.0662C52.4428 67.0662 53.1407 67.7641 53.1407 68.6251C53.1407 69.486 52.4397 70.184 51.5818 70.184ZM51.5818 67.1984C50.7947 67.1984 50.1551 67.8379 50.1551 68.6251C50.1551 69.4122 50.7947 70.0517 51.5818 70.0517C52.369 70.0517 53.0085 69.4122 53.0085 68.6251C53.0085 67.8379 52.3659 67.1984 51.5818 67.1984Z" fill="#BF9D50"/>
</svg>
