<svg width="118" height="102" viewBox="0 0 118 102" fill="none" xmlns="http://www.w3.org/2000/svg">
<path d="M17.1155 37.042L13.3785 33.305C9.95581 29.8823 13.2338 26.1753 13.2338 26.1753C13.2338 26.8638 13.3685 27.5324 13.5681 28.1461C14.0121 29.5281 14.8353 30.7605 15.8831 31.7683L19.4255 35.2009" stroke="#BF9D50" stroke-width="1.7825" stroke-miterlimit="10" stroke-linecap="round" stroke-linejoin="round"/>
<path d="M33.2958 45.8335L26.9993 45.6489" stroke="#BF9D50" stroke-width="1.7825" stroke-miterlimit="10" stroke-linecap="round" stroke-linejoin="round"/>
<path d="M26.9993 42.8146L37.5965 42.5103" stroke="#BF9D50" stroke-width="1.7825" stroke-miterlimit="10" stroke-linecap="round" stroke-linejoin="round"/>
<path d="M24.7092 44.7507L17.6543 38.3045C17.0705 37.7557 17.0606 36.8326 17.6244 36.2689L18.258 35.6352C18.8218 35.0714 19.7448 35.0814 20.2936 35.6652L26.6999 42.6751" stroke="#BF9D50" stroke-width="1.7825" stroke-miterlimit="10" stroke-linecap="round" stroke-linejoin="round"/>
<path d="M27.8274 44.232C27.8274 43.3738 27.1289 42.6753 26.2708 42.6753C25.4126 42.6753 24.7141 43.3738 24.7141 44.232C24.7141 45.0901 25.4126 45.7886 26.2708 45.7886C27.1289 45.7886 27.8274 45.0951 27.8274 44.232Z" stroke="#BF9D50" stroke-width="1.7825" stroke-miterlimit="10" stroke-linecap="round" stroke-linejoin="round"/>
<path d="M25.0385 66.6289L21.3015 70.3659C17.8738 73.7886 21.1568 77.4956 21.1568 77.4956C21.1568 76.8071 21.2915 76.1385 21.4911 75.5248C21.9351 74.1428 22.7583 72.9104 23.8061 71.9026L27.3485 68.47" stroke="#BF9D50" stroke-width="1.7825" stroke-miterlimit="10" stroke-linecap="round" stroke-linejoin="round"/>
<path d="M42.4012 57.8027L34.9222 58.0173" stroke="#BF9D50" stroke-width="1.7825" stroke-miterlimit="10" stroke-linecap="round" stroke-linejoin="round"/>
<path d="M34.9222 60.8511L46.1232 61.1754" stroke="#BF9D50" stroke-width="1.7825" stroke-miterlimit="10" stroke-linecap="round" stroke-linejoin="round"/>
<path d="M32.6321 58.9155L25.5773 65.3617C24.9935 65.9105 24.9835 66.8335 25.5473 67.3973L26.181 68.031C26.7448 68.5948 27.6678 68.5848 28.2166 68.001L34.6229 60.9911" stroke="#BF9D50" stroke-width="1.7825" stroke-miterlimit="10" stroke-linecap="round" stroke-linejoin="round"/>
<path d="M35.7505 59.4341C35.7505 60.2923 35.052 60.9908 34.1939 60.9908C33.3357 60.9908 32.6372 60.2923 32.6372 59.4341C32.6372 58.5759 33.3357 57.8774 34.1939 57.8774C35.052 57.8774 35.7505 58.5759 35.7505 59.4341Z" stroke="#BF9D50" stroke-width="1.7825" stroke-miterlimit="10" stroke-linecap="round" stroke-linejoin="round"/>
<path d="M13.134 60.4019L9.39703 64.1388C5.97436 67.5615 9.25233 71.2686 9.25233 71.2686C9.25233 70.58 9.38705 69.9115 9.58662 69.2978C10.0307 67.9157 10.8539 66.6834 11.9017 65.6755L15.4441 62.2429" stroke="#BF9D50" stroke-width="1.7825" stroke-miterlimit="10" stroke-linecap="round" stroke-linejoin="round"/>
<path d="M31.4897 51.5459L23.0178 51.7904" stroke="#BF9D50" stroke-width="1.7825" stroke-miterlimit="10" stroke-linecap="round" stroke-linejoin="round"/>
<path d="M23.0178 54.6294L38.6244 55.0784C38.7092 55.0784 38.789 55.0734 38.8738 55.0635" stroke="#BF9D50" stroke-width="1.7825" stroke-miterlimit="10" stroke-linecap="round" stroke-linejoin="round"/>
<path d="M20.7277 52.6885L13.6728 59.1347C13.0891 59.6835 13.0791 60.6065 13.6429 61.1703L14.2765 61.8039C14.8403 62.3677 15.7634 62.3578 16.3122 61.774L22.7184 54.764" stroke="#BF9D50" stroke-width="1.7825" stroke-miterlimit="10" stroke-linecap="round" stroke-linejoin="round"/>
<path d="M22.2893 54.7642C23.149 54.7642 23.846 54.0673 23.846 53.2075C23.846 52.3478 23.149 51.6509 22.2893 51.6509C21.4296 51.6509 20.7327 52.3478 20.7327 53.2075C20.7327 54.0673 21.4296 54.7642 22.2893 54.7642Z" stroke="#BF9D50" stroke-width="1.7825" stroke-miterlimit="10" stroke-linecap="round" stroke-linejoin="round"/>
<path d="M104.169 37.042L107.906 33.305C111.328 29.8823 108.05 26.1753 108.05 26.1753C108.05 26.8638 107.916 27.5324 107.716 28.1461C107.272 29.5281 106.449 30.7605 105.401 31.7683L101.859 35.2009" stroke="#BF9D50" stroke-width="1.7825" stroke-miterlimit="10" stroke-linecap="round" stroke-linejoin="round"/>
<path d="M87.9835 45.8335L94.285 45.6489" stroke="#BF9D50" stroke-width="1.7825" stroke-miterlimit="10" stroke-linecap="round" stroke-linejoin="round"/>
<path d="M94.285 42.8146L83.6827 42.5103" stroke="#BF9D50" stroke-width="1.7825" stroke-miterlimit="10" stroke-linecap="round" stroke-linejoin="round"/>
<path d="M96.5751 44.7507L103.63 38.3045C104.214 37.7557 104.224 36.8326 103.66 36.2689L103.026 35.6352C102.462 35.0714 101.539 35.0814 100.991 35.6652L94.5844 42.6751" stroke="#BF9D50" stroke-width="1.7825" stroke-miterlimit="10" stroke-linecap="round" stroke-linejoin="round"/>
<path d="M93.4568 44.232C93.4568 43.3738 94.1553 42.6753 95.0134 42.6753C95.8716 42.6753 96.5701 43.3738 96.5701 44.232C96.5701 45.0901 95.8716 45.7886 95.0134 45.7886C94.1553 45.7886 93.4568 45.0951 93.4568 44.232Z" stroke="#BF9D50" stroke-width="1.7825" stroke-miterlimit="10" stroke-linecap="round" stroke-linejoin="round"/>
<path d="M96.2408 66.6289L99.9778 70.3659C103.4 73.7886 100.123 77.4956 100.123 77.4956C100.123 76.8071 99.9878 76.1385 99.7882 75.5248C99.3442 74.1428 98.5209 72.9104 97.4732 71.9026L93.9308 68.47" stroke="#BF9D50" stroke-width="1.7825" stroke-miterlimit="10" stroke-linecap="round" stroke-linejoin="round"/>
<path d="M78.8781 57.8027L86.357 58.0173" stroke="#BF9D50" stroke-width="1.7825" stroke-miterlimit="10" stroke-linecap="round" stroke-linejoin="round"/>
<path d="M86.357 60.8511L75.161 61.1754" stroke="#BF9D50" stroke-width="1.7825" stroke-miterlimit="10" stroke-linecap="round" stroke-linejoin="round"/>
<path d="M88.6471 58.9155L95.702 65.3617C96.2857 65.9105 96.2957 66.8335 95.7319 67.3973L95.0983 68.031C94.5345 68.5948 93.6115 68.5848 93.0626 68.001L86.6564 60.9911" stroke="#BF9D50" stroke-width="1.7825" stroke-miterlimit="10" stroke-linecap="round" stroke-linejoin="round"/>
<path d="M85.5338 59.4341C85.5338 60.2923 86.2323 60.9908 87.0905 60.9908C87.9486 60.9908 88.6471 60.2923 88.6471 59.4341C88.6471 58.5759 87.9486 57.8774 87.0905 57.8774C86.2323 57.8774 85.5338 58.5759 85.5338 59.4341Z" stroke="#BF9D50" stroke-width="1.7825" stroke-miterlimit="10" stroke-linecap="round" stroke-linejoin="round"/>
<path d="M108.15 60.4019L111.887 64.1388C115.31 67.5615 112.032 71.2686 112.032 71.2686C112.032 70.58 111.897 69.9115 111.698 69.2978C111.254 67.9157 110.43 66.6834 109.383 65.6755L105.84 62.2429" stroke="#BF9D50" stroke-width="1.7825" stroke-miterlimit="10" stroke-linecap="round" stroke-linejoin="round"/>
<path d="M89.7947 51.5459L98.2615 51.7904" stroke="#BF9D50" stroke-width="1.7825" stroke-miterlimit="10" stroke-linecap="round" stroke-linejoin="round"/>
<path d="M98.2615 54.6294L82.655 55.0784C82.5702 55.0784 82.4903 55.0734 82.4055 55.0635" stroke="#BF9D50" stroke-width="1.7825" stroke-miterlimit="10" stroke-linecap="round" stroke-linejoin="round"/>
<path d="M100.552 52.6885L107.606 59.1347C108.19 59.6835 108.2 60.6065 107.636 61.1703L107.003 61.8039C106.439 62.3677 105.516 62.3578 104.967 61.774L98.5608 54.764" stroke="#BF9D50" stroke-width="1.7825" stroke-miterlimit="10" stroke-linecap="round" stroke-linejoin="round"/>
<path d="M97.4382 53.2075C97.4382 54.0657 98.1367 54.7642 98.9949 54.7642C99.8531 54.7642 100.552 54.0657 100.552 53.2075C100.552 52.3494 99.8531 51.6509 98.9949 51.6509C98.1367 51.6509 97.4382 52.3494 97.4382 53.2075Z" stroke="#BF9D50" stroke-width="1.7825" stroke-miterlimit="10" stroke-linecap="round" stroke-linejoin="round"/>
<path d="M60.6421 65.4363C66.6143 65.6609 72.6663 63.6801 77.2266 59.4991L77.2415 59.509C84.1417 51.4264 96.7896 49.7799 96.7896 49.7799C96.7896 49.7799 93.5915 50.0294 89.9243 47.4749C85.2394 44.2119 78.2344 37.631 78.2344 37.631C73.3948 33.1905 66.9785 31.09 60.6421 31.3095C54.3057 31.09 47.8845 33.1905 43.0498 37.631C43.0498 37.631 36.0449 44.2168 31.3599 47.4749C27.6928 50.0294 24.4946 49.7799 24.4946 49.7799C24.4946 49.7799 37.1425 51.4264 44.0427 59.509L44.0577 59.4991C48.6179 63.6801 54.6699 65.6559 60.6421 65.4363Z" stroke="#BF9D50" stroke-width="1.7825" stroke-miterlimit="10" stroke-linecap="round" stroke-linejoin="round"/>
<path d="M25.8567 49.7148H37.7312" stroke="#BF9D50" stroke-width="1.0186" stroke-miterlimit="10" stroke-linecap="round" stroke-linejoin="round"/>
<path d="M40.5652 49.7148C48.9422 49.7148 55.7377 56.5053 55.7377 64.8873" stroke="#BF9D50" stroke-width="1.0186" stroke-miterlimit="10" stroke-linecap="round" stroke-linejoin="round"/>
<path d="M95.4275 49.7148H83.548" stroke="#BF9D50" stroke-width="1.0186" stroke-miterlimit="10" stroke-linecap="round" stroke-linejoin="round"/>
<path d="M80.7141 49.7148C72.3371 49.7148 65.5416 56.5053 65.5416 64.8873" stroke="#BF9D50" stroke-width="1.0186" stroke-miterlimit="10" stroke-linecap="round" stroke-linejoin="round"/>
<path d="M48.1539 51.4912C55.0491 44.596 66.2352 44.596 73.1304 51.4912" stroke="#BF9D50" stroke-width="1.0186" stroke-miterlimit="10" stroke-linecap="round" stroke-linejoin="round"/>
<path d="M38.3499 12.2203C38.8538 10.7784 40.4504 10.025 41.8724 10.5888C45.29 11.9359 49.3264 11.0379 51.826 8.07422L51.851 8.12411C50.1845 12.9388 45.6193 15.9274 40.7847 15.8126C38.9736 15.7727 37.7512 13.9317 38.3499 12.2203Z" stroke="#BF9D50" stroke-width="1.7825" stroke-miterlimit="10" stroke-linecap="round" stroke-linejoin="round"/>
<path d="M37.7762 25.547C31.3949 25.547 26.2209 20.3731 26.2209 13.9917C26.2209 7.61043 31.3949 2.43652 37.7762 2.43652" stroke="#BF9D50" stroke-width="1.7825" stroke-miterlimit="10" stroke-linecap="round" stroke-linejoin="round"/>
<path d="M40.3506 40.0357C36.0049 39.0329 32.7668 35.1412 32.7668 30.4912" stroke="#BF9D50" stroke-width="1.7825" stroke-miterlimit="10" stroke-linecap="round" stroke-linejoin="round"/>
<path d="M44.786 36.139C43.6585 34.5424 42.9999 32.5966 42.9999 30.4961" stroke="#BF9D50" stroke-width="1.7825" stroke-miterlimit="10" stroke-linecap="round" stroke-linejoin="round"/>
<path d="M37.7761 21.8897C33.4155 21.8897 29.8831 18.3572 29.8831 13.9966" stroke="#BF9D50" stroke-width="1.0186" stroke-miterlimit="10" stroke-linecap="round" stroke-linejoin="round"/>
<path d="M41.9022 33.7893C46.8666 28.825 46.8666 20.7822 41.9022 15.8179" stroke="#BF9D50" stroke-width="1.7825" stroke-miterlimit="10" stroke-linecap="round" stroke-linejoin="round"/>
<path d="M37.8859 35.7798C40.7103 35.7798 42.9999 33.4902 42.9999 30.6658C42.9999 27.8414 40.7103 25.5518 37.8859 25.5518C35.0615 25.5518 32.7719 27.8414 32.7719 30.6658C32.7719 33.4902 35.0615 35.7798 37.8859 35.7798Z" stroke="#BF9D50" stroke-width="1.7825" stroke-miterlimit="10" stroke-linecap="round" stroke-linejoin="round"/>
<path d="M36.0448 9.50121C37.6962 11.1128 40.3705 11.0529 41.9172 9.33657C45.6342 5.20543 51.7112 3.69866 57.0946 6.02367V5.93886C51.5865 0.545426 43.394 -0.422496 36.9279 2.99518C34.4931 4.27244 34.079 7.58532 36.0448 9.50121Z" stroke="#BF9D50" stroke-width="1.7825" stroke-miterlimit="10" stroke-linecap="round" stroke-linejoin="round"/>
<path d="M82.9343 12.2203C82.4304 10.7784 80.8338 10.025 79.4118 10.5888C75.9942 11.9359 71.9578 11.0379 69.4582 8.07422L69.4332 8.12411C71.0997 12.9388 75.6649 15.9274 80.4995 15.8126C82.3106 15.7727 83.533 13.9317 82.9343 12.2203Z" stroke="#BF9D50" stroke-width="1.7825" stroke-miterlimit="10" stroke-linecap="round" stroke-linejoin="round"/>
<path d="M83.5031 25.547C89.8844 25.547 95.0583 20.3731 95.0583 13.9917C95.0583 7.61043 89.8844 2.43652 83.5031 2.43652" stroke="#BF9D50" stroke-width="1.7825" stroke-miterlimit="10" stroke-linecap="round" stroke-linejoin="round"/>
<path d="M80.9286 40.0357C85.2743 39.0329 88.5123 35.1412 88.5123 30.4912" stroke="#BF9D50" stroke-width="1.7825" stroke-miterlimit="10" stroke-linecap="round" stroke-linejoin="round"/>
<path d="M76.493 36.139C77.6206 34.5424 78.2792 32.5966 78.2792 30.4961" stroke="#BF9D50" stroke-width="1.7825" stroke-miterlimit="10" stroke-linecap="round" stroke-linejoin="round"/>
<path d="M83.5031 21.8897C87.8637 21.8897 91.3961 18.3572 91.3961 13.9966" stroke="#BF9D50" stroke-width="1.0186" stroke-miterlimit="10" stroke-linecap="round" stroke-linejoin="round"/>
<path d="M79.382 33.7893C74.4176 28.825 74.4176 20.7822 79.382 15.8179" stroke="#BF9D50" stroke-width="1.7825" stroke-miterlimit="10" stroke-linecap="round" stroke-linejoin="round"/>
<path d="M83.3983 35.7798C86.2227 35.7798 88.5124 33.4902 88.5124 30.6658C88.5124 27.8414 86.2227 25.5518 83.3983 25.5518C80.5739 25.5518 78.2843 27.8414 78.2843 30.6658C78.2843 33.4902 80.5739 35.7798 83.3983 35.7798Z" stroke="#BF9D50" stroke-width="1.7825" stroke-miterlimit="10" stroke-linecap="round" stroke-linejoin="round"/>
<path d="M85.2393 9.50121C83.5879 11.1128 80.9136 11.0529 79.3669 9.33657C75.6499 5.20543 69.5729 3.69866 64.1895 6.02367V5.93886C69.6976 0.545426 77.8901 -0.422496 84.3562 2.99518C86.786 4.27244 87.2001 7.58532 85.2393 9.50121Z" stroke="#BF9D50" stroke-width="1.7825" stroke-miterlimit="10" stroke-linecap="round" stroke-linejoin="round"/>
<path d="M60.6421 34.1235V42.8598" stroke="#BF9D50" stroke-width="1.0186" stroke-miterlimit="10" stroke-linecap="round" stroke-linejoin="round"/>
<path d="M48.6179 66.938H51.5067C51.5067 68.5096 50.3592 69.8168 48.8574 70.0663" stroke="#BF9D50" stroke-width="1.7825" stroke-miterlimit="10" stroke-linecap="round" stroke-linejoin="round"/>
<path d="M37.0477 88.4667H49.7904C53.0085 88.4667 55.6129 85.8623 55.6129 82.6442V76.8965H42.8702C41.7177 76.8965 40.645 77.2308 39.742 77.8095" stroke="#BF9D50" stroke-width="1.7825" stroke-miterlimit="10" stroke-linecap="round" stroke-linejoin="round"/>
<path d="M41.8923 79.9351H55.6079" stroke="#BF9D50" stroke-width="1.0186" stroke-miterlimit="10" stroke-linecap="round" stroke-linejoin="round"/>
<path d="M42.8602 82.6841H55.6079" stroke="#BF9D50" stroke-width="1.0186" stroke-miterlimit="10" stroke-linecap="round" stroke-linejoin="round"/>
<path d="M42.1617 85.4331H54.7497" stroke="#BF9D50" stroke-width="1.0186" stroke-miterlimit="10" stroke-linecap="round" stroke-linejoin="round"/>
<path d="M38.8239 73.2295C38.6593 74.2373 38.0506 75.0955 37.2074 75.5994" stroke="#BF9D50" stroke-width="1.7825" stroke-miterlimit="10" stroke-linecap="round" stroke-linejoin="round"/>
<path d="M32.1232 73.2946C32.0883 73.095 32.0684 72.8855 32.0684 72.6759C32.0684 70.8698 33.4803 69.388 35.2615 69.2832" stroke="#BF9D50" stroke-width="1.7825" stroke-miterlimit="10" stroke-linecap="round" stroke-linejoin="round"/>
<path d="M35.2566 69.1784V68.4101C35.2566 66.0451 37.2623 64.1692 39.6222 64.3338L45.2502 64.718C47.3956 64.8627 49.057 66.6488 49.057 68.7942C49.057 70.9446 47.3906 72.7258 45.2502 72.8705L39.6222 73.2547C37.2623 73.4193 35.2566 71.5433 35.2566 69.1784Z" stroke="#BF9D50" stroke-width="1.7825" stroke-miterlimit="10" stroke-linecap="round" stroke-linejoin="round"/>
<path d="M41.3934 86.3366L40.7248 87.0052C38.6792 89.0508 35.3264 88.9361 33.4205 86.7557L28.8852 81.5519C27.1589 79.5711 27.2587 76.5875 29.1197 74.7315C30.9807 72.8705 33.9593 72.7707 35.9401 74.497L41.1439 79.0323C43.3292 80.9382 43.444 84.291 41.3934 86.3366Z" stroke="#BF9D50" stroke-width="1.7825" stroke-miterlimit="10" stroke-linecap="round" stroke-linejoin="round"/>
<path d="M72.6663 66.938H69.7775C69.7775 68.5096 70.925 69.8168 72.4268 70.0663" stroke="#BF9D50" stroke-width="1.7825" stroke-miterlimit="10" stroke-linecap="round" stroke-linejoin="round"/>
<path d="M84.2365 88.4667H71.4938C68.2807 88.4667 65.6713 85.8623 65.6713 82.6442V76.8965H78.4139C79.5665 76.8965 80.6392 77.2308 81.5422 77.8095" stroke="#BF9D50" stroke-width="1.7825" stroke-miterlimit="10" stroke-linecap="round" stroke-linejoin="round"/>
<path d="M79.3918 79.9351H65.6713" stroke="#BF9D50" stroke-width="1.0186" stroke-miterlimit="10" stroke-linecap="round" stroke-linejoin="round"/>
<path d="M78.4239 82.6841H65.6713" stroke="#BF9D50" stroke-width="1.0186" stroke-miterlimit="10" stroke-linecap="round" stroke-linejoin="round"/>
<path d="M79.1224 85.4331H66.5294" stroke="#BF9D50" stroke-width="1.0186" stroke-miterlimit="10" stroke-linecap="round" stroke-linejoin="round"/>
<path d="M82.4603 73.2295C82.625 74.2373 83.2337 75.0955 84.0769 75.5994" stroke="#BF9D50" stroke-width="1.7825" stroke-miterlimit="10" stroke-linecap="round" stroke-linejoin="round"/>
<path d="M89.156 73.2941C89.1909 73.0945 89.2108 72.885 89.2108 72.6754C89.2108 70.8693 87.7989 69.3875 86.0177 69.2827" stroke="#BF9D50" stroke-width="1.7825" stroke-miterlimit="10" stroke-linecap="round" stroke-linejoin="round"/>
<path d="M86.0227 69.1779V68.4096C86.0227 66.0446 84.017 64.1687 81.6571 64.3333L76.0291 64.7175C73.8837 64.8622 72.2223 66.6483 72.2223 68.7937C72.2223 70.9441 73.8887 72.7253 76.0291 72.87L81.6571 73.2542C84.022 73.4188 86.0227 71.5429 86.0227 69.1779Z" stroke="#BF9D50" stroke-width="1.7825" stroke-miterlimit="10" stroke-linecap="round" stroke-linejoin="round"/>
<path d="M79.8858 86.3362L80.5544 87.0047C82.6 89.0503 85.9528 88.9356 87.8587 86.7552L92.394 81.5514C94.1203 79.5706 94.0205 76.5871 92.1595 74.731C90.2985 72.87 87.3198 72.7702 85.3391 74.4965L80.1353 79.0318C77.9549 80.9377 77.8402 84.2905 79.8858 86.3362Z" stroke="#BF9D50" stroke-width="1.7825" stroke-miterlimit="10" stroke-linecap="round" stroke-linejoin="round"/>
<path d="M72.8459 62.6621C73.2999 63.1161 73.5793 63.7398 73.5793 64.4333V64.9722C73.5793 66.0598 72.7012 66.9379 71.6135 66.9379H69.7725H51.5067H49.6656C48.5779 66.9379 47.6998 66.0598 47.6998 64.9722V64.4333C47.6998 63.7398 47.9792 63.1161 48.4333 62.6621" stroke="#BF9D50" stroke-width="1.7825" stroke-miterlimit="10" stroke-linecap="round" stroke-linejoin="round"/>
<path d="M67.8367 31.8534C68.4926 31.8534 69.0242 31.3218 69.0242 30.666C69.0242 30.0102 68.4926 29.4785 67.8367 29.4785C67.1809 29.4785 66.6493 30.0102 66.6493 30.666C66.6493 31.3218 67.1809 31.8534 67.8367 31.8534Z" stroke="#BF9D50" stroke-width="1.7825" stroke-miterlimit="10" stroke-linecap="round" stroke-linejoin="round"/>
<path d="M54.6399 30.666C54.6399 30.0074 54.1061 29.4785 53.4525 29.4785C52.7939 29.4785 52.265 30.0124 52.265 30.666C52.265 31.3196 52.7989 31.8534 53.4525 31.8534C54.1061 31.8534 54.6399 31.3196 54.6399 30.666Z" stroke="#BF9D50" stroke-width="1.7825" stroke-miterlimit="10" stroke-linecap="round" stroke-linejoin="round"/>
<path d="M108.026 83.1385C106.768 83.1385 105.745 84.1613 105.745 85.4186C105.745 84.1613 104.723 83.1385 103.465 83.1385C104.723 83.1385 105.745 82.1157 105.745 80.8584C105.745 82.1207 106.768 83.1385 108.026 83.1385Z" stroke="white" stroke-width="1.0186" stroke-miterlimit="10" stroke-linecap="round" stroke-linejoin="round"/>
<path d="M13.9223 85.4334C12.665 85.4334 11.6422 86.4562 11.6422 87.7135C11.6422 86.4562 10.6194 85.4334 9.36206 85.4334C10.6194 85.4334 11.6422 84.4106 11.6422 83.1533C11.6422 84.4106 12.665 85.4334 13.9223 85.4334Z" stroke="white" stroke-width="1.0186" stroke-miterlimit="10" stroke-linecap="round" stroke-linejoin="round"/>
<path d="M5.56022 48.3729C4.30292 48.3729 3.28011 49.3957 3.28011 50.653C3.28011 49.3957 2.2573 48.3729 1 48.3729C2.2573 48.3729 3.28011 47.3501 3.28011 46.0928C3.28011 47.3501 4.29793 48.3729 5.56022 48.3729Z" stroke="white" stroke-width="1.0186" stroke-miterlimit="10" stroke-linecap="round" stroke-linejoin="round"/>
<path d="M104.134 13.6073C102.877 13.6073 101.854 14.6301 101.854 15.8874C101.854 14.6301 100.831 13.6073 99.5736 13.6073C100.831 13.6073 101.854 12.5845 101.854 11.3271C101.854 12.5894 102.877 13.6073 104.134 13.6073Z" stroke="white" stroke-width="1.0186" stroke-miterlimit="10" stroke-linecap="round" stroke-linejoin="round"/>
<path d="M61.0861 24.1696C62.3454 24.1696 63.3663 23.1488 63.3663 21.8895C63.3663 20.6302 62.3454 19.6094 61.0861 19.6094C59.8269 19.6094 58.806 20.6302 58.806 21.8895C58.806 23.1488 59.8269 24.1696 61.0861 24.1696Z" stroke="white" stroke-width="1.0186" stroke-miterlimit="10" stroke-linecap="round" stroke-linejoin="round"/>
<path d="M60.6421 93.4712V101" stroke="white" stroke-width="1.0186" stroke-miterlimit="10" stroke-linecap="round" stroke-linejoin="round"/>
<path d="M56.8751 97.2329H64.404" stroke="white" stroke-width="1.0186" stroke-miterlimit="10" stroke-linecap="round" stroke-linejoin="round"/>
<path d="M58.5416 95.1328L62.7426 99.3338" stroke="white" stroke-width="1.0186" stroke-miterlimit="10" stroke-linecap="round" stroke-linejoin="round"/>
<path d="M58.5416 99.3338L62.7426 95.1328" stroke="white" stroke-width="1.0186" stroke-miterlimit="10" stroke-linecap="round" stroke-linejoin="round"/>
<path d="M15.8931 13.6475V21.1713" stroke="white" stroke-width="1.0186" stroke-miterlimit="10" stroke-linecap="round" stroke-linejoin="round"/>
<path d="M12.1261 17.4092H19.655" stroke="white" stroke-width="1.0186" stroke-miterlimit="10" stroke-linecap="round" stroke-linejoin="round"/>
<path d="M13.7926 15.3086L17.9936 19.5096" stroke="white" stroke-width="1.0186" stroke-miterlimit="10" stroke-linecap="round" stroke-linejoin="round"/>
<path d="M13.7926 19.5096L17.9936 15.3086" stroke="white" stroke-width="1.0186" stroke-miterlimit="10" stroke-linecap="round" stroke-linejoin="round"/>
<path d="M113.489 44.606V52.1348" stroke="white" stroke-width="1.0186" stroke-miterlimit="10" stroke-linecap="round" stroke-linejoin="round"/>
<path d="M109.727 48.373H117.256" stroke="white" stroke-width="1.0186" stroke-miterlimit="10" stroke-linecap="round" stroke-linejoin="round"/>
<path d="M111.388 46.2725L115.589 50.4734" stroke="white" stroke-width="1.0186" stroke-miterlimit="10" stroke-linecap="round" stroke-linejoin="round"/>
<path d="M111.388 50.4734L115.589 46.2725" stroke="white" stroke-width="1.0186" stroke-miterlimit="10" stroke-linecap="round" stroke-linejoin="round"/>
</svg>
