<svg width="82" height="102" viewBox="0 0 82 102" fill="none" xmlns="http://www.w3.org/2000/svg">
<path d="M36.6972 34.9495C36.6972 33.5711 35.8015 32.458 34.6971 32.458C34.6971 30.1144 36.5842 28.2144 38.9147 28.2144C36.6059 30.1666 37.1494 32.4189 38.3625 34.4972" stroke="#BF9D50" stroke-width="1.7825" stroke-miterlimit="10" stroke-linecap="round" stroke-linejoin="round"/>
<path d="M44.2628 34.9495C44.2628 33.5711 45.1585 32.458 46.2629 32.458C46.2629 30.1144 44.3758 28.2144 42.0453 28.2144C44.3541 30.1666 43.8106 32.4189 42.5975 34.4972" stroke="#BF9D50" stroke-width="1.7825" stroke-miterlimit="10" stroke-linecap="round" stroke-linejoin="round"/>
<path d="M9.20471 21.2052C9.20471 10.0439 18.2529 1 29.4099 1H30.5622" stroke="#BF9D50" stroke-width="1.7825" stroke-miterlimit="10" stroke-linecap="round" stroke-linejoin="round"/>
<path d="M23.1097 29.9493C28.0621 24.9969 28.0621 16.9661 23.1097 12.0137L22.2009 11.105" stroke="#BF9D50" stroke-width="1.7825" stroke-miterlimit="10" stroke-linecap="round" stroke-linejoin="round"/>
<path d="M21.4574 22.7359C23.5097 19.6966 24.2358 15.8008 23.1096 12.0137" stroke="#BF9D50" stroke-width="1.7825" stroke-miterlimit="10" stroke-linecap="round" stroke-linejoin="round"/>
<path d="M19.7268 22.5096C13.844 12.0135 22.6313 2.03483 28.9751 1" stroke="#BF9D50" stroke-width="1.7825" stroke-miterlimit="10" stroke-linecap="round" stroke-linejoin="round"/>
<path d="M24.3228 29.0664C24.3228 31.7796 26.5229 33.9753 29.2317 33.9753" stroke="#BF9D50" stroke-width="1.7825" stroke-miterlimit="10" stroke-linecap="round" stroke-linejoin="round"/>
<path d="M16.9963 23.7878C18.6964 22.0877 21.4574 22.0877 23.1575 23.7878C24.8575 25.4878 24.8575 28.2488 23.1575 29.9489" stroke="#BF9D50" stroke-width="1.7825" stroke-miterlimit="10" stroke-linecap="round" stroke-linejoin="round"/>
<path d="M28.5534 36.4362H24.4358C16.0224 36.4362 9.20471 29.6185 9.20471 21.2051" stroke="#BF9D50" stroke-width="1.7825" stroke-miterlimit="10" stroke-linecap="round" stroke-linejoin="round"/>
<path d="M13.3961 12.305C14.0309 11.1832 14.7831 10.1397 15.6397 9.1875" stroke="#BF9D50" stroke-width="1.0186" stroke-miterlimit="10" stroke-linecap="round" stroke-linejoin="round"/>
<path d="M11.1526 20.866C11.1526 19.179 11.3917 17.5485 11.8396 16.0093" stroke="#BF9D50" stroke-width="1.0186" stroke-miterlimit="10" stroke-linecap="round" stroke-linejoin="round"/>
<path d="M22.8357 33.9363C16.2659 33.2059 11.1526 27.6317 11.1526 20.8662" stroke="#BF9D50" stroke-width="1.0186" stroke-miterlimit="10" stroke-linecap="round" stroke-linejoin="round"/>
<path d="M32.2796 36.4361H29.0012C27.6446 36.4361 26.5446 35.3361 26.5446 33.9795H29.8229C31.1795 33.9795 32.2796 35.0796 32.2796 36.4361Z" stroke="#BF9D50" stroke-width="1.7825" stroke-miterlimit="10" stroke-linecap="round" stroke-linejoin="round"/>
<path d="M35.4842 40.5367H32.6492C30.3839 40.5367 28.5491 38.7018 28.5491 36.4365H34.9972" stroke="#BF9D50" stroke-width="1.7825" stroke-miterlimit="10" stroke-linecap="round" stroke-linejoin="round"/>
<path d="M71.764 21.2052C71.764 10.0439 62.7157 1 51.5587 1H50.4065" stroke="#BF9D50" stroke-width="1.7825" stroke-miterlimit="10" stroke-linecap="round" stroke-linejoin="round"/>
<path d="M57.8547 29.9493C52.9023 24.9969 52.9023 16.9661 57.8547 12.0137L58.7634 11.105" stroke="#BF9D50" stroke-width="1.7825" stroke-miterlimit="10" stroke-linecap="round" stroke-linejoin="round"/>
<path d="M59.5069 22.7359C57.4546 19.6966 56.7285 15.8008 57.8546 12.0137" stroke="#BF9D50" stroke-width="1.7825" stroke-miterlimit="10" stroke-linecap="round" stroke-linejoin="round"/>
<path d="M61.2418 22.5096C67.1246 12.0135 58.3373 2.03483 51.9935 1" stroke="#BF9D50" stroke-width="1.7825" stroke-miterlimit="10" stroke-linecap="round" stroke-linejoin="round"/>
<path d="M56.6416 29.0664C56.6416 31.7796 54.4415 33.9753 51.7327 33.9753" stroke="#BF9D50" stroke-width="1.7825" stroke-miterlimit="10" stroke-linecap="round" stroke-linejoin="round"/>
<path d="M63.9723 23.7878C62.2722 22.0877 59.5113 22.0877 57.8112 23.7878C56.1111 25.4878 56.1111 28.2488 57.8112 29.9489" stroke="#BF9D50" stroke-width="1.7825" stroke-miterlimit="10" stroke-linecap="round" stroke-linejoin="round"/>
<path d="M52.4153 36.4362H56.5328C64.9463 36.4362 71.764 29.6185 71.764 21.2051" stroke="#BF9D50" stroke-width="1.7825" stroke-miterlimit="10" stroke-linecap="round" stroke-linejoin="round"/>
<path d="M67.5681 12.305C66.9332 11.1832 66.181 10.1397 65.3245 9.1875" stroke="#BF9D50" stroke-width="1.0186" stroke-miterlimit="10" stroke-linecap="round" stroke-linejoin="round"/>
<path d="M69.8117 20.866C69.8117 19.179 69.5726 17.5485 69.1248 16.0093" stroke="#BF9D50" stroke-width="1.0186" stroke-miterlimit="10" stroke-linecap="round" stroke-linejoin="round"/>
<path d="M58.1285 33.9363C64.6984 33.2059 69.8117 27.6317 69.8117 20.8662" stroke="#BF9D50" stroke-width="1.0186" stroke-miterlimit="10" stroke-linecap="round" stroke-linejoin="round"/>
<path d="M48.689 36.4361H51.9674C53.3239 36.4361 54.424 35.3361 54.424 33.9795H51.1456C49.789 33.9795 48.689 35.0796 48.689 36.4361Z" stroke="#BF9D50" stroke-width="1.7825" stroke-miterlimit="10" stroke-linecap="round" stroke-linejoin="round"/>
<path d="M45.4802 40.5367H48.3151C50.5804 40.5367 52.4153 38.7018 52.4153 36.4365H45.9672" stroke="#BF9D50" stroke-width="1.7825" stroke-miterlimit="10" stroke-linecap="round" stroke-linejoin="round"/>
<path d="M46.0933 36.5145C44.9976 37.6102 44.9976 39.3886 46.0976 40.4886C42.9932 40.4886 40.48 43.0018 40.4844 46.1019C40.4844 42.9974 37.9668 40.4799 34.8624 40.4799C35.9581 39.3842 35.9581 37.6059 34.858 36.5058C37.9625 33.4013 43.0019 33.4057 46.1107 36.5145" stroke="#BF9D50" stroke-width="1.7825" stroke-miterlimit="10" stroke-linecap="round" stroke-linejoin="round"/>
<path d="M40.48 36.4365V40.141" stroke="#BF9D50" stroke-width="1.0186" stroke-miterlimit="10" stroke-linecap="round" stroke-linejoin="round"/>
<path d="M48.676 41.9365H56.5198C58.1416 41.9365 59.4547 43.2496 59.4547 44.8714H51.6109C49.9891 44.8714 48.676 43.5583 48.676 41.9365Z" stroke="#BF9D50" stroke-width="1.7825" stroke-miterlimit="10" stroke-linecap="round" stroke-linejoin="round"/>
<path d="M59.4547 44.876L62.9201 48.3414C64.068 49.4893 65.9246 49.4893 67.0724 48.3414L63.6071 44.876C62.4592 43.7282 60.6026 43.7282 59.4547 44.876Z" stroke="#BF9D50" stroke-width="1.7825" stroke-miterlimit="10" stroke-linecap="round" stroke-linejoin="round"/>
<path d="M67.0724 48.337V41.9628C67.0724 41.1541 67.7289 40.4932 68.542 40.4932V46.8673C68.542 47.6804 67.8811 48.337 67.0724 48.337Z" stroke="#BF9D50" stroke-width="1.7825" stroke-miterlimit="10" stroke-linecap="round" stroke-linejoin="round"/>
<path d="M46.6846 43.9236C47.7803 43.9236 48.6716 43.0322 48.6716 41.9365H47.3759" stroke="#BF9D50" stroke-width="1.7825" stroke-miterlimit="10" stroke-linecap="round" stroke-linejoin="round"/>
<path d="M53.0283 62.9072V70.751C53.0283 72.3728 54.3414 73.6859 55.9632 73.6859V65.8421C55.9632 64.2203 54.6501 62.9072 53.0283 62.9072Z" stroke="#BF9D50" stroke-width="1.7825" stroke-miterlimit="10" stroke-linecap="round" stroke-linejoin="round"/>
<path d="M55.9676 73.6855L59.433 77.1509C60.5808 78.2988 60.5808 80.1554 59.433 81.3033L55.9676 77.8379C54.8197 76.6944 54.8197 74.8334 55.9676 73.6855Z" stroke="#BF9D50" stroke-width="1.7825" stroke-miterlimit="10" stroke-linecap="round" stroke-linejoin="round"/>
<path d="M59.4243 81.3035L63.9332 85.8124C64.5071 86.3863 65.4376 86.3863 66.0072 85.8124L61.4983 81.3035C60.9244 80.7296 59.9983 80.7296 59.4243 81.3035Z" stroke="#BF9D50" stroke-width="1.7825" stroke-miterlimit="10" stroke-linecap="round" stroke-linejoin="round"/>
<path d="M51.037 60.9199C52.1327 60.9199 53.024 61.8113 53.024 62.907H50.6239" stroke="#BF9D50" stroke-width="1.7825" stroke-miterlimit="10" stroke-linecap="round" stroke-linejoin="round"/>
<path d="M52.7717 58.2414L58.3198 63.7895C59.4677 64.9374 61.3243 64.9374 62.4722 63.7895L56.9241 58.2414C55.7806 57.0979 53.9196 57.0979 52.7717 58.2414Z" stroke="#BF9D50" stroke-width="1.7825" stroke-miterlimit="10" stroke-linecap="round" stroke-linejoin="round"/>
<path d="M62.4766 63.7896H67.3768C68.9986 63.7896 70.3117 65.1027 70.3117 66.7245H65.4115C63.7897 66.7245 62.4766 65.407 62.4766 63.7896Z" stroke="#BF9D50" stroke-width="1.7825" stroke-miterlimit="10" stroke-linecap="round" stroke-linejoin="round"/>
<path d="M70.2986 66.7333L74.8075 62.2244C75.3814 61.6505 76.3119 61.6505 76.8815 62.2244L72.3769 66.7333C71.803 67.3072 70.8725 67.3072 70.2986 66.7333Z" stroke="#BF9D50" stroke-width="1.7825" stroke-miterlimit="10" stroke-linecap="round" stroke-linejoin="round"/>
<path d="M50.7848 56.2632C51.8805 56.2632 52.7718 57.1545 52.7718 58.2502H51.7761" stroke="#BF9D50" stroke-width="1.7825" stroke-miterlimit="10" stroke-linecap="round" stroke-linejoin="round"/>
<path d="M46.6498 48.0803L52.1979 53.6284C53.3457 54.7762 55.2023 54.7762 56.3502 53.6284L50.8021 48.0803C49.6543 46.9368 47.7977 46.9368 46.6498 48.0803Z" stroke="#BF9D50" stroke-width="1.7825" stroke-miterlimit="10" stroke-linecap="round" stroke-linejoin="round"/>
<path d="M56.3502 53.624H61.2504C62.8722 53.624 64.1853 54.9371 64.1853 56.5589H59.2851C57.6633 56.5633 56.3502 55.2458 56.3502 53.624Z" stroke="#BF9D50" stroke-width="1.7825" stroke-miterlimit="10" stroke-linecap="round" stroke-linejoin="round"/>
<path d="M64.1766 56.5722L68.6855 52.0633C69.2595 51.4893 70.1899 51.4893 70.7595 52.0633L66.2506 56.5722C65.6767 57.1461 64.7506 57.1461 64.1766 56.5722Z" stroke="#BF9D50" stroke-width="1.7825" stroke-miterlimit="10" stroke-linecap="round" stroke-linejoin="round"/>
<path d="M44.6628 46.1021C45.7585 46.1021 46.6498 46.9934 46.6498 48.0891H44.0497" stroke="#BF9D50" stroke-width="1.7825" stroke-miterlimit="10" stroke-linecap="round" stroke-linejoin="round"/>
<path d="M30.9622 41.9365H23.1184C21.4966 41.9365 20.1835 43.2496 20.1835 44.8714H28.0273C29.6491 44.8714 30.9622 43.5583 30.9622 41.9365Z" stroke="#BF9D50" stroke-width="1.7825" stroke-miterlimit="10" stroke-linecap="round" stroke-linejoin="round"/>
<path d="M20.1834 44.876L16.718 48.3414C15.5701 49.4893 13.7135 49.4893 12.5657 48.3414L16.031 44.876C17.1789 43.7282 19.0355 43.7282 20.1834 44.876Z" stroke="#BF9D50" stroke-width="1.7825" stroke-miterlimit="10" stroke-linecap="round" stroke-linejoin="round"/>
<path d="M12.5657 48.337V41.9628C12.5657 41.1541 11.9091 40.4932 11.0961 40.4932V46.8673C11.0961 47.6804 11.757 48.337 12.5657 48.337Z" stroke="#BF9D50" stroke-width="1.7825" stroke-miterlimit="10" stroke-linecap="round" stroke-linejoin="round"/>
<path d="M32.9492 43.9236C31.8535 43.9236 30.9622 43.0322 30.9622 41.9365H34.5841" stroke="#BF9D50" stroke-width="1.7825" stroke-miterlimit="10" stroke-linecap="round" stroke-linejoin="round"/>
<path d="M35.1971 58.2414L29.6491 63.7895C28.5012 64.9374 26.6446 64.9374 25.4967 63.7895L31.0448 58.2414C32.1927 57.0979 34.0492 57.0979 35.1971 58.2414Z" stroke="#BF9D50" stroke-width="1.7825" stroke-miterlimit="10" stroke-linecap="round" stroke-linejoin="round"/>
<path d="M25.4968 63.7896H20.5965C18.9747 63.7896 17.6616 65.1027 17.6616 66.7245H22.5618C24.1837 66.7245 25.4968 65.407 25.4968 63.7896Z" stroke="#BF9D50" stroke-width="1.7825" stroke-miterlimit="10" stroke-linecap="round" stroke-linejoin="round"/>
<path d="M17.6703 66.7333L13.1614 62.2244C12.5875 61.6505 11.657 61.6505 11.0874 62.2244L15.5963 66.7333C16.1659 67.3072 17.0964 67.3072 17.6703 66.7333Z" stroke="#BF9D50" stroke-width="1.7825" stroke-miterlimit="10" stroke-linecap="round" stroke-linejoin="round"/>
<path d="M37.1842 56.2632C36.0885 56.2632 35.1971 57.1545 35.1971 58.2502H38.206" stroke="#BF9D50" stroke-width="1.7825" stroke-miterlimit="10" stroke-linecap="round" stroke-linejoin="round"/>
<path d="M29.9795 48.0803L24.4314 53.6284C23.2835 54.7762 21.4269 54.7762 20.2791 53.6284L25.8271 48.0803C26.975 46.9368 28.8316 46.9368 29.9795 48.0803Z" stroke="#BF9D50" stroke-width="1.7825" stroke-miterlimit="10" stroke-linecap="round" stroke-linejoin="round"/>
<path d="M20.2791 53.624H15.3789C13.7571 53.624 12.444 54.9371 12.444 56.5589H17.3442C18.966 56.5633 20.2791 55.2458 20.2791 53.624Z" stroke="#BF9D50" stroke-width="1.7825" stroke-miterlimit="10" stroke-linecap="round" stroke-linejoin="round"/>
<path d="M12.4527 56.5722L7.94376 52.0633C7.36982 51.4893 6.43934 51.4893 5.86975 52.0633L10.3786 56.5722C10.9526 57.1461 11.8787 57.1461 12.4527 56.5722Z" stroke="#BF9D50" stroke-width="1.7825" stroke-miterlimit="10" stroke-linecap="round" stroke-linejoin="round"/>
<path d="M31.9665 46.1021C30.8708 46.1021 29.9795 46.9934 29.9795 48.0891H32.1361" stroke="#BF9D50" stroke-width="1.7825" stroke-miterlimit="10" stroke-linecap="round" stroke-linejoin="round"/>
<path d="M34.6623 62.9072V70.751C34.6623 72.3728 33.3492 73.6859 31.7274 73.6859V65.8421C31.7231 64.2203 33.0405 62.9072 34.6623 62.9072Z" stroke="#BF9D50" stroke-width="1.7825" stroke-miterlimit="10" stroke-linecap="round" stroke-linejoin="round"/>
<path d="M31.7231 73.6855L28.2578 77.1509C27.1099 78.2988 27.1099 80.1554 28.2578 81.3033L31.7231 77.8379C32.8667 76.6944 32.8667 74.8334 31.7231 73.6855Z" stroke="#BF9D50" stroke-width="1.7825" stroke-miterlimit="10" stroke-linecap="round" stroke-linejoin="round"/>
<path d="M28.2664 81.3035L23.7575 85.8124C23.1835 86.3863 22.2531 86.3863 21.6835 85.8124L26.1924 81.3035C26.762 80.7296 27.6924 80.7296 28.2664 81.3035Z" stroke="#BF9D50" stroke-width="1.7825" stroke-miterlimit="10" stroke-linecap="round" stroke-linejoin="round"/>
<path d="M37.2581 62.907H34.6624C34.6624 61.8113 35.5537 60.9199 36.6494 60.9199H40.5843" stroke="#BF9D50" stroke-width="1.7825" stroke-miterlimit="10" stroke-linecap="round" stroke-linejoin="round"/>
<path d="M64.5115 71.3901C71.5857 71.3901 77.3251 77.1252 77.3251 84.2037" stroke="#BF9D50" stroke-width="1.7825" stroke-miterlimit="10" stroke-linecap="round" stroke-linejoin="round"/>
<path d="M66.2811 71.5117C70.1683 74.6336 70.79 80.3165 67.6681 84.2036" stroke="#BF9D50" stroke-width="1.7825" stroke-miterlimit="10" stroke-linecap="round" stroke-linejoin="round"/>
<path d="M72.4901 79.373C75.1597 79.373 77.3207 81.534 77.3207 84.2037C77.3207 86.8734 75.1597 89.0343 72.4901 89.0343C69.8204 89.0343 67.6594 86.8734 67.6594 84.2037" stroke="#BF9D50" stroke-width="1.7825" stroke-miterlimit="10" stroke-linecap="round" stroke-linejoin="round"/>
<path d="M72.1161 93.943C72.1161 96.0475 70.4117 97.7519 68.3073 97.7519V92.8386C68.3073 90.7342 70.0117 89.0298 72.1161 89.0298V93.943Z" stroke="#BF9D50" stroke-width="1.7825" stroke-miterlimit="10" stroke-linecap="round" stroke-linejoin="round"/>
<path d="M68.3117 97.1911C68.3117 99.2955 66.6072 101 64.5028 101V96.0867C64.5028 93.9823 66.2072 92.2778 68.3117 92.2778V97.1911Z" stroke="#BF9D50" stroke-width="1.7825" stroke-miterlimit="10" stroke-linecap="round" stroke-linejoin="round"/>
<path d="M57.5328 96.9521H60.4634C62.6983 96.9521 64.5071 98.7653 64.5071 100.996H59.2895" stroke="#BF9D50" stroke-width="1.7825" stroke-miterlimit="10" stroke-linecap="round" stroke-linejoin="round"/>
<path d="M40.8017 87.5601C44.5106 87.5601 47.5194 90.5689 47.5194 94.2777H38.8538C35.1449 94.2777 32.1361 91.2689 32.1361 87.5601H40.8017Z" stroke="#BF9D50" stroke-width="1.7825" stroke-miterlimit="10" stroke-linecap="round" stroke-linejoin="round"/>
<path d="M35.8319 80.8428C32.1231 80.8428 29.1143 83.8516 29.1143 87.5605H37.7798C41.4887 87.5605 44.4975 84.5516 44.4975 80.8428H35.8319Z" stroke="#BF9D50" stroke-width="1.7825" stroke-miterlimit="10" stroke-linecap="round" stroke-linejoin="round"/>
<path d="M42.2931 74.125C38.5843 74.125 35.5754 77.1338 35.5754 80.8427H44.241C47.9499 80.8427 50.9587 77.8339 50.9587 74.125H42.2931Z" stroke="#BF9D50" stroke-width="1.7825" stroke-miterlimit="10" stroke-linecap="round" stroke-linejoin="round"/>
<path d="M45.4759 67.4072C49.1848 67.4072 52.1936 70.4161 52.1936 74.1249H43.528C39.8191 74.1249 36.8103 71.1161 36.8103 67.4072H45.4759Z" stroke="#BF9D50" stroke-width="1.7825" stroke-miterlimit="10" stroke-linecap="round" stroke-linejoin="round"/>
<path d="M42.3366 60.6895C38.6277 60.6895 35.6189 63.6983 35.6189 67.4071H44.2845C47.9933 67.4071 51.0022 64.3983 51.0022 60.6895H42.3366Z" stroke="#BF9D50" stroke-width="1.7825" stroke-miterlimit="10" stroke-linecap="round" stroke-linejoin="round"/>
<path d="M45.4759 53.9717C49.1848 53.9717 52.1936 56.9805 52.1936 60.6893H43.528C39.8191 60.6893 36.8103 57.6805 36.8103 53.9717H45.4759Z" stroke="#BF9D50" stroke-width="1.7825" stroke-miterlimit="10" stroke-linecap="round" stroke-linejoin="round"/>
<path d="M40.8017 47.2539C44.5106 47.2539 47.5194 50.2627 47.5194 53.9716H38.8538C35.1449 53.9716 32.1361 50.9628 32.1361 47.2539H40.8017Z" stroke="#BF9D50" stroke-width="1.7825" stroke-miterlimit="10" stroke-linecap="round" stroke-linejoin="round"/>
<path d="M36.8407 40.841C34.1145 41.6975 32.1318 44.2411 32.1318 47.2543H40.7974C44.5063 47.2543 47.5151 44.2455 47.5151 40.5366" stroke="#BF9D50" stroke-width="1.7825" stroke-miterlimit="10" stroke-linecap="round" stroke-linejoin="round"/>
<path d="M47.4847 94.2822C51.1935 94.2822 54.2024 97.2911 54.2024 101H45.5368C41.8279 101 38.8191 97.9911 38.8191 94.2822H47.4847Z" stroke="#BF9D50" stroke-width="1.7825" stroke-miterlimit="10" stroke-linecap="round" stroke-linejoin="round"/>
<path d="M51.7805 95.813H54.285C57.1503 95.813 59.4722 98.1348 59.4722 101H52.7806" stroke="#BF9D50" stroke-width="1.7825" stroke-miterlimit="10" stroke-linecap="round" stroke-linejoin="round"/>
<path d="M4.27844 31.6709V38.2277" stroke="white" stroke-width="1.0186" stroke-miterlimit="10" stroke-linecap="round" stroke-linejoin="round"/>
<path d="M1 34.9492H7.56114" stroke="white" stroke-width="1.0186" stroke-miterlimit="10" stroke-linecap="round" stroke-linejoin="round"/>
<path d="M2.44788 33.1187L6.10892 36.7797" stroke="white" stroke-width="1.0186" stroke-miterlimit="10" stroke-linecap="round" stroke-linejoin="round"/>
<path d="M2.44788 36.7797L6.10892 33.1187" stroke="white" stroke-width="1.0186" stroke-miterlimit="10" stroke-linecap="round" stroke-linejoin="round"/>
<path d="M52.1935 81.4819V88.0431" stroke="white" stroke-width="1.0186" stroke-miterlimit="10" stroke-linecap="round" stroke-linejoin="round"/>
<path d="M48.9108 84.7603H55.4719" stroke="white" stroke-width="1.0186" stroke-miterlimit="10" stroke-linecap="round" stroke-linejoin="round"/>
<path d="M50.363 82.9297L54.0241 86.5907" stroke="white" stroke-width="1.0186" stroke-miterlimit="10" stroke-linecap="round" stroke-linejoin="round"/>
<path d="M50.363 86.5907L54.0241 82.9297" stroke="white" stroke-width="1.0186" stroke-miterlimit="10" stroke-linecap="round" stroke-linejoin="round"/>
<path d="M77.3207 9.23926V15.796" stroke="white" stroke-width="1.0186" stroke-miterlimit="10" stroke-linecap="round" stroke-linejoin="round"/>
<path d="M74.0424 12.5181H80.6035" stroke="white" stroke-width="1.0186" stroke-miterlimit="10" stroke-linecap="round" stroke-linejoin="round"/>
<path d="M75.4902 10.6875L79.1513 14.3485" stroke="white" stroke-width="1.0186" stroke-miterlimit="10" stroke-linecap="round" stroke-linejoin="round"/>
<path d="M75.4902 14.3485L79.1513 10.6875" stroke="white" stroke-width="1.0186" stroke-miterlimit="10" stroke-linecap="round" stroke-linejoin="round"/>
<path d="M7.07422 91.9995V98.5607" stroke="white" stroke-width="1.0186" stroke-miterlimit="10" stroke-linecap="round" stroke-linejoin="round"/>
<path d="M3.79578 95.2778H10.3569" stroke="white" stroke-width="1.0186" stroke-miterlimit="10" stroke-linecap="round" stroke-linejoin="round"/>
<path d="M5.24365 93.4478L8.9047 97.1088" stroke="white" stroke-width="1.0186" stroke-miterlimit="10" stroke-linecap="round" stroke-linejoin="round"/>
<path d="M5.24365 97.1088L8.9047 93.4478" stroke="white" stroke-width="1.0186" stroke-miterlimit="10" stroke-linecap="round" stroke-linejoin="round"/>
<path d="M40.7018 20.6616C41.7992 20.6616 42.6888 19.7719 42.6888 18.6745C42.6888 17.5771 41.7992 16.6875 40.7018 16.6875C39.6044 16.6875 38.7147 17.5771 38.7147 18.6745C38.7147 19.7719 39.6044 20.6616 40.7018 20.6616Z" stroke="white" stroke-width="1.0186" stroke-miterlimit="10" stroke-linecap="round" stroke-linejoin="round"/>
<path d="M75.1033 57.0805C76.2007 57.0805 77.0903 56.1909 77.0903 55.0935C77.0903 53.9961 76.2007 53.1064 75.1033 53.1064C74.0058 53.1064 73.1162 53.9961 73.1162 55.0935C73.1162 56.1909 74.0058 57.0805 75.1033 57.0805Z" stroke="white" stroke-width="1.0186" stroke-miterlimit="10" stroke-linecap="round" stroke-linejoin="round"/>
<path d="M79.1512 100.391C80.2486 100.391 81.1383 99.5015 81.1383 98.404C81.1383 97.3066 80.2486 96.417 79.1512 96.417C78.0538 96.417 77.1642 97.3066 77.1642 98.404C77.1642 99.5015 78.0538 100.391 79.1512 100.391Z" stroke="white" stroke-width="1.0186" stroke-miterlimit="10" stroke-linecap="round" stroke-linejoin="round"/>
<path d="M18.979 77.7991C17.8833 77.7991 16.9919 78.6904 16.9919 79.7861C16.9919 78.6904 16.1006 77.7991 15.0049 77.7991C16.1006 77.7991 16.9919 76.9077 16.9919 75.812C16.9963 76.9077 17.8833 77.7991 18.979 77.7991Z" stroke="white" stroke-width="1.0186" stroke-miterlimit="10" stroke-linecap="round" stroke-linejoin="round"/>
</svg>
