<svg width="84" height="102" viewBox="0 0 84 102" fill="none" xmlns="http://www.w3.org/2000/svg">
<path d="M63.423 61.9222C62.4037 61.9222 61.5746 62.7514 61.5746 63.7707C61.5746 62.7514 60.7454 61.9222 59.7261 61.9222C60.7454 61.9222 61.5746 61.093 61.5746 60.0737C61.5746 61.093 62.3997 61.9222 63.423 61.9222Z" stroke="white" stroke-width="1.0186" stroke-miterlimit="10" stroke-linecap="round" stroke-linejoin="round"/>
<path d="M26.1585 95.5589C25.1392 95.5589 24.31 96.3881 24.31 97.4074C24.31 96.3881 23.4808 95.5589 22.4615 95.5589C23.4808 95.5589 24.31 94.7297 24.31 93.7104C24.31 94.7297 25.1392 95.5589 26.1585 95.5589Z" stroke="white" stroke-width="1.0186" stroke-miterlimit="10" stroke-linecap="round" stroke-linejoin="round"/>
<path d="M2.84847 68.6369C3.86934 68.6369 4.69693 67.8093 4.69693 66.7884C4.69693 65.7675 3.86934 64.9399 2.84847 64.9399C1.82759 64.9399 1 65.7675 1 66.7884C1 67.8093 1.82759 68.6369 2.84847 68.6369Z" stroke="white" stroke-width="1.0186" stroke-miterlimit="10" stroke-linecap="round" stroke-linejoin="round"/>
<path d="M44.5096 4.69692C45.5305 4.69692 46.3581 3.86934 46.3581 2.84846C46.3581 1.82758 45.5305 1 44.5096 1C43.4887 1 42.6611 1.82758 42.6611 2.84846C42.6611 3.86934 43.4887 4.69692 44.5096 4.69692Z" stroke="white" stroke-width="1.0186" stroke-miterlimit="10" stroke-linecap="round" stroke-linejoin="round"/>
<path d="M21.9923 47.786C20.9731 47.786 20.1439 48.6151 20.1439 49.6344C20.1439 48.6151 19.3147 47.786 18.2954 47.786C19.3147 47.786 20.1439 46.9568 20.1439 45.9375C20.1439 46.9608 20.9731 47.786 21.9923 47.786Z" stroke="white" stroke-width="1.0186" stroke-miterlimit="10" stroke-linecap="round" stroke-linejoin="round"/>
<path d="M18.3602 20.1724V26.2759" stroke="white" stroke-width="1.0186" stroke-miterlimit="10" stroke-linecap="round" stroke-linejoin="round"/>
<path d="M15.3104 23.2222H21.41" stroke="white" stroke-width="1.0186" stroke-miterlimit="10" stroke-linecap="round" stroke-linejoin="round"/>
<path d="M16.6573 21.519L20.063 24.9247" stroke="white" stroke-width="1.0186" stroke-miterlimit="10" stroke-linecap="round" stroke-linejoin="round"/>
<path d="M16.6573 24.9247L20.063 21.519" stroke="white" stroke-width="1.0186" stroke-miterlimit="10" stroke-linecap="round" stroke-linejoin="round"/>
<path d="M71.4762 81.4951V87.5987" stroke="white" stroke-width="1.0186" stroke-miterlimit="10" stroke-linecap="round" stroke-linejoin="round"/>
<path d="M68.4264 84.5488H74.5299" stroke="white" stroke-width="1.0186" stroke-miterlimit="10" stroke-linecap="round" stroke-linejoin="round"/>
<path d="M69.7733 82.8462L73.179 86.2519" stroke="white" stroke-width="1.0186" stroke-miterlimit="10" stroke-linecap="round" stroke-linejoin="round"/>
<path d="M69.7733 86.2519L73.179 82.8462" stroke="white" stroke-width="1.0186" stroke-miterlimit="10" stroke-linecap="round" stroke-linejoin="round"/>
<path d="M69.377 24.4194V30.523" stroke="white" stroke-width="1.0186" stroke-miterlimit="10" stroke-linecap="round" stroke-linejoin="round"/>
<path d="M66.3271 27.4731H72.4267" stroke="white" stroke-width="1.0186" stroke-miterlimit="10" stroke-linecap="round" stroke-linejoin="round"/>
<path d="M67.6741 25.77L71.0798 29.1757" stroke="white" stroke-width="1.0186" stroke-miterlimit="10" stroke-linecap="round" stroke-linejoin="round"/>
<path d="M67.6741 29.1757L71.0798 25.77" stroke="white" stroke-width="1.0186" stroke-miterlimit="10" stroke-linecap="round" stroke-linejoin="round"/>
<path d="M13.2111 72.3336C3.83131 62.9538 3.83131 47.7454 13.2111 38.3696" stroke="#BF9D50" stroke-width="1.7825" stroke-miterlimit="10" stroke-linecap="round" stroke-linejoin="round"/>
<path d="M6.78809 38.8428C8.62441 38.8428 10.117 40.3312 10.117 42.1716C8.27658 42.1676 6.78809 40.6791 6.78809 38.8428Z" stroke="#BF9D50" stroke-width="1.7825" stroke-miterlimit="10" stroke-linecap="round" stroke-linejoin="round"/>
<path d="M2.84851 52.9995C4.68484 52.9995 6.17735 54.488 6.17735 56.3284C4.33698 56.3284 2.84851 54.8358 2.84851 52.9995Z" stroke="#BF9D50" stroke-width="1.7825" stroke-miterlimit="10" stroke-linecap="round" stroke-linejoin="round"/>
<path d="M10.4325 45.8726C8.59615 45.8726 7.10364 47.361 7.10364 49.2014C8.93997 49.2014 10.4325 47.7129 10.4325 45.8726Z" stroke="#BF9D50" stroke-width="1.7825" stroke-miterlimit="10" stroke-linecap="round" stroke-linejoin="round"/>
<path d="M10.9339 60.0093C9.09762 60.0093 7.6051 61.4978 7.6051 63.3381C9.44548 63.3341 10.9339 61.8456 10.9339 60.0093Z" stroke="#BF9D50" stroke-width="1.7825" stroke-miterlimit="10" stroke-linecap="round" stroke-linejoin="round"/>
<path d="M18.0892 36.3271L16.1882 38.2282C15.3711 39.0452 14.0404 39.0452 13.2234 38.2282C12.4063 37.4111 12.4063 36.0804 13.2234 35.2633L15.1244 33.3623" stroke="#BF9D50" stroke-width="1.7825" stroke-miterlimit="10" stroke-linecap="round" stroke-linejoin="round"/>
<path d="M17.2156 34.236C18.0326 35.053 18.4249 35.9914 18.0892 36.3271C17.7535 36.6628 16.8151 36.2745 15.9981 35.4535C15.181 34.6364 14.7887 33.698 15.1244 33.3623" stroke="#BF9D50" stroke-width="1.7825" stroke-miterlimit="10" stroke-linecap="round" stroke-linejoin="round"/>
<path d="M17.2156 34.2358C16.807 33.8273 16.3378 33.6331 16.168 33.799C15.9981 33.9688 16.1963 34.438 16.6048 34.8466" stroke="#BF9D50" stroke-width="1.7825" stroke-miterlimit="10" stroke-linecap="round" stroke-linejoin="round"/>
<path d="M72.6735 33.3623C82.0533 42.7421 82.0533 57.9505 72.6735 67.3263" stroke="#BF9D50" stroke-width="1.7825" stroke-miterlimit="10" stroke-linecap="round" stroke-linejoin="round"/>
<path d="M79.0965 66.8528C77.2602 66.8528 75.7677 65.3643 75.7677 63.5239C77.6081 63.528 79.0965 65.0164 79.0965 66.8528Z" stroke="#BF9D50" stroke-width="1.7825" stroke-miterlimit="10" stroke-linecap="round" stroke-linejoin="round"/>
<path d="M83.0361 52.6965C81.1998 52.6965 79.7073 51.208 79.7073 49.3677C81.5476 49.3677 83.0361 50.8602 83.0361 52.6965Z" stroke="#BF9D50" stroke-width="1.7825" stroke-miterlimit="10" stroke-linecap="round" stroke-linejoin="round"/>
<path d="M75.4521 59.823C77.2885 59.823 78.781 58.3345 78.781 56.4941C76.9447 56.4941 75.4521 57.9826 75.4521 59.823Z" stroke="#BF9D50" stroke-width="1.7825" stroke-miterlimit="10" stroke-linecap="round" stroke-linejoin="round"/>
<path d="M74.9507 45.6907C76.787 45.6907 78.2795 44.2022 78.2795 42.3618C76.4392 42.3618 74.9507 43.8503 74.9507 45.6907Z" stroke="#BF9D50" stroke-width="1.7825" stroke-miterlimit="10" stroke-linecap="round" stroke-linejoin="round"/>
<path d="M67.7954 69.3688L69.6965 67.4678C70.5135 66.6507 71.8442 66.6507 72.6613 67.4678C73.4783 68.2848 73.4783 69.6155 72.6613 70.4326L70.7603 72.3336" stroke="#BF9D50" stroke-width="1.7825" stroke-miterlimit="10" stroke-linecap="round" stroke-linejoin="round"/>
<path d="M68.6691 71.4599C67.852 70.6428 67.4597 69.7044 67.7954 69.3687C68.1311 69.033 69.0695 69.4213 69.8866 70.2424C70.7036 71.0594 71.096 71.9978 70.7603 72.3335" stroke="#BF9D50" stroke-width="1.7825" stroke-miterlimit="10" stroke-linecap="round" stroke-linejoin="round"/>
<path d="M68.6691 71.4599C69.0776 71.8684 69.5468 72.0626 69.7167 71.8967C69.8865 71.7309 69.6884 71.2576 69.2798 70.8491" stroke="#BF9D50" stroke-width="1.7825" stroke-miterlimit="10" stroke-linecap="round" stroke-linejoin="round"/>
<path d="M35.4939 18.1942C32.4078 21.2804 27.4003 21.2804 24.3101 18.1942C21.2239 15.1081 21.2239 10.1006 24.3101 7.01042C27.3963 3.92426 32.4037 3.92426 35.4939 7.01042" stroke="#BF9D50" stroke-width="1.7825" stroke-miterlimit="10" stroke-linecap="round" stroke-linejoin="round"/>
<path d="M24.3101 18.1941C21.2239 15.1079 21.2239 10.1005 24.3101 7.01025" stroke="#BF9D50" stroke-width="1.7825" stroke-miterlimit="10" stroke-linecap="round" stroke-linejoin="round"/>
<path d="M35.4939 7.01465C37.3221 8.84289 37.3221 11.8037 35.4939 13.6319C33.6656 15.4601 30.7048 15.4601 28.8766 13.6319" stroke="#BF9D50" stroke-width="1.7825" stroke-miterlimit="10" stroke-linecap="round" stroke-linejoin="round"/>
<path d="M63.8881 35.6841C63.8881 51.0704 51.4181 63.5405 36.0318 63.5405H32.8768" stroke="#BF9D50" stroke-width="1.7825" stroke-miterlimit="10" stroke-linecap="round" stroke-linejoin="round"/>
<path d="M32.2297 20.6211V23.0965C32.2297 26.4496 31.4693 29.7623 30.0011 32.7756C29.2002 34.4219 30.3975 36.3391 32.2297 36.3391" stroke="#BF9D50" stroke-width="1.7825" stroke-miterlimit="10" stroke-linecap="round" stroke-linejoin="round"/>
<path d="M35.4291 14.0361C35.4291 21.6808 41.6297 27.8814 49.2744 27.8814C56.919 27.8814 63.1196 34.082 63.1196 41.7267" stroke="#BF9D50" stroke-width="1.7825" stroke-miterlimit="10" stroke-linecap="round" stroke-linejoin="round"/>
<path d="M63.8881 35.684C63.8881 20.2977 51.4181 7.82764 36.0317 7.82764" stroke="#BF9D50" stroke-width="1.7825" stroke-miterlimit="10" stroke-linecap="round" stroke-linejoin="round"/>
<path d="M29.7462 20.5117H33.1438C36.8003 20.5117 39.7651 23.4765 39.7651 27.133C39.7651 30.7895 42.73 33.7543 46.3864 33.7543C50.0429 33.7543 53.0077 36.7191 53.0077 40.3756V42.1594" stroke="#BF9D50" stroke-width="1.7825" stroke-miterlimit="10" stroke-linecap="round" stroke-linejoin="round"/>
<path d="M34.4099 38.6001C34.4099 41.4759 36.7397 43.8057 39.6155 43.8057H40.3881" stroke="#BF9D50" stroke-width="1.7825" stroke-miterlimit="10" stroke-linecap="round" stroke-linejoin="round"/>
<path d="M46.4876 33.7588C47.5028 33.7588 48.3239 34.5799 48.3239 35.5951C48.3239 36.6104 47.5028 37.4314 46.4876 37.4314C45.4724 37.4314 44.6512 36.6104 44.6512 35.5951" stroke="#BF9D50" stroke-width="1.7825" stroke-miterlimit="10" stroke-linecap="round" stroke-linejoin="round"/>
<path d="M46.4875 33.7583C47.5028 33.7583 48.3239 34.5794 48.3239 35.5946C48.3239 36.6099 47.5028 37.431 46.4875 37.431" stroke="#BF9D50" stroke-width="1.7825" stroke-miterlimit="10" stroke-linecap="round" stroke-linejoin="round"/>
<path d="M32.2297 36.3394C33.4351 36.3394 34.4099 37.3141 34.4099 38.5195" stroke="#BF9D50" stroke-width="1.7825" stroke-miterlimit="10" stroke-linecap="round" stroke-linejoin="round"/>
<path d="M56.1383 39.0249C57.8655 39.0249 59.269 40.4244 59.269 42.1556C59.269 43.8827 57.8695 45.2862 56.1383 45.2862C54.4112 45.2862 53.0077 43.8867 53.0077 42.1556" stroke="#BF9D50" stroke-width="1.7825" stroke-miterlimit="10" stroke-linecap="round" stroke-linejoin="round"/>
<path d="M50.3907 87.5016C53.4769 84.4155 58.4844 84.4155 61.5746 87.5016C64.6608 90.5878 64.6608 95.5952 61.5746 98.6854C58.4884 101.772 53.481 101.772 50.3907 98.6854" stroke="#BF9D50" stroke-width="1.7825" stroke-miterlimit="10" stroke-linecap="round" stroke-linejoin="round"/>
<path d="M61.5746 87.5015C64.6607 90.5876 64.6607 95.5951 61.5746 98.6853" stroke="#BF9D50" stroke-width="1.7825" stroke-miterlimit="10" stroke-linecap="round" stroke-linejoin="round"/>
<path d="M50.3907 98.6852C48.5625 96.857 48.5625 93.8962 50.3907 92.068C52.2189 90.2397 55.1797 90.2397 57.008 92.068" stroke="#BF9D50" stroke-width="1.7825" stroke-miterlimit="10" stroke-linecap="round" stroke-linejoin="round"/>
<path d="M21.9924 70.0121C21.9924 54.6258 34.4625 42.1558 49.8488 42.1558H53.0037" stroke="#BF9D50" stroke-width="1.7825" stroke-miterlimit="10" stroke-linecap="round" stroke-linejoin="round"/>
<path d="M53.6549 85.0744V82.599C53.6549 79.2459 54.4153 75.9332 55.8836 72.9199C56.6844 71.2737 55.4872 69.3564 53.6549 69.3564" stroke="#BF9D50" stroke-width="1.7825" stroke-miterlimit="10" stroke-linecap="round" stroke-linejoin="round"/>
<path d="M50.4554 91.6593C50.4554 84.0147 44.2548 77.814 36.6102 77.814C28.9656 77.814 22.7649 71.6134 22.7649 63.9688" stroke="#BF9D50" stroke-width="1.7825" stroke-miterlimit="10" stroke-linecap="round" stroke-linejoin="round"/>
<path d="M21.9924 70.0117C21.9924 85.398 34.4625 97.8681 49.8488 97.8681" stroke="#BF9D50" stroke-width="1.7825" stroke-miterlimit="10" stroke-linecap="round" stroke-linejoin="round"/>
<path d="M56.1383 85.1838H52.7407C49.0842 85.1838 46.1194 82.2189 46.1194 78.5625C46.1194 74.906 43.1546 71.9412 39.4981 71.9412C35.8416 71.9412 32.8768 68.9764 32.8768 65.3199V63.5361" stroke="#BF9D50" stroke-width="1.7825" stroke-miterlimit="10" stroke-linecap="round" stroke-linejoin="round"/>
<path d="M51.4748 67.0958C51.4748 64.2199 49.145 61.8901 46.2691 61.8901H45.4966" stroke="#BF9D50" stroke-width="1.7825" stroke-miterlimit="10" stroke-linecap="round" stroke-linejoin="round"/>
<path d="M39.3971 71.9373C38.3819 71.9373 37.5608 71.1162 37.5608 70.101C37.5608 69.0857 38.3819 68.2646 39.3971 68.2646C40.4123 68.2646 41.2335 69.0857 41.2335 70.101" stroke="#BF9D50" stroke-width="1.7825" stroke-miterlimit="10" stroke-linecap="round" stroke-linejoin="round"/>
<path d="M39.3971 71.9373C38.3819 71.9373 37.5608 71.1162 37.5608 70.101C37.5608 69.0857 38.3819 68.2646 39.3971 68.2646" stroke="#BF9D50" stroke-width="1.7825" stroke-miterlimit="10" stroke-linecap="round" stroke-linejoin="round"/>
<path d="M53.6548 69.3564C52.4495 69.3564 51.4747 68.3816 51.4747 67.1763" stroke="#BF9D50" stroke-width="1.7825" stroke-miterlimit="10" stroke-linecap="round" stroke-linejoin="round"/>
<path d="M29.7463 66.671C28.0191 66.671 26.6156 65.2715 26.6156 63.5403C26.6156 61.8132 28.0151 60.4097 29.7463 60.4097C31.4734 60.4097 32.8769 61.8092 32.8769 63.5403" stroke="#BF9D50" stroke-width="1.7825" stroke-miterlimit="10" stroke-linecap="round" stroke-linejoin="round"/>
</svg>
