<svg width="96" height="102" viewBox="0 0 96 102" fill="none" xmlns="http://www.w3.org/2000/svg">
<path d="M50.0837 38.6919C50.6013 38.6919 51.021 39.1116 51.021 39.6292C51.021 40.1468 50.6013 40.5665 50.0837 40.5665C49.3936 40.5665 48.834 41.126 48.834 41.8162C48.834 41.126 48.2744 40.5665 47.5843 40.5665H47.5656C47.048 40.5665 46.6284 40.1468 46.6284 39.6292C46.6284 39.1116 47.048 38.6919 47.5656 38.6919H50.0837Z" stroke="#BF9D50" stroke-width="1.7825" stroke-miterlimit="10" stroke-linecap="round" stroke-linejoin="round"/>
<path d="M44.6372 38.6919C43.7232 38.6919 42.8746 38.9857 42.1845 39.4846C41.1306 40.2447 40.4451 41.4851 40.4451 42.884C40.4451 45.1969 42.3197 47.0761 44.6372 47.0761C46.9501 47.0761 48.8294 45.2016 48.8294 42.884" stroke="#BF9D50" stroke-width="1.7825" stroke-miterlimit="10" stroke-linecap="round" stroke-linejoin="round"/>
<path d="M53.0168 38.6919C55.3297 38.6919 57.2089 40.5665 57.2089 42.884C57.2089 45.1969 55.3343 47.0761 53.0168 47.0761C50.7039 47.0761 48.8247 45.2016 48.8247 42.884" stroke="#BF9D50" stroke-width="1.7825" stroke-miterlimit="10" stroke-linecap="round" stroke-linejoin="round"/>
<path d="M51.4407 47.0713C50.8998 47.892 49.9858 48.391 49.0019 48.391H48.8294H48.6568C47.6729 48.391 46.7543 47.8967 46.218 47.0713" stroke="#BF9D50" stroke-width="1.7825" stroke-miterlimit="10" stroke-linecap="round" stroke-linejoin="round"/>
<path d="M34.7235 28.1577C34.7235 32.6856 37.3209 37.1575 43.0005 37.1575" stroke="#BF9D50" stroke-width="1.7825" stroke-miterlimit="10" stroke-linecap="round" stroke-linejoin="round"/>
<path d="M62.9306 28.1719C62.9306 32.6997 60.3332 37.1717 54.6536 37.1717" stroke="#BF9D50" stroke-width="1.7825" stroke-miterlimit="10" stroke-linecap="round" stroke-linejoin="round"/>
<path d="M48.834 41.8159V43.6672" stroke="#BF9D50" stroke-width="1.7825" stroke-miterlimit="10" stroke-linecap="round" stroke-linejoin="round"/>
<path d="M57.2089 42.8839C57.2089 42.8839 57.5726 39.4146 59.2374 36.6633C60.9021 33.9121 63.0378 33.3899 62.9352 27.2439L62.9399 27.0854C62.9399 26.9781 62.9399 26.8709 62.9352 26.7636C62.7394 20.9627 57.1297 16.8872 51.5013 18.2908L51.063 18.398C50.3309 18.5799 49.5801 18.6731 48.8247 18.6731C48.0739 18.6731 47.3232 18.5799 46.5864 18.398L46.1481 18.2908C40.5197 16.8825 34.91 20.9627 34.7142 26.7636C34.7095 26.8709 34.7095 26.9781 34.7095 27.0854L34.7142 27.2439C34.6116 33.3899 36.7473 33.9121 38.412 36.6633C40.0767 39.4146 40.4404 42.8839 40.4404 42.8839" stroke="#BF9D50" stroke-width="1.7825" stroke-miterlimit="10" stroke-linecap="round" stroke-linejoin="round"/>
<path d="M45.3413 42.8838C40.4917 38.0342 32.6344 38.0342 27.7848 42.8838" stroke="#BF9D50" stroke-width="1.0186" stroke-miterlimit="10" stroke-linecap="round" stroke-linejoin="round"/>
<path d="M45.3413 44.3667C41.4383 40.4637 35.1151 40.4637 31.2168 44.3667" stroke="#BF9D50" stroke-width="1.0186" stroke-miterlimit="10" stroke-linecap="round" stroke-linejoin="round"/>
<path d="M45.3413 45.691C42.6414 42.991 38.2627 42.991 35.5628 45.691" stroke="#BF9D50" stroke-width="1.0186" stroke-miterlimit="10" stroke-linecap="round" stroke-linejoin="round"/>
<path d="M53.0168 42.8838C57.8664 38.0342 65.7237 38.0342 70.5733 42.8838" stroke="#BF9D50" stroke-width="1.0186" stroke-miterlimit="10" stroke-linecap="round" stroke-linejoin="round"/>
<path d="M53.0168 44.3667C56.9198 40.4637 63.2429 40.4637 67.1413 44.3667" stroke="#BF9D50" stroke-width="1.0186" stroke-miterlimit="10" stroke-linecap="round" stroke-linejoin="round"/>
<path d="M53.0168 45.691C55.7167 42.991 60.0953 42.991 62.7953 45.691" stroke="#BF9D50" stroke-width="1.0186" stroke-miterlimit="10" stroke-linecap="round" stroke-linejoin="round"/>
<path d="M48.8293 21.5454V26.3904" stroke="#BF9D50" stroke-width="1.7825" stroke-miterlimit="10" stroke-linecap="round" stroke-linejoin="round"/>
<path d="M48.8153 1C48.8153 4.08697 46.3113 6.59104 43.2243 6.59104C40.1373 6.59104 37.6333 9.09512 37.6333 12.1821C37.6333 15.2691 35.1292 17.7731 32.0422 17.7731C28.9553 17.7731 26.4512 20.2772 26.4512 23.3642C26.4512 26.4512 23.9471 28.9552 20.8601 28.9552C23.9471 28.9552 26.4512 31.4593 26.4512 34.5463C26.4512 37.6333 28.9553 40.1373 32.0422 40.1373C35.1292 40.1373 37.6333 42.6414 37.6333 45.7284C37.6333 48.8153 40.1373 51.3194 43.2243 51.3194C46.3113 51.3194 48.8153 53.8235 48.8153 56.9105H48.8294C48.8294 53.8235 51.3334 51.3194 54.4204 51.3194C57.5074 51.3194 60.0114 48.8153 60.0114 45.7284C60.0114 42.6414 62.5155 40.1373 65.6025 40.1373C68.6894 40.1373 71.1935 37.6333 71.1935 34.5463C71.1935 31.4593 73.6976 28.9552 76.7846 28.9552C73.6976 28.9552 71.1935 26.4512 71.1935 23.3642C71.1935 20.2772 68.6894 17.7731 65.6025 17.7731C62.5155 17.7731 60.0114 15.2691 60.0114 12.1821C60.0114 9.09512 57.5074 6.59104 54.4204 6.59104C51.3334 6.59104 48.8294 4.08697 48.8294 1H48.8153Z" stroke="#BF9D50" stroke-width="1.7825" stroke-miterlimit="10" stroke-linecap="round" stroke-linejoin="round"/>
<path d="M34.4577 21.5175C33.0821 20.1419 33.0821 17.9176 34.4577 16.542C35.8333 15.1664 38.0576 15.1664 39.4332 16.542" stroke="#BF9D50" stroke-width="1.7825" stroke-miterlimit="10" stroke-linecap="round" stroke-linejoin="round"/>
<path d="M34.4344 22.292C34.4344 19.1024 37.0177 16.519 40.2073 16.519" stroke="#BF9D50" stroke-width="1.7825" stroke-miterlimit="10" stroke-linecap="round" stroke-linejoin="round"/>
<path d="M63.1963 21.5175C64.5719 20.1419 64.5719 17.9176 63.1963 16.542C61.8207 15.1664 59.5964 15.1664 58.2208 16.542" stroke="#BF9D50" stroke-width="1.7825" stroke-miterlimit="10" stroke-linecap="round" stroke-linejoin="round"/>
<path d="M63.2197 22.292C63.2197 19.1024 60.6363 16.519 57.4467 16.519" stroke="#BF9D50" stroke-width="1.7825" stroke-miterlimit="10" stroke-linecap="round" stroke-linejoin="round"/>
<path d="M48.8294 18.5147V11.9258" stroke="#BF9D50" stroke-width="1.0186" stroke-miterlimit="10" stroke-linecap="round" stroke-linejoin="round"/>
<path d="M47.3139 18.5147V13.8516" stroke="#BF9D50" stroke-width="1.0186" stroke-miterlimit="10" stroke-linecap="round" stroke-linejoin="round"/>
<path d="M50.3402 18.5147V13.8516" stroke="#BF9D50" stroke-width="1.0186" stroke-miterlimit="10" stroke-linecap="round" stroke-linejoin="round"/>
<path d="M34.509 28.9644H27.92" stroke="#BF9D50" stroke-width="1.0186" stroke-miterlimit="10" stroke-linecap="round" stroke-linejoin="round"/>
<path d="M34.509 30.4751H29.8459" stroke="#BF9D50" stroke-width="1.0186" stroke-miterlimit="10" stroke-linecap="round" stroke-linejoin="round"/>
<path d="M34.509 27.4492H29.8459" stroke="#BF9D50" stroke-width="1.0186" stroke-miterlimit="10" stroke-linecap="round" stroke-linejoin="round"/>
<path d="M62.9398 28.9644H69.5288" stroke="#BF9D50" stroke-width="1.0186" stroke-miterlimit="10" stroke-linecap="round" stroke-linejoin="round"/>
<path d="M62.9398 30.4751H67.6029" stroke="#BF9D50" stroke-width="1.0186" stroke-miterlimit="10" stroke-linecap="round" stroke-linejoin="round"/>
<path d="M62.9398 27.4492H67.6029" stroke="#BF9D50" stroke-width="1.0186" stroke-miterlimit="10" stroke-linecap="round" stroke-linejoin="round"/>
<path d="M48.8294 48.3911V56.9246" stroke="#BF9D50" stroke-width="1.0186" stroke-miterlimit="10" stroke-linecap="round" stroke-linejoin="round"/>
<path d="M47.3138 48.3911V51.091" stroke="#BF9D50" stroke-width="1.0186" stroke-miterlimit="10" stroke-linecap="round" stroke-linejoin="round"/>
<path d="M50.3402 48.3911V51.091" stroke="#BF9D50" stroke-width="1.0186" stroke-miterlimit="10" stroke-linecap="round" stroke-linejoin="round"/>
<path d="M40.4451 22.6182L45.4673 27.6403C46.5118 28.6849 47.0993 30.1071 47.0993 31.5853V33.4505" stroke="#BF9D50" stroke-width="1.7825" stroke-miterlimit="10" stroke-linecap="round" stroke-linejoin="round"/>
<path d="M57.2089 22.6182L52.1867 27.6403C51.1422 28.6849 50.5547 30.1071 50.5547 31.5853V33.4505" stroke="#BF9D50" stroke-width="1.7825" stroke-miterlimit="10" stroke-linecap="round" stroke-linejoin="round"/>
<path d="M48.834 60.1699L48.5822 95.4229" stroke="#BF9D50" stroke-width="1.7825" stroke-miterlimit="10" stroke-linecap="round" stroke-linejoin="round"/>
<path d="M37.4653 93.973C22.5854 79.0931 21.7647 55.787 35.6327 41.9189" stroke="#BF9D50" stroke-width="1.7825" stroke-miterlimit="10" stroke-linecap="round" stroke-linejoin="round"/>
<path d="M35.6421 97.2881H35.9359C37.2275 97.2881 38.2767 98.5098 38.2767 100.011L35.6421 101L33.0074 100.011C33.0074 98.5051 34.0566 97.2881 35.3483 97.2881H35.6421Z" stroke="#BF9D50" stroke-width="1.7825" stroke-miterlimit="10" stroke-linecap="round" stroke-linejoin="round"/>
<path d="M40.916 97.2886H41.2098C42.5015 97.2886 43.5507 98.5103 43.5507 100.012L40.916 101L38.2814 100.012C38.2814 98.5056 39.3306 97.2886 40.6223 97.2886H40.916Z" stroke="#BF9D50" stroke-width="1.7825" stroke-miterlimit="10" stroke-linecap="round" stroke-linejoin="round"/>
<path d="M46.1853 97.2886H46.4791C47.7708 97.2886 48.82 98.5103 48.82 100.012L46.1853 101L43.5507 100.012C43.5507 98.5056 44.5999 97.2886 45.8915 97.2886H46.1853Z" stroke="#BF9D50" stroke-width="1.7825" stroke-miterlimit="10" stroke-linecap="round" stroke-linejoin="round"/>
<path d="M37.4513 93.9727C34.9985 93.9727 33.0074 95.9218 33.0074 99.7782" stroke="#BF9D50" stroke-width="1.7825" stroke-miterlimit="10" stroke-linecap="round" stroke-linejoin="round"/>
<path d="M38.6824 76.5793C31.5385 76.5793 25.7423 71.1794 25.7423 64.5205" stroke="#BF9D50" stroke-width="1.7825" stroke-miterlimit="10" stroke-linecap="round" stroke-linejoin="round"/>
<path d="M37.4653 93.9727H40.916" stroke="#BF9D50" stroke-width="1.7825" stroke-miterlimit="10" stroke-linecap="round" stroke-linejoin="round"/>
<path d="M21.5641 83.509C11.9209 73.8657 11.3893 58.7619 20.3751 49.7715" stroke="#BF9D50" stroke-width="1.7825" stroke-miterlimit="10" stroke-linecap="round" stroke-linejoin="round"/>
<path d="M34.4296 43.1821C29.3002 43.6018 24.3899 45.7002 20.5802 49.5099" stroke="#BF9D50" stroke-width="1.7825" stroke-miterlimit="10" stroke-linecap="round" stroke-linejoin="round"/>
<path d="M15.7772 90.5405H34.3923" stroke="#BF9D50" stroke-width="1.7825" stroke-miterlimit="10" stroke-linecap="round" stroke-linejoin="round"/>
<path d="M16.1177 88.0833C16.1177 85.3274 18.3513 83.0938 21.1072 83.0938" stroke="#BF9D50" stroke-width="1.7825" stroke-miterlimit="10" stroke-linecap="round" stroke-linejoin="round"/>
<path d="M21.5641 83.5088C22.5294 84.474 23.5506 85.3507 24.6138 86.1341" stroke="#BF9D50" stroke-width="1.7825" stroke-miterlimit="10" stroke-linecap="round" stroke-linejoin="round"/>
<path d="M16.1177 90.5409H11.2914C11.2914 88.4938 12.9514 86.8291 15.0032 86.8291H16.1177V90.5409Z" stroke="#BF9D50" stroke-width="1.7825" stroke-miterlimit="10" stroke-linecap="round" stroke-linejoin="round"/>
<path d="M60.1793 93.973C75.0592 79.0931 75.8799 55.787 62.0119 41.9189" stroke="#BF9D50" stroke-width="1.7825" stroke-miterlimit="10" stroke-linecap="round" stroke-linejoin="round"/>
<path d="M61.9979 97.2886H61.7041C60.4125 97.2886 59.3633 98.5103 59.3633 100.012L61.9979 101L64.6325 100.012C64.6325 98.5056 63.5834 97.2886 62.2917 97.2886H61.9979Z" stroke="#BF9D50" stroke-width="1.7825" stroke-miterlimit="10" stroke-linecap="round" stroke-linejoin="round"/>
<path d="M56.7286 97.2886H56.4348C55.1432 97.2886 54.094 98.5103 54.094 100.012L56.7286 101L59.3633 100.012C59.3633 98.5056 58.314 97.2886 57.0224 97.2886H56.7286Z" stroke="#BF9D50" stroke-width="1.7825" stroke-miterlimit="10" stroke-linecap="round" stroke-linejoin="round"/>
<path d="M51.4546 97.2881H51.1609C49.8692 97.2881 48.82 98.5098 48.82 100.011L51.4546 101L54.0893 100.011C54.0893 98.5051 53.0401 97.2881 51.7484 97.2881H51.4546Z" stroke="#BF9D50" stroke-width="1.7825" stroke-miterlimit="10" stroke-linecap="round" stroke-linejoin="round"/>
<path d="M60.1886 93.9727C62.6414 93.9727 64.6325 95.9218 64.6325 99.7782" stroke="#BF9D50" stroke-width="1.7825" stroke-miterlimit="10" stroke-linecap="round" stroke-linejoin="round"/>
<path d="M58.9575 76.5793C66.1014 76.5793 71.8976 71.1794 71.8976 64.5205" stroke="#BF9D50" stroke-width="1.7825" stroke-miterlimit="10" stroke-linecap="round" stroke-linejoin="round"/>
<path d="M60.1792 93.9727H56.7286" stroke="#BF9D50" stroke-width="1.7825" stroke-miterlimit="10" stroke-linecap="round" stroke-linejoin="round"/>
<path d="M76.0757 83.509C85.719 73.8657 86.2506 58.7619 77.2648 49.7715" stroke="#BF9D50" stroke-width="1.7825" stroke-miterlimit="10" stroke-linecap="round" stroke-linejoin="round"/>
<path d="M63.2103 43.1826C68.3397 43.6023 73.2499 45.7007 77.0597 49.5104" stroke="#BF9D50" stroke-width="1.7825" stroke-miterlimit="10" stroke-linecap="round" stroke-linejoin="round"/>
<path d="M81.8626 90.5405H63.2476" stroke="#BF9D50" stroke-width="1.7825" stroke-miterlimit="10" stroke-linecap="round" stroke-linejoin="round"/>
<path d="M81.5222 88.0833C81.5222 85.3274 79.2886 83.0938 76.5327 83.0938" stroke="#BF9D50" stroke-width="1.7825" stroke-miterlimit="10" stroke-linecap="round" stroke-linejoin="round"/>
<path d="M76.0757 83.5088C75.1105 84.474 74.0892 85.3507 73.0261 86.1341" stroke="#BF9D50" stroke-width="1.7825" stroke-miterlimit="10" stroke-linecap="round" stroke-linejoin="round"/>
<path d="M81.5222 90.5409H86.3485C86.3485 88.4938 84.6885 86.8291 82.6367 86.8291H81.5222V90.5409Z" stroke="#BF9D50" stroke-width="1.7825" stroke-miterlimit="10" stroke-linecap="round" stroke-linejoin="round"/>
<path d="M77.3534 49.8925C80.8368 47.3231 83.0937 43.1916 83.0937 38.5332" stroke="#BF9D50" stroke-width="1.7825" stroke-miterlimit="10" stroke-linecap="round" stroke-linejoin="round"/>
<path d="M83.0937 29.0625C85.8216 31.7904 85.8216 36.2204 83.0937 38.9483C80.3658 36.2204 80.3658 31.7904 83.0937 29.0625Z" stroke="#BF9D50" stroke-width="1.7825" stroke-miterlimit="10" stroke-linecap="round" stroke-linejoin="round"/>
<path d="M77.0457 7.83611C75.8706 7.83611 74.9147 8.79204 74.9147 9.96714C74.9147 8.79204 73.9588 7.83611 72.7837 7.83611C73.9588 7.83611 74.9147 6.88018 74.9147 5.70508C74.9147 6.88484 75.8706 7.83611 77.0457 7.83611Z" stroke="white" stroke-width="1.0186" stroke-miterlimit="10" stroke-linecap="round" stroke-linejoin="round"/>
<path d="M24.1009 11.3382C25.2779 11.3382 26.232 10.3841 26.232 9.20721C26.232 8.03027 25.2779 7.07617 24.1009 7.07617C22.924 7.07617 21.9699 8.03027 21.9699 9.20721C21.9699 10.3841 22.924 11.3382 24.1009 11.3382Z" stroke="white" stroke-width="1.0186" stroke-miterlimit="10" stroke-linecap="round" stroke-linejoin="round"/>
<path d="M77.7451 40.5199C78.9221 40.5199 79.8762 39.5658 79.8762 38.3888C79.8762 37.2119 78.9221 36.2578 77.7451 36.2578C76.5682 36.2578 75.6141 37.2119 75.6141 38.3888C75.6141 39.5658 76.5682 40.5199 77.7451 40.5199Z" stroke="white" stroke-width="1.0186" stroke-miterlimit="10" stroke-linecap="round" stroke-linejoin="round"/>
<path d="M5.26206 64.4274C4.08696 64.4274 3.13104 65.3834 3.13104 66.5585C3.13104 65.3834 2.1751 64.4274 1 64.4274C2.1751 64.4274 3.13104 63.4715 3.13104 62.2964C3.13104 63.4715 4.08696 64.4274 5.26206 64.4274Z" stroke="white" stroke-width="1.0186" stroke-miterlimit="10" stroke-linecap="round" stroke-linejoin="round"/>
<path d="M87.519 80.8739C88.6959 80.8739 89.65 79.9198 89.65 78.7429C89.65 77.5659 88.6959 76.6118 87.519 76.6118C86.3421 76.6118 85.388 77.5659 85.388 78.7429C85.388 79.9198 86.3421 80.8739 87.519 80.8739Z" stroke="white" stroke-width="1.0186" stroke-miterlimit="10" stroke-linecap="round" stroke-linejoin="round"/>
<path d="M16.2437 34.8726V41.9092" stroke="white" stroke-width="1.0186" stroke-miterlimit="10" stroke-linecap="round" stroke-linejoin="round"/>
<path d="M12.7277 38.3887H19.7643" stroke="white" stroke-width="1.0186" stroke-miterlimit="10" stroke-linecap="round" stroke-linejoin="round"/>
<path d="M14.2805 36.4258L18.2068 40.3521" stroke="white" stroke-width="1.0186" stroke-miterlimit="10" stroke-linecap="round" stroke-linejoin="round"/>
<path d="M14.2805 40.3521L18.2068 36.4258" stroke="white" stroke-width="1.0186" stroke-miterlimit="10" stroke-linecap="round" stroke-linejoin="round"/>
<path d="M91.8277 52.8442V59.8808" stroke="white" stroke-width="1.0186" stroke-miterlimit="10" stroke-linecap="round" stroke-linejoin="round"/>
<path d="M88.3118 56.3647H95.3484" stroke="white" stroke-width="1.0186" stroke-miterlimit="10" stroke-linecap="round" stroke-linejoin="round"/>
<path d="M89.8692 54.4019L93.7909 58.3282" stroke="white" stroke-width="1.0186" stroke-miterlimit="10" stroke-linecap="round" stroke-linejoin="round"/>
<path d="M89.8692 58.3282L93.7909 54.4019" stroke="white" stroke-width="1.0186" stroke-miterlimit="10" stroke-linecap="round" stroke-linejoin="round"/>
<path d="M19.7643 93.7676V100.804" stroke="white" stroke-width="1.0186" stroke-miterlimit="10" stroke-linecap="round" stroke-linejoin="round"/>
<path d="M16.2437 97.2881H23.2803" stroke="white" stroke-width="1.0186" stroke-miterlimit="10" stroke-linecap="round" stroke-linejoin="round"/>
<path d="M17.8011 95.3247L21.7275 99.251" stroke="white" stroke-width="1.0186" stroke-miterlimit="10" stroke-linecap="round" stroke-linejoin="round"/>
<path d="M17.8011 99.251L21.7275 95.3247" stroke="white" stroke-width="1.0186" stroke-miterlimit="10" stroke-linecap="round" stroke-linejoin="round"/>
</svg>
