<svg width="109" height="102" viewBox="0 0 109 102" fill="none" xmlns="http://www.w3.org/2000/svg">
<path d="M37.8708 5.16322C39.0204 5.16322 39.9524 4.23125 39.9524 3.08161C39.9524 1.93197 39.0204 1 37.8708 1C36.7212 1 35.7892 1.93197 35.7892 3.08161C35.7892 4.23125 36.7212 5.16322 37.8708 5.16322Z" stroke="white" stroke-width="1.0186" stroke-miterlimit="10" stroke-linecap="round" stroke-linejoin="round"/>
<path d="M3.08161 57.1305C4.23125 57.1305 5.16322 56.1985 5.16322 55.0489C5.16322 53.8993 4.23125 52.9673 3.08161 52.9673C1.93197 52.9673 1 53.8993 1 55.0489C1 56.1985 1.93197 57.1305 3.08161 57.1305Z" stroke="white" stroke-width="1.0186" stroke-miterlimit="10" stroke-linecap="round" stroke-linejoin="round"/>
<path d="M92.7903 17.4196C93.9399 17.4196 94.8719 16.4876 94.8719 15.338C94.8719 14.1883 93.9399 13.2563 92.7903 13.2563C91.6406 13.2563 90.7087 14.1883 90.7087 15.338C90.7087 16.4876 91.6406 17.4196 92.7903 17.4196Z" stroke="white" stroke-width="1.0186" stroke-miterlimit="10" stroke-linecap="round" stroke-linejoin="round"/>
<path d="M56.4691 82.5768C57.6187 82.5768 58.5507 81.6448 58.5507 80.4952C58.5507 79.3455 57.6187 78.4136 56.4691 78.4136C55.3194 78.4136 54.3875 79.3455 54.3875 80.4952C54.3875 81.6448 55.3194 82.5768 56.4691 82.5768Z" stroke="white" stroke-width="1.0186" stroke-miterlimit="10" stroke-linecap="round" stroke-linejoin="round"/>
<path d="M17.4827 29.8071V36.6842" stroke="white" stroke-width="1.0186" stroke-miterlimit="10" stroke-linecap="round" stroke-linejoin="round"/>
<path d="M14.0441 33.2456H20.9212" stroke="white" stroke-width="1.0186" stroke-miterlimit="10" stroke-linecap="round" stroke-linejoin="round"/>
<path d="M15.5664 31.3242L19.4038 35.1616" stroke="white" stroke-width="1.0186" stroke-miterlimit="10" stroke-linecap="round" stroke-linejoin="round"/>
<path d="M15.5664 35.1616L19.4038 31.3242" stroke="white" stroke-width="1.0186" stroke-miterlimit="10" stroke-linecap="round" stroke-linejoin="round"/>
<path d="M71.5073 30.833V37.7101" stroke="white" stroke-width="1.0186" stroke-miterlimit="10" stroke-linecap="round" stroke-linejoin="round"/>
<path d="M68.0687 34.2715H74.9507" stroke="white" stroke-width="1.0186" stroke-miterlimit="10" stroke-linecap="round" stroke-linejoin="round"/>
<path d="M69.591 32.3506L73.4284 36.188" stroke="white" stroke-width="1.0186" stroke-miterlimit="10" stroke-linecap="round" stroke-linejoin="round"/>
<path d="M69.591 36.188L73.4284 32.3506" stroke="white" stroke-width="1.0186" stroke-miterlimit="10" stroke-linecap="round" stroke-linejoin="round"/>
<path d="M19.5109 85.0669V91.944" stroke="white" stroke-width="1.0186" stroke-miterlimit="10" stroke-linecap="round" stroke-linejoin="round"/>
<path d="M16.0723 88.5054H22.9494" stroke="white" stroke-width="1.0186" stroke-miterlimit="10" stroke-linecap="round" stroke-linejoin="round"/>
<path d="M17.5946 86.5894L21.432 90.4267" stroke="white" stroke-width="1.0186" stroke-miterlimit="10" stroke-linecap="round" stroke-linejoin="round"/>
<path d="M17.5946 90.4267L21.432 86.5894" stroke="white" stroke-width="1.0186" stroke-miterlimit="10" stroke-linecap="round" stroke-linejoin="round"/>
<path d="M97.3231 84.0649V90.9469" stroke="white" stroke-width="1.0186" stroke-miterlimit="10" stroke-linecap="round" stroke-linejoin="round"/>
<path d="M93.8846 87.5034H100.762" stroke="white" stroke-width="1.0186" stroke-miterlimit="10" stroke-linecap="round" stroke-linejoin="round"/>
<path d="M95.402 85.5874L99.2394 89.4248" stroke="white" stroke-width="1.0186" stroke-miterlimit="10" stroke-linecap="round" stroke-linejoin="round"/>
<path d="M95.402 89.4248L99.2394 85.5874" stroke="white" stroke-width="1.0186" stroke-miterlimit="10" stroke-linecap="round" stroke-linejoin="round"/>
<path d="M94.6384 53.3223C95.4214 53.2056 96.2239 53.1861 96.9972 53.2785C98.3542 53.4293 99.6284 53.9157 100.645 54.6598C100.898 54.8495 101.146 55.044 101.355 55.2677C101.574 55.4866 101.783 55.7103 101.953 55.9584C102.041 56.08 102.128 56.2064 102.211 56.3329C102.299 56.4545 102.357 56.5955 102.43 56.7268C102.498 56.8581 102.561 56.9943 102.624 57.1305L102.673 57.2326L102.702 57.3007L102.756 57.4369L102.809 57.5731L102.834 57.6412L102.848 57.6703C102.868 57.7141 102.887 57.753 102.902 57.7968C102.921 57.8892 102.97 57.967 103.004 58.0546C103.023 58.0983 103.028 58.147 103.052 58.1859C103.077 58.2248 103.096 58.2686 103.116 58.3123C103.14 58.3561 103.145 58.4047 103.174 58.4437C103.198 58.4826 103.223 58.5263 103.242 58.5701C103.422 58.9251 103.665 59.2899 104.015 59.6839" stroke="#BF9D50" stroke-width="1.0186" stroke-miterlimit="10" stroke-linecap="round" stroke-linejoin="round"/>
<path d="M38.1724 15.7368V20.9943" stroke="#BF9D50" stroke-width="1.7825" stroke-miterlimit="10" stroke-linecap="round" stroke-linejoin="round"/>
<path d="M38.1724 23.1147V28.3771" stroke="#BF9D50" stroke-width="1.7825" stroke-miterlimit="10" stroke-linecap="round" stroke-linejoin="round"/>
<path d="M39.3299 18.0908C38.6928 18.7279 37.6568 18.7279 37.0197 18.0908" stroke="#BF9D50" stroke-width="1.7825" stroke-miterlimit="10" stroke-linecap="round" stroke-linejoin="round"/>
<path d="M38.114 29.9769H37.8368C37.4331 29.9769 37.1851 29.5294 37.4039 29.189L38.114 28.085H38.2356L38.9457 29.189C39.1645 29.5294 38.9214 29.9769 38.5128 29.9769H38.2356H38.114Z" stroke="#BF9D50" stroke-width="1.7825" stroke-miterlimit="10" stroke-linecap="round" stroke-linejoin="round"/>
<path d="M39.7919 14.4866C39.7919 14.4866 39.4223 13.9419 38.1772 13.9419C36.9273 13.9419 36.5625 14.4866 36.5625 14.4866" stroke="#BF9D50" stroke-width="1.7825" stroke-miterlimit="10" stroke-linecap="round" stroke-linejoin="round"/>
<path d="M33.2844 22.6428C31.4022 22.6428 29.875 21.1156 29.875 19.2334" stroke="#BF9D50" stroke-width="1.7825" stroke-miterlimit="10" stroke-linecap="round" stroke-linejoin="round"/>
<path d="M36.2366 31.1979C35.0353 31.1979 34.0626 30.2252 34.0626 29.0239" stroke="#BF9D50" stroke-width="1.7825" stroke-miterlimit="10" stroke-linecap="round" stroke-linejoin="round"/>
<path d="M25.3519 14.7056C27.8518 14.7056 29.875 16.7337 29.875 19.2287" stroke="#BF9D50" stroke-width="1.7825" stroke-miterlimit="10" stroke-linecap="round" stroke-linejoin="round"/>
<path d="M31.2368 21.957C31.2368 21.957 34.5149 27.842 34.5149 32.4818C34.5149 32.4818 34.6656 35.789 38.1042 35.789" stroke="#BF9D50" stroke-width="1.7825" stroke-miterlimit="10" stroke-linecap="round" stroke-linejoin="round"/>
<path d="M26.0328 14.8467C26.0328 16.8748 27.6767 18.5187 29.7048 18.5187" stroke="#BF9D50" stroke-width="1.0186" stroke-miterlimit="10" stroke-linecap="round" stroke-linejoin="round"/>
<path d="M30.5462 14.6859C29.1115 13.2512 26.7867 13.2512 25.3519 14.6859" stroke="#BF9D50" stroke-width="1.7825" stroke-miterlimit="10" stroke-linecap="round" stroke-linejoin="round"/>
<path d="M20.498 10.0076C22.0155 7.52715 24.7488 5.87354 27.8712 5.87354C32.6424 5.87354 36.5041 9.74008 36.5041 14.5064" stroke="#BF9D50" stroke-width="1.7825" stroke-miterlimit="10" stroke-linecap="round" stroke-linejoin="round"/>
<path d="M23.3967 14.5063C23.3967 12.5852 24.9531 11.0288 26.8742 11.0288C28.7953 11.0288 30.3516 12.5852 30.3516 14.5063" stroke="#BF9D50" stroke-width="1.7825" stroke-miterlimit="10" stroke-linecap="round" stroke-linejoin="round"/>
<path d="M36.5041 14.5063C34.8067 16.2037 32.0491 16.2037 30.3517 14.5063" stroke="#BF9D50" stroke-width="1.7825" stroke-miterlimit="10" stroke-linecap="round" stroke-linejoin="round"/>
<path d="M15.1968 7.57568C20.0701 8.21768 23.8296 12.3858 23.8296 17.4342" stroke="#BF9D50" stroke-width="1.7825" stroke-miterlimit="10" stroke-linecap="round" stroke-linejoin="round"/>
<path d="M15.1968 7.57568C18.8736 9.25848 20.9018 13.4023 19.8074 17.4342" stroke="#BF9D50" stroke-width="1.7825" stroke-miterlimit="10" stroke-linecap="round" stroke-linejoin="round"/>
<path d="M23.8296 17.4341C22.9784 18.7327 22.3462 19.1801 21.8306 19.1801H21.8063C21.2908 19.1801 20.6585 18.7327 19.8074 17.4341" stroke="#BF9D50" stroke-width="1.7825" stroke-miterlimit="10" stroke-linecap="round" stroke-linejoin="round"/>
<path d="M18.1004 9.78377C16.7726 8.37333 14.5548 8.30524 13.1492 9.633V9.65245C13.1492 8.50951 14.0782 7.58057 15.2211 7.58057" stroke="#BF9D50" stroke-width="1.7825" stroke-miterlimit="10" stroke-linecap="round" stroke-linejoin="round"/>
<path d="M34.544 21.6116C33.0217 21.3393 32.0101 19.8802 32.2825 18.3579" stroke="#BF9D50" stroke-width="1.0186" stroke-miterlimit="10" stroke-linecap="round" stroke-linejoin="round"/>
<path d="M34.5441 21.6118C35.439 21.7723 36.0323 22.6283 35.8718 23.5183" stroke="#BF9D50" stroke-width="1.0186" stroke-miterlimit="10" stroke-linecap="round" stroke-linejoin="round"/>
<path d="M30.1717 13.4117C31.8885 11.6948 34.6754 11.6948 36.3922 13.4117" stroke="#BF9D50" stroke-width="1.0186" stroke-miterlimit="10" stroke-linecap="round" stroke-linejoin="round"/>
<path d="M29.4713 12.089C30.2933 9.90035 32.7299 8.78659 34.9185 9.60854" stroke="#BF9D50" stroke-width="1.0186" stroke-miterlimit="10" stroke-linecap="round" stroke-linejoin="round"/>
<path d="M27.6378 11.0286C27.5892 8.73789 29.4081 6.83623 31.6989 6.7876" stroke="#BF9D50" stroke-width="1.0186" stroke-miterlimit="10" stroke-linecap="round" stroke-linejoin="round"/>
<path d="M26.524 11.0528C25.1038 9.69104 25.0552 7.43921 26.417 6.01904" stroke="#BF9D50" stroke-width="1.0186" stroke-miterlimit="10" stroke-linecap="round" stroke-linejoin="round"/>
<path d="M24.7537 11.7434C23.0272 11.262 22.0204 9.46729 22.5019 7.74072" stroke="#BF9D50" stroke-width="1.0186" stroke-miterlimit="10" stroke-linecap="round" stroke-linejoin="round"/>
<path d="M23.5913 15.2695C23.1341 16.8988 21.4464 17.8472 19.8171 17.3949" stroke="#BF9D50" stroke-width="1.0186" stroke-miterlimit="10" stroke-linecap="round" stroke-linejoin="round"/>
<path d="M22.7207 12.9937C22.3997 14.1317 21.2178 14.798 20.0798 14.4819" stroke="#BF9D50" stroke-width="1.0186" stroke-miterlimit="10" stroke-linecap="round" stroke-linejoin="round"/>
<path d="M21.3297 10.8291C21.3443 11.7386 20.6245 12.4876 19.715 12.5022" stroke="#BF9D50" stroke-width="1.0186" stroke-miterlimit="10" stroke-linecap="round" stroke-linejoin="round"/>
<path d="M19.8171 9.43359C19.8268 10.0464 19.3405 10.5474 18.7325 10.5619" stroke="#BF9D50" stroke-width="1.0186" stroke-miterlimit="10" stroke-linecap="round" stroke-linejoin="round"/>
<path d="M43.0651 22.6433C44.9473 22.6433 46.4744 21.1161 46.4744 19.2339" stroke="#BF9D50" stroke-width="1.7825" stroke-miterlimit="10" stroke-linecap="round" stroke-linejoin="round"/>
<path d="M40.1128 31.1979C41.3141 31.1979 42.2868 30.2252 42.2868 29.0239" stroke="#BF9D50" stroke-width="1.7825" stroke-miterlimit="10" stroke-linecap="round" stroke-linejoin="round"/>
<path d="M50.9976 14.7056C48.4977 14.7056 46.4744 16.7337 46.4744 19.2287" stroke="#BF9D50" stroke-width="1.7825" stroke-miterlimit="10" stroke-linecap="round" stroke-linejoin="round"/>
<path d="M45.1126 21.957C45.1126 21.957 41.8346 27.842 41.8346 32.4818C41.8346 32.4818 41.6838 35.789 38.2452 35.789" stroke="#BF9D50" stroke-width="1.7825" stroke-miterlimit="10" stroke-linecap="round" stroke-linejoin="round"/>
<path d="M50.3167 14.8467C50.3167 16.8748 48.6728 18.5187 46.6447 18.5187" stroke="#BF9D50" stroke-width="1.0186" stroke-miterlimit="10" stroke-linecap="round" stroke-linejoin="round"/>
<path d="M45.8032 14.6859C47.238 13.2512 49.5628 13.2512 50.9975 14.6859" stroke="#BF9D50" stroke-width="1.7825" stroke-miterlimit="10" stroke-linecap="round" stroke-linejoin="round"/>
<path d="M55.8465 10.0076C54.3291 7.52715 51.5957 5.87354 48.4733 5.87354C43.7022 5.87354 39.8405 9.74008 39.8405 14.5064" stroke="#BF9D50" stroke-width="1.7825" stroke-miterlimit="10" stroke-linecap="round" stroke-linejoin="round"/>
<path d="M52.9527 14.5063C52.9527 12.5852 51.3963 11.0288 49.4752 11.0288C47.5541 11.0288 45.9978 12.5852 45.9978 14.5063" stroke="#BF9D50" stroke-width="1.7825" stroke-miterlimit="10" stroke-linecap="round" stroke-linejoin="round"/>
<path d="M39.8405 14.5063C41.5379 16.2037 44.2955 16.2037 45.9929 14.5063" stroke="#BF9D50" stroke-width="1.7825" stroke-miterlimit="10" stroke-linecap="round" stroke-linejoin="round"/>
<path d="M61.1527 7.57568C56.2794 8.21768 52.5199 12.3858 52.5199 17.4342" stroke="#BF9D50" stroke-width="1.7825" stroke-miterlimit="10" stroke-linecap="round" stroke-linejoin="round"/>
<path d="M61.1527 7.57568C57.4758 9.25848 55.4477 13.4023 56.542 17.4342" stroke="#BF9D50" stroke-width="1.7825" stroke-miterlimit="10" stroke-linecap="round" stroke-linejoin="round"/>
<path d="M52.5199 17.4341C53.371 18.7327 54.0033 19.1801 54.5188 19.1801H54.5431C55.0586 19.1801 55.6909 18.7327 56.542 17.4341" stroke="#BF9D50" stroke-width="1.7825" stroke-miterlimit="10" stroke-linecap="round" stroke-linejoin="round"/>
<path d="M58.2443 9.78377C59.572 8.37333 61.7898 8.30524 63.1954 9.633V9.65245C63.1954 8.50951 62.2664 7.58057 61.1235 7.58057" stroke="#BF9D50" stroke-width="1.7825" stroke-miterlimit="10" stroke-linecap="round" stroke-linejoin="round"/>
<path d="M41.8054 21.6121C43.3277 21.3398 44.3393 19.8807 44.0669 18.3584" stroke="#BF9D50" stroke-width="1.0186" stroke-miterlimit="10" stroke-linecap="round" stroke-linejoin="round"/>
<path d="M41.8054 21.6118C40.9105 21.7723 40.3171 22.6283 40.4776 23.5183" stroke="#BF9D50" stroke-width="1.0186" stroke-miterlimit="10" stroke-linecap="round" stroke-linejoin="round"/>
<path d="M46.1729 13.4121C44.456 11.6953 41.6692 11.6953 39.9524 13.4121" stroke="#BF9D50" stroke-width="1.0186" stroke-miterlimit="10" stroke-linecap="round" stroke-linejoin="round"/>
<path d="M46.8781 12.089C46.0561 9.90035 43.6195 8.78659 41.4309 9.60854" stroke="#BF9D50" stroke-width="1.0186" stroke-miterlimit="10" stroke-linecap="round" stroke-linejoin="round"/>
<path d="M48.7116 11.0286C48.7603 8.73789 46.9413 6.83623 44.6505 6.7876" stroke="#BF9D50" stroke-width="1.0186" stroke-miterlimit="10" stroke-linecap="round" stroke-linejoin="round"/>
<path d="M49.8254 11.0533C51.2456 9.69153 51.2942 7.4397 49.9324 6.01953" stroke="#BF9D50" stroke-width="1.0186" stroke-miterlimit="10" stroke-linecap="round" stroke-linejoin="round"/>
<path d="M51.5958 11.7434C53.3223 11.262 54.3291 9.46729 53.8476 7.74072" stroke="#BF9D50" stroke-width="1.0186" stroke-miterlimit="10" stroke-linecap="round" stroke-linejoin="round"/>
<path d="M52.7581 15.2695C53.2153 16.8988 54.903 17.8472 56.5323 17.3949" stroke="#BF9D50" stroke-width="1.0186" stroke-miterlimit="10" stroke-linecap="round" stroke-linejoin="round"/>
<path d="M53.6287 12.9937C53.9497 14.1317 55.1316 14.798 56.2696 14.4819" stroke="#BF9D50" stroke-width="1.0186" stroke-miterlimit="10" stroke-linecap="round" stroke-linejoin="round"/>
<path d="M55.0197 10.8291C55.0051 11.7386 55.7249 12.4876 56.6344 12.5022" stroke="#BF9D50" stroke-width="1.0186" stroke-miterlimit="10" stroke-linecap="round" stroke-linejoin="round"/>
<path d="M56.5323 9.43359C56.5226 10.0464 57.0089 10.5474 57.6169 10.5619" stroke="#BF9D50" stroke-width="1.0186" stroke-miterlimit="10" stroke-linecap="round" stroke-linejoin="round"/>
<path d="M31.6016 36.1585C33.3817 32.0245 32.9002 25.7456 32.9002 25.7456" stroke="#BF9D50" stroke-width="1.7825" stroke-miterlimit="10" stroke-linecap="round" stroke-linejoin="round"/>
<path d="M43.4493 25.7456C43.4493 25.7456 42.9678 32.0196 44.7479 36.1585" stroke="#BF9D50" stroke-width="1.7825" stroke-miterlimit="10" stroke-linecap="round" stroke-linejoin="round"/>
<path d="M42.3501 38.7656C40.6187 41.3433 39.2861 42.1361 38.1626 42.0339H38.1918C37.0683 42.1312 35.7356 41.3433 34.0042 38.7656" stroke="#BF9D50" stroke-width="1.7825" stroke-miterlimit="10" stroke-linecap="round" stroke-linejoin="round"/>
<path d="M95.7424 59.621C95.7424 51.5572 89.2058 45.0205 81.142 45.0205" stroke="#BF9D50" stroke-width="1.7825" stroke-miterlimit="10" stroke-linecap="round" stroke-linejoin="round"/>
<path d="M44.067 32.1025C44.067 32.1025 53.0062 31.7086 60.7247 36.9077C73.4284 45.4628 81.1469 45.0202 81.1469 45.0202" stroke="#BF9D50" stroke-width="1.7825" stroke-miterlimit="10" stroke-linecap="round" stroke-linejoin="round"/>
<path d="M49.8838 71.5901C49.8838 71.5901 56.7803 74.7028 66.6339 71.1523" stroke="#BF9D50" stroke-width="1.7825" stroke-miterlimit="10" stroke-linecap="round" stroke-linejoin="round"/>
<path d="M30.804 66.5659C31.4119 67.1155 33.8486 69.0609 38.1236 69.2409" stroke="#BF9D50" stroke-width="1.7825" stroke-miterlimit="10" stroke-linecap="round" stroke-linejoin="round"/>
<path d="M94.4487 53.3563C94.6627 53.1715 94.8962 53.0207 95.1442 52.8748C95.3874 52.7532 95.65 52.6413 95.9175 52.5538C96.185 52.4711 96.4623 52.4225 96.7492 52.369C97.0313 52.3398 97.3182 52.3252 97.6149 52.3252C98.7822 52.3592 99.9786 52.7581 101 53.4584C102.031 54.1539 102.897 55.1558 103.471 56.3279C103.612 56.6197 103.753 56.9213 103.845 57.2325C103.952 57.5438 104.049 57.8599 104.108 58.1809C104.142 58.3414 104.171 58.5019 104.2 58.6673C104.234 58.8278 104.234 58.9932 104.254 59.1585C104.268 59.3239 104.278 59.4844 104.283 59.6497L104.288 59.7713V59.854V60.0145V60.175V60.2577L104.293 60.2966C104.297 60.3452 104.297 60.3987 104.297 60.4474C104.283 60.5495 104.297 60.6516 104.297 60.7538C104.297 60.8024 104.288 60.8559 104.297 60.9094C104.302 60.958 104.307 61.0115 104.307 61.065C104.312 61.1185 104.302 61.172 104.312 61.2255C104.322 61.279 104.327 61.3325 104.327 61.386C104.361 61.8189 104.439 62.2955 104.599 62.8354C104.764 63.3704 105.008 63.9735 105.421 64.6155L105.761 65.1067L106.175 65.6125C106.33 65.7681 106.491 65.9481 106.676 66.128C106.856 66.2983 107.055 66.4685 107.269 66.6776C107.055 66.8624 106.822 67.0132 106.574 67.164C106.33 67.2856 106.068 67.3974 105.795 67.4898C105.528 67.5725 105.251 67.6211 104.964 67.6746C104.682 67.7038 104.39 67.7184 104.098 67.7233C102.931 67.6892 101.734 67.2953 100.708 66.5901C99.6722 65.8946 98.8162 64.8878 98.2375 63.7157C98.0964 63.4239 97.9602 63.1223 97.863 62.8111C97.8095 62.6554 97.7608 62.4998 97.7122 62.3393C97.6587 62.1837 97.6392 62.0183 97.6003 61.8578C97.5663 61.6973 97.5371 61.5368 97.5079 61.3715C97.4787 61.211 97.4739 61.0456 97.4593 60.8802L97.4301 60.389L97.4252 60.2674V60.1847V60.0242V59.8637V59.7811L97.4204 59.7421C97.4204 59.6935 97.4155 59.64 97.4204 59.5914C97.4204 59.5427 97.4301 59.4892 97.4252 59.4406C97.4204 59.392 97.4155 59.3385 97.4204 59.2898C97.4155 59.2412 97.4301 59.1828 97.4204 59.1342C97.4155 59.0856 97.4106 59.0321 97.4106 58.9786C97.4155 58.8716 97.3961 58.7694 97.3912 58.6576C97.3571 58.2199 97.2793 57.7481 97.1237 57.2034C96.9583 56.6684 96.7152 56.0653 96.3018 55.4233L95.9564 54.9321L95.5382 54.4263C95.3825 54.2706 95.2172 54.0907 95.0372 53.9107C94.8621 53.7308 94.6627 53.5605 94.4487 53.3563Z" stroke="#BF9D50" stroke-width="1.7825" stroke-miterlimit="10" stroke-linecap="round" stroke-linejoin="round"/>
<path d="M94.4487 53.2056C95.1248 53.4001 95.7765 53.7114 96.3747 54.1199C97.4301 54.83 98.3104 55.8562 98.8989 57.0478C99.0448 57.3493 99.1859 57.6509 99.2831 57.9719C99.3901 58.288 99.4923 58.609 99.5506 58.9397C99.5847 59.1051 99.6138 59.2704 99.643 59.4358C99.6771 59.6012 99.6771 59.7665 99.6965 59.9368C99.7111 60.1021 99.7209 60.2723 99.7306 60.4377L99.7354 60.5642V60.6468V60.8122V60.9776V61.0602L99.7403 61.0992C99.7452 61.1527 99.7452 61.2013 99.7452 61.2548C99.7306 61.3618 99.7452 61.4591 99.7452 61.5661C99.7452 61.6196 99.7354 61.6731 99.7452 61.7217C99.75 61.7752 99.7549 61.8238 99.7549 61.8773C99.7598 61.9308 99.75 61.9892 99.7598 62.0378C99.7695 62.0913 99.7744 62.1448 99.7744 62.1983C99.8084 62.6409 99.8911 63.1273 100.052 63.6768C100.217 64.2216 100.465 64.8392 100.888 65.491L101.238 65.9919L101.661 66.5075C101.817 66.6679 101.987 66.8528 102.172 67.0327C102.357 67.2078 102.556 67.3829 102.775 67.592" stroke="#BF9D50" stroke-width="1.0186" stroke-miterlimit="10" stroke-linecap="round" stroke-linejoin="round"/>
<path d="M95.0372 53.3857C95.9127 53.5511 96.7687 53.8332 97.5566 54.2174C98.9427 54.8837 100.11 55.871 100.908 57.0431C101.102 57.335 101.297 57.6365 101.433 57.9526C101.584 58.2639 101.725 58.58 101.807 58.9108C101.856 59.0713 101.9 59.2366 101.944 59.402C101.992 59.5673 102.002 59.7327 102.026 59.8981C102.051 60.0634 102.065 60.2337 102.085 60.399L102.094 60.5255L102.099 60.6081L102.104 60.7735L102.109 60.9389V61.0216L102.114 61.0605C102.119 61.114 102.123 61.1626 102.123 61.2161C102.109 61.3231 102.133 61.4204 102.138 61.5274C102.143 61.5809 102.133 61.6344 102.143 61.683C102.153 61.7365 102.162 61.7851 102.162 61.8386C102.172 61.8921 102.158 61.9505 102.177 61.9991C102.192 62.0526 102.196 62.1061 102.206 62.1596C102.265 62.6022 102.386 63.0837 102.61 63.6284C102.843 64.1683 103.184 64.7714 103.748 65.4085L104.215 65.8949L104.779 66.3909C104.988 66.5417 105.212 66.7217 105.455 66.8968C105.698 67.0621 105.966 67.2275 106.253 67.4317" stroke="#BF9D50" stroke-width="1.0186" stroke-miterlimit="10" stroke-linecap="round" stroke-linejoin="round"/>
<path d="M95.7376 59.3579C95.6695 62.4755 94.4439 65.5784 92.0607 67.9567" stroke="#BF9D50" stroke-width="1.7825" stroke-miterlimit="10" stroke-linecap="round" stroke-linejoin="round"/>
<path d="M76.9301 64.1484C76.9301 70.2571 81.2879 75.3444 87.061 76.4776C87.703 76.6041 88.1942 77.0272 88.4374 77.567C88.7195 78.1944 88.559 78.924 88.0969 79.4298C87.5862 79.9842 86.7254 81.2293 87.0367 83.0434C87.0367 83.0434 87.2993 93.4953 85.3004 96.1021" stroke="#BF9D50" stroke-width="1.7825" stroke-miterlimit="10" stroke-linecap="round" stroke-linejoin="round"/>
<path d="M92.0607 68.0005C92.0607 69.3963 92.8389 70.6122 93.9867 71.2348C94.867 71.7163 95.2609 72.7668 94.8573 73.686L89.2009 95.6888" stroke="#BF9D50" stroke-width="1.7825" stroke-miterlimit="10" stroke-linecap="round" stroke-linejoin="round"/>
<path d="M89.5998 95.3535C88.4325 96.5208 86.3412 97.1579 85.1739 95.9906L83.8024 99.8231C83.8024 99.8231 86.3558 102.362 89.4004 99.9739L89.5998 95.3535Z" stroke="#BF9D50" stroke-width="1.7825" stroke-miterlimit="10" stroke-linecap="round" stroke-linejoin="round"/>
<path d="M29.7875 37.6279C27.1709 40.7941 25.6048 44.2667 24.5834 47.4037C24.0436 49.0622 24.1263 50.8277 23.7907 52.5299C23.421 54.417 22.4191 56.1533 21.8306 57.9917C21.3248 59.5675 21.32 60.584 22.3608 62.6218" stroke="#BF9D50" stroke-width="1.7825" stroke-miterlimit="10" stroke-linecap="round" stroke-linejoin="round"/>
<path d="M43.5417 58.9009C40.3122 62.1303 38.3376 66.4735 38.0361 71.0306C37.8756 73.4624 38.182 75.9283 38.9456 78.2433C39.3347 79.4252 39.8453 80.5487 40.4484 81.6332C41.1439 82.8929 41.2752 83.9921 41.2558 85.422C41.2266 87.382 41.1342 89.3517 40.891 91.2972C40.6965 92.8486 40.5068 94.8135 39.5195 96.1024" stroke="#BF9D50" stroke-width="1.7825" stroke-miterlimit="10" stroke-linecap="round" stroke-linejoin="round"/>
<path d="M57.0819 61.6392C53.0743 63.8229 49.947 67.4317 48.3663 71.7116C47.5201 74.0024 47.1213 76.4488 47.1991 78.8854C47.238 80.1256 47.4131 81.3512 47.6806 82.5623C47.9918 83.9678 47.807 85.0621 47.3839 86.4239C46.8003 88.2964 46.1534 90.1592 45.3704 91.9587C44.7478 93.3935 44.0037 95.2222 42.6954 96.1803" stroke="#BF9D50" stroke-width="1.7825" stroke-miterlimit="10" stroke-linecap="round" stroke-linejoin="round"/>
<path d="M43.6681 95.3535C42.5009 96.5208 40.4095 97.1579 39.2423 95.9906L37.8708 99.8231C37.8708 99.8231 40.4241 102.362 43.4687 99.9739L43.6681 95.3535Z" stroke="#BF9D50" stroke-width="1.7825" stroke-miterlimit="10" stroke-linecap="round" stroke-linejoin="round"/>
<path d="M33.7805 77.7329C31.621 74.9412 30.5073 67.4465 30.5073 67.4465C30.5997 66.2792 32.0296 63.327 32.2825 62.1841" stroke="#BF9D50" stroke-width="1.7825" stroke-miterlimit="10" stroke-linecap="round" stroke-linejoin="round"/>
<path d="M22.356 62.6167L30.9353 80.2715" stroke="#BF9D50" stroke-width="1.7825" stroke-miterlimit="10" stroke-linecap="round" stroke-linejoin="round"/>
<path d="M33.6443 77.1152C33.4935 78.7591 32.2971 80.5878 30.6532 80.4419L32.0588 84.2647C32.0588 84.2647 35.6481 84.5808 36.4554 80.797L33.6443 77.1152Z" stroke="#BF9D50" stroke-width="1.7825" stroke-miterlimit="10" stroke-linecap="round" stroke-linejoin="round"/>
<path d="M64.6642 64.1484C64.6642 70.2571 69.022 75.3444 74.7999 76.4776C75.4419 76.6041 75.9331 77.0272 76.1763 77.567C76.4584 78.1944 76.2979 78.924 75.8359 79.4298C75.3252 79.9842 74.4643 81.2293 74.7756 83.0434C74.7756 83.0434 75.0382 93.4953 73.0393 96.1021" stroke="#BF9D50" stroke-width="1.7825" stroke-miterlimit="10" stroke-linecap="round" stroke-linejoin="round"/>
<path d="M82.3871 74.5083L76.9399 95.694" stroke="#BF9D50" stroke-width="1.7825" stroke-miterlimit="10" stroke-linecap="round" stroke-linejoin="round"/>
<path d="M77.3046 95.3535C76.1374 96.5208 74.046 97.1579 72.8788 95.9906L71.5072 99.8231C71.5072 99.8231 74.0606 102.362 77.1052 99.9739L77.3046 95.3535Z" stroke="#BF9D50" stroke-width="1.7825" stroke-miterlimit="10" stroke-linecap="round" stroke-linejoin="round"/>
<path d="M76.9301 61.1627C76.9301 57.7533 79.3619 54.9081 82.5913 54.2759" stroke="#BF9D50" stroke-width="1.0186" stroke-miterlimit="10" stroke-linecap="round" stroke-linejoin="round"/>
<path d="M34.476 63.9589C37.8026 60.6322 38.2015 55.4866 35.6724 51.7222" stroke="#BF9D50" stroke-width="1.0186" stroke-miterlimit="10" stroke-linecap="round" stroke-linejoin="round"/>
<path d="M64.7517 51.1287C64.7517 41.9317 58.1859 34.2618 49.4898 32.5596" stroke="#BF9D50" stroke-width="1.7825" stroke-miterlimit="10" stroke-linecap="round" stroke-linejoin="round"/>
<path d="M40.7695 101H86.7011" stroke="#BF9D50" stroke-width="1.7825" stroke-miterlimit="10" stroke-linecap="round" stroke-linejoin="round"/>
<path d="M91.5111 101H100.859" stroke="#BF9D50" stroke-width="1.7825" stroke-miterlimit="10" stroke-linecap="round" stroke-linejoin="round"/>
<path d="M24.7974 101H34.1452" stroke="#BF9D50" stroke-width="1.7825" stroke-miterlimit="10" stroke-linecap="round" stroke-linejoin="round"/>
</svg>
