<svg width="131" height="102" viewBox="0 0 131 102" fill="none" xmlns="http://www.w3.org/2000/svg">
<path d="M22.0353 90.3527C23.2929 90.3527 24.3123 89.3333 24.3123 88.0757C24.3123 86.8182 23.2929 85.7988 22.0353 85.7988C20.7778 85.7988 19.7584 86.8182 19.7584 88.0757C19.7584 89.3333 20.7778 90.3527 22.0353 90.3527Z" stroke="white" stroke-width="1.0186" stroke-miterlimit="10" stroke-linecap="round" stroke-linejoin="round"/>
<path d="M95.5195 42.4777C96.777 42.4777 97.7964 41.4583 97.7964 40.2007C97.7964 38.9432 96.777 37.9238 95.5195 37.9238C94.262 37.9238 93.2426 38.9432 93.2426 40.2007C93.2426 41.4583 94.262 42.4777 95.5195 42.4777Z" stroke="white" stroke-width="1.0186" stroke-miterlimit="10" stroke-linecap="round" stroke-linejoin="round"/>
<path d="M57.2005 17.8653C55.9449 17.8653 54.9236 18.8867 54.9236 20.1422C54.9236 18.8867 53.9022 17.8653 52.6467 17.8653C53.9022 17.8653 54.9236 16.8439 54.9236 15.5884C54.9236 16.8489 55.9449 17.8653 57.2005 17.8653Z" stroke="white" stroke-width="1.0186" stroke-miterlimit="10" stroke-linecap="round" stroke-linejoin="round"/>
<path d="M84.4388 89.5108C83.1832 89.5108 82.1619 90.5322 82.1619 91.7877C82.1619 90.5322 81.1405 89.5108 79.8849 89.5108C81.1405 89.5108 82.1619 88.4894 82.1619 87.2339C82.1619 88.4894 83.1832 89.5108 84.4388 89.5108Z" stroke="white" stroke-width="1.0186" stroke-miterlimit="10" stroke-linecap="round" stroke-linejoin="round"/>
<path d="M120.954 63.6274V71.1458" stroke="white" stroke-width="1.0186" stroke-miterlimit="10" stroke-linecap="round" stroke-linejoin="round"/>
<path d="M117.193 67.3892H124.711" stroke="white" stroke-width="1.0186" stroke-miterlimit="10" stroke-linecap="round" stroke-linejoin="round"/>
<path d="M118.857 65.2915L123.052 69.4866" stroke="white" stroke-width="1.0186" stroke-miterlimit="10" stroke-linecap="round" stroke-linejoin="round"/>
<path d="M118.857 69.4866L123.052 65.2915" stroke="white" stroke-width="1.0186" stroke-miterlimit="10" stroke-linecap="round" stroke-linejoin="round"/>
<path d="M54.9236 91.2397V98.758" stroke="white" stroke-width="1.0186" stroke-miterlimit="10" stroke-linecap="round" stroke-linejoin="round"/>
<path d="M51.1669 95.0015H58.6853" stroke="white" stroke-width="1.0186" stroke-miterlimit="10" stroke-linecap="round" stroke-linejoin="round"/>
<path d="M52.826 92.9038L57.0211 97.0989" stroke="white" stroke-width="1.0186" stroke-miterlimit="10" stroke-linecap="round" stroke-linejoin="round"/>
<path d="M52.826 97.0989L57.0211 92.9038" stroke="white" stroke-width="1.0186" stroke-miterlimit="10" stroke-linecap="round" stroke-linejoin="round"/>
<path d="M84.4388 9.04639V16.5597" stroke="white" stroke-width="1.0186" stroke-miterlimit="10" stroke-linecap="round" stroke-linejoin="round"/>
<path d="M80.6821 12.8032H88.2005" stroke="white" stroke-width="1.0186" stroke-miterlimit="10" stroke-linecap="round" stroke-linejoin="round"/>
<path d="M82.3412 10.7056L86.5363 14.9007" stroke="white" stroke-width="1.0186" stroke-miterlimit="10" stroke-linecap="round" stroke-linejoin="round"/>
<path d="M82.3412 14.9007L86.5363 10.7056" stroke="white" stroke-width="1.0186" stroke-miterlimit="10" stroke-linecap="round" stroke-linejoin="round"/>
<path d="M14.3875 35.9712V43.4895" stroke="white" stroke-width="1.0186" stroke-miterlimit="10" stroke-linecap="round" stroke-linejoin="round"/>
<path d="M10.6308 39.7275H18.1441" stroke="white" stroke-width="1.0186" stroke-miterlimit="10" stroke-linecap="round" stroke-linejoin="round"/>
<path d="M12.2899 37.6299L16.485 41.825" stroke="white" stroke-width="1.0186" stroke-miterlimit="10" stroke-linecap="round" stroke-linejoin="round"/>
<path d="M12.2899 41.825L16.485 37.6299" stroke="white" stroke-width="1.0186" stroke-miterlimit="10" stroke-linecap="round" stroke-linejoin="round"/>
<path d="M17.1726 66.3379C17.1726 81.7133 1 80.8215 1 80.8215C11.6771 76.168 10.1376 62.088 10.1376 62.088C10.1376 57.6039 13.7747 53.9668 18.2587 53.9668C20.3314 53.9668 22.2246 54.744 23.6645 56.0245" stroke="#BF9D50" stroke-width="1.7825" stroke-miterlimit="10" stroke-linecap="round" stroke-linejoin="round"/>
<path d="M22.6681 66.2038C22.6681 64.6891 21.4375 63.4585 19.9229 63.4585C18.4082 63.4585 17.1776 64.6891 17.1776 66.2038" stroke="#BF9D50" stroke-width="1.7825" stroke-miterlimit="10" stroke-linecap="round" stroke-linejoin="round"/>
<path d="M26.3749 50.0508C26.3749 50.0508 20.2068 56.6822 26.3749 62.0781" stroke="#BF9D50" stroke-width="1.7825" stroke-miterlimit="10" stroke-linecap="round" stroke-linejoin="round"/>
<path d="M26.3749 50.0508C26.3749 50.0508 29.469 53.379 29.0853 57.2353" stroke="#BF9D50" stroke-width="1.7825" stroke-miterlimit="10" stroke-linecap="round" stroke-linejoin="round"/>
<path d="M21.4374 63.9116C20.4161 67.7331 22.3841 71.7687 25.0446 74.499C26.5991 76.0934 27.8098 77.9916 28.5024 80.1091C28.7315 80.8066 28.9408 81.5789 29.1152 82.4309" stroke="#BF9D50" stroke-width="1.7825" stroke-miterlimit="10" stroke-linecap="round" stroke-linejoin="round"/>
<path d="M35.9111 67.2998C36.4342 67.7283 36.5139 68.5005 36.0805 69.0237H36.0854C34.4263 70.6828 34.8947 73.2088 36.0854 75.0323C37.9239 79.4467 34.0875 80.757 29.1152 82.4311" stroke="#BF9D50" stroke-width="1.7825" stroke-miterlimit="10" stroke-linecap="round" stroke-linejoin="round"/>
<path d="M36.6983 58.9941C40.3055 59.5771 42.7618 62.975 42.1789 66.5822C38.8307 68.047 37.3061 71.9531 38.7709 75.3012V75.3062C36.8179 75.4308 35.1388 73.9461 35.0143 71.998" stroke="#BF9D50" stroke-width="1.7825" stroke-miterlimit="10" stroke-linecap="round" stroke-linejoin="round"/>
<path d="M27.9843 64.2305C29.4939 65.7401 29.4939 68.1864 27.9843 69.6961" stroke="#BF9D50" stroke-width="1.7825" stroke-miterlimit="10" stroke-linecap="round" stroke-linejoin="round"/>
<path d="M28.5074 53.1099C33.1559 48.4614 40.6991 48.4614 45.3476 53.1099" stroke="#BF9D50" stroke-width="1.7825" stroke-miterlimit="10" stroke-linecap="round" stroke-linejoin="round"/>
<path d="M22.0353 54.6148C24.2873 38.5568 38.0834 26.2007 54.7592 26.2007C73.0094 26.2007 87.8069 40.9982 87.8069 59.2484" stroke="#BF9D50" stroke-width="1.7825" stroke-miterlimit="10" stroke-linecap="round" stroke-linejoin="round"/>
<path d="M45.6914 74.4595C43.7483 72.5712 42.0493 70.4338 40.6393 68.1021" stroke="#BF9D50" stroke-width="1.7825" stroke-miterlimit="10" stroke-linecap="round" stroke-linejoin="round"/>
<path d="M91.2347 73.2935C85.4203 79.5562 77.1148 83.4773 67.8975 83.4773C67.5637 83.4773 67.2349 83.4723 66.9011 83.4624" stroke="#BF9D50" stroke-width="1.7825" stroke-miterlimit="10" stroke-linecap="round" stroke-linejoin="round"/>
<path d="M80.0145 38.0088C92.286 50.2802 112.185 50.2802 124.457 38.0088" stroke="#BF9D50" stroke-width="1.7825" stroke-miterlimit="10" stroke-linecap="round" stroke-linejoin="round"/>
<path d="M124.457 38.0087C130.017 32.4485 130.017 23.4305 124.457 17.8652" stroke="#BF9D50" stroke-width="1.7825" stroke-miterlimit="10" stroke-linecap="round" stroke-linejoin="round"/>
<path d="M124.721 1C124.98 1.01993 125.224 1.07474 125.478 1.13951C125.712 1.21922 125.951 1.31389 126.186 1.43346C126.41 1.55304 126.619 1.69753 126.843 1.85198C127.043 2.01141 127.242 2.19077 127.431 2.3801C128.164 3.15236 128.677 4.1837 128.886 5.29974C129.1 6.41578 129.011 7.6215 128.627 8.7475C128.527 9.02651 128.428 9.3105 128.283 9.57456C128.154 9.84361 128.009 10.1127 127.84 10.3568C127.76 10.4813 127.67 10.6059 127.586 10.7305C127.501 10.855 127.396 10.9646 127.302 11.0792C127.207 11.1938 127.102 11.3034 127.003 11.418L126.928 11.5027L126.878 11.5575L126.774 11.6622L126.669 11.7668L126.614 11.8166L126.589 11.8415C126.559 11.8764 126.524 11.9063 126.495 11.9412C126.42 12.001 126.365 12.0707 126.3 12.1405C126.27 12.1753 126.225 12.2002 126.201 12.2401C126.171 12.275 126.141 12.3148 126.106 12.3447C126.076 12.3796 126.031 12.4095 126.006 12.4494C125.976 12.4892 125.946 12.5241 125.912 12.564C125.653 12.8679 125.398 13.2216 125.149 13.675C124.91 14.1234 124.676 14.6715 124.531 15.354L124.437 15.8921L124.377 16.485C124.377 16.6843 124.367 16.9085 124.367 17.1427C124.372 17.3719 124.392 17.6061 124.392 17.8801C124.133 17.8602 123.884 17.8103 123.63 17.7456C123.396 17.6658 123.151 17.5712 122.917 17.4566C122.688 17.337 122.479 17.1875 122.26 17.0381C122.055 16.8737 121.861 16.6993 121.672 16.5099C120.939 15.7327 120.421 14.7063 120.217 13.5903C120.003 12.4743 120.092 11.2686 120.476 10.1425C120.576 9.86354 120.68 9.57954 120.82 9.31548C120.884 9.18096 120.954 9.04644 121.029 8.9169C121.099 8.78238 121.188 8.6628 121.268 8.53326C121.353 8.4087 121.437 8.28414 121.522 8.15959C121.607 8.03503 121.711 7.92542 121.806 7.81083L122.105 7.47203L122.18 7.39231L122.23 7.3375L122.334 7.23287L122.439 7.12825L122.494 7.07842L122.519 7.05351C122.549 7.01864 122.583 6.98376 122.618 6.95387C122.653 6.91899 122.693 6.89408 122.723 6.8592C122.753 6.82433 122.783 6.78945 122.818 6.75956C122.847 6.72468 122.892 6.69977 122.917 6.65991C122.947 6.62503 122.977 6.59016 123.012 6.55528C123.087 6.49051 123.136 6.4108 123.206 6.33606C123.465 6.03214 123.724 5.67341 123.968 5.225C124.208 4.77161 124.442 4.22854 124.586 3.54596L124.681 3.00788L124.736 2.41498C124.736 2.21569 124.746 1.99148 124.746 1.7623C124.741 1.5082 124.726 1.26904 124.721 1Z" stroke="#BF9D50" stroke-width="1.7825" stroke-miterlimit="10" stroke-linecap="round" stroke-linejoin="round"/>
<path d="M103.641 50.2101C111.279 49.393 118.702 46.0599 124.561 40.2007" stroke="#BF9D50" stroke-width="1.7825" stroke-miterlimit="10" stroke-linecap="round" stroke-linejoin="round"/>
<path d="M124.561 40.2009C130.73 34.0328 130.73 24.0333 124.561 17.8652" stroke="#BF9D50" stroke-width="1.7825" stroke-miterlimit="10" stroke-linecap="round" stroke-linejoin="round"/>
<path d="M58.3315 82.7797C50.7384 82.7797 44.5803 76.6216 44.5803 69.0285C44.5803 61.4355 50.7384 55.2773 58.3315 55.2773" stroke="#BF9D50" stroke-width="1.7825" stroke-miterlimit="10" stroke-linecap="round" stroke-linejoin="round"/>
<path d="M58.3315 82.7798L72.7752 97.2235" stroke="#BF9D50" stroke-width="1.7825" stroke-miterlimit="10" stroke-linecap="round" stroke-linejoin="round"/>
<path d="M73.393 101H68.9488C68.9488 98.9573 70.6029 97.3032 72.6457 97.3032H75.0023V99.3908C75.0023 100.278 74.2848 101 73.393 101Z" stroke="#BF9D50" stroke-width="1.7825" stroke-miterlimit="10" stroke-linecap="round" stroke-linejoin="round"/>
<path d="M75.0023 97.0642V95.6542C75.0023 94.9019 74.3895 94.2891 73.6371 94.2891H73.3482L60.9123 73.4331" stroke="#BF9D50" stroke-width="1.7825" stroke-miterlimit="10" stroke-linecap="round" stroke-linejoin="round"/>
<path d="M102.206 82.7798C96.1622 82.7798 91.2645 77.8822 91.2645 71.8386C91.2645 65.7951 96.1622 60.8975 102.206 60.8975" stroke="#BF9D50" stroke-width="1.7825" stroke-miterlimit="10" stroke-linecap="round" stroke-linejoin="round"/>
<path d="M102.206 82.7798L116.649 97.2235" stroke="#BF9D50" stroke-width="1.7825" stroke-miterlimit="10" stroke-linecap="round" stroke-linejoin="round"/>
<path d="M117.272 101H112.828C112.828 98.9573 114.482 97.3032 116.525 97.3032H118.882V99.3908C118.877 100.278 118.159 101 117.272 101Z" stroke="#BF9D50" stroke-width="1.7825" stroke-miterlimit="10" stroke-linecap="round" stroke-linejoin="round"/>
<path d="M118.877 97.0642V95.6542C118.877 94.9019 118.264 94.2891 117.511 94.2891H117.222L104.787 73.4331" stroke="#BF9D50" stroke-width="1.7825" stroke-miterlimit="10" stroke-linecap="round" stroke-linejoin="round"/>
<path d="M84.8972 82.7797C82.9043 82.7797 81.0359 82.2466 79.4266 81.3149" stroke="#BF9D50" stroke-width="1.7825" stroke-miterlimit="10" stroke-linecap="round" stroke-linejoin="round"/>
<path d="M84.8972 82.7798L99.3409 97.2235" stroke="#BF9D50" stroke-width="1.7825" stroke-miterlimit="10" stroke-linecap="round" stroke-linejoin="round"/>
<path d="M99.9637 101H95.5195C95.5195 98.9573 97.1736 97.3032 99.2163 97.3032H101.573V99.3908C101.568 100.278 100.851 101 99.9637 101Z" stroke="#BF9D50" stroke-width="1.7825" stroke-miterlimit="10" stroke-linecap="round" stroke-linejoin="round"/>
<path d="M101.568 97.0638V95.6538C101.568 94.9015 100.955 94.2886 100.203 94.2886H99.9139L88.8033 75.6548" stroke="#BF9D50" stroke-width="1.7825" stroke-miterlimit="10" stroke-linecap="round" stroke-linejoin="round"/>
<path d="M45.4671 80.6572C42.7966 77.9866 41.7952 74.2798 42.4628 70.832" stroke="#BF9D50" stroke-width="1.7825" stroke-miterlimit="10" stroke-linecap="round" stroke-linejoin="round"/>
<path d="M45.492 80.6572L28.8461 97.3031" stroke="#BF9D50" stroke-width="1.7825" stroke-miterlimit="10" stroke-linecap="round" stroke-linejoin="round"/>
<path d="M30.2661 101H25.8219C25.8219 98.9573 27.476 97.3032 29.5188 97.3032H31.8754V99.3908C31.8704 100.278 31.153 101 30.2661 101Z" stroke="#BF9D50" stroke-width="1.7825" stroke-miterlimit="10" stroke-linecap="round" stroke-linejoin="round"/>
<path d="M30.4604 97.3033H31.8704C32.6227 97.3033 33.2355 96.6904 33.2355 95.9381V95.6491L55.357 82.4609" stroke="#BF9D50" stroke-width="1.7825" stroke-miterlimit="10" stroke-linecap="round" stroke-linejoin="round"/>
<path d="M102.285 76.477C109.839 68.9238 109.839 56.6723 102.285 49.1191" stroke="#BF9D50" stroke-width="1.7825" stroke-miterlimit="10" stroke-linecap="round" stroke-linejoin="round"/>
<path d="M12.5092 101H102.021" stroke="#BF9D50" stroke-width="1.7825" stroke-miterlimit="10" stroke-linecap="round" stroke-linejoin="round"/>
<path d="M107.91 101H126.126" stroke="#BF9D50" stroke-width="1.7825" stroke-miterlimit="10" stroke-linecap="round" stroke-linejoin="round"/>
<path d="M124.168 17.6111C123.719 16.9534 123.361 16.236 123.107 15.4986C122.653 14.2032 122.539 12.848 122.773 11.6074C122.837 11.2985 122.902 10.9896 123.012 10.7056C123.116 10.4116 123.226 10.1276 123.381 9.86357C123.45 9.72905 123.53 9.59951 123.605 9.46997C123.679 9.33545 123.779 9.22584 123.864 9.10128C123.954 8.98171 124.048 8.86711 124.143 8.74754L124.213 8.66284L124.262 8.60803L124.362 8.49842L124.462 8.39379L124.512 8.33899L124.531 8.30909C124.561 8.27422 124.591 8.23934 124.626 8.20447C124.701 8.14468 124.751 8.06994 124.815 8.00019C124.845 7.96531 124.885 7.93542 124.91 7.89556C124.935 7.8557 124.965 7.82083 124.995 7.78595C125.025 7.74609 125.07 7.72118 125.089 7.67634C125.114 7.63648 125.144 7.59662 125.174 7.55676C125.413 7.2379 125.643 6.86422 125.842 6.37596C126.036 5.88769 126.201 5.2948 126.245 4.53748L126.26 3.93462L126.22 3.26699C126.186 3.03781 126.156 2.78869 126.116 2.52463C126.066 2.26555 126.006 1.9965 125.951 1.68262" stroke="#BF9D50" stroke-width="1.0186" stroke-miterlimit="10" stroke-linecap="round" stroke-linejoin="round"/>
<path d="M123.988 17.4866C123.694 16.814 123.49 16.0965 123.391 15.384C123.206 14.1335 123.336 12.8779 123.764 11.7918C123.874 11.5228 123.988 11.2537 124.138 11.0146C124.282 10.7654 124.432 10.5263 124.616 10.317C124.706 10.2074 124.796 10.1028 124.89 9.99817C124.98 9.88856 125.09 9.80386 125.189 9.70919C125.294 9.61453 125.398 9.52983 125.503 9.44015L125.583 9.37538L125.638 9.33552L125.747 9.2558L125.857 9.17608L125.912 9.13623L125.936 9.1163C125.971 9.0864 126.001 9.06149 126.036 9.03658C126.116 8.99672 126.176 8.93694 126.24 8.88213C126.275 8.85722 126.315 8.83729 126.345 8.80739C126.375 8.7775 126.405 8.7476 126.445 8.72269C126.475 8.6928 126.524 8.67287 126.549 8.63799C126.579 8.60312 126.614 8.57323 126.649 8.54333C126.923 8.2992 127.192 7.99528 127.461 7.58673C127.72 7.17818 127.974 6.665 128.149 5.9874L128.263 5.44433L128.343 4.82652C128.348 4.61228 128.368 4.37812 128.378 4.13398C128.378 3.88985 128.368 3.63077 128.373 3.3418" stroke="#BF9D50" stroke-width="1.0186" stroke-miterlimit="10" stroke-linecap="round" stroke-linejoin="round"/>
<path d="M17.1726 63.2241C17.1726 72.9596 10.6906 76.1732 5.9325 77.2194" stroke="#BF9D50" stroke-width="1.0186" stroke-miterlimit="10" stroke-linecap="round" stroke-linejoin="round"/>
<path d="M17.1776 63.0895C17.1776 61.5749 18.4082 60.3442 19.9229 60.3442C21.4375 60.3442 22.6681 61.5749 22.6681 63.0895V64.8283" stroke="#BF9D50" stroke-width="1.0186" stroke-miterlimit="10" stroke-linecap="round" stroke-linejoin="round"/>
<path d="M67.9573 45.5815C67.9573 50.8977 63.6476 55.2074 58.3315 55.2074" stroke="#BF9D50" stroke-width="1.7825" stroke-miterlimit="10" stroke-linecap="round" stroke-linejoin="round"/>
</svg>
