<svg width="117" height="102" viewBox="0 0 117 102" fill="none" xmlns="http://www.w3.org/2000/svg">
<path d="M31.5421 19.0957V26.1117" stroke="white" stroke-width="1.0186" stroke-miterlimit="10" stroke-linecap="round" stroke-linejoin="round"/>
<path d="M28.0319 22.6011H35.0479" stroke="white" stroke-width="1.0186" stroke-miterlimit="10" stroke-linecap="round" stroke-linejoin="round"/>
<path d="M29.5847 20.644L33.4949 24.5589" stroke="white" stroke-width="1.0186" stroke-miterlimit="10" stroke-linecap="round" stroke-linejoin="round"/>
<path d="M29.5847 24.5589L33.4949 20.644" stroke="white" stroke-width="1.0186" stroke-miterlimit="10" stroke-linecap="round" stroke-linejoin="round"/>
<path d="M75.0887 57.9321V64.9481" stroke="white" stroke-width="1.0186" stroke-miterlimit="10" stroke-linecap="round" stroke-linejoin="round"/>
<path d="M71.5784 61.438H78.5944" stroke="white" stroke-width="1.0186" stroke-miterlimit="10" stroke-linecap="round" stroke-linejoin="round"/>
<path d="M73.1313 59.4805L77.0462 63.3953" stroke="white" stroke-width="1.0186" stroke-miterlimit="10" stroke-linecap="round" stroke-linejoin="round"/>
<path d="M73.1313 63.3953L77.0462 59.4805" stroke="white" stroke-width="1.0186" stroke-miterlimit="10" stroke-linecap="round" stroke-linejoin="round"/>
<path d="M69.8813 101L66.0409 98.8521H55.4216L51.5812 101H69.8813Z" stroke="#BF9D50" stroke-width="1.7825" stroke-miterlimit="10" stroke-linecap="round" stroke-linejoin="round"/>
<path d="M49.2891 101H72.1736" stroke="#BF9D50" stroke-width="1.7825" stroke-miterlimit="10" stroke-linecap="round" stroke-linejoin="round"/>
<path d="M62.7864 93.668H58.6763V96.1461H62.7864V93.668Z" stroke="#BF9D50" stroke-width="1.7825" stroke-miterlimit="10" stroke-linecap="round" stroke-linejoin="round"/>
<path d="M64.7391 98.852C64.7391 98.1034 64.1347 97.499 63.3862 97.499H58.0765C57.3279 97.499 56.7235 98.1034 56.7235 98.852H64.7391Z" stroke="#BF9D50" stroke-width="1.7825" stroke-miterlimit="10" stroke-linecap="round" stroke-linejoin="round"/>
<path d="M63.2374 96.146H58.0951V97.499H63.2374V96.146Z" stroke="#BF9D50" stroke-width="1.7825" stroke-miterlimit="10" stroke-linecap="round" stroke-linejoin="round"/>
<path d="M64.7391 90.9663C64.7391 91.7149 64.1347 92.3193 63.3862 92.3193H58.0765C57.3279 92.3193 56.7235 91.7149 56.7235 90.9663H64.7391Z" stroke="#BF9D50" stroke-width="1.7825" stroke-miterlimit="10" stroke-linecap="round" stroke-linejoin="round"/>
<path d="M63.2374 92.3193H58.0951V93.6723H63.2374V92.3193Z" stroke="#BF9D50" stroke-width="1.7825" stroke-miterlimit="10" stroke-linecap="round" stroke-linejoin="round"/>
<path d="M62.7864 66.3989H58.6763V68.8771H62.7864V66.3989Z" stroke="#BF9D50" stroke-width="1.7825" stroke-miterlimit="10" stroke-linecap="round" stroke-linejoin="round"/>
<path d="M64.7391 71.583C64.7391 70.8344 64.1347 70.23 63.3862 70.23H58.0765C57.3279 70.23 56.7235 70.8344 56.7235 71.583H64.7391Z" stroke="#BF9D50" stroke-width="1.7825" stroke-miterlimit="10" stroke-linecap="round" stroke-linejoin="round"/>
<path d="M63.2374 68.877H58.0951V70.2299H63.2374V68.877Z" stroke="#BF9D50" stroke-width="1.7825" stroke-miterlimit="10" stroke-linecap="round" stroke-linejoin="round"/>
<path d="M64.7391 63.6978C64.7391 64.4463 64.1347 65.0508 63.3862 65.0508H58.0765C57.3279 65.0508 56.7235 64.4463 56.7235 63.6978H64.7391Z" stroke="#BF9D50" stroke-width="1.7825" stroke-miterlimit="10" stroke-linecap="round" stroke-linejoin="round"/>
<path d="M63.2374 65.0508H58.0951V66.4038H63.2374V65.0508Z" stroke="#BF9D50" stroke-width="1.7825" stroke-miterlimit="10" stroke-linecap="round" stroke-linejoin="round"/>
<path d="M62.7864 39.1348H58.6763V41.6129H62.7864V39.1348Z" stroke="#BF9D50" stroke-width="1.7825" stroke-miterlimit="10" stroke-linecap="round" stroke-linejoin="round"/>
<path d="M64.7391 44.3139C64.7391 43.5654 64.1347 42.9609 63.3862 42.9609H58.0765C57.3279 42.9609 56.7235 43.5654 56.7235 44.3139H64.7391Z" stroke="#BF9D50" stroke-width="1.7825" stroke-miterlimit="10" stroke-linecap="round" stroke-linejoin="round"/>
<path d="M63.2374 41.6079H58.0951V42.9609H63.2374V41.6079Z" stroke="#BF9D50" stroke-width="1.7825" stroke-miterlimit="10" stroke-linecap="round" stroke-linejoin="round"/>
<path d="M64.7391 36.4287C64.7391 37.1773 64.1347 37.7817 63.3862 37.7817H58.0765C57.3279 37.7817 56.7235 37.1773 56.7235 36.4287H64.7391Z" stroke="#BF9D50" stroke-width="1.7825" stroke-miterlimit="10" stroke-linecap="round" stroke-linejoin="round"/>
<path d="M63.2374 37.7817H58.0951V39.1347H63.2374V37.7817Z" stroke="#BF9D50" stroke-width="1.7825" stroke-miterlimit="10" stroke-linecap="round" stroke-linejoin="round"/>
<path d="M62.7864 71.583H58.6763V90.9665H62.7864V71.583Z" stroke="#BF9D50" stroke-width="1.7825" stroke-miterlimit="10" stroke-linecap="round" stroke-linejoin="round"/>
<path d="M62.7864 44.314H58.6763V63.6975H62.7864V44.314Z" stroke="#BF9D50" stroke-width="1.7825" stroke-miterlimit="10" stroke-linecap="round" stroke-linejoin="round"/>
<path d="M66.464 34.6851H54.9985V36.4286H66.464V34.6851Z" stroke="#BF9D50" stroke-width="1.7825" stroke-miterlimit="10" stroke-linecap="round" stroke-linejoin="round"/>
<path d="M58.8297 33.0996C57.7789 33.0996 56.9281 32.2488 56.9281 31.198C56.9281 30.1472 57.7789 29.2964 58.8297 29.2964C59.8805 29.2964 60.7313 30.1472 60.7313 31.198" stroke="#BF9D50" stroke-width="1.7825" stroke-miterlimit="10" stroke-linecap="round" stroke-linejoin="round"/>
<path d="M60.7313 31.1982C60.7313 33.1231 59.169 34.6853 57.2442 34.6853H55.5378C56.6584 34.6853 57.565 33.7787 57.565 32.6582" stroke="#BF9D50" stroke-width="1.7825" stroke-miterlimit="10" stroke-linecap="round" stroke-linejoin="round"/>
<path d="M62.6329 33.0996C63.6837 33.0996 64.5346 32.2488 64.5346 31.198C64.5346 30.1472 63.6837 29.2964 62.6329 29.2964C61.5822 29.2964 60.7313 30.1472 60.7313 31.198" stroke="#BF9D50" stroke-width="1.7825" stroke-miterlimit="10" stroke-linecap="round" stroke-linejoin="round"/>
<path d="M60.7313 31.1982C60.7313 33.1231 62.2935 34.6853 64.2184 34.6853H65.9247C64.8042 34.6853 63.8976 33.7787 63.8976 32.6582" stroke="#BF9D50" stroke-width="1.7825" stroke-miterlimit="10" stroke-linecap="round" stroke-linejoin="round"/>
<path d="M62.9583 19.0957C63.2094 19.5002 63.3535 19.9744 63.3535 20.4812C63.3535 21.9318 62.1772 23.1082 60.7266 23.1082C59.276 23.1082 58.0997 21.9318 58.0997 20.4812C58.0997 19.9744 58.2438 19.5002 58.4902 19.1004C57.6301 19.7699 57.0721 20.8113 57.0721 21.9876C57.0721 24.0055 58.7087 25.6375 60.7219 25.6375C62.7398 25.6375 64.3718 24.0008 64.3718 21.9876C64.3811 20.8113 63.8231 19.7652 62.9583 19.0957Z" stroke="#BF9D50" stroke-width="1.7825" stroke-miterlimit="10" stroke-linecap="round" stroke-linejoin="round"/>
<path d="M58.7832 25.061C59.9549 26.2327 59.9549 28.1297 58.7832 29.2967" stroke="#BF9D50" stroke-width="1.7825" stroke-miterlimit="10" stroke-linecap="round" stroke-linejoin="round"/>
<path d="M62.6794 25.061C61.5077 26.2327 61.5077 28.1297 62.6794 29.2967" stroke="#BF9D50" stroke-width="1.7825" stroke-miterlimit="10" stroke-linecap="round" stroke-linejoin="round"/>
<path d="M61.4333 19.0956C61.4333 19.4815 61.1171 19.7977 60.7312 19.7977C60.3453 19.7977 60.0292 19.4815 60.0292 19.0956C60.0292 18.7097 60.3453 18.3936 60.7312 18.3936C61.1171 18.3936 61.4333 18.7051 61.4333 19.0956Z" stroke="#BF9D50" stroke-width="1.7825" stroke-miterlimit="10" stroke-linecap="round" stroke-linejoin="round"/>
<path d="M74.2844 26.6694C73.5358 26.6694 72.9314 27.2739 72.9314 28.0224V33.3321C72.9314 34.0806 73.5358 34.6851 74.2844 34.6851V26.6694Z" stroke="#BF9D50" stroke-width="1.7825" stroke-miterlimit="10" stroke-linecap="round" stroke-linejoin="round"/>
<path d="M71.5803 28.1712V33.3135H72.9333V28.1712H71.5803Z" stroke="#BF9D50" stroke-width="1.7825" stroke-miterlimit="10" stroke-linecap="round" stroke-linejoin="round"/>
<path d="M66.3989 26.6694C67.1475 26.6694 67.7519 27.2739 67.7519 28.0224V33.3321C67.7519 34.0806 67.1475 34.6851 66.3989 34.6851V26.6694Z" stroke="#BF9D50" stroke-width="1.7825" stroke-miterlimit="10" stroke-linecap="round" stroke-linejoin="round"/>
<path d="M67.7507 28.1727V33.3149H69.1037V28.1727H67.7507Z" stroke="#BF9D50" stroke-width="1.7825" stroke-miterlimit="10" stroke-linecap="round" stroke-linejoin="round"/>
<path d="M66.2083 27.181C64.6833 27.181 63.4419 25.9442 63.4419 24.4146" stroke="#BF9D50" stroke-width="1.7825" stroke-miterlimit="10" stroke-linecap="round" stroke-linejoin="round"/>
<path d="M74.2798 27.5435C80.338 35.6474 91.8221 37.3073 99.9261 31.2491C103.785 28.3618 109.253 29.1522 112.14 33.0112V33.0252C108.769 29.6543 103.302 29.6543 99.9261 33.0252C92.845 40.1062 81.3609 40.1062 74.2798 33.0252V27.5435V27.5435Z" stroke="#BF9D50" stroke-width="1.7825" stroke-miterlimit="10" stroke-linecap="round" stroke-linejoin="round"/>
<path d="M98.373 34.6851V73.8705" stroke="#BF9D50" stroke-width="1.0186" stroke-miterlimit="10" stroke-linecap="round" stroke-linejoin="round"/>
<path d="M98.373 34.6851L112.944 73.8705" stroke="#BF9D50" stroke-width="1.0186" stroke-miterlimit="10" stroke-linecap="round" stroke-linejoin="round"/>
<path d="M98.3731 34.6851L83.8018 73.8705" stroke="#BF9D50" stroke-width="1.0186" stroke-miterlimit="10" stroke-linecap="round" stroke-linejoin="round"/>
<path d="M114.981 74.0659C114.981 76.8928 112.475 79.1849 109.378 79.1849H87.3678C84.2759 79.1849 81.7653 76.8928 81.7653 74.0659H114.981Z" stroke="#BF9D50" stroke-width="1.7825" stroke-miterlimit="10" stroke-linecap="round" stroke-linejoin="round"/>
<path d="M81.1609 74.0659H115.585" stroke="#BF9D50" stroke-width="1.7825" stroke-miterlimit="10" stroke-linecap="round" stroke-linejoin="round"/>
<path d="M74.1542 30.4263C80.8912 37.6887 92.2405 38.1164 99.5029 31.3794" stroke="#BF9D50" stroke-width="1.0186" stroke-miterlimit="10" stroke-linecap="round" stroke-linejoin="round"/>
<path d="M69.1005 29.1789V32.1685H71.5786V29.1789H69.1005Z" stroke="#BF9D50" stroke-width="1.7825" stroke-miterlimit="10" stroke-linecap="round" stroke-linejoin="round"/>
<path d="M104.287 66.7617C101.995 69.0539 98.2801 69.0539 95.9879 66.7617C93.6957 64.4696 93.6957 60.7546 95.9879 58.4625C97.4478 57.0025 99.4889 56.4725 101.367 56.877C98.4614 55.7193 95.0208 56.3144 92.6682 58.667C89.5159 61.8194 89.5159 66.9291 92.6682 70.0814C95.8205 73.2337 100.93 73.2337 104.083 70.0814C106.435 67.7288 107.03 64.2882 105.873 61.3823C106.272 63.2607 105.747 65.3018 104.287 66.7617Z" stroke="#BF9D50" stroke-width="1.7825" stroke-miterlimit="10" stroke-linecap="round" stroke-linejoin="round"/>
<path d="M49.881 29.1798V32.1694H52.3591V29.1798H49.881Z" stroke="#BF9D50" stroke-width="1.7825" stroke-miterlimit="10" stroke-linecap="round" stroke-linejoin="round"/>
<path d="M47.1782 26.6694C47.9268 26.6694 48.5312 27.2739 48.5312 28.0224V33.3321C48.5312 34.0806 47.9268 34.6851 47.1782 34.6851V26.6694Z" stroke="#BF9D50" stroke-width="1.7825" stroke-miterlimit="10" stroke-linecap="round" stroke-linejoin="round"/>
<path d="M48.5312 28.1741V33.3164H49.8843V28.1741H48.5312Z" stroke="#BF9D50" stroke-width="1.7825" stroke-miterlimit="10" stroke-linecap="round" stroke-linejoin="round"/>
<path d="M55.0637 26.6694C54.3151 26.6694 53.7107 27.2739 53.7107 28.0224V33.3321C53.7107 34.0806 54.3151 34.6851 55.0637 34.6851V26.6694Z" stroke="#BF9D50" stroke-width="1.7825" stroke-miterlimit="10" stroke-linecap="round" stroke-linejoin="round"/>
<path d="M52.3608 28.1722V33.3145H53.7138V28.1722H52.3608Z" stroke="#BF9D50" stroke-width="1.7825" stroke-miterlimit="10" stroke-linecap="round" stroke-linejoin="round"/>
<path d="M55.2543 27.181C56.7793 27.181 58.0207 25.9442 58.0207 24.4146" stroke="#BF9D50" stroke-width="1.7825" stroke-miterlimit="10" stroke-linecap="round" stroke-linejoin="round"/>
<path d="M47.1828 27.5435C41.1246 35.6474 29.6405 37.3073 21.5366 31.2491C17.6775 28.3618 12.2098 29.1522 9.32251 33.0112V33.0252C12.6933 29.6543 18.1611 29.6543 21.5366 33.0252C28.6177 40.1062 40.1018 40.1062 47.1828 33.0252V27.5435Z" stroke="#BF9D50" stroke-width="1.7825" stroke-miterlimit="10" stroke-linecap="round" stroke-linejoin="round"/>
<path d="M23.0895 34.6851V73.8705" stroke="#BF9D50" stroke-width="1.0186" stroke-miterlimit="10" stroke-linecap="round" stroke-linejoin="round"/>
<path d="M23.0895 34.6851L8.51819 73.8705" stroke="#BF9D50" stroke-width="1.0186" stroke-miterlimit="10" stroke-linecap="round" stroke-linejoin="round"/>
<path d="M23.0895 34.6851L37.6608 73.8705" stroke="#BF9D50" stroke-width="1.0186" stroke-miterlimit="10" stroke-linecap="round" stroke-linejoin="round"/>
<path d="M6.48169 74.0659C6.48169 76.8928 8.98774 79.1849 12.0843 79.1849H34.0947C37.1866 79.1849 39.6972 76.8928 39.6972 74.0659H6.48169Z" stroke="#BF9D50" stroke-width="1.7825" stroke-miterlimit="10" stroke-linecap="round" stroke-linejoin="round"/>
<path d="M40.3017 74.0659H5.87732" stroke="#BF9D50" stroke-width="1.7825" stroke-miterlimit="10" stroke-linecap="round" stroke-linejoin="round"/>
<path d="M23.0895 59.9967L25.3538 55.9238L25.2747 60.5872L29.2779 58.1881L26.8788 62.1866L31.5422 62.1076L27.4646 64.3718L31.5422 66.6361L26.8788 66.5617L29.2779 70.5602L25.2747 68.1611L25.3538 72.8245L23.0895 68.7469L20.8252 72.8245L20.9043 68.1611L16.9011 70.5602L19.3002 66.5617L14.6368 66.6361L18.7144 64.3718L14.6368 62.1076L19.3002 62.1866L16.9011 58.1881L20.9043 60.5872L20.8252 55.9238L23.0895 59.9967Z" stroke="#BF9D50" stroke-width="1.7825" stroke-miterlimit="10" stroke-linecap="round" stroke-linejoin="round"/>
<path d="M47.3083 30.4263C40.5713 37.6887 29.222 38.1164 21.9596 31.3794" stroke="#BF9D50" stroke-width="1.0186" stroke-miterlimit="10" stroke-linecap="round" stroke-linejoin="round"/>
<path d="M60.7359 10.8476C62.2458 10.8476 63.4698 9.62363 63.4698 8.11375C63.4698 6.60388 62.2458 5.37988 60.7359 5.37988C59.2261 5.37988 58.0021 6.60388 58.0021 8.11375C58.0021 9.62363 59.2261 10.8476 60.7359 10.8476Z" stroke="#BF9D50" stroke-width="1.7825" stroke-miterlimit="10" stroke-linecap="round" stroke-linejoin="round"/>
<path d="M55.6169 8.11375C58.4438 4.46859 63.0281 4.46859 65.855 8.11375" stroke="#BF9D50" stroke-width="1.7825" stroke-miterlimit="10" stroke-linecap="round" stroke-linejoin="round"/>
<path d="M55.6169 8.11377C58.4438 11.7589 63.0281 11.7589 65.855 8.11377" stroke="#BF9D50" stroke-width="1.7825" stroke-miterlimit="10" stroke-linecap="round" stroke-linejoin="round"/>
<path d="M60.7359 10.8476C62.2458 10.8476 63.4698 9.62363 63.4698 8.11375C63.4698 6.60388 62.2458 5.37988 60.7359 5.37988C59.2261 5.37988 58.0021 6.60388 58.0021 8.11375C58.0021 9.62363 59.2261 10.8476 60.7359 10.8476Z" stroke="#BF9D50" stroke-width="1.7825" stroke-miterlimit="10" stroke-linecap="round" stroke-linejoin="round"/>
<path d="M53.785 8.11377H51.4696" stroke="#BF9D50" stroke-width="1.0186" stroke-miterlimit="10" stroke-linecap="round" stroke-linejoin="round"/>
<path d="M70.0023 8.11377H67.6915" stroke="#BF9D50" stroke-width="1.0186" stroke-miterlimit="10" stroke-linecap="round" stroke-linejoin="round"/>
<path d="M57.021 11.875L55.3844 13.5116" stroke="#BF9D50" stroke-width="1.0186" stroke-miterlimit="10" stroke-linecap="round" stroke-linejoin="round"/>
<path d="M64.4554 11.7866L66.092 13.4232" stroke="#BF9D50" stroke-width="1.0186" stroke-miterlimit="10" stroke-linecap="round" stroke-linejoin="round"/>
<path d="M60.7777 12.9072V15.2226" stroke="#BF9D50" stroke-width="1.0186" stroke-miterlimit="10" stroke-linecap="round" stroke-linejoin="round"/>
<path d="M57.021 4.3524L55.3844 2.71582" stroke="#BF9D50" stroke-width="1.0186" stroke-miterlimit="10" stroke-linecap="round" stroke-linejoin="round"/>
<path d="M64.4554 4.4359L66.092 2.79932" stroke="#BF9D50" stroke-width="1.0186" stroke-miterlimit="10" stroke-linecap="round" stroke-linejoin="round"/>
<path d="M60.7777 3.31541V1" stroke="#BF9D50" stroke-width="1.0186" stroke-miterlimit="10" stroke-linecap="round" stroke-linejoin="round"/>
<path d="M46.1088 94.8811C44.9372 94.8811 43.984 95.8343 43.984 97.0059C43.984 95.8343 43.0309 94.8811 41.8593 94.8811C43.0309 94.8811 43.984 93.928 43.984 92.7563C43.984 93.928 44.9325 94.8811 46.1088 94.8811Z" stroke="white" stroke-width="1.0186" stroke-miterlimit="10" stroke-linecap="round" stroke-linejoin="round"/>
<path d="M43.984 50.6329C45.1575 50.6329 46.1088 49.6816 46.1088 48.5081C46.1088 47.3346 45.1575 46.3833 43.984 46.3833C42.8106 46.3833 41.8593 47.3346 41.8593 48.5081C41.8593 49.6816 42.8106 50.6329 43.984 50.6329Z" stroke="white" stroke-width="1.0186" stroke-miterlimit="10" stroke-linecap="round" stroke-linejoin="round"/>
<path d="M5.24958 65.0506C4.07792 65.0506 3.12479 66.0037 3.12479 67.1753C3.12479 66.0037 2.17166 65.0506 1 65.0506C2.17166 65.0506 3.12479 64.0974 3.12479 62.9258C3.12479 64.0974 4.07328 65.0506 5.24958 65.0506Z" stroke="white" stroke-width="1.0186" stroke-miterlimit="10" stroke-linecap="round" stroke-linejoin="round"/>
<path d="M98.3731 95.7926C99.5466 95.7926 100.498 94.8413 100.498 93.6678C100.498 92.4943 99.5466 91.543 98.3731 91.543C97.1996 91.543 96.2483 92.4943 96.2483 93.6678C96.2483 94.8413 97.1996 95.7926 98.3731 95.7926Z" stroke="white" stroke-width="1.0186" stroke-miterlimit="10" stroke-linecap="round" stroke-linejoin="round"/>
<path d="M90.6551 16.6549C91.8286 16.6549 92.7799 15.7036 92.7799 14.5301C92.7799 13.3566 91.8286 12.4053 90.6551 12.4053C89.4816 12.4053 88.5303 13.3566 88.5303 14.5301C88.5303 15.7036 89.4816 16.6549 90.6551 16.6549Z" stroke="white" stroke-width="1.0186" stroke-miterlimit="10" stroke-linecap="round" stroke-linejoin="round"/>
</svg>
