<svg width="64" height="102" viewBox="0 0 64 102" fill="none" xmlns="http://www.w3.org/2000/svg">
<path d="M34.7366 101C35.8467 101 36.7467 100.1 36.7467 98.9901C36.7467 97.8799 35.8467 96.98 34.7366 96.98C33.6264 96.98 32.7264 97.8799 32.7264 98.9901C32.7264 100.1 33.6264 101 34.7366 101Z" stroke="white" stroke-width="1.0186" stroke-miterlimit="10" stroke-linecap="round" stroke-linejoin="round"/>
<path d="M22.4823 69.2385C23.5924 69.2385 24.4924 68.3385 24.4924 67.2284C24.4924 66.1182 23.5924 65.2183 22.4823 65.2183C21.3721 65.2183 20.4722 66.1182 20.4722 67.2284C20.4722 68.3385 21.3721 69.2385 22.4823 69.2385Z" stroke="white" stroke-width="1.0186" stroke-miterlimit="10" stroke-linecap="round" stroke-linejoin="round"/>
<path d="M52.9112 45.2005C51.8027 45.2005 50.9011 46.1022 50.9011 47.2107C50.9011 46.1022 49.9994 45.2005 48.8909 45.2005C49.9994 45.2005 50.9011 44.2989 50.9011 43.1904C50.9011 44.2989 51.7983 45.2005 52.9112 45.2005Z" stroke="white" stroke-width="1.0186" stroke-miterlimit="10" stroke-linecap="round" stroke-linejoin="round"/>
<path d="M8.27953 7.01292C9.38969 7.01292 10.2896 6.11295 10.2896 5.0028C10.2896 3.89264 9.38969 2.99268 8.27953 2.99268C7.16937 2.99268 6.26941 3.89264 6.26941 5.0028C6.26941 6.11295 7.16937 7.01292 8.27953 7.01292Z" stroke="white" stroke-width="1.0186" stroke-miterlimit="10" stroke-linecap="round" stroke-linejoin="round"/>
<path d="M8.70621 82.4515C7.59779 82.4515 6.69609 83.3532 6.69609 84.4616C6.69609 83.3532 5.7944 82.4515 4.68597 82.4515C5.7944 82.4515 6.69609 81.5498 6.69609 80.4414C6.69609 81.5498 7.59339 82.4515 8.70621 82.4515Z" stroke="white" stroke-width="1.0186" stroke-miterlimit="10" stroke-linecap="round" stroke-linejoin="round"/>
<path d="M13.0123 43.2783V49.9157" stroke="white" stroke-width="1.0186" stroke-miterlimit="10" stroke-linecap="round" stroke-linejoin="round"/>
<path d="M9.69586 46.5947H16.3288" stroke="white" stroke-width="1.0186" stroke-miterlimit="10" stroke-linecap="round" stroke-linejoin="round"/>
<path d="M11.1606 44.7432L14.8641 48.4467" stroke="white" stroke-width="1.0186" stroke-miterlimit="10" stroke-linecap="round" stroke-linejoin="round"/>
<path d="M11.1606 48.4467L14.8641 44.7432" stroke="white" stroke-width="1.0186" stroke-miterlimit="10" stroke-linecap="round" stroke-linejoin="round"/>
<path d="M55.4623 1V7.63734" stroke="white" stroke-width="1.0186" stroke-miterlimit="10" stroke-linecap="round" stroke-linejoin="round"/>
<path d="M52.1458 4.3208H58.7831" stroke="white" stroke-width="1.0186" stroke-miterlimit="10" stroke-linecap="round" stroke-linejoin="round"/>
<path d="M53.6105 2.46924L57.3141 6.17279" stroke="white" stroke-width="1.0186" stroke-miterlimit="10" stroke-linecap="round" stroke-linejoin="round"/>
<path d="M53.6105 6.17279L57.3141 2.46924" stroke="white" stroke-width="1.0186" stroke-miterlimit="10" stroke-linecap="round" stroke-linejoin="round"/>
<path d="M54.8905 79.21V85.8473" stroke="white" stroke-width="1.0186" stroke-miterlimit="10" stroke-linecap="round" stroke-linejoin="round"/>
<path d="M51.5696 82.5308H58.207" stroke="white" stroke-width="1.0186" stroke-miterlimit="10" stroke-linecap="round" stroke-linejoin="round"/>
<path d="M53.0388 80.6787L56.7423 84.3779" stroke="white" stroke-width="1.0186" stroke-miterlimit="10" stroke-linecap="round" stroke-linejoin="round"/>
<path d="M53.0388 84.3779L56.7423 80.6787" stroke="white" stroke-width="1.0186" stroke-miterlimit="10" stroke-linecap="round" stroke-linejoin="round"/>
<path d="M29.7135 15.2026C27.9057 17.0104 24.9719 17.0104 23.1597 15.2026C21.3519 13.3948 21.3519 10.461 23.1597 8.64881C24.9675 6.84102 27.9013 6.84102 29.7135 8.64881" stroke="#BF9D50" stroke-width="1.7825" stroke-miterlimit="10" stroke-linecap="round" stroke-linejoin="round"/>
<path d="M23.1597 15.2027C21.3519 13.3949 21.3519 10.4611 23.1597 8.64893" stroke="#BF9D50" stroke-width="1.7825" stroke-miterlimit="10" stroke-linecap="round" stroke-linejoin="round"/>
<path d="M29.7135 8.64893C30.7823 9.71776 30.7823 11.4552 29.7135 12.5284C28.6446 13.5972 26.9072 13.5972 25.834 12.5284" stroke="#BF9D50" stroke-width="1.7825" stroke-miterlimit="10" stroke-linecap="round" stroke-linejoin="round"/>
<path d="M30.514 10.3159C30.514 16.1263 35.2248 20.8371 41.0352 20.8371C46.8456 20.8371 51.5564 25.548 51.5564 31.3584" stroke="#BF9D50" stroke-width="1.7825" stroke-miterlimit="10" stroke-linecap="round" stroke-linejoin="round"/>
<path d="M51.5564 31.3584C51.5564 19.7375 42.1348 10.3159 30.514 10.3159" stroke="#BF9D50" stroke-width="1.7825" stroke-miterlimit="10" stroke-linecap="round" stroke-linejoin="round"/>
<path d="M26.3442 16.562H29.1725C32.2162 16.562 34.6838 19.0296 34.6838 22.0733C34.6838 25.1171 37.1514 27.5847 40.1951 27.5847C43.2389 27.5847 45.7064 30.0522 45.7064 33.096V34.5783" stroke="#BF9D50" stroke-width="1.7825" stroke-miterlimit="10" stroke-linecap="round" stroke-linejoin="round"/>
<path d="M40.2831 27.5889C41.1276 27.5889 41.8137 28.275 41.8137 29.1195C41.8137 29.9641 41.1276 30.6502 40.2831 30.6502C39.4386 30.6502 38.7524 29.9641 38.7524 29.1195" stroke="#BF9D50" stroke-width="1.7825" stroke-miterlimit="10" stroke-linecap="round" stroke-linejoin="round"/>
<path d="M40.2831 27.5889C41.1276 27.5889 41.8138 28.275 41.8138 29.1195C41.8138 29.9641 41.1276 30.6502 40.2831 30.6502" stroke="#BF9D50" stroke-width="1.7825" stroke-miterlimit="10" stroke-linecap="round" stroke-linejoin="round"/>
<path d="M34.7365 22.9705C34.7365 23.7094 34.134 24.312 33.395 24.312C32.6561 24.312 32.0535 23.7094 32.0535 22.9705C32.0535 22.2315 32.6561 21.6289 33.395 21.6289" stroke="#BF9D50" stroke-width="1.7825" stroke-miterlimit="10" stroke-linecap="round" stroke-linejoin="round"/>
<path d="M34.7365 22.9707C34.7365 23.7097 34.134 24.3122 33.395 24.3122C32.6561 24.3122 32.0535 23.7097 32.0535 22.9707" stroke="#BF9D50" stroke-width="1.7825" stroke-miterlimit="10" stroke-linecap="round" stroke-linejoin="round"/>
<path d="M49.256 30.646C51.2134 30.646 52.7968 32.2339 52.7968 34.1868C52.7968 36.1397 51.209 37.7276 49.256 37.7276C47.3031 37.7276 45.7152 36.1397 45.7152 34.1868" stroke="#BF9D50" stroke-width="1.7825" stroke-miterlimit="10" stroke-linecap="round" stroke-linejoin="round"/>
<path d="M26.9292 16.6543V17.5032C26.9292 18.6556 26.6697 19.7904 26.1639 20.8241C25.8912 21.3871 26.3002 22.0469 26.9292 22.0469" stroke="#BF9D50" stroke-width="1.7825" stroke-miterlimit="10" stroke-linecap="round" stroke-linejoin="round"/>
<path d="M27.6769 22.8208C27.6769 23.8061 28.4775 24.6066 29.4627 24.6066H29.7267" stroke="#BF9D50" stroke-width="1.7825" stroke-miterlimit="10" stroke-linecap="round" stroke-linejoin="round"/>
<path d="M26.9292 22.0469C27.3427 22.0469 27.677 22.3812 27.677 22.7946" stroke="#BF9D50" stroke-width="1.7825" stroke-miterlimit="10" stroke-linecap="round" stroke-linejoin="round"/>
<path d="M29.7882 24.6069C30.7383 24.6069 31.508 25.3767 31.508 26.3268" stroke="#BF9D50" stroke-width="1.7825" stroke-miterlimit="10" stroke-linecap="round" stroke-linejoin="round"/>
<path d="M33.6765 26.3398C33.0783 26.938 32.1063 26.938 31.5081 26.3398" stroke="#BF9D50" stroke-width="1.7825" stroke-miterlimit="10" stroke-linecap="round" stroke-linejoin="round"/>
<path d="M8.99652 23.1729C10.7471 23.1729 12.1634 24.5892 12.1634 26.3398C10.4128 26.3398 8.99652 24.9235 8.99652 23.1729Z" stroke="#BF9D50" stroke-width="1.7825" stroke-miterlimit="10" stroke-linecap="round" stroke-linejoin="round"/>
<path d="M10.3336 28.9875C11.5696 27.7516 13.5753 27.7516 14.8113 28.9875C13.5753 30.2235 11.5696 30.2235 10.3336 28.9875Z" stroke="#BF9D50" stroke-width="1.7825" stroke-miterlimit="10" stroke-linecap="round" stroke-linejoin="round"/>
<path d="M14.8113 24.5098C13.5753 25.7457 13.5753 27.7515 14.8113 28.9874C16.0473 27.7515 16.0473 25.7457 14.8113 24.5098Z" stroke="#BF9D50" stroke-width="1.7825" stroke-miterlimit="10" stroke-linecap="round" stroke-linejoin="round"/>
<path d="M13.2059 31.8601C14.4419 30.6241 16.4476 30.6241 17.6836 31.8601C16.4476 33.1005 14.4419 33.1005 13.2059 31.8601Z" stroke="#BF9D50" stroke-width="1.7825" stroke-miterlimit="10" stroke-linecap="round" stroke-linejoin="round"/>
<path d="M17.6879 27.3823C16.4519 28.6183 16.4519 30.624 17.6879 31.86C18.9239 30.624 18.9239 28.6183 17.6879 27.3823Z" stroke="#BF9D50" stroke-width="1.7825" stroke-miterlimit="10" stroke-linecap="round" stroke-linejoin="round"/>
<path d="M12.1634 26.3398L26.0979 40.2699" stroke="#BF9D50" stroke-width="1.7825" stroke-miterlimit="10" stroke-linecap="round" stroke-linejoin="round"/>
<path d="M4.45288 34.2922C5.68886 33.0562 7.69458 33.0562 8.93056 34.2922C7.69897 35.5282 5.69326 35.5282 4.45288 34.2922Z" stroke="#BF9D50" stroke-width="1.7825" stroke-miterlimit="10" stroke-linecap="round" stroke-linejoin="round"/>
<path d="M9.51111 37.4594C9.51111 35.7088 10.9274 34.2925 12.678 34.2925C12.678 36.0431 11.2617 37.4594 9.51111 37.4594Z" stroke="#BF9D50" stroke-width="1.7825" stroke-miterlimit="10" stroke-linecap="round" stroke-linejoin="round"/>
<path d="M9.51111 31.1255C9.51111 32.8761 10.9274 34.2924 12.678 34.2924C12.678 32.5418 11.2617 31.1255 9.51111 31.1255Z" stroke="#BF9D50" stroke-width="1.7825" stroke-miterlimit="10" stroke-linecap="round" stroke-linejoin="round"/>
<path d="M8.93494 34.2925H20.1159" stroke="#BF9D50" stroke-width="1.7825" stroke-miterlimit="10" stroke-linecap="round" stroke-linejoin="round"/>
<path d="M20.1159 18.6294C18.88 19.8654 18.88 21.8711 20.1159 23.1071C21.3519 21.8711 21.3519 19.8698 20.1159 18.6294Z" stroke="#BF9D50" stroke-width="1.7825" stroke-miterlimit="10" stroke-linecap="round" stroke-linejoin="round"/>
<path d="M23.2828 23.6875C21.5322 23.6875 20.1159 25.1038 20.1159 26.8544C21.8665 26.8544 23.2828 25.4381 23.2828 23.6875Z" stroke="#BF9D50" stroke-width="1.7825" stroke-miterlimit="10" stroke-linecap="round" stroke-linejoin="round"/>
<path d="M16.949 23.6875C18.6996 23.6875 20.1159 25.1038 20.1159 26.8544C18.3697 26.8544 16.949 25.4381 16.949 23.6875Z" stroke="#BF9D50" stroke-width="1.7825" stroke-miterlimit="10" stroke-linecap="round" stroke-linejoin="round"/>
<path d="M20.1159 23.1113V34.2923" stroke="#BF9D50" stroke-width="1.7825" stroke-miterlimit="10" stroke-linecap="round" stroke-linejoin="round"/>
<path d="M57.3185 90.7381C40.9693 90.7381 27.7122 77.7669 27.7122 61.7651" stroke="#BF9D50" stroke-width="1.7825" stroke-miterlimit="10" stroke-linecap="round" stroke-linejoin="round"/>
<path d="M27.7121 67.2285C27.7121 81.9811 15.7526 93.9406 1 93.9406" stroke="#BF9D50" stroke-width="1.7825" stroke-miterlimit="10" stroke-linecap="round" stroke-linejoin="round"/>
<path d="M45.7152 58.0444C45.7152 66.5599 38.814 73.4612 30.2985 73.4612" stroke="#BF9D50" stroke-width="1.0186" stroke-miterlimit="10" stroke-linecap="round" stroke-linejoin="round"/>
<path d="M27.7078 30.171C27.7078 28.0421 29.4364 26.3135 31.5653 26.3135" stroke="#BF9D50" stroke-width="1.7825" stroke-miterlimit="10" stroke-linecap="round" stroke-linejoin="round"/>
<path d="M45.315 48.803C35.5899 48.803 27.7078 40.9209 27.7078 31.1958" stroke="#BF9D50" stroke-width="1.0186" stroke-miterlimit="10" stroke-linecap="round" stroke-linejoin="round"/>
<path d="M45.7152 33.417V82.2756" stroke="#BF9D50" stroke-width="1.7825" stroke-miterlimit="10" stroke-linecap="round" stroke-linejoin="round"/>
<path d="M27.7078 67.2283V30.2104" stroke="#BF9D50" stroke-width="1.7825" stroke-miterlimit="10" stroke-linecap="round" stroke-linejoin="round"/>
<path d="M1 93.9319L4.19332 90.7385C7.62855 87.3033 13.2015 87.3033 16.6367 90.7385C20.0719 94.1738 25.6448 94.1738 29.0801 90.7385C32.5153 87.3033 38.0882 87.3033 41.5234 90.7385L43.1993 92.4144" stroke="#BF9D50" stroke-width="1.7825" stroke-miterlimit="10" stroke-linecap="round" stroke-linejoin="round"/>
<path d="M43.1993 92.4141C46.6345 95.8493 52.2074 95.8493 55.6426 92.4141L57.3185 90.7383" stroke="#BF9D50" stroke-width="1.7825" stroke-miterlimit="10" stroke-linecap="round" stroke-linejoin="round"/>
<path d="M51.2617 90.1135C48.0332 88.9743 45.7152 85.8954 45.7152 82.2754" stroke="#BF9D50" stroke-width="1.7825" stroke-miterlimit="10" stroke-linecap="round" stroke-linejoin="round"/>
<path d="M27.7077 37.6616H24.9586C24.3736 37.6616 23.8986 38.1367 23.8986 38.7217V39.2143C23.8986 39.7993 24.3736 40.2743 24.9586 40.2743H25.4513H26.0803" stroke="#BF9D50" stroke-width="1.7825" stroke-miterlimit="10" stroke-linecap="round" stroke-linejoin="round"/>
<path d="M27.6901 41.5764H25.2974C25.0071 41.5764 24.7695 41.3389 24.7695 41.0486V40.8022C24.7695 40.5119 25.0071 40.2744 25.2974 40.2744" stroke="#BF9D50" stroke-width="1.7825" stroke-miterlimit="10" stroke-linecap="round" stroke-linejoin="round"/>
<path d="M33.6765 5.75915C36.4337 5.75915 38.6688 5.30623 38.6688 4.7475C38.6688 4.18878 36.4337 3.73584 33.6765 3.73584C30.9194 3.73584 28.6842 4.18878 28.6842 4.7475C28.6842 5.30623 30.9194 5.75915 33.6765 5.75915Z" stroke="#BF9D50" stroke-width="1.0186" stroke-miterlimit="10" stroke-linecap="round" stroke-linejoin="round"/>
<path d="M62.5075 60.9699C63.0161 57.8358 60.8878 54.8829 57.7537 54.3742C54.6197 53.8656 51.6667 55.9938 51.1581 59.1279C50.6495 62.2619 52.7778 65.2149 55.9119 65.7235C59.0459 66.2322 61.9989 64.1039 62.5075 60.9699Z" stroke="#BF9D50" stroke-width="1.0186" stroke-miterlimit="10" stroke-linecap="round" stroke-linejoin="round"/>
<path d="M58.2678 68.1264C60.18 67.3343 61.0881 65.1421 60.296 63.2299C59.5039 61.3177 57.3116 60.4097 55.3994 61.2017C53.4872 61.9938 52.5792 64.186 53.3713 66.0982C54.1634 68.0104 56.3556 68.9185 58.2678 68.1264Z" stroke="#BF9D50" stroke-width="1.0186" stroke-miterlimit="10" stroke-linecap="round" stroke-linejoin="round"/>
<path d="M56.8214 55.5941C57.5332 55.5941 58.1102 55.0171 58.1102 54.3054C58.1102 53.5936 57.5332 53.0166 56.8214 53.0166C56.1097 53.0166 55.5327 53.5936 55.5327 54.3054C55.5327 55.0171 56.1097 55.5941 56.8214 55.5941Z" stroke="#BF9D50" stroke-width="1.0186" stroke-miterlimit="10" stroke-linecap="round" stroke-linejoin="round"/>
<path d="M56.8214 48.6401V51.5432" stroke="#BF9D50" stroke-width="1.0186" stroke-miterlimit="10" stroke-linecap="round" stroke-linejoin="round"/>
<path d="M56.8214 69.8496V72.7526" stroke="#BF9D50" stroke-width="1.0186" stroke-miterlimit="10" stroke-linecap="round" stroke-linejoin="round"/>
</svg>
