<svg width="109" height="102" viewBox="0 0 109 102" fill="none" xmlns="http://www.w3.org/2000/svg">
<path d="M96.8239 99.5122L8.88416 11.5771" stroke="#BF9D50" stroke-width="1.0186" stroke-miterlimit="10" stroke-linecap="round" stroke-linejoin="round"/>
<path d="M90.6593 58.3393C87.2109 56.0543 82.7196 54.2188 76.9212 52.7959" stroke="#BF9D50" stroke-width="1.0186" stroke-miterlimit="10" stroke-linecap="round" stroke-linejoin="round"/>
<path d="M101.056 83.6371C101.171 76.2397 100.305 70.2003 97.4542 65.3613" stroke="#BF9D50" stroke-width="1.0186" stroke-miterlimit="10" stroke-linecap="round" stroke-linejoin="round"/>
<path d="M100.819 98.0383C100.235 96.7729 100.314 95.3361 100.434 93.9873C100.462 93.6675 100.49 93.3523 100.518 93.0371" stroke="#BF9D50" stroke-width="1.0186" stroke-miterlimit="10" stroke-linecap="round" stroke-linejoin="round"/>
<path d="M90.0197 60.6942C89.8389 60.5551 89.6535 60.4207 89.4681 60.2863L89.2503 60.1241L89.0232 59.9711L88.5736 59.6606L88.1101 59.3639L87.8783 59.2156L87.6419 59.0719C86.3859 58.3025 85.0649 57.5934 83.6883 56.9584C82.3163 56.3141 80.898 55.7301 79.4565 55.1831C77.1483 54.3071 74.7752 53.5377 72.365 52.8008" stroke="#BF9D50" stroke-width="1.7825" stroke-miterlimit="10" stroke-linecap="round" stroke-linejoin="round"/>
<path d="M98.8493 85.1806C98.8354 83.8365 98.803 82.5062 98.7381 81.1806C98.6593 79.6557 98.5434 78.1447 98.3534 76.6661C98.3071 76.2953 98.2514 75.9292 98.2004 75.5584L98.1124 75.0114C98.0846 74.8307 98.0521 74.6453 98.0151 74.4692C97.8853 73.7461 97.7277 73.0323 97.5516 72.3278C97.3754 71.6233 97.1668 70.9373 96.9397 70.2652C96.7126 69.5885 96.4484 68.935 96.1564 68.2953C96.0127 67.9755 95.8551 67.665 95.7021 67.3498C95.5353 67.0439 95.3731 66.7333 95.1923 66.4367C94.9837 66.0891 94.7705 65.7414 94.5434 65.4077" stroke="#BF9D50" stroke-width="1.7825" stroke-miterlimit="10" stroke-linecap="round" stroke-linejoin="round"/>
<path d="M102.386 91.6978L102.353 91.9341L102.177 93.1161L101.992 94.2933C101.932 94.6688 101.876 95.0257 101.839 95.3733C101.802 95.7163 101.783 96.0454 101.788 96.3559C101.793 96.6665 101.82 96.9585 101.881 97.2319C101.899 97.3015 101.908 97.371 101.932 97.4359L101.959 97.5378L101.997 97.6259C102.02 97.6862 102.038 97.7464 102.066 97.8067C102.094 97.8623 102.126 97.9179 102.154 97.9735C102.279 98.1867 102.423 98.3953 102.618 98.5483C102.812 98.7059 103.035 98.831 103.29 98.9144C103.545 98.9932 103.827 99.0257 104.115 99.0118C104.407 99.0025 104.703 98.9191 104.991 98.7939C105.06 98.7615 105.139 98.7337 105.209 98.6966L105.417 98.5761C105.556 98.4926 105.691 98.3907 105.816 98.2841C106.066 98.0662 106.279 97.8113 106.437 97.5239C106.516 97.3803 106.58 97.2319 106.618 97.0743C106.636 96.9955 106.655 96.9168 106.664 96.8333C106.673 96.7916 106.673 96.7545 106.673 96.7128C106.678 96.6711 106.678 96.634 106.673 96.5923C106.669 96.4301 106.636 96.2632 106.581 96.0964C106.52 95.9341 106.437 95.7765 106.33 95.6282C106.117 95.3409 105.793 95.1091 105.394 95.0488C105.593 95.0118 105.802 95.0257 106.006 95.0813C106.21 95.1369 106.404 95.2389 106.581 95.3687C106.937 95.6282 107.206 96.0083 107.35 96.4579C107.368 96.5135 107.387 96.5691 107.396 96.6294C107.41 96.6896 107.424 96.7499 107.429 96.8055C107.447 96.9214 107.452 97.0373 107.452 97.1578C107.452 97.3941 107.419 97.6305 107.364 97.8577C107.253 98.3165 107.039 98.7383 106.771 99.1184C106.636 99.3084 106.488 99.4892 106.321 99.6514L106.066 99.8971C105.978 99.9759 105.881 100.045 105.788 100.12C105.399 100.402 104.958 100.639 104.476 100.773C104.356 100.815 104.235 100.838 104.11 100.866C103.985 100.889 103.86 100.917 103.73 100.926C103.6 100.935 103.47 100.949 103.341 100.954C103.211 100.949 103.081 100.945 102.947 100.935C102.423 100.884 101.899 100.731 101.412 100.481C101.297 100.416 101.176 100.347 101.06 100.272C100.949 100.198 100.842 100.11 100.731 100.031C100.62 99.9527 100.523 99.8554 100.425 99.758C100.328 99.6607 100.226 99.568 100.147 99.4614C100.064 99.3548 99.9756 99.2482 99.8922 99.1416C99.818 99.0303 99.7485 98.9191 99.6744 98.8032L99.5678 98.6317L99.4797 98.4602C99.4194 98.3443 99.3684 98.2284 99.3175 98.1126C99.1182 97.6398 98.9884 97.1531 98.9003 96.6804C98.8169 96.2076 98.7752 95.7441 98.7566 95.2945C98.7381 94.8496 98.7427 94.4185 98.752 94.006L98.7751 92.8194L98.7937 91.7024" stroke="#BF9D50" stroke-width="1.7825" stroke-miterlimit="10" stroke-linecap="round" stroke-linejoin="round"/>
<path d="M97.9779 61.9688C98.4692 62.5945 98.9235 63.248 99.3407 63.9201C99.577 64.2955 99.7902 64.6802 100.008 65.0649C100.212 65.4543 100.421 65.8436 100.597 66.2468C101.343 67.8366 101.89 69.496 102.293 71.16C102.692 72.8239 102.947 74.4971 103.095 76.1565C103.243 77.8158 103.294 79.4659 103.276 81.102C103.276 81.5099 103.257 81.9178 103.253 82.3256C103.239 82.7335 103.22 83.1368 103.202 83.5446C103.174 84.0916 103.141 84.6385 103.1 85.1854" stroke="#BF9D50" stroke-width="1.7825" stroke-miterlimit="10" stroke-linecap="round" stroke-linejoin="round"/>
<path d="M73.8667 51.1226C74.4368 51.1828 75.0069 51.2477 75.577 51.3219C77.1715 51.5304 78.7659 51.8039 80.3511 52.1515C83.5214 52.8514 86.6825 53.8386 89.6999 55.3636L89.9826 55.5026L90.2607 55.6509L90.8215 55.9522L91.3731 56.272L91.6512 56.4342L91.9247 56.6057C92.1054 56.7216 92.2862 56.8328 92.4669 56.9487L93 57.3103C93.0788 57.3612 93.1529 57.4169 93.2317 57.4725" stroke="#BF9D50" stroke-width="1.7825" stroke-miterlimit="10" stroke-linecap="round" stroke-linejoin="round"/>
<path d="M105.394 96.6896C104.94 96.6896 104.574 96.3235 104.574 95.8692C104.574 95.415 104.94 95.0488 105.394 95.0488" stroke="#BF9D50" stroke-width="1.7825" stroke-miterlimit="10" stroke-linecap="round" stroke-linejoin="round"/>
<path d="M95.7843 58.0888L91.0941 62.7786L92.5461 64.2305L97.2363 59.5407L95.7843 58.0888Z" stroke="#BF9D50" stroke-width="1.7825" stroke-miterlimit="10" stroke-linecap="round" stroke-linejoin="round"/>
<path d="M98.8216 61.1207C98.3859 60.685 97.6767 60.685 97.241 61.1207L94.131 64.2308C93.6953 64.6665 93.6953 65.3757 94.131 65.8114L98.8216 61.1207Z" stroke="#BF9D50" stroke-width="1.7825" stroke-miterlimit="10" stroke-linecap="round" stroke-linejoin="round"/>
<path d="M96.3553 60.4189L93.3469 63.4278L94.1367 64.2177L97.1451 61.2088L96.3553 60.4189Z" stroke="#BF9D50" stroke-width="1.7825" stroke-miterlimit="10" stroke-linecap="round" stroke-linejoin="round"/>
<path d="M94.205 56.5039C94.6407 56.9396 94.6407 57.6487 94.205 58.0844L91.095 61.1945C90.6593 61.6302 89.9501 61.6302 89.5144 61.1945L94.205 56.5039Z" stroke="#BF9D50" stroke-width="1.7825" stroke-miterlimit="10" stroke-linecap="round" stroke-linejoin="round"/>
<path d="M94.1115 58.1778L91.1028 61.1863L91.8927 61.9761L94.9014 58.9676L94.1115 58.1778Z" stroke="#BF9D50" stroke-width="1.7825" stroke-miterlimit="10" stroke-linecap="round" stroke-linejoin="round"/>
<path d="M104.142 87.4194H97.5098V89.4727H104.142V87.4194Z" stroke="#BF9D50" stroke-width="1.7825" stroke-miterlimit="10" stroke-linecap="round" stroke-linejoin="round"/>
<path d="M104.143 91.7069C104.143 91.0904 103.642 90.5898 103.025 90.5898H98.6269C98.0104 90.5898 97.5098 91.0904 97.5098 91.7069H104.143Z" stroke="#BF9D50" stroke-width="1.7825" stroke-miterlimit="10" stroke-linecap="round" stroke-linejoin="round"/>
<path d="M102.9 89.4683H98.6454V90.5853H102.9V89.4683Z" stroke="#BF9D50" stroke-width="1.7825" stroke-miterlimit="10" stroke-linecap="round" stroke-linejoin="round"/>
<path d="M104.143 85.1807C104.143 85.7971 103.642 86.2977 103.025 86.2977H98.6268C98.0104 86.2977 97.5098 85.7971 97.5098 85.1807H104.143Z" stroke="#BF9D50" stroke-width="1.7825" stroke-miterlimit="10" stroke-linecap="round" stroke-linejoin="round"/>
<path d="M102.9 86.2979H98.6454V87.4149H102.9V86.2979Z" stroke="#BF9D50" stroke-width="1.7825" stroke-miterlimit="10" stroke-linecap="round" stroke-linejoin="round"/>
<path d="M70.7937 50.8214C67.1321 54.483 71.197 58.1215 71.197 58.1215C69.7601 54.4738 73.482 51.4842 73.482 51.4842C73.5979 51.3683 73.6999 51.2432 73.7926 51.1134C74.5388 50.0474 74.4368 48.5688 73.482 47.614C73.343 47.4749 73.1947 47.359 73.0417 47.2524" stroke="#BF9D50" stroke-width="1.7825" stroke-miterlimit="10" stroke-linecap="round" stroke-linejoin="round"/>
<path d="M70.8262 49.4819C71.1877 49.8435 71.1877 50.4275 70.8262 50.789" stroke="#BF9D50" stroke-width="1.7825" stroke-miterlimit="10" stroke-linecap="round" stroke-linejoin="round"/>
<path d="M74.4183 54.9004C75.3082 55.7903 75.3082 57.2318 74.4183 58.1264C73.5284 59.0163 72.0869 59.0163 71.1924 58.1264" stroke="#BF9D50" stroke-width="1.7825" stroke-miterlimit="10" stroke-linecap="round" stroke-linejoin="round"/>
<path d="M72.657 47.642L75.5539 44.7451C76.7219 45.9131 76.7219 47.8088 75.5539 48.9815L74.1587 50.3766" stroke="#BF9D50" stroke-width="1.7825" stroke-miterlimit="10" stroke-linecap="round" stroke-linejoin="round"/>
<path d="M99.8505 99.2665C98.4276 98.9188 96.7497 99.6929 96.263 100.921L96.2491 100.907C96.2677 99.1691 97.4218 97.7044 98.9977 97.2178" stroke="#BF9D50" stroke-width="1.7825" stroke-miterlimit="10" stroke-linecap="round" stroke-linejoin="round"/>
<path d="M96.3974 97.9824L98.3302 99.9152" stroke="#BF9D50" stroke-width="1.0186" stroke-miterlimit="10" stroke-linecap="round" stroke-linejoin="round"/>
<path d="M95.3128 99.0625L97.2503 101" stroke="#BF9D50" stroke-width="1.0186" stroke-miterlimit="10" stroke-linecap="round" stroke-linejoin="round"/>
<path d="M95.8551 98.5249L97.7879 100.458" stroke="#BF9D50" stroke-width="1.0186" stroke-miterlimit="10" stroke-linecap="round" stroke-linejoin="round"/>
<path d="M50.1124 17.7881C52.3975 21.2365 54.2329 25.7278 55.6559 31.5262" stroke="#BF9D50" stroke-width="1.0186" stroke-miterlimit="10" stroke-linecap="round" stroke-linejoin="round"/>
<path d="M24.8099 7.39189C32.2074 7.27601 38.2468 8.14277 43.0857 10.9933" stroke="#BF9D50" stroke-width="1.0186" stroke-miterlimit="10" stroke-linecap="round" stroke-linejoin="round"/>
<path d="M10.4137 7.63281C11.679 8.21682 13.1159 8.13803 14.4647 8.01752C14.7845 7.98971 15.0997 7.96188 15.4148 7.93407" stroke="#BF9D50" stroke-width="1.0186" stroke-miterlimit="10" stroke-linecap="round" stroke-linejoin="round"/>
<path d="M47.7532 18.4321C47.8923 18.6129 48.0267 18.7983 48.1611 18.9837L48.3233 19.2015L48.4763 19.4287L48.7868 19.8782L49.0834 20.3417L49.2318 20.5735L49.3755 20.8099C50.1449 22.066 50.854 23.3869 51.489 24.7635C52.1333 26.1355 52.7173 27.5538 53.2642 28.9953C54.1402 31.3035 54.9096 33.6766 55.6466 36.0868" stroke="#BF9D50" stroke-width="1.7825" stroke-miterlimit="10" stroke-linecap="round" stroke-linejoin="round"/>
<path d="M23.2711 9.59814C24.6153 9.61205 25.9455 9.64449 27.2711 9.70938C28.796 9.78817 30.307 9.90406 31.7856 10.0941C32.1564 10.1404 32.5226 10.1961 32.8934 10.2471L33.4403 10.3351C33.6211 10.3629 33.8065 10.3954 33.9826 10.4324C34.7057 10.5622 35.4195 10.7198 36.124 10.8959C36.8285 11.0721 37.5145 11.2806 38.1865 11.5078C38.8632 11.7349 39.5168 11.9991 40.1564 12.2911C40.4762 12.4348 40.7868 12.5923 41.102 12.7453C41.4079 12.9122 41.7184 13.0744 42.015 13.2552C42.3627 13.4637 42.7103 13.6769 43.044 13.904" stroke="#BF9D50" stroke-width="1.7825" stroke-miterlimit="10" stroke-linecap="round" stroke-linejoin="round"/>
<path d="M16.7497 6.06605L16.5134 6.09849L15.3314 6.27463L14.1541 6.46001C13.7787 6.52026 13.4218 6.57589 13.0742 6.61297C12.7312 6.65005 12.4021 6.66858 12.0916 6.66395C11.781 6.65931 11.489 6.6315 11.2155 6.57124C11.146 6.5527 11.0765 6.54344 11.0116 6.52027L10.9096 6.49246L10.8216 6.45537C10.7613 6.43219 10.7011 6.41367 10.6408 6.38586C10.5852 6.35805 10.5296 6.32561 10.474 6.2978C10.2607 6.17265 10.0522 6.02897 9.89922 5.8343C9.74163 5.63963 9.61649 5.41714 9.53306 5.16222C9.45427 4.90729 9.42181 4.62457 9.43572 4.3372C9.44499 4.0452 9.5284 3.74855 9.65355 3.46118C9.68599 3.39166 9.71381 3.31285 9.75089 3.24332L9.87141 3.03477C9.95484 2.89572 10.0568 2.76128 10.1634 2.63614C10.3813 2.38585 10.6362 2.17265 10.9236 2.01506C11.0672 1.93627 11.2156 1.87137 11.3731 1.83429C11.4519 1.81575 11.5307 1.79722 11.6142 1.78795C11.6559 1.77868 11.693 1.77868 11.7347 1.77868C11.7764 1.77404 11.8135 1.77404 11.8552 1.77868C12.0174 1.78331 12.1843 1.81576 12.3511 1.87138C12.5133 1.93164 12.6709 2.01506 12.8193 2.12166C13.1066 2.33487 13.3384 2.65933 13.3986 3.05794C13.4357 2.85863 13.4218 2.65006 13.3662 2.44612C13.3106 2.24218 13.2086 2.04751 13.0788 1.87138C12.8193 1.51912 12.4392 1.24564 11.9896 1.10196C11.934 1.08342 11.8784 1.06489 11.8181 1.05562C11.7579 1.04171 11.6976 1.0278 11.642 1.02317C11.5261 1.00463 11.4102 1 11.2897 1C11.0533 1 10.8169 1.03245 10.5898 1.08807C10.131 1.19931 9.70919 1.4125 9.32912 1.68133C9.13909 1.81575 8.95831 1.96408 8.79608 2.13094L8.55042 2.38586C8.47162 2.47392 8.40211 2.57125 8.32795 2.66395C8.04521 3.05329 7.80884 3.49362 7.67442 3.97566C7.63271 4.09617 7.60953 4.21667 7.58172 4.34181C7.55854 4.46696 7.53073 4.59211 7.52146 4.72189C7.51219 4.85167 7.49829 4.98146 7.49365 5.11124C7.49829 5.24102 7.50291 5.37079 7.51218 5.5052C7.56317 6.02896 7.71614 6.55271 7.96643 7.03938C8.03132 7.15526 8.10082 7.27577 8.17498 7.39165C8.24914 7.50289 8.33722 7.6095 8.41601 7.72074C8.49481 7.83198 8.59215 7.9293 8.68949 8.02664C8.78682 8.12397 8.8795 8.22596 8.98611 8.30476C9.09271 8.38819 9.19932 8.47624 9.30592 8.55967C9.41716 8.63383 9.52842 8.70335 9.6443 8.77751L9.81579 8.88413L9.98728 8.9722C10.1032 9.03245 10.219 9.08342 10.3349 9.13441C10.8077 9.33371 11.2943 9.46351 11.7671 9.55157C12.2399 9.635 12.7034 9.67671 13.153 9.69525C13.5979 9.71379 14.029 9.70913 14.4415 9.69987L15.6281 9.6767L16.7451 9.65817" stroke="#BF9D50" stroke-width="1.7825" stroke-miterlimit="10" stroke-linecap="round" stroke-linejoin="round"/>
<path d="M46.4832 10.4738C45.8575 9.98249 45.2039 9.52826 44.5318 9.11111C44.1564 8.87473 43.7717 8.66152 43.387 8.44367C42.9977 8.23973 42.6083 8.03115 42.2051 7.85502C40.6153 7.10879 38.9559 6.56187 37.292 6.15863C35.628 5.76002 33.9548 5.50507 32.2955 5.35675C30.6361 5.20843 28.9861 5.15747 27.3499 5.17601C26.942 5.17601 26.5342 5.19454 26.1263 5.19918C25.7184 5.21308 25.3152 5.23162 24.9073 5.25016C24.3604 5.27797 23.8134 5.31043 23.2665 5.35214" stroke="#BF9D50" stroke-width="1.7825" stroke-miterlimit="10" stroke-linecap="round" stroke-linejoin="round"/>
<path d="M57.3245 34.5804C57.2642 34.0102 57.1993 33.4401 57.1252 32.87C56.9166 31.2756 56.6431 29.6811 56.2955 28.096C55.5956 24.9256 54.6083 21.7646 53.0834 18.7472L52.9444 18.4645L52.7961 18.1864L52.4948 17.6255L52.175 17.074L52.0128 16.7959L51.8413 16.5224C51.7254 16.3416 51.6141 16.1609 51.4983 15.9801L51.1367 15.4471C51.0857 15.3683 51.0301 15.2941 50.9745 15.2153" stroke="#BF9D50" stroke-width="1.7825" stroke-miterlimit="10" stroke-linecap="round" stroke-linejoin="round"/>
<path d="M11.7578 3.05322C11.7578 3.50745 12.124 3.87363 12.5782 3.87363C13.0324 3.87363 13.3986 3.50745 13.3986 3.05322" stroke="#BF9D50" stroke-width="1.7825" stroke-miterlimit="10" stroke-linecap="round" stroke-linejoin="round"/>
<path d="M48.9033 11.2129L44.2135 15.903L45.6654 17.355L50.3552 12.6648L48.9033 11.2129Z" stroke="#BF9D50" stroke-width="1.7825" stroke-miterlimit="10" stroke-linecap="round" stroke-linejoin="round"/>
<path d="M47.3268 9.62549C47.7625 10.0612 47.7625 10.7703 47.3268 11.206L44.2167 14.3161C43.781 14.7518 43.0719 14.7518 42.6362 14.3161L47.3268 9.62549Z" stroke="#BF9D50" stroke-width="1.7825" stroke-miterlimit="10" stroke-linecap="round" stroke-linejoin="round"/>
<path d="M47.2342 11.2984L44.2254 14.3069L45.0153 15.0967L48.0241 12.0882L47.2342 11.2984Z" stroke="#BF9D50" stroke-width="1.7825" stroke-miterlimit="10" stroke-linecap="round" stroke-linejoin="round"/>
<path d="M51.9432 14.2423C51.5075 13.8066 50.7984 13.8066 50.3627 14.2423L47.2526 17.3524C46.8169 17.788 46.8169 18.4972 47.2526 18.9329L51.9432 14.2423Z" stroke="#BF9D50" stroke-width="1.7825" stroke-miterlimit="10" stroke-linecap="round" stroke-linejoin="round"/>
<path d="M49.4746 13.543L46.4662 16.5519L47.256 17.3418L50.2644 14.3329L49.4746 13.543Z" stroke="#BF9D50" stroke-width="1.7825" stroke-miterlimit="10" stroke-linecap="round" stroke-linejoin="round"/>
<path d="M18.9785 4.30528V10.938H21.0318V4.30528H18.9785Z" stroke="#BF9D50" stroke-width="1.7825" stroke-miterlimit="10" stroke-linecap="round" stroke-linejoin="round"/>
<path d="M16.7405 4.30469C17.3569 4.30469 17.8575 4.80525 17.8575 5.42171V9.82031C17.8575 10.4368 17.3569 10.9374 16.7405 10.9374V4.30469Z" stroke="#BF9D50" stroke-width="1.7825" stroke-miterlimit="10" stroke-linecap="round" stroke-linejoin="round"/>
<path d="M17.8617 5.55221V9.80713H18.9787V5.55221H17.8617Z" stroke="#BF9D50" stroke-width="1.7825" stroke-miterlimit="10" stroke-linecap="round" stroke-linejoin="round"/>
<path d="M23.2711 4.30469C22.6547 4.30469 22.1541 4.80525 22.1541 5.42171V9.82031C22.1541 10.4368 22.6547 10.9374 23.2711 10.9374V4.30469Z" stroke="#BF9D50" stroke-width="1.7825" stroke-miterlimit="10" stroke-linecap="round" stroke-linejoin="round"/>
<path d="M21.0316 5.55172V9.80664H22.1486V5.55172H21.0316Z" stroke="#BF9D50" stroke-width="1.7825" stroke-miterlimit="10" stroke-linecap="round" stroke-linejoin="round"/>
<path d="M57.6257 37.6535C53.9641 41.3151 50.3256 37.2502 50.3256 37.2502C53.9733 38.687 56.9629 34.9651 56.9629 34.9651C57.0788 34.8493 57.2039 34.7473 57.3337 34.6546C58.3997 33.9084 59.8783 34.0103 60.8331 34.9651C60.9722 35.1042 61.0881 35.2525 61.1947 35.4055" stroke="#BF9D50" stroke-width="1.7825" stroke-miterlimit="10" stroke-linecap="round" stroke-linejoin="round"/>
<path d="M58.9652 37.6256C58.6037 37.2641 58.0197 37.2641 57.6581 37.6256" stroke="#BF9D50" stroke-width="1.7825" stroke-miterlimit="10" stroke-linecap="round" stroke-linejoin="round"/>
<path d="M53.5469 34.0288C52.657 33.1388 51.2156 33.1388 50.321 34.0288C49.4311 34.9187 49.4311 36.3602 50.321 37.2547" stroke="#BF9D50" stroke-width="1.7825" stroke-miterlimit="10" stroke-linecap="round" stroke-linejoin="round"/>
<path d="M60.8054 35.7949L63.7022 32.898C62.5342 31.73 60.6385 31.73 59.4658 32.898L58.0707 34.2931" stroke="#BF9D50" stroke-width="1.7825" stroke-miterlimit="10" stroke-linecap="round" stroke-linejoin="round"/>
<path d="M9.18546 8.59668C9.53308 10.0196 8.75904 11.6975 7.53076 12.1842L7.54465 12.1981C9.28277 12.1795 10.7474 11.0254 11.2341 9.4495" stroke="#BF9D50" stroke-width="1.7825" stroke-miterlimit="10" stroke-linecap="round" stroke-linejoin="round"/>
<path d="M10.4646 12.0546L8.53186 10.1172" stroke="#BF9D50" stroke-width="1.0186" stroke-miterlimit="10" stroke-linecap="round" stroke-linejoin="round"/>
<path d="M9.38472 13.1344L7.4519 11.2017" stroke="#BF9D50" stroke-width="1.0186" stroke-miterlimit="10" stroke-linecap="round" stroke-linejoin="round"/>
<path d="M9.92705 12.592L7.98962 10.6592" stroke="#BF9D50" stroke-width="1.0186" stroke-miterlimit="10" stroke-linecap="round" stroke-linejoin="round"/>
<path d="M63.9896 37.4915L63.6142 37.1161C63.3129 36.8148 62.8215 36.8148 62.5203 37.1161L60.3835 39.2528C60.0823 39.5541 60.0823 40.0454 60.3835 40.3467L60.759 40.7221C61.0603 41.0234 61.5516 41.0234 61.8528 40.7221L63.9896 38.5854C64.2909 38.2841 64.2909 37.7928 63.9896 37.4915Z" stroke="#BF9D50" stroke-width="1.7825" stroke-miterlimit="10" stroke-linecap="round" stroke-linejoin="round"/>
<path d="M65.4589 38.9608L65.0835 38.5853C64.7822 38.2841 64.2909 38.2841 63.9896 38.5853L61.8528 40.7221C61.5516 41.0234 61.5516 41.5147 61.8528 41.8159L62.2283 42.1914C62.5296 42.4926 63.0209 42.4926 63.3222 42.1914L65.4589 40.0546C65.7602 39.7534 65.7602 39.262 65.4589 38.9608Z" stroke="#BF9D50" stroke-width="1.7825" stroke-miterlimit="10" stroke-linecap="round" stroke-linejoin="round"/>
<path d="M66.9282 40.43L66.5527 40.0546C66.2515 39.7533 65.7601 39.7533 65.4589 40.0546L63.3221 42.1913C63.0209 42.4926 63.0209 42.9839 63.3221 43.2851L63.6976 43.6606C63.9989 43.9619 64.4902 43.9619 64.7914 43.6606L66.9282 41.5239C67.2294 41.2226 67.2294 40.7313 66.9282 40.43Z" stroke="#BF9D50" stroke-width="1.7825" stroke-miterlimit="10" stroke-linecap="round" stroke-linejoin="round"/>
<path d="M68.3975 41.8992L68.022 41.5238C67.7207 41.2225 67.2294 41.2225 66.9282 41.5238L64.7914 43.6605C64.4902 43.9618 64.4902 44.4531 64.7914 44.7544L65.1669 45.1298C65.4682 45.4311 65.9595 45.4311 66.2607 45.1298L68.3975 42.9931C68.6988 42.6872 68.6988 42.2005 68.3975 41.8992Z" stroke="#BF9D50" stroke-width="1.7825" stroke-miterlimit="10" stroke-linecap="round" stroke-linejoin="round"/>
<path d="M69.8621 43.3685L69.4867 42.993C69.1854 42.6918 68.6941 42.6918 68.3929 42.993L66.2561 45.1298C65.9548 45.431 65.9548 45.9224 66.2561 46.2237L66.6315 46.5991C66.9328 46.9004 67.4241 46.9004 67.7254 46.5991L69.8621 44.4623C70.1634 44.1564 70.1634 43.6698 69.8621 43.3685Z" stroke="#BF9D50" stroke-width="1.7825" stroke-miterlimit="10" stroke-linecap="round" stroke-linejoin="round"/>
<path d="M71.3314 44.8333L70.956 44.4579C70.6547 44.1566 70.1634 44.1566 69.8621 44.4579L67.7254 46.5946C67.4241 46.8959 67.4241 47.3872 67.7254 47.6885L68.1008 48.0639C68.4021 48.3652 68.8934 48.3652 69.1947 48.0639L71.3314 45.9272C71.6327 45.6259 71.6327 45.1392 71.3314 44.8333Z" stroke="#BF9D50" stroke-width="1.7825" stroke-miterlimit="10" stroke-linecap="round" stroke-linejoin="round"/>
<path d="M71.3314 44.8333L70.956 44.4579C70.6547 44.1566 70.1634 44.1566 69.8621 44.4579L67.7254 46.5946C67.4241 46.8959 67.4241 47.3872 67.7254 47.6885L68.1008 48.0639C68.4021 48.3652 68.8934 48.3652 69.1947 48.0639L71.3314 45.9272C71.6327 45.6259 71.6327 45.1392 71.3314 44.8333Z" stroke="#BF9D50" stroke-width="1.7825" stroke-miterlimit="10" stroke-linecap="round" stroke-linejoin="round"/>
<path d="M72.8007 46.3026L72.4253 45.9271C72.124 45.6259 71.6327 45.6259 71.3314 45.9271L69.1947 48.0639C68.8934 48.3651 68.8934 48.8564 69.1947 49.1577L69.5701 49.5331C69.8714 49.8344 70.3627 49.8344 70.664 49.5331L72.8007 47.3964C73.102 47.0951 73.102 46.6038 72.8007 46.3026Z" stroke="#BF9D50" stroke-width="1.7825" stroke-miterlimit="10" stroke-linecap="round" stroke-linejoin="round"/>
<path d="M62.5203 36.0218L62.1448 35.6464C61.8436 35.3451 61.3522 35.3451 61.051 35.6464L58.9142 37.7831C58.613 38.0844 58.613 38.5757 58.9142 38.8769L59.2897 39.2524C59.591 39.5537 60.0823 39.5537 60.3835 39.2524L62.5203 37.1157C62.8215 36.8144 62.8215 36.3277 62.5203 36.0218Z" stroke="#BF9D50" stroke-width="1.7825" stroke-miterlimit="10" stroke-linecap="round" stroke-linejoin="round"/>
<path d="M85.2828 23.1694L25.5099 82.9377" stroke="#BF9D50" stroke-width="1.7825" stroke-miterlimit="10" stroke-linecap="round" stroke-linejoin="round"/>
<path d="M87.6235 20.8286L87.1368 23.072L85.1113 23.3362L85.3755 21.3153L87.6235 20.8286Z" stroke="#BF9D50" stroke-width="1.7825" stroke-miterlimit="10" stroke-linecap="round" stroke-linejoin="round"/>
<path d="M92.1009 16.3467L87.6234 20.8287" stroke="#BF9D50" stroke-width="1.0186" stroke-miterlimit="10" stroke-linecap="round" stroke-linejoin="round"/>
<path d="M87.248 22.9607C87.7764 22.4323 88.6339 22.4323 89.1622 22.9607L92.2399 16.2075L85.4867 19.2852C86.0151 19.8136 86.0151 20.671 85.4867 21.1994" stroke="#BF9D50" stroke-width="1.7825" stroke-miterlimit="10" stroke-linecap="round" stroke-linejoin="round"/>
<path d="M85.7277 23.9524L84.4995 22.7241" stroke="#BF9D50" stroke-width="1.0186" stroke-miterlimit="10" stroke-linecap="round" stroke-linejoin="round"/>
<path d="M85.4404 24.24L84.2121 23.0117" stroke="#BF9D50" stroke-width="1.0186" stroke-miterlimit="10" stroke-linecap="round" stroke-linejoin="round"/>
<path d="M85.153 24.5271L83.9247 23.2988" stroke="#BF9D50" stroke-width="1.0186" stroke-miterlimit="10" stroke-linecap="round" stroke-linejoin="round"/>
<path d="M84.8656 24.8147L83.6327 23.5864" stroke="#BF9D50" stroke-width="1.0186" stroke-miterlimit="10" stroke-linecap="round" stroke-linejoin="round"/>
<path d="M84.5782 25.1018L83.3453 23.8735" stroke="#BF9D50" stroke-width="1.0186" stroke-miterlimit="10" stroke-linecap="round" stroke-linejoin="round"/>
<path d="M33.7138 75.4891L32.9583 74.7383" stroke="#BF9D50" stroke-width="1.0186" stroke-miterlimit="10" stroke-linecap="round" stroke-linejoin="round"/>
<path d="M33.4264 75.7763L32.6709 75.0254" stroke="#BF9D50" stroke-width="1.0186" stroke-miterlimit="10" stroke-linecap="round" stroke-linejoin="round"/>
<path d="M33.1344 76.0639L32.3835 75.313" stroke="#BF9D50" stroke-width="1.0186" stroke-miterlimit="10" stroke-linecap="round" stroke-linejoin="round"/>
<path d="M32.8471 76.351L32.0962 75.6001" stroke="#BF9D50" stroke-width="1.0186" stroke-miterlimit="10" stroke-linecap="round" stroke-linejoin="round"/>
<path d="M32.5596 76.6432L31.8088 75.8877" stroke="#BF9D50" stroke-width="1.0186" stroke-miterlimit="10" stroke-linecap="round" stroke-linejoin="round"/>
<path d="M32.4252 76.022L27.146 76.504L22.6686 80.9814L27.9478 80.504" stroke="#BF9D50" stroke-width="1.7825" stroke-miterlimit="10" stroke-linecap="round" stroke-linejoin="round"/>
<path d="M32.4253 76.022L31.9432 81.3012L27.4658 85.7786L27.9479 80.504" stroke="#BF9D50" stroke-width="1.7825" stroke-miterlimit="10" stroke-linecap="round" stroke-linejoin="round"/>
<path d="M63.8088 15.438V22.4276" stroke="white" stroke-width="1.0186" stroke-miterlimit="10" stroke-linecap="round" stroke-linejoin="round"/>
<path d="M60.3141 18.9326H67.3036" stroke="white" stroke-width="1.0186" stroke-miterlimit="10" stroke-linecap="round" stroke-linejoin="round"/>
<path d="M61.8575 16.9814L65.7602 20.8841" stroke="white" stroke-width="1.0186" stroke-miterlimit="10" stroke-linecap="round" stroke-linejoin="round"/>
<path d="M61.8575 20.8841L65.7602 16.9814" stroke="white" stroke-width="1.0186" stroke-miterlimit="10" stroke-linecap="round" stroke-linejoin="round"/>
<path d="M4.49475 30.1172V37.1067" stroke="white" stroke-width="1.0186" stroke-miterlimit="10" stroke-linecap="round" stroke-linejoin="round"/>
<path d="M1 33.6118H7.98958" stroke="white" stroke-width="1.0186" stroke-miterlimit="10" stroke-linecap="round" stroke-linejoin="round"/>
<path d="M2.54346 31.6606L6.44611 35.5633" stroke="white" stroke-width="1.0186" stroke-miterlimit="10" stroke-linecap="round" stroke-linejoin="round"/>
<path d="M2.54346 35.5633L6.44611 31.6606" stroke="white" stroke-width="1.0186" stroke-miterlimit="10" stroke-linecap="round" stroke-linejoin="round"/>
<path d="M52.8841 73.9453V80.9395" stroke="white" stroke-width="1.0186" stroke-miterlimit="10" stroke-linecap="round" stroke-linejoin="round"/>
<path d="M49.3847 77.4448H56.3789" stroke="white" stroke-width="1.0186" stroke-miterlimit="10" stroke-linecap="round" stroke-linejoin="round"/>
<path d="M50.9328 75.4937L54.8355 79.3963" stroke="white" stroke-width="1.0186" stroke-miterlimit="10" stroke-linecap="round" stroke-linejoin="round"/>
<path d="M50.9328 79.3963L54.8355 75.4937" stroke="white" stroke-width="1.0186" stroke-miterlimit="10" stroke-linecap="round" stroke-linejoin="round"/>
<path d="M90.321 5.55179C89.1529 5.55179 88.2028 6.50197 88.2028 7.66999C88.2028 6.50197 87.2526 5.55179 86.0846 5.55179C87.2526 5.55179 88.2028 4.60161 88.2028 3.43359C88.2028 4.60161 89.1483 5.55179 90.321 5.55179Z" stroke="white" stroke-width="1.0186" stroke-miterlimit="10" stroke-linecap="round" stroke-linejoin="round"/>
<path d="M82.2515 98.7661C81.0834 98.7661 80.1332 99.7163 80.1332 100.884C80.1332 99.7163 79.1831 98.7661 78.0151 98.7661C79.1831 98.7661 80.1332 97.816 80.1332 96.6479C80.1332 97.816 81.0788 98.7661 82.2515 98.7661Z" stroke="white" stroke-width="1.0186" stroke-miterlimit="10" stroke-linecap="round" stroke-linejoin="round"/>
<path d="M23.7069 94.2002C22.5388 94.2002 21.5887 95.1504 21.5887 96.3184C21.5887 95.1504 20.6385 94.2002 19.4705 94.2002C20.6385 94.2002 21.5887 93.25 21.5887 92.082C21.5887 93.25 22.5388 94.2002 23.7069 94.2002Z" stroke="white" stroke-width="1.0186" stroke-miterlimit="10" stroke-linecap="round" stroke-linejoin="round"/>
<path d="M31.8088 50.7657C32.9787 50.7657 33.927 49.8173 33.927 48.6475C33.927 47.4776 32.9787 46.5293 31.8088 46.5293C30.639 46.5293 29.6906 47.4776 29.6906 48.6475C29.6906 49.8173 30.639 50.7657 31.8088 50.7657Z" stroke="white" stroke-width="1.0186" stroke-miterlimit="10" stroke-linecap="round" stroke-linejoin="round"/>
<path d="M96.4763 47.2574C95.3082 47.2574 94.3581 48.2075 94.3581 49.3756C94.3581 48.2075 93.4079 47.2574 92.2399 47.2574C93.4079 47.2574 94.3581 46.3072 94.3581 45.1392C94.3581 46.3118 95.3036 47.2574 96.4763 47.2574Z" stroke="white" stroke-width="1.0186" stroke-miterlimit="10" stroke-linecap="round" stroke-linejoin="round"/>
</svg>
