<svg width="92" height="102" viewBox="0 0 92 102" fill="none" xmlns="http://www.w3.org/2000/svg">
<path d="M68.5277 28.7773V35.1843" stroke="white" stroke-width="1.0186" stroke-miterlimit="10" stroke-linecap="round" stroke-linejoin="round"/>
<path d="M65.32 31.981H71.7312" stroke="white" stroke-width="1.0186" stroke-miterlimit="10" stroke-linecap="round" stroke-linejoin="round"/>
<path d="M66.7391 30.1924L70.3164 33.7697" stroke="white" stroke-width="1.0186" stroke-miterlimit="10" stroke-linecap="round" stroke-linejoin="round"/>
<path d="M66.7391 33.7697L70.3164 30.1924" stroke="white" stroke-width="1.0186" stroke-miterlimit="10" stroke-linecap="round" stroke-linejoin="round"/>
<path d="M4.20349 21.4824V27.8936" stroke="white" stroke-width="1.0186" stroke-miterlimit="10" stroke-linecap="round" stroke-linejoin="round"/>
<path d="M1 24.6904H7.41118" stroke="white" stroke-width="1.0186" stroke-miterlimit="10" stroke-linecap="round" stroke-linejoin="round"/>
<path d="M2.41479 22.9019L5.99214 26.4792" stroke="white" stroke-width="1.0186" stroke-miterlimit="10" stroke-linecap="round" stroke-linejoin="round"/>
<path d="M2.41479 26.4792L5.99214 22.9019" stroke="white" stroke-width="1.0186" stroke-miterlimit="10" stroke-linecap="round" stroke-linejoin="round"/>
<path d="M13.8521 85.9473V92.3585" stroke="white" stroke-width="1.0186" stroke-miterlimit="10" stroke-linecap="round" stroke-linejoin="round"/>
<path d="M10.6486 89.1548H17.0598" stroke="white" stroke-width="1.0186" stroke-miterlimit="10" stroke-linecap="round" stroke-linejoin="round"/>
<path d="M12.0677 87.3662L15.6408 90.9435" stroke="white" stroke-width="1.0186" stroke-miterlimit="10" stroke-linecap="round" stroke-linejoin="round"/>
<path d="M12.0677 90.9435L15.6408 87.3662" stroke="white" stroke-width="1.0186" stroke-miterlimit="10" stroke-linecap="round" stroke-linejoin="round"/>
<path d="M14.158 52.7609C13.0874 52.7609 12.2164 53.6319 12.2164 54.7026C12.2164 53.6319 11.3454 52.7609 10.2748 52.7609C11.3454 52.7609 12.2164 51.89 12.2164 50.8193C12.2164 51.89 13.0831 52.7609 14.158 52.7609Z" stroke="white" stroke-width="1.0186" stroke-miterlimit="10" stroke-linecap="round" stroke-linejoin="round"/>
<path d="M91.2282 10.0666C90.1575 10.0666 89.2865 10.9376 89.2865 12.0082C89.2865 10.9376 88.4156 10.0666 87.3449 10.0666C88.4156 10.0666 89.2865 9.19565 89.2865 8.125C89.2865 9.19565 90.1532 10.0666 91.2282 10.0666Z" stroke="white" stroke-width="1.0186" stroke-miterlimit="10" stroke-linecap="round" stroke-linejoin="round"/>
<path d="M43.3334 82.0937C44.4057 82.0937 45.275 81.2244 45.275 80.1521C45.275 79.0798 44.4057 78.2104 43.3334 78.2104C42.261 78.2104 41.3917 79.0798 41.3917 80.1521C41.3917 81.2244 42.261 82.0937 43.3334 82.0937Z" stroke="white" stroke-width="1.0186" stroke-miterlimit="10" stroke-linecap="round" stroke-linejoin="round"/>
<path d="M89.1506 99.0584C88.0799 99.0584 87.209 99.9293 87.209 101C87.209 99.9293 86.338 99.0584 85.2673 99.0584C86.338 99.0584 87.209 98.1874 87.209 97.1167C87.209 98.1874 88.0799 99.0584 89.1506 99.0584Z" stroke="white" stroke-width="1.0186" stroke-miterlimit="10" stroke-linecap="round" stroke-linejoin="round"/>
<path d="M22.5873 5.37593C23.6596 5.37593 24.5289 4.50663 24.5289 3.4343C24.5289 2.36197 23.6596 1.49268 22.5873 1.49268C21.5149 1.49268 20.6456 2.36197 20.6456 3.4343C20.6456 4.50663 21.5149 5.37593 22.5873 5.37593Z" stroke="white" stroke-width="1.0186" stroke-miterlimit="10" stroke-linecap="round" stroke-linejoin="round"/>
<path d="M38.8426 13.6738C38.8426 13.6738 32.9582 13.8862 33.3108 19.2055" stroke="#BF9D50" stroke-width="1.7825" stroke-miterlimit="10" stroke-linecap="round" stroke-linejoin="round"/>
<path d="M38.8425 13.6738C38.8425 13.6738 38.7363 16.6266 36.7862 18.2241" stroke="#BF9D50" stroke-width="1.7825" stroke-miterlimit="10" stroke-linecap="round" stroke-linejoin="round"/>
<path d="M26.4323 17.9902C24.3208 19.2096 21.3892 21.831 21.3595 24.1805C21.3425 25.5528 21.0408 26.9081 20.4205 28.136C20.4205 28.1402 20.4163 28.1445 20.4163 28.1487C20.0466 28.8795 20.4035 29.7674 21.1768 30.0309C24.3378 31.1015 26.9039 33.8716 27.8599 31.5519C27.9831 30.957 28.238 30.3622 28.6119 29.8907C29.0622 29.3213 29.691 28.9305 30.4813 28.9305L30.477 28.9262" stroke="#BF9D50" stroke-width="1.7825" stroke-miterlimit="10" stroke-linecap="round" stroke-linejoin="round"/>
<path d="M38.3539 16.002C47.3653 16.002 54.6687 23.3054 54.6687 32.3167V34.2583" stroke="#BF9D50" stroke-width="1.7825" stroke-miterlimit="10" stroke-linecap="round" stroke-linejoin="round"/>
<path d="M65.4092 52.2939C65.4092 56.9972 61.5982 60.8082 56.895 60.8082" stroke="#BF9D50" stroke-width="1.7825" stroke-miterlimit="10" stroke-linecap="round" stroke-linejoin="round"/>
<path d="M26.4323 17.9011C26.4323 8.56682 33.9991 1 43.3334 1C52.6676 1 60.2344 8.56682 60.2344 17.9011" stroke="#BF9D50" stroke-width="1.7825" stroke-miterlimit="10" stroke-linecap="round" stroke-linejoin="round"/>
<path d="M60.2344 17.7015C60.2344 10.2877 54.2226 4.27588 46.8087 4.27588C39.3949 4.27588 33.3831 10.2877 33.3831 17.7015" stroke="#BF9D50" stroke-width="1.7825" stroke-miterlimit="10" stroke-linecap="round" stroke-linejoin="round"/>
<path d="M31.9513 17.9009C30.426 19.4261 27.9533 19.4261 26.4323 17.9009" stroke="#BF9D50" stroke-width="1.7825" stroke-miterlimit="10" stroke-linecap="round" stroke-linejoin="round"/>
<path d="M25.6973 32.2148L25.7185 32.3593L25.8247 33.0816L25.9395 33.7996C25.9777 34.029 26.0074 34.2457 26.0329 34.4581C26.0542 34.6663 26.0669 34.866 26.0669 35.0572C26.0669 35.2483 26.0499 35.4268 26.0117 35.5925C26.0032 35.635 25.9947 35.6775 25.9819 35.7157L25.965 35.7752L25.9437 35.8304C25.931 35.8644 25.9182 35.9069 25.9012 35.9409C25.8842 35.9749 25.8672 36.0089 25.8502 36.0428C25.7738 36.1703 25.6845 36.2978 25.5656 36.3955C25.4466 36.4932 25.3107 36.5697 25.1535 36.6207C24.9963 36.6674 24.8263 36.6886 24.6479 36.6801C24.4694 36.6716 24.291 36.6207 24.1125 36.5484C24.0701 36.5272 24.0233 36.5102 23.9808 36.489L23.8534 36.4125C23.7684 36.3615 23.6877 36.302 23.6112 36.234C23.4583 36.1023 23.3266 35.9451 23.2331 35.771C23.1863 35.686 23.1481 35.5925 23.1226 35.4948C23.1099 35.448 23.1014 35.3971 23.0929 35.3503C23.0886 35.3248 23.0886 35.3036 23.0844 35.2781C23.0801 35.2526 23.0801 35.2314 23.0844 35.2059C23.0886 35.1082 23.1056 35.0062 23.1396 34.9042C23.1736 34.8065 23.2246 34.7088 23.2926 34.6196C23.4243 34.4454 23.6197 34.3009 23.8619 34.2669C23.7429 34.2457 23.6112 34.2542 23.488 34.2882C23.3648 34.3221 23.2458 34.3859 23.1354 34.4624C22.9187 34.6196 22.753 34.8532 22.6638 35.1294C22.651 35.1634 22.6425 35.1974 22.634 35.2356C22.6255 35.2696 22.617 35.3078 22.6128 35.3418C22.6043 35.4141 22.6 35.4863 22.6 35.5585C22.6 35.703 22.6213 35.8474 22.6553 35.9876C22.7232 36.268 22.8507 36.5272 23.0164 36.7566C23.0971 36.8713 23.1906 36.9818 23.2926 37.0838L23.4498 37.2325C23.505 37.2792 23.5645 37.3217 23.6197 37.3684C23.8576 37.5384 24.1253 37.6871 24.4227 37.7678C24.4949 37.7933 24.5714 37.8103 24.6479 37.823C24.7243 37.8358 24.8008 37.857 24.8773 37.8613C24.9538 37.8655 25.0345 37.8783 25.1152 37.8783C25.1959 37.874 25.2724 37.874 25.3531 37.8698C25.6718 37.84 25.9947 37.7466 26.2878 37.5936C26.3601 37.5511 26.4323 37.5129 26.5045 37.4662C26.5725 37.4194 26.6405 37.3684 26.7042 37.3174C26.7722 37.2665 26.8317 37.2112 26.8911 37.1518C26.9506 37.0923 27.0144 37.037 27.0611 36.969C27.1121 36.9053 27.1631 36.8416 27.214 36.7736C27.2608 36.7056 27.3033 36.6377 27.3458 36.5654L27.4095 36.4592L27.4647 36.353C27.503 36.285 27.5327 36.2128 27.5624 36.1406C27.6856 35.8517 27.7621 35.5543 27.8174 35.2654C27.8683 34.9765 27.8938 34.6918 27.9066 34.4199C27.9193 34.148 27.9151 33.8845 27.9108 33.6339L27.8981 32.9116L27.8641 31.5605" stroke="#BF9D50" stroke-width="1.7825" stroke-miterlimit="10" stroke-linecap="round" stroke-linejoin="round"/>
<path d="M21.2108 41.4043V51.6605" stroke="#BF9D50" stroke-width="1.7825" stroke-miterlimit="10" stroke-linecap="round" stroke-linejoin="round"/>
<path d="M23.7514 47.6628V42.9766" stroke="#BF9D50" stroke-width="1.7825" stroke-miterlimit="10" stroke-linecap="round" stroke-linejoin="round"/>
<path d="M31.4372 40.644H21.9713" stroke="#BF9D50" stroke-width="1.7825" stroke-miterlimit="10" stroke-linecap="round" stroke-linejoin="round"/>
<path d="M23.7514 42.9766H27.5284" stroke="#BF9D50" stroke-width="1.7825" stroke-miterlimit="10" stroke-linecap="round" stroke-linejoin="round"/>
<path d="M21.2108 41.4043C20.7901 41.4043 20.4503 41.0644 20.4503 40.6438C20.4503 40.2232 20.7901 39.8833 21.2108 39.8833C21.6314 39.8833 21.9713 40.2232 21.9713 40.6438" stroke="#BF9D50" stroke-width="1.7825" stroke-miterlimit="10" stroke-linecap="round" stroke-linejoin="round"/>
<path d="M21.2108 51.6605L24.4992 54.9489C24.8646 55.3143 25.4891 55.0552 25.4891 54.5368V51.6562" stroke="#BF9D50" stroke-width="1.7825" stroke-miterlimit="10" stroke-linecap="round" stroke-linejoin="round"/>
<path d="M25.4934 51.3422C24.5332 51.3422 23.7557 50.5647 23.7557 49.6045" stroke="#BF9D50" stroke-width="1.7825" stroke-miterlimit="10" stroke-linecap="round" stroke-linejoin="round"/>
<path d="M23.7514 49.6044C23.7514 49.0691 24.1848 48.6357 24.7201 48.6357" stroke="#BF9D50" stroke-width="1.7825" stroke-miterlimit="10" stroke-linecap="round" stroke-linejoin="round"/>
<path d="M23.7514 47.6626C23.7514 48.1979 24.1848 48.6313 24.7201 48.6313" stroke="#BF9D50" stroke-width="1.7825" stroke-miterlimit="10" stroke-linecap="round" stroke-linejoin="round"/>
<path d="M31.4967 46.2011C29.3044 46.2011 27.5284 44.4252 27.5284 42.2329" stroke="#BF9D50" stroke-width="1.7825" stroke-miterlimit="10" stroke-linecap="round" stroke-linejoin="round"/>
<path d="M32.3846 59.7373H42.6408" stroke="#BF9D50" stroke-width="1.7825" stroke-miterlimit="10" stroke-linecap="round" stroke-linejoin="round"/>
<path d="M31.6241 41.3452V58.9727" stroke="#BF9D50" stroke-width="1.7825" stroke-miterlimit="10" stroke-linecap="round" stroke-linejoin="round"/>
<path d="M33.9567 49.5068V57.1926H38.6429" stroke="#BF9D50" stroke-width="1.7825" stroke-miterlimit="10" stroke-linecap="round" stroke-linejoin="round"/>
<path d="M32.3847 59.7371C32.3847 60.1577 32.0448 60.4976 31.6242 60.4976C31.2035 60.4976 30.8636 60.1577 30.8636 59.7371C30.8636 59.3165 31.2035 58.9766 31.6242 58.9766" stroke="#BF9D50" stroke-width="1.7825" stroke-miterlimit="10" stroke-linecap="round" stroke-linejoin="round"/>
<path d="M42.6408 59.7373L45.9293 56.4489C46.2947 56.0835 46.0355 55.459 45.5172 55.459H42.6366" stroke="#BF9D50" stroke-width="1.7825" stroke-miterlimit="10" stroke-linecap="round" stroke-linejoin="round"/>
<path d="M42.3222 55.4546C42.3222 56.4148 41.5447 57.1923 40.5845 57.1923" stroke="#BF9D50" stroke-width="1.7825" stroke-miterlimit="10" stroke-linecap="round" stroke-linejoin="round"/>
<path d="M40.5803 57.1923C40.0449 57.1923 39.6116 56.759 39.6116 56.2236" stroke="#BF9D50" stroke-width="1.7825" stroke-miterlimit="10" stroke-linecap="round" stroke-linejoin="round"/>
<path d="M38.6429 57.1923C39.1782 57.1923 39.6116 56.759 39.6116 56.2236" stroke="#BF9D50" stroke-width="1.7825" stroke-miterlimit="10" stroke-linecap="round" stroke-linejoin="round"/>
<path d="M39.7858 42.9341C39.7858 46.5667 36.8415 49.5067 33.2131 49.5067" stroke="#BF9D50" stroke-width="1.7825" stroke-miterlimit="10" stroke-linecap="round" stroke-linejoin="round"/>
<path d="M31.6241 41.3451C31.6241 37.7083 34.5727 34.7598 38.2095 34.7598" stroke="#BF9D50" stroke-width="1.7825" stroke-miterlimit="10" stroke-linecap="round" stroke-linejoin="round"/>
<path d="M28.922 29.5337C28.922 33.0176 29.5848 36.3443 30.7914 39.399C31.0421 40.0363 31.3225 40.6651 31.6199 41.2812" stroke="#BF9D50" stroke-width="1.7825" stroke-miterlimit="10" stroke-linecap="round" stroke-linejoin="round"/>
<path d="M26.4323 17.9011C26.4323 8.56682 33.9991 1 43.3334 1C52.6676 1 60.2344 8.56682 60.2344 17.9011" stroke="#BF9D50" stroke-width="1.7825" stroke-miterlimit="10" stroke-linecap="round" stroke-linejoin="round"/>
<path d="M28.2337 14.7441C29.7037 16.2142 32.0065 16.3416 33.6252 15.1308" stroke="#BF9D50" stroke-width="1.0186" stroke-miterlimit="10" stroke-linecap="round" stroke-linejoin="round"/>
<path d="M29.2831 11.6558C30.7149 13.0876 32.9157 13.2745 34.5472 12.2208" stroke="#BF9D50" stroke-width="1.0186" stroke-miterlimit="10" stroke-linecap="round" stroke-linejoin="round"/>
<path d="M31.4584 8.54541C32.7543 9.84124 34.6746 10.1259 36.2466 9.40787" stroke="#BF9D50" stroke-width="1.0186" stroke-miterlimit="10" stroke-linecap="round" stroke-linejoin="round"/>
<path d="M35.0995 5.52881C35.962 6.71418 37.4022 7.22403 38.7491 6.95637" stroke="#BF9D50" stroke-width="1.0186" stroke-miterlimit="10" stroke-linecap="round" stroke-linejoin="round"/>
<path d="M38.9318 3.77441C39.4586 4.76434 40.4613 5.3379 41.5107 5.35914" stroke="#BF9D50" stroke-width="1.0186" stroke-miterlimit="10" stroke-linecap="round" stroke-linejoin="round"/>
<path d="M43.2866 2.27881C43.2866 3.25599 43.8942 4.09297 44.7566 4.42861" stroke="#BF9D50" stroke-width="1.0186" stroke-miterlimit="10" stroke-linecap="round" stroke-linejoin="round"/>
<path d="M46.9744 2.19824C46.9064 3.08621 47.3568 3.89768 48.0663 4.33529" stroke="#BF9D50" stroke-width="1.0186" stroke-miterlimit="10" stroke-linecap="round" stroke-linejoin="round"/>
<path d="M50.3394 3.43457C50.3011 3.9529 50.4371 4.4415 50.6963 4.84937" stroke="#BF9D50" stroke-width="1.0186" stroke-miterlimit="10" stroke-linecap="round" stroke-linejoin="round"/>
<path d="M30.477 28.9263C32.5758 28.9263 34.2753 30.6257 34.2753 32.7245" stroke="#BF9D50" stroke-width="1.7825" stroke-miterlimit="10" stroke-linecap="round" stroke-linejoin="round"/>
<path d="M54.6687 16.002H57.7404H38.3539" stroke="#BF9D50" stroke-width="1.0186" stroke-miterlimit="10" stroke-linecap="round" stroke-linejoin="round"/>
<path d="M55.6714 19.0693H47.8794" stroke="#BF9D50" stroke-width="1.0186" stroke-miterlimit="10" stroke-linecap="round" stroke-linejoin="round"/>
<path d="M53.6066 22.1411H51.1041" stroke="#BF9D50" stroke-width="1.0186" stroke-miterlimit="10" stroke-linecap="round" stroke-linejoin="round"/>
<path d="M55.6714 25.2085H53.1902" stroke="#BF9D50" stroke-width="1.0186" stroke-miterlimit="10" stroke-linecap="round" stroke-linejoin="round"/>
<path d="M55.6714 31.3481H54.6687" stroke="#BF9D50" stroke-width="1.0186" stroke-miterlimit="10" stroke-linecap="round" stroke-linejoin="round"/>
<path d="M57.7405 28.2803H54.1674" stroke="#BF9D50" stroke-width="1.0186" stroke-miterlimit="10" stroke-linecap="round" stroke-linejoin="round"/>
<path d="M41.9993 56.4614C40.9796 55.7477 40.0194 54.9574 39.1229 54.0992C39.1229 54.0992 34.9933 49.927 34.9125 49.2812" stroke="#BF9D50" stroke-width="1.7825" stroke-miterlimit="10" stroke-linecap="round" stroke-linejoin="round"/>
<path d="M69.4157 72.972C69.4157 66.2592 63.9732 60.8167 57.2603 60.8167H55.8371C51.7074 60.8167 47.8241 59.78 44.4252 57.9531" stroke="#BF9D50" stroke-width="1.7825" stroke-miterlimit="10" stroke-linecap="round" stroke-linejoin="round"/>
<path d="M54.8557 38.4263C72.0626 38.4263 86.0151 52.3788 86.0151 69.5857C86.0151 86.7927 72.0626 100.745 54.8557 100.745" stroke="#BF9D50" stroke-width="1.7825" stroke-miterlimit="10" stroke-linecap="round" stroke-linejoin="round"/>
<path d="M27.0781 72.9717C27.0781 88.3135 39.5138 100.749 54.8556 100.749" stroke="#BF9D50" stroke-width="1.7825" stroke-miterlimit="10" stroke-linecap="round" stroke-linejoin="round"/>
<path d="M69.4157 72.9717C69.4157 84.6767 59.9285 94.1638 48.2235 94.1638" stroke="#BF9D50" stroke-width="1.7825" stroke-miterlimit="10" stroke-linecap="round" stroke-linejoin="round"/>
<path d="M27.0356 72.9717C27.0356 84.6767 36.5228 94.1638 48.2277 94.1638" stroke="#BF9D50" stroke-width="1.7825" stroke-miterlimit="10" stroke-linecap="round" stroke-linejoin="round"/>
<path d="M54.8556 100.745C72.0626 100.745 86.0151 86.7927 86.0151 69.5857C86.0151 52.3788 72.0626 38.4263 54.8556 38.4263H47.8794" stroke="#BF9D50" stroke-width="1.7825" stroke-miterlimit="10" stroke-linecap="round" stroke-linejoin="round"/>
<path d="M69.4157 72.9717C69.4157 84.6767 59.9285 94.1638 48.2235 94.1638" stroke="#BF9D50" stroke-width="1.7825" stroke-miterlimit="10" stroke-linecap="round" stroke-linejoin="round"/>
<path d="M27.0356 72.9717C27.0356 84.6767 36.5228 94.1638 48.2277 94.1638" stroke="#BF9D50" stroke-width="1.7825" stroke-miterlimit="10" stroke-linecap="round" stroke-linejoin="round"/>
<path d="M73.8003 72.0371C73.8003 86.1596 62.3502 97.6096 48.2278 97.6096" stroke="#BF9D50" stroke-width="1.7825" stroke-miterlimit="10" stroke-linecap="round" stroke-linejoin="round"/>
<path d="M39.3737 96.0332C42.131 97.0529 45.1136 97.6052 48.2278 97.6052" stroke="#BF9D50" stroke-width="1.7825" stroke-miterlimit="10" stroke-linecap="round" stroke-linejoin="round"/>
<path d="M73.8003 72.0371C73.8003 86.1596 62.3502 97.6096 48.2278 97.6096" stroke="#BF9D50" stroke-width="1.7825" stroke-miterlimit="10" stroke-linecap="round" stroke-linejoin="round"/>
<path d="M40.0406 96.2715C42.6111 97.1382 45.3642 97.6098 48.2235 97.6098" stroke="#BF9D50" stroke-width="1.7825" stroke-miterlimit="10" stroke-linecap="round" stroke-linejoin="round"/>
<path d="M73.8003 72.1138C73.8003 65.8216 69.8618 60.4513 64.3173 58.3312C64.3173 58.3312 63.4846 57.9701 63.2552 57.9531" stroke="#BF9D50" stroke-width="1.7825" stroke-miterlimit="10" stroke-linecap="round" stroke-linejoin="round"/>
<path d="M15.7385 62.2949C21.9798 62.2949 27.0356 67.355 27.0356 73.592" stroke="#BF9D50" stroke-width="1.7825" stroke-miterlimit="10" stroke-linecap="round" stroke-linejoin="round"/>
<path d="M15.7385 62.2949C17.0429 62.2949 18.0965 63.3528 18.0965 64.6529V70.4863" stroke="#BF9D50" stroke-width="1.7825" stroke-miterlimit="10" stroke-linecap="round" stroke-linejoin="round"/>
<path d="M18.0965 70.4014C18.0965 74.5098 21.4274 77.845 25.5401 77.845H27.0824" stroke="#BF9D50" stroke-width="1.7825" stroke-miterlimit="10" stroke-linecap="round" stroke-linejoin="round"/>
<path d="M27.0781 77.8408H25.999C23.1184 77.8408 20.7859 75.5083 20.7859 72.6277V66.7773" stroke="#BF9D50" stroke-width="1.0186" stroke-miterlimit="10" stroke-linecap="round" stroke-linejoin="round"/>
<path d="M27.0781 77.8405H26.4281C24.6946 77.8405 23.2883 76.4342 23.2883 74.7008V70.1548" stroke="#BF9D50" stroke-width="1.0186" stroke-miterlimit="10" stroke-linecap="round" stroke-linejoin="round"/>
<path d="M27.0781 77.8408H26.7637C25.931 77.8408 25.2554 77.1653 25.2554 76.3326V74.1445" stroke="#BF9D50" stroke-width="1.0186" stroke-miterlimit="10" stroke-linecap="round" stroke-linejoin="round"/>
<path d="M38.3752 62.2949C32.134 62.2949 27.0781 67.355 27.0781 73.592" stroke="#BF9D50" stroke-width="1.7825" stroke-miterlimit="10" stroke-linecap="round" stroke-linejoin="round"/>
<path d="M38.3752 62.2949C37.0709 62.2949 36.0172 63.3528 36.0172 64.6529V70.4863" stroke="#BF9D50" stroke-width="1.7825" stroke-miterlimit="10" stroke-linecap="round" stroke-linejoin="round"/>
<path d="M36.0172 70.4014C36.0172 74.5098 32.6863 77.845 28.5736 77.845H27.0314" stroke="#BF9D50" stroke-width="1.7825" stroke-miterlimit="10" stroke-linecap="round" stroke-linejoin="round"/>
<path d="M27.0356 77.8408H28.1148C30.9954 77.8408 33.3279 75.5083 33.3279 72.6277V66.7773" stroke="#BF9D50" stroke-width="1.0186" stroke-miterlimit="10" stroke-linecap="round" stroke-linejoin="round"/>
<path d="M27.0356 77.8405H27.6857C29.4191 77.8405 30.8254 76.4342 30.8254 74.7008V70.1548" stroke="#BF9D50" stroke-width="1.0186" stroke-miterlimit="10" stroke-linecap="round" stroke-linejoin="round"/>
<path d="M27.0356 77.8408H27.35C28.1828 77.8408 28.8583 77.1653 28.8583 76.3326V74.1445" stroke="#BF9D50" stroke-width="1.0186" stroke-miterlimit="10" stroke-linecap="round" stroke-linejoin="round"/>
<path d="M59.1383 38.7323C56.6698 38.7323 54.6687 36.7311 54.6687 34.2627" stroke="#BF9D50" stroke-width="1.7825" stroke-miterlimit="10" stroke-linecap="round" stroke-linejoin="round"/>
<path d="M73.4137 52.2642C73.4137 53.4028 72.4917 54.3247 71.3531 54.3247" stroke="#BF9D50" stroke-width="1.0186" stroke-miterlimit="10" stroke-linecap="round" stroke-linejoin="round"/>
<path d="M73.7408 56.6826C73.7408 57.8213 72.8189 58.7432 71.6802 58.7432" stroke="#BF9D50" stroke-width="1.0186" stroke-miterlimit="10" stroke-linecap="round" stroke-linejoin="round"/>
<path d="M83.5637 68.8081C83.1303 69.8618 81.9279 70.3631 80.8743 69.9297" stroke="#BF9D50" stroke-width="1.0186" stroke-miterlimit="10" stroke-linecap="round" stroke-linejoin="round"/>
<path d="M75.5847 86.4356C74.5906 86.9879 73.3372 86.6353 72.7806 85.6411" stroke="#BF9D50" stroke-width="1.0186" stroke-miterlimit="10" stroke-linecap="round" stroke-linejoin="round"/>
<path d="M76.7531 89.418C75.7589 89.9703 74.5055 89.6177 73.949 88.6235" stroke="#BF9D50" stroke-width="1.0186" stroke-miterlimit="10" stroke-linecap="round" stroke-linejoin="round"/>
<path d="M66.6243 96.3604C65.49 96.2797 64.636 95.2941 64.7125 94.1597" stroke="#BF9D50" stroke-width="1.0186" stroke-miterlimit="10" stroke-linecap="round" stroke-linejoin="round"/>
<path d="M79.7824 74.6162C78.9794 75.4235 77.675 75.4277 76.8678 74.6247" stroke="#BF9D50" stroke-width="1.0186" stroke-miterlimit="10" stroke-linecap="round" stroke-linejoin="round"/>
</svg>
