<svg width="96" height="102" viewBox="0 0 96 102" fill="none" xmlns="http://www.w3.org/2000/svg">
<path d="M32.4907 50.3298L37.3947 55.2337C37.3947 51.6108 39.861 48.6713 42.9056 48.6713C52.594 48.6713 60.7624 42.1518 63.2622 33.2616C64.1464 30.1166 63.2574 26.7374 60.9488 24.4288C59.9786 23.4586 58.8219 22.7416 57.5696 22.2971C55.8441 21.6853 53.9418 21.5993 52.116 22.1155C43.2258 24.6152 36.7064 32.7789 36.7064 42.472C36.7064 45.5167 33.7669 47.983 30.1439 47.983L35.0479 52.8869L32.4907 50.3298Z" stroke="#BF9D50" stroke-width="1.7825" stroke-miterlimit="10" stroke-linecap="round" stroke-linejoin="round"/>
<path d="M39.0437 39.9624C42.5663 39.9624 45.4198 42.8158 45.4198 46.3384" stroke="#BF9D50" stroke-width="1.0186" stroke-miterlimit="10" stroke-linecap="round" stroke-linejoin="round"/>
<path d="M49.3247 25.5039C52.6036 25.5039 55.5335 26.9999 57.4692 29.3467C58.9748 31.1726 59.8782 33.5098 59.8782 36.0622" stroke="#BF9D50" stroke-width="1.0186" stroke-miterlimit="10" stroke-linecap="round" stroke-linejoin="round"/>
<path d="M28.8439 46.6782L38.7043 56.5387" stroke="#BF9D50" stroke-width="1.7825" stroke-miterlimit="10" stroke-linecap="round" stroke-linejoin="round"/>
<path d="M58.0953 46.5777C57.9759 45.3732 56.8909 44.5846 55.6721 44.8092C54.4532 45.0338 53.5642 46.1953 53.6837 47.395L53.7793 48.002C54.176 51.9739 51.2365 55.7977 47.2168 56.5433C43.1924 57.2889 39.6124 54.6745 39.2157 50.7026" stroke="#BF9D50" stroke-width="1.7825" stroke-miterlimit="10" stroke-linecap="round" stroke-linejoin="round"/>
<path d="M38.8047 27.2871C40.0092 27.4066 40.7978 28.4916 40.5732 29.7104C40.3485 30.9292 39.1871 31.8182 37.9874 31.6987L37.3804 31.6031C33.4085 31.2064 29.5848 34.1459 28.8391 38.1656C28.0935 42.1901 30.708 45.77 34.6799 46.1668" stroke="#BF9D50" stroke-width="1.7825" stroke-miterlimit="10" stroke-linecap="round" stroke-linejoin="round"/>
<path d="M30.3877 93.7909C19.2225 93.7909 10.1698 84.7382 10.1698 73.573C10.1698 62.4077 19.2225 53.355 30.3877 53.355" stroke="#BF9D50" stroke-width="1.0186" stroke-miterlimit="10" stroke-linecap="round" stroke-linejoin="round"/>
<path d="M95.3959 93.3753C91.5387 89.5181 85.2821 89.5181 81.4249 93.3753C77.5677 97.2325 71.3112 97.2325 67.454 93.3753C63.5968 89.5181 57.3402 89.5181 53.483 93.3753C49.6259 97.2325 43.3693 97.2325 39.5121 93.3753" stroke="#BF9D50" stroke-width="1.0186" stroke-miterlimit="10" stroke-linecap="round" stroke-linejoin="round"/>
<path d="M95.3959 98.1072C91.5387 94.2501 85.2821 94.2501 81.4249 98.1072C77.5677 101.964 71.3112 101.964 67.454 98.1072C63.5968 94.2501 57.3402 94.2501 53.483 98.1072C49.6259 101.964 43.3693 101.964 39.5121 98.1072" stroke="#BF9D50" stroke-width="1.0186" stroke-miterlimit="10" stroke-linecap="round" stroke-linejoin="round"/>
<path d="M30.0054 73.903C25.1731 73.903 21.2538 69.9837 21.2538 65.1515C21.2538 60.3193 25.1731 56.3999 30.0054 56.3999" stroke="#BF9D50" stroke-width="1.0186" stroke-miterlimit="10" stroke-linecap="round" stroke-linejoin="round"/>
<path d="M27.2523 97.6195C15.4943 97.6195 5.95886 88.0841 5.95886 76.3262" stroke="#BF9D50" stroke-width="1.0186" stroke-miterlimit="10" stroke-linecap="round" stroke-linejoin="round"/>
<path d="M27.5773 50.7361C25.3357 50.7361 23.5194 48.9199 23.5194 46.6782" stroke="#BF9D50" stroke-width="1.0186" stroke-miterlimit="10" stroke-linecap="round" stroke-linejoin="round"/>
<path d="M33.4658 66.9009C30.6602 64.0953 30.6602 59.5498 33.4658 56.7441" stroke="#BF9D50" stroke-width="1.0186" stroke-miterlimit="10" stroke-linecap="round" stroke-linejoin="round"/>
<path d="M30.3877 93.7912C35.1387 93.7912 38.9911 89.9388 38.9911 85.1879C38.9911 80.4369 35.1387 76.5845 30.3877 76.5845C25.6367 76.5845 21.7843 80.4369 21.7843 85.1879" stroke="#BF9D50" stroke-width="1.0186" stroke-miterlimit="10" stroke-linecap="round" stroke-linejoin="round"/>
<path d="M7.04858 57.8052C10.2988 61.0553 10.2988 66.3273 7.04858 69.5823" stroke="#BF9D50" stroke-width="1.0186" stroke-miterlimit="10" stroke-linecap="round" stroke-linejoin="round"/>
<path d="M7.04865 57.8052C5.66255 56.4191 3.4209 56.4191 2.03958 57.8052C0.653475 59.1913 0.653475 61.433 2.03958 62.8143C3.42568 64.2004 5.66733 64.2004 7.04865 62.8143" stroke="#BF9D50" stroke-width="1.0186" stroke-miterlimit="10" stroke-linecap="round" stroke-linejoin="round"/>
<path d="M55.911 9.54483C53.9562 11.4997 50.7873 11.4997 48.8324 9.54483C46.8775 7.58995 46.8775 4.42104 48.8324 2.46616C50.7873 0.51128 53.9562 0.51128 55.911 2.46616" stroke="#BF9D50" stroke-width="1.7825" stroke-miterlimit="10" stroke-linecap="round" stroke-linejoin="round"/>
<path d="M48.8324 9.54498C46.8775 7.5901 46.8775 4.42119 48.8324 2.46631" stroke="#BF9D50" stroke-width="1.7825" stroke-miterlimit="10" stroke-linecap="round" stroke-linejoin="round"/>
<path d="M55.9111 2.46631C57.0678 3.62299 57.0678 5.49662 55.9111 6.65329C54.7544 7.80997 52.8808 7.80997 51.7241 6.65329" stroke="#BF9D50" stroke-width="1.7825" stroke-miterlimit="10" stroke-linecap="round" stroke-linejoin="round"/>
<path d="M56.7762 4.26807C56.7762 10.5438 61.8666 15.6341 68.1423 15.6341C74.418 15.6341 79.5083 20.7244 79.5083 27.0001" stroke="#BF9D50" stroke-width="1.7825" stroke-miterlimit="10" stroke-linecap="round" stroke-linejoin="round"/>
<path d="M79.5083 27.0001C79.5083 14.444 69.3324 4.26807 56.7762 4.26807" stroke="#BF9D50" stroke-width="1.7825" stroke-miterlimit="10" stroke-linecap="round" stroke-linejoin="round"/>
<path d="M52.2738 11.0122H55.3328C58.6212 11.0122 61.2882 13.6792 61.2882 16.9676C61.2882 20.256 63.9553 22.9231 67.2437 22.9231C70.5321 22.9231 73.1992 25.5902 73.1992 28.8786V30.4797" stroke="#BF9D50" stroke-width="1.7825" stroke-miterlimit="10" stroke-linecap="round" stroke-linejoin="round"/>
<path d="M67.3344 22.9277C68.2474 22.9277 68.9882 23.6686 68.9882 24.5815C68.9882 25.4944 68.2474 26.2352 67.3344 26.2352C66.4215 26.2352 65.6807 25.4944 65.6807 24.5815" stroke="#BF9D50" stroke-width="1.7825" stroke-miterlimit="10" stroke-linecap="round" stroke-linejoin="round"/>
<path d="M67.3345 22.9277C68.2474 22.9277 68.9882 23.6686 68.9882 24.5815C68.9882 25.4944 68.2474 26.2352 67.3345 26.2352" stroke="#BF9D50" stroke-width="1.7825" stroke-miterlimit="10" stroke-linecap="round" stroke-linejoin="round"/>
<path d="M61.336 17.938C61.336 18.7362 60.686 19.3862 59.8878 19.3862C59.0896 19.3862 58.4396 18.7362 58.4396 17.938C58.4396 17.1398 59.0896 16.4897 59.8878 16.4897" stroke="#BF9D50" stroke-width="1.7825" stroke-miterlimit="10" stroke-linecap="round" stroke-linejoin="round"/>
<path d="M61.336 17.938C61.336 18.7362 60.686 19.3862 59.8878 19.3862C59.0896 19.3862 58.4396 18.7362 58.4396 17.938" stroke="#BF9D50" stroke-width="1.7825" stroke-miterlimit="10" stroke-linecap="round" stroke-linejoin="round"/>
<path d="M77.0228 26.2305C79.1355 26.2305 80.8513 27.9416 80.8513 30.059C80.8513 32.1716 79.1402 33.8875 77.0228 33.8875C74.9102 33.8875 73.1943 32.1764 73.1943 30.059" stroke="#BF9D50" stroke-width="1.7825" stroke-miterlimit="10" stroke-linecap="round" stroke-linejoin="round"/>
<path d="M52.9047 11.1172V12.0349C52.9047 13.2776 52.6227 14.506 52.0778 15.6196C51.7815 16.2314 52.226 16.9388 52.9047 16.9388" stroke="#BF9D50" stroke-width="1.7825" stroke-miterlimit="10" stroke-linecap="round" stroke-linejoin="round"/>
<path d="M53.7124 17.7754C53.7124 18.8413 54.5775 19.7064 55.6434 19.7064H55.9302" stroke="#BF9D50" stroke-width="1.7825" stroke-miterlimit="10" stroke-linecap="round" stroke-linejoin="round"/>
<path d="M52.9047 16.939C53.3492 16.939 53.7124 17.3022 53.7124 17.7467" stroke="#BF9D50" stroke-width="1.7825" stroke-miterlimit="10" stroke-linecap="round" stroke-linejoin="round"/>
<path d="M55.9971 19.7065C57.0247 19.7065 57.8564 20.5382 57.8564 21.5658" stroke="#BF9D50" stroke-width="1.7825" stroke-miterlimit="10" stroke-linecap="round" stroke-linejoin="round"/>
<path d="M79.1881 90.4881C78.8678 90.4212 78.5476 90.3543 78.2273 90.2778C64.1847 86.9703 53.7507 74.6005 53.7507 59.8457" stroke="#BF9D50" stroke-width="1.7825" stroke-miterlimit="10" stroke-linecap="round" stroke-linejoin="round"/>
<path d="M53.7507 65.749C53.7507 75.9823 48.4262 84.968 40.3964 90.0918" stroke="#BF9D50" stroke-width="1.7825" stroke-miterlimit="10" stroke-linecap="round" stroke-linejoin="round"/>
<path d="M73.1991 55.8311C73.1991 65.0319 65.7428 72.4882 56.542 72.4882" stroke="#BF9D50" stroke-width="1.0186" stroke-miterlimit="10" stroke-linecap="round" stroke-linejoin="round"/>
<path d="M72.769 45.8414C67.65 45.8414 63.0041 43.8197 59.5867 40.5312" stroke="#BF9D50" stroke-width="1.0186" stroke-miterlimit="10" stroke-linecap="round" stroke-linejoin="round"/>
<path d="M73.1991 29.2227V82.0044" stroke="#BF9D50" stroke-width="1.7825" stroke-miterlimit="10" stroke-linecap="round" stroke-linejoin="round"/>
<path d="M53.7458 65.7489V49.7227" stroke="#BF9D50" stroke-width="1.7825" stroke-miterlimit="10" stroke-linecap="round" stroke-linejoin="round"/>
<path d="M79.1928 90.4739C75.7036 89.2456 73.2039 85.9189 73.2039 82.0044" stroke="#BF9D50" stroke-width="1.7825" stroke-miterlimit="10" stroke-linecap="round" stroke-linejoin="round"/>
<path d="M5.95889 74.2899C6.35485 74.2899 6.67584 73.9689 6.67584 73.5729C6.67584 73.1769 6.35485 72.856 5.95889 72.856C5.56293 72.856 5.24194 73.1769 5.24194 73.5729C5.24194 73.9689 5.56293 74.2899 5.95889 74.2899Z" stroke="#BF9D50" stroke-width="1.0186" stroke-miterlimit="10" stroke-linecap="round" stroke-linejoin="round"/>
<path d="M41.7872 78.1139C41.7872 77.7172 41.4669 77.397 41.0702 77.397C40.6735 77.397 40.3533 77.7172 40.3533 78.1139C40.3533 78.5106 40.6735 78.8309 41.0702 78.8309C41.4669 78.8309 41.7872 78.5106 41.7872 78.1139Z" stroke="#BF9D50" stroke-width="1.0186" stroke-miterlimit="10" stroke-linecap="round" stroke-linejoin="round"/>
<path d="M86.0229 88.7005C86.3872 88.7005 86.6825 88.4052 86.6825 88.0409C86.6825 87.6767 86.3872 87.3813 86.0229 87.3813C85.6586 87.3813 85.3633 87.6767 85.3633 88.0409C85.3633 88.4052 85.6586 88.7005 86.0229 88.7005Z" stroke="#BF9D50" stroke-width="1.0186" stroke-miterlimit="10" stroke-linecap="round" stroke-linejoin="round"/>
<path d="M34.9713 100.511C35.3673 100.511 35.6883 100.19 35.6883 99.7941C35.6883 99.3981 35.3673 99.0771 34.9713 99.0771C34.5754 99.0771 34.2544 99.3981 34.2544 99.7941C34.2544 100.19 34.5754 100.511 34.9713 100.511Z" stroke="#BF9D50" stroke-width="1.0186" stroke-miterlimit="10" stroke-linecap="round" stroke-linejoin="round"/>
<path d="M20.2787 52.0026C20.2787 51.6059 19.9585 51.2856 19.5618 51.2856C19.1651 51.2856 18.8448 51.6059 18.8448 52.0026C18.8448 52.3993 19.1651 52.7195 19.5618 52.7195C19.9585 52.7195 20.2787 52.3945 20.2787 52.0026Z" stroke="#BF9D50" stroke-width="1.0186" stroke-miterlimit="10" stroke-linecap="round" stroke-linejoin="round"/>
</svg>
