<svg width="116" height="102" viewBox="0 0 116 102" fill="none" xmlns="http://www.w3.org/2000/svg">
<path d="M72.8374 39.1719C68.3863 43.623 60.4475 50.5986 47.7419 48.1405" stroke="#BF9D50" stroke-width="1.7825" stroke-miterlimit="10" stroke-linecap="round" stroke-linejoin="round"/>
<path d="M56.7161 23.0508C52.265 27.5019 45.2894 35.4408 47.7474 48.1463" stroke="#BF9D50" stroke-width="1.7825" stroke-miterlimit="10" stroke-linecap="round" stroke-linejoin="round"/>
<path d="M75.2899 36.7305C83.2676 28.7529 96.1946 28.7529 104.172 36.7305C112.15 44.7082 112.15 57.6351 104.172 65.6128L105.495 64.2896C117.924 51.8609 117.924 31.7092 105.495 19.2805C93.0666 6.8518 72.9149 6.8518 60.4862 19.2805" stroke="#BF9D50" stroke-width="1.7825" stroke-miterlimit="10" stroke-linecap="round" stroke-linejoin="round"/>
<path d="M85.8253 51.6504C83.4891 56.0627 84.1811 61.6543 87.8903 65.3691C92.4521 69.9309 99.8429 69.9309 104.405 65.3691" stroke="#BF9D50" stroke-width="1.7825" stroke-miterlimit="10" stroke-linecap="round" stroke-linejoin="round"/>
<path d="M108.302 52.0605C103.718 47.4766 96.2943 47.4766 91.7103 52.0605" stroke="#BF9D50" stroke-width="1.7825" stroke-miterlimit="10" stroke-linecap="round" stroke-linejoin="round"/>
<path d="M108.302 52.0601C107.345 51.1024 105.794 51.1024 104.837 52.0601L100.552 56.3451" stroke="#BF9D50" stroke-width="1.7825" stroke-miterlimit="10" stroke-linecap="round" stroke-linejoin="round"/>
<path d="M100.618 56.2842C97.6008 59.3014 92.7068 59.3014 89.6896 56.2842L88.5602 55.1548" stroke="#BF9D50" stroke-width="1.7825" stroke-miterlimit="10" stroke-linecap="round" stroke-linejoin="round"/>
<path d="M88.5602 55.1495L89.3519 55.9411C91.4667 58.0559 94.8936 58.0559 97.0084 55.9411L101.304 51.645" stroke="#BF9D50" stroke-width="1.0186" stroke-miterlimit="10" stroke-linecap="round" stroke-linejoin="round"/>
<path d="M88.5602 55.1493L89.0364 55.6254C90.3097 56.8988 92.3691 56.8988 93.6424 55.6254L96.9808 52.2871" stroke="#BF9D50" stroke-width="1.0186" stroke-miterlimit="10" stroke-linecap="round" stroke-linejoin="round"/>
<path d="M88.5602 55.1496L88.7872 55.3765C89.4017 55.991 90.3927 55.991 91.0072 55.3765L92.6127 53.771" stroke="#BF9D50" stroke-width="1.0186" stroke-miterlimit="10" stroke-linecap="round" stroke-linejoin="round"/>
<path d="M91.6826 35.4404C96.2666 40.0244 96.2666 47.4484 91.6826 52.0324" stroke="#BF9D50" stroke-width="1.7825" stroke-miterlimit="10" stroke-linecap="round" stroke-linejoin="round"/>
<path d="M91.6826 35.4404C92.6403 36.3982 92.6403 37.9483 91.6826 38.9061L87.3976 43.1911" stroke="#BF9D50" stroke-width="1.7825" stroke-miterlimit="10" stroke-linecap="round" stroke-linejoin="round"/>
<path d="M87.4585 43.125C84.4413 46.1422 84.4413 51.0362 87.4585 54.0534L88.5879 55.1828" stroke="#BF9D50" stroke-width="1.7825" stroke-miterlimit="10" stroke-linecap="round" stroke-linejoin="round"/>
<path d="M88.5934 55.1828L87.8017 54.3911C85.6869 52.2763 85.6869 48.8494 87.8017 46.7346L92.0978 42.4385" stroke="#BF9D50" stroke-width="1.0186" stroke-miterlimit="10" stroke-linecap="round" stroke-linejoin="round"/>
<path d="M88.5934 55.1827L88.1173 54.7066C86.844 53.4333 86.844 51.3739 88.1173 50.1005L91.4557 46.7622" stroke="#BF9D50" stroke-width="1.0186" stroke-miterlimit="10" stroke-linecap="round" stroke-linejoin="round"/>
<path d="M88.5934 55.1828L88.3664 54.9558C87.7519 54.3413 87.7519 53.3503 88.3664 52.7358L89.9719 51.1304" stroke="#BF9D50" stroke-width="1.0186" stroke-miterlimit="10" stroke-linecap="round" stroke-linejoin="round"/>
<path d="M77.7536 30.9786C77.7536 29.8271 76.8235 28.897 75.672 28.897" stroke="#BF9D50" stroke-width="1.0186" stroke-miterlimit="10" stroke-linecap="round" stroke-linejoin="round"/>
<path d="M76.9176 29.2789C76.9176 28.1273 75.9876 27.1973 74.8361 27.1973" stroke="#BF9D50" stroke-width="1.0186" stroke-miterlimit="10" stroke-linecap="round" stroke-linejoin="round"/>
<path d="M65.9947 21.8326C65.9947 20.6811 65.0646 19.751 63.9131 19.751" stroke="#BF9D50" stroke-width="1.0186" stroke-miterlimit="10" stroke-linecap="round" stroke-linejoin="round"/>
<path d="M104.222 32.8277C105.374 32.8277 106.304 31.8976 106.304 30.7461" stroke="#BF9D50" stroke-width="1.0186" stroke-miterlimit="10" stroke-linecap="round" stroke-linejoin="round"/>
<path d="M85.2883 24.6729C85.7755 23.6321 85.3271 22.392 84.2863 21.9048" stroke="#BF9D50" stroke-width="1.0186" stroke-miterlimit="10" stroke-linecap="round" stroke-linejoin="round"/>
<path d="M90.7303 18.0017C91.5442 17.1879 91.5442 15.8703 90.7303 15.062" stroke="#BF9D50" stroke-width="1.0186" stroke-miterlimit="10" stroke-linecap="round" stroke-linejoin="round"/>
<path d="M74.5703 18.6275C74.5703 17.476 73.6402 16.5459 72.4886 16.5459" stroke="#BF9D50" stroke-width="1.0186" stroke-miterlimit="10" stroke-linecap="round" stroke-linejoin="round"/>
<path d="M76.6353 19.834C76.6353 18.6825 75.7052 17.7524 74.5537 17.7524" stroke="#BF9D50" stroke-width="1.0186" stroke-miterlimit="10" stroke-linecap="round" stroke-linejoin="round"/>
<path d="M95.8846 24.0362C97.0362 24.0362 97.9663 23.1061 97.9663 21.9546" stroke="#BF9D50" stroke-width="1.0186" stroke-miterlimit="10" stroke-linecap="round" stroke-linejoin="round"/>
<path d="M94.6777 26.1065C95.8293 26.1065 96.7593 25.1764 96.7593 24.0249" stroke="#BF9D50" stroke-width="1.0186" stroke-miterlimit="10" stroke-linecap="round" stroke-linejoin="round"/>
<path d="M110.146 49.9398C110.196 49.8014 110.245 49.6574 110.295 49.519C113.971 39.0556 111.629 26.9535 103.264 18.5884C91.6438 6.96794 72.7987 6.96794 61.1782 18.5884" stroke="#BF9D50" stroke-width="1.7825" stroke-miterlimit="10" stroke-linecap="round" stroke-linejoin="round"/>
<path d="M56.7161 23.0508C52.265 27.5019 45.2894 35.4408 47.7474 48.1463" stroke="#BF9D50" stroke-width="1.7825" stroke-miterlimit="10" stroke-linecap="round" stroke-linejoin="round"/>
<path d="M66.1552 26.6162L64.7435 28.0279" stroke="#BF9D50" stroke-width="1.7825" stroke-miterlimit="10" stroke-linecap="round" stroke-linejoin="round"/>
<path d="M62.1859 28.3155L64.4391 30.5687L64.4557 30.5853C66.7256 32.8385 70.396 32.833 72.6603 30.5687L70.4071 28.3155C69.2335 27.1418 67.6888 26.5771 66.1553 26.6158C66.1941 25.0823 65.6294 23.5322 64.4557 22.3641L62.2025 20.1108C59.9382 22.3696 59.9327 26.0401 62.1859 28.3155ZM62.1859 28.3155L62.2025 28.3321" stroke="#BF9D50" stroke-width="1.7825" stroke-miterlimit="10" stroke-linecap="round" stroke-linejoin="round"/>
<path d="M63.1713 29.2954C67.8659 33.9901 67.8659 41.6024 63.1713 46.3026" stroke="#BF9D50" stroke-width="1.7825" stroke-miterlimit="10" stroke-linecap="round" stroke-linejoin="round"/>
<path d="M94.3731 68.5139C91.5995 65.7403 91.0459 61.5992 92.7013 58.272" stroke="#BF9D50" stroke-width="1.7825" stroke-miterlimit="10" stroke-linecap="round" stroke-linejoin="round"/>
<path d="M104.1 65.6791C101.415 68.3642 97.0583 68.3642 94.3677 65.6791C92.3913 63.7027 91.8708 60.8295 92.7954 58.377" stroke="#BF9D50" stroke-width="1.7825" stroke-miterlimit="10" stroke-linecap="round" stroke-linejoin="round"/>
<path d="M59.7776 8.80615C62.8668 11.8953 62.8668 16.9 59.7776 19.9837L56.7161 23.0452C53.6269 19.956 53.6269 14.9513 56.7161 11.8677L59.7776 8.80615Z" stroke="#BF9D50" stroke-width="1.7825" stroke-miterlimit="10" stroke-linecap="round" stroke-linejoin="round"/>
<path d="M58.0946 10.4893C61.1838 13.5784 61.1838 18.5832 58.0946 21.6668" stroke="#BF9D50" stroke-width="1.0186" stroke-miterlimit="10" stroke-linecap="round" stroke-linejoin="round"/>
<path d="M56.7328 23.0283C59.0967 20.6644 59.0967 16.8278 56.7328 14.4583L55.5757 13.3013" stroke="#BF9D50" stroke-width="1.0186" stroke-miterlimit="10" stroke-linecap="round" stroke-linejoin="round"/>
<path d="M87.0821 36.1103C83.9929 33.0212 78.9882 33.0212 75.9045 36.1103L72.843 39.1719C75.9322 42.2611 80.9369 42.2611 84.0206 39.1719L87.0821 36.1103Z" stroke="#BF9D50" stroke-width="1.7825" stroke-miterlimit="10" stroke-linecap="round" stroke-linejoin="round"/>
<path d="M85.399 37.7935C82.3098 34.7043 77.3051 34.7043 74.2214 37.7935" stroke="#BF9D50" stroke-width="1.0186" stroke-miterlimit="10" stroke-linecap="round" stroke-linejoin="round"/>
<path d="M72.8596 39.1553C75.2236 36.7913 79.0601 36.7913 81.4296 39.1553L82.5867 40.3124" stroke="#BF9D50" stroke-width="1.0186" stroke-miterlimit="10" stroke-linecap="round" stroke-linejoin="round"/>
<path d="M113.777 19.8341C111.657 21.9545 108.214 21.9545 106.093 19.8341L103.99 17.7304C106.11 15.61 109.553 15.61 111.674 17.7304L113.777 19.8341Z" stroke="#BF9D50" stroke-width="1.7825" stroke-miterlimit="10" stroke-linecap="round" stroke-linejoin="round"/>
<path d="M112.62 18.6826C110.5 20.803 107.057 20.803 104.936 18.6826" stroke="#BF9D50" stroke-width="1.0186" stroke-miterlimit="10" stroke-linecap="round" stroke-linejoin="round"/>
<path d="M104.006 17.7469C105.634 19.3746 108.269 19.3746 109.897 17.7469L110.694 16.9497" stroke="#BF9D50" stroke-width="1.0186" stroke-miterlimit="10" stroke-linecap="round" stroke-linejoin="round"/>
<path d="M51.335 63.9129C55.786 59.4618 63.7249 52.4863 76.4304 54.9443" stroke="#BF9D50" stroke-width="1.7825" stroke-miterlimit="10" stroke-linecap="round" stroke-linejoin="round"/>
<path d="M67.4618 80.0398C71.9129 75.5887 78.8884 67.6499 76.4304 54.9443" stroke="#BF9D50" stroke-width="1.7825" stroke-miterlimit="10" stroke-linecap="round" stroke-linejoin="round"/>
<path d="M48.8824 66.3544C40.9048 74.3321 27.9778 74.3321 20.0001 66.3544C12.0225 58.3768 12.0225 45.4498 20.0001 37.4722L18.677 38.7953C6.24829 51.224 6.24829 71.3757 18.677 83.8044C31.1057 96.2331 51.2574 96.2331 63.6861 83.8044" stroke="#BF9D50" stroke-width="1.7825" stroke-miterlimit="10" stroke-linecap="round" stroke-linejoin="round"/>
<path d="M38.3471 51.4344C40.6834 47.0221 39.9914 41.4306 36.2821 37.7158C31.7203 33.154 24.3295 33.154 19.7677 37.7158" stroke="#BF9D50" stroke-width="1.7825" stroke-miterlimit="10" stroke-linecap="round" stroke-linejoin="round"/>
<path d="M15.8702 51.0249C20.4542 55.6089 27.8782 55.6089 32.4622 51.0249" stroke="#BF9D50" stroke-width="1.7825" stroke-miterlimit="10" stroke-linecap="round" stroke-linejoin="round"/>
<path d="M15.8702 51.0247C16.828 51.9825 18.3781 51.9825 19.3359 51.0247L23.6209 46.7397" stroke="#BF9D50" stroke-width="1.7825" stroke-miterlimit="10" stroke-linecap="round" stroke-linejoin="round"/>
<path d="M23.5544 46.8064C26.5717 43.7892 31.4656 43.7892 34.4829 46.8064L35.6122 47.9358" stroke="#BF9D50" stroke-width="1.7825" stroke-miterlimit="10" stroke-linecap="round" stroke-linejoin="round"/>
<path d="M35.6177 47.9359L34.826 47.1442C32.7112 45.0294 29.2843 45.0294 27.1695 47.1442L22.8734 51.4403" stroke="#BF9D50" stroke-width="1.0186" stroke-miterlimit="10" stroke-linecap="round" stroke-linejoin="round"/>
<path d="M35.6177 47.936L35.1416 47.4599C33.8683 46.1866 31.8088 46.1866 30.5355 47.4599L27.1971 50.7981" stroke="#BF9D50" stroke-width="1.0186" stroke-miterlimit="10" stroke-linecap="round" stroke-linejoin="round"/>
<path d="M35.6177 47.9359L35.3907 47.7089C34.7762 47.0944 33.7852 47.0944 33.1707 47.7089L31.5652 49.3144" stroke="#BF9D50" stroke-width="1.0186" stroke-miterlimit="10" stroke-linecap="round" stroke-linejoin="round"/>
<path d="M32.4953 67.65C27.9114 63.0661 27.9114 55.6421 32.4953 51.0581" stroke="#BF9D50" stroke-width="1.7825" stroke-miterlimit="10" stroke-linecap="round" stroke-linejoin="round"/>
<path d="M32.4953 67.6501C31.5375 66.6923 31.5375 65.1422 32.4953 64.1844L36.7803 59.8994" stroke="#BF9D50" stroke-width="1.7825" stroke-miterlimit="10" stroke-linecap="round" stroke-linejoin="round"/>
<path d="M36.7138 59.966C39.7311 56.9488 39.7311 52.0548 36.7138 49.0376L35.5845 47.9082" stroke="#BF9D50" stroke-width="1.7825" stroke-miterlimit="10" stroke-linecap="round" stroke-linejoin="round"/>
<path d="M35.5845 47.9023L36.3762 48.694C38.491 50.8089 38.491 54.2357 36.3762 56.3506L32.0801 60.6466" stroke="#BF9D50" stroke-width="1.0186" stroke-miterlimit="10" stroke-linecap="round" stroke-linejoin="round"/>
<path d="M35.5845 47.9023L36.0606 48.3784C37.3339 49.6518 37.3339 51.7113 36.0606 52.9846L32.7223 56.3229" stroke="#BF9D50" stroke-width="1.0186" stroke-miterlimit="10" stroke-linecap="round" stroke-linejoin="round"/>
<path d="M35.5846 47.9023L35.8115 48.1293C36.426 48.7439 36.426 49.7348 35.8115 50.3494L34.2061 51.9549" stroke="#BF9D50" stroke-width="1.0186" stroke-miterlimit="10" stroke-linecap="round" stroke-linejoin="round"/>
<path d="M46.4188 72.1123C46.4188 73.2638 47.3489 74.1939 48.5004 74.1939" stroke="#BF9D50" stroke-width="1.0186" stroke-miterlimit="10" stroke-linecap="round" stroke-linejoin="round"/>
<path d="M47.2603 73.812C47.2603 74.9635 48.1903 75.8936 49.3419 75.8936" stroke="#BF9D50" stroke-width="1.0186" stroke-miterlimit="10" stroke-linecap="round" stroke-linejoin="round"/>
<path d="M58.1832 81.2524C58.1832 82.404 59.1133 83.334 60.2648 83.334" stroke="#BF9D50" stroke-width="1.0186" stroke-miterlimit="10" stroke-linecap="round" stroke-linejoin="round"/>
<path d="M19.9504 70.2632C18.7989 70.2632 17.8688 71.1933 17.8688 72.3448" stroke="#BF9D50" stroke-width="1.0186" stroke-miterlimit="10" stroke-linecap="round" stroke-linejoin="round"/>
<path d="M38.8895 78.4126C38.4024 79.4534 38.8508 80.6935 39.8916 81.1807" stroke="#BF9D50" stroke-width="1.0186" stroke-miterlimit="10" stroke-linecap="round" stroke-linejoin="round"/>
<path d="M33.442 85.0889C32.6282 85.9027 32.6282 87.2203 33.442 88.0285" stroke="#BF9D50" stroke-width="1.0186" stroke-miterlimit="10" stroke-linecap="round" stroke-linejoin="round"/>
<path d="M49.6077 84.458C49.6077 85.6095 50.5377 86.5396 51.6892 86.5396" stroke="#BF9D50" stroke-width="1.0186" stroke-miterlimit="10" stroke-linecap="round" stroke-linejoin="round"/>
<path d="M47.5371 83.251C47.5371 84.4025 48.4672 85.3326 49.6187 85.3326" stroke="#BF9D50" stroke-width="1.0186" stroke-miterlimit="10" stroke-linecap="round" stroke-linejoin="round"/>
<path d="M28.2878 79.0488C27.1363 79.0488 26.2062 79.9789 26.2062 81.1304" stroke="#BF9D50" stroke-width="1.0186" stroke-miterlimit="10" stroke-linecap="round" stroke-linejoin="round"/>
<path d="M29.5003 76.9785C28.3488 76.9785 27.4187 77.9086 27.4187 79.0601" stroke="#BF9D50" stroke-width="1.0186" stroke-miterlimit="10" stroke-linecap="round" stroke-linejoin="round"/>
<path d="M14.0322 53.1455C13.9824 53.2839 13.9325 53.4278 13.8827 53.5662C10.2067 64.0296 12.5485 76.1317 20.9137 84.4968C32.5341 96.1173 51.3793 96.1173 62.9997 84.4968" stroke="#BF9D50" stroke-width="1.7825" stroke-miterlimit="10" stroke-linecap="round" stroke-linejoin="round"/>
<path d="M67.4618 80.0398C71.9129 75.5887 78.8884 67.6499 76.4304 54.9443" stroke="#BF9D50" stroke-width="1.7825" stroke-miterlimit="10" stroke-linecap="round" stroke-linejoin="round"/>
<path d="M58.0171 76.4748L59.4344 75.0576" stroke="#BF9D50" stroke-width="1.7825" stroke-miterlimit="10" stroke-linecap="round" stroke-linejoin="round"/>
<path d="M61.9865 74.7749L59.7333 72.5217L59.7167 72.5051C57.4468 70.2519 53.7764 70.2574 51.5121 72.5217L53.7653 74.7749C54.9389 75.9486 56.4836 76.5133 58.0171 76.4745C57.9783 78.008 58.543 79.5582 59.7167 80.7263L61.9699 82.9795C64.2342 80.7152 64.2398 77.0448 61.9865 74.7749ZM61.9865 74.7749L61.9699 74.7583" stroke="#BF9D50" stroke-width="1.7825" stroke-miterlimit="10" stroke-linecap="round" stroke-linejoin="round"/>
<path d="M61.0066 73.7898C56.3119 69.0952 56.3119 61.4829 61.0066 56.7827" stroke="#BF9D50" stroke-width="1.7825" stroke-miterlimit="10" stroke-linecap="round" stroke-linejoin="round"/>
<path d="M29.8047 34.5713C32.5783 37.3449 33.1319 41.486 31.4766 44.8132" stroke="#BF9D50" stroke-width="1.7825" stroke-miterlimit="10" stroke-linecap="round" stroke-linejoin="round"/>
<path d="M20.0721 37.4112C22.7572 34.7262 27.1142 34.7262 29.8048 37.4112C31.7812 39.3877 32.3016 42.2609 31.377 44.7135" stroke="#BF9D50" stroke-width="1.7825" stroke-miterlimit="10" stroke-linecap="round" stroke-linejoin="round"/>
<path d="M64.4003 94.2791C61.3111 91.1899 61.3111 86.1852 64.4003 83.1016L67.4618 80.04C70.551 83.1292 70.551 88.1339 67.4618 91.2176L64.4003 94.2791Z" stroke="#BF9D50" stroke-width="1.7825" stroke-miterlimit="10" stroke-linecap="round" stroke-linejoin="round"/>
<path d="M66.0834 92.596C62.9942 89.5068 62.9942 84.5021 66.0834 81.4185" stroke="#BF9D50" stroke-width="1.0186" stroke-miterlimit="10" stroke-linecap="round" stroke-linejoin="round"/>
<path d="M67.4452 80.0566C65.0813 82.4206 65.0813 86.2572 67.4452 88.6266L68.6023 89.7837" stroke="#BF9D50" stroke-width="1.0186" stroke-miterlimit="10" stroke-linecap="round" stroke-linejoin="round"/>
<path d="M37.0958 66.9746C40.185 70.0638 45.1897 70.0638 48.2734 66.9746L51.3349 63.9131C48.2457 60.8239 43.241 60.8239 40.1573 63.9131L37.0958 66.9746Z" stroke="#BF9D50" stroke-width="1.7825" stroke-miterlimit="10" stroke-linecap="round" stroke-linejoin="round"/>
<path d="M38.7789 65.2915C41.8681 68.3807 46.8728 68.3807 49.9565 65.2915" stroke="#BF9D50" stroke-width="1.0186" stroke-miterlimit="10" stroke-linecap="round" stroke-linejoin="round"/>
<path d="M51.3184 63.9296C48.9544 66.2935 45.1179 66.2935 42.7484 63.9296L41.5913 62.7725" stroke="#BF9D50" stroke-width="1.0186" stroke-miterlimit="10" stroke-linecap="round" stroke-linejoin="round"/>
<path d="M10.3949 83.2509C12.5153 81.1306 15.9588 81.1306 18.0791 83.2509L20.1829 85.3547C18.0625 87.475 14.619 87.475 12.4986 85.3547L10.3949 83.2509Z" stroke="#BF9D50" stroke-width="1.7825" stroke-miterlimit="10" stroke-linecap="round" stroke-linejoin="round"/>
<path d="M11.5519 84.4081C13.6722 82.2878 17.1157 82.2878 19.2361 84.4081" stroke="#BF9D50" stroke-width="1.0186" stroke-miterlimit="10" stroke-linecap="round" stroke-linejoin="round"/>
<path d="M20.1718 85.3438C18.5442 83.7161 15.909 83.7161 14.2813 85.3438L13.4841 86.141" stroke="#BF9D50" stroke-width="1.0186" stroke-miterlimit="10" stroke-linecap="round" stroke-linejoin="round"/>
<path d="M89.8944 83.2397C89.8944 85.5483 88.0232 87.4195 85.7146 87.4195" stroke="#BF9D50" stroke-width="1.0186" stroke-miterlimit="10" stroke-linecap="round" stroke-linejoin="round"/>
<path d="M89.8778 83.2397C89.8778 85.5483 91.7491 87.4195 94.0576 87.4195" stroke="#BF9D50" stroke-width="1.0186" stroke-miterlimit="10" stroke-linecap="round" stroke-linejoin="round"/>
<path d="M98.2375 83.2397C98.2375 85.5483 96.3662 87.4195 94.0576 87.4195" stroke="#BF9D50" stroke-width="1.0186" stroke-miterlimit="10" stroke-linecap="round" stroke-linejoin="round"/>
<path d="M98.2208 83.2397C98.2208 85.5483 100.092 87.4195 102.401 87.4195" stroke="#BF9D50" stroke-width="1.0186" stroke-miterlimit="10" stroke-linecap="round" stroke-linejoin="round"/>
<path d="M98.2375 83.2397C98.2375 85.5483 96.3662 87.4195 94.0576 87.4195" stroke="#BF9D50" stroke-width="1.0186" stroke-miterlimit="10" stroke-linecap="round" stroke-linejoin="round"/>
<path d="M98.2208 83.2397C98.2208 85.5483 100.092 87.4195 102.401 87.4195" stroke="#BF9D50" stroke-width="1.0186" stroke-miterlimit="10" stroke-linecap="round" stroke-linejoin="round"/>
<path d="M106.58 83.2397C106.58 85.5483 104.709 87.4195 102.401 87.4195" stroke="#BF9D50" stroke-width="1.0186" stroke-miterlimit="10" stroke-linecap="round" stroke-linejoin="round"/>
<path d="M106.564 83.2397C106.564 85.5483 108.435 87.4195 110.744 87.4195" stroke="#BF9D50" stroke-width="1.0186" stroke-miterlimit="10" stroke-linecap="round" stroke-linejoin="round"/>
<path d="M89.8944 87.9346C89.8944 90.2432 88.0232 92.1143 85.7146 92.1143" stroke="#BF9D50" stroke-width="1.0186" stroke-miterlimit="10" stroke-linecap="round" stroke-linejoin="round"/>
<path d="M89.8778 87.9346C89.8778 90.2432 91.7491 92.1143 94.0576 92.1143" stroke="#BF9D50" stroke-width="1.0186" stroke-miterlimit="10" stroke-linecap="round" stroke-linejoin="round"/>
<path d="M98.2375 87.9346C98.2375 90.2432 96.3662 92.1143 94.0576 92.1143" stroke="#BF9D50" stroke-width="1.0186" stroke-miterlimit="10" stroke-linecap="round" stroke-linejoin="round"/>
<path d="M98.2208 87.9346C98.2208 90.2432 100.092 92.1143 102.401 92.1143" stroke="#BF9D50" stroke-width="1.0186" stroke-miterlimit="10" stroke-linecap="round" stroke-linejoin="round"/>
<path d="M98.2375 87.9346C98.2375 90.2432 96.3662 92.1143 94.0576 92.1143" stroke="#BF9D50" stroke-width="1.0186" stroke-miterlimit="10" stroke-linecap="round" stroke-linejoin="round"/>
<path d="M98.2208 87.9346C98.2208 90.2432 100.092 92.1143 102.401 92.1143" stroke="#BF9D50" stroke-width="1.0186" stroke-miterlimit="10" stroke-linecap="round" stroke-linejoin="round"/>
<path d="M106.58 87.9346C106.58 90.2432 104.709 92.1143 102.401 92.1143" stroke="#BF9D50" stroke-width="1.0186" stroke-miterlimit="10" stroke-linecap="round" stroke-linejoin="round"/>
<path d="M106.564 87.9346C106.564 90.2432 108.435 92.1143 110.744 92.1143" stroke="#BF9D50" stroke-width="1.0186" stroke-miterlimit="10" stroke-linecap="round" stroke-linejoin="round"/>
<path d="M34.2836 10.9707C34.2836 13.2793 36.1548 15.1505 38.4634 15.1505" stroke="#BF9D50" stroke-width="1.0186" stroke-miterlimit="10" stroke-linecap="round" stroke-linejoin="round"/>
<path d="M34.2946 10.9707C34.2946 13.2793 32.4233 15.1505 30.1147 15.1505" stroke="#BF9D50" stroke-width="1.0186" stroke-miterlimit="10" stroke-linecap="round" stroke-linejoin="round"/>
<path d="M25.9404 10.9707C25.9404 13.2793 27.8117 15.1505 30.1202 15.1505" stroke="#BF9D50" stroke-width="1.0186" stroke-miterlimit="10" stroke-linecap="round" stroke-linejoin="round"/>
<path d="M25.9515 10.9707C25.9515 13.2793 24.0803 15.1505 21.7717 15.1505" stroke="#BF9D50" stroke-width="1.0186" stroke-miterlimit="10" stroke-linecap="round" stroke-linejoin="round"/>
<path d="M25.9404 10.9707C25.9404 13.2793 27.8117 15.1505 30.1202 15.1505" stroke="#BF9D50" stroke-width="1.0186" stroke-miterlimit="10" stroke-linecap="round" stroke-linejoin="round"/>
<path d="M25.9515 10.9707C25.9515 13.2793 24.0803 15.1505 21.7717 15.1505" stroke="#BF9D50" stroke-width="1.0186" stroke-miterlimit="10" stroke-linecap="round" stroke-linejoin="round"/>
<path d="M17.5974 10.9707C17.5974 13.2793 19.4686 15.1505 21.7772 15.1505" stroke="#BF9D50" stroke-width="1.0186" stroke-miterlimit="10" stroke-linecap="round" stroke-linejoin="round"/>
<path d="M17.6085 10.9707C17.6085 13.2793 15.7373 15.1505 13.4287 15.1505" stroke="#BF9D50" stroke-width="1.0186" stroke-miterlimit="10" stroke-linecap="round" stroke-linejoin="round"/>
<path d="M34.2836 15.6655C34.2836 17.9741 36.1548 19.8453 38.4634 19.8453" stroke="#BF9D50" stroke-width="1.0186" stroke-miterlimit="10" stroke-linecap="round" stroke-linejoin="round"/>
<path d="M34.2946 15.6655C34.2946 17.9741 32.4233 19.8453 30.1147 19.8453" stroke="#BF9D50" stroke-width="1.0186" stroke-miterlimit="10" stroke-linecap="round" stroke-linejoin="round"/>
<path d="M25.9404 15.6655C25.9404 17.9741 27.8117 19.8453 30.1202 19.8453" stroke="#BF9D50" stroke-width="1.0186" stroke-miterlimit="10" stroke-linecap="round" stroke-linejoin="round"/>
<path d="M25.9515 15.6655C25.9515 17.9741 24.0803 19.8453 21.7717 19.8453" stroke="#BF9D50" stroke-width="1.0186" stroke-miterlimit="10" stroke-linecap="round" stroke-linejoin="round"/>
<path d="M25.9404 15.6655C25.9404 17.9741 27.8117 19.8453 30.1202 19.8453" stroke="#BF9D50" stroke-width="1.0186" stroke-miterlimit="10" stroke-linecap="round" stroke-linejoin="round"/>
<path d="M25.9515 15.6655C25.9515 17.9741 24.0803 19.8453 21.7717 19.8453" stroke="#BF9D50" stroke-width="1.0186" stroke-miterlimit="10" stroke-linecap="round" stroke-linejoin="round"/>
<path d="M17.5974 15.6655C17.5974 17.9741 19.4686 19.8453 21.7772 19.8453" stroke="#BF9D50" stroke-width="1.0186" stroke-miterlimit="10" stroke-linecap="round" stroke-linejoin="round"/>
<path d="M17.6085 15.6655C17.6085 17.9741 15.7373 19.8453 13.4287 19.8453" stroke="#BF9D50" stroke-width="1.0186" stroke-miterlimit="10" stroke-linecap="round" stroke-linejoin="round"/>
<path d="M5.17981 28.0942V36.4428" stroke="white" stroke-width="1.0186" stroke-miterlimit="10" stroke-linecap="round" stroke-linejoin="round"/>
<path d="M1 32.2686H9.35411" stroke="white" stroke-width="1.0186" stroke-miterlimit="10" stroke-linecap="round" stroke-linejoin="round"/>
<path d="M2.84912 29.9375L7.51057 34.599" stroke="white" stroke-width="1.0186" stroke-miterlimit="10" stroke-linecap="round" stroke-linejoin="round"/>
<path d="M2.84912 34.599L7.51057 29.9375" stroke="white" stroke-width="1.0186" stroke-miterlimit="10" stroke-linecap="round" stroke-linejoin="round"/>
<path d="M77.7535 92.646V101" stroke="white" stroke-width="1.0186" stroke-miterlimit="10" stroke-linecap="round" stroke-linejoin="round"/>
<path d="M73.5793 96.8203H81.9334" stroke="white" stroke-width="1.0186" stroke-miterlimit="10" stroke-linecap="round" stroke-linejoin="round"/>
<path d="M75.4229 94.4893L80.0843 99.1507" stroke="white" stroke-width="1.0186" stroke-miterlimit="10" stroke-linecap="round" stroke-linejoin="round"/>
<path d="M75.4229 99.1507L80.0843 94.4893" stroke="white" stroke-width="1.0186" stroke-miterlimit="10" stroke-linecap="round" stroke-linejoin="round"/>
<path d="M102.141 1.88037V10.2344" stroke="white" stroke-width="1.0186" stroke-miterlimit="10" stroke-linecap="round" stroke-linejoin="round"/>
<path d="M97.9662 6.06006H106.32" stroke="white" stroke-width="1.0186" stroke-miterlimit="10" stroke-linecap="round" stroke-linejoin="round"/>
<path d="M99.8097 3.72949L104.471 8.39095" stroke="white" stroke-width="1.0186" stroke-miterlimit="10" stroke-linecap="round" stroke-linejoin="round"/>
<path d="M99.8097 8.39095L104.471 3.72949" stroke="white" stroke-width="1.0186" stroke-miterlimit="10" stroke-linecap="round" stroke-linejoin="round"/>
<path d="M51.108 3.53004C49.7129 3.53004 48.578 4.66496 48.578 6.06008C48.578 4.66496 47.4431 3.53004 46.048 3.53004C47.4431 3.53004 48.578 2.39512 48.578 1C48.578 2.39512 49.7129 3.53004 51.108 3.53004Z" stroke="white" stroke-width="1.0186" stroke-miterlimit="10" stroke-linecap="round" stroke-linejoin="round"/>
<path d="M47.4762 56.8931C48.8735 56.8931 50.0062 55.7604 50.0062 54.3631C50.0062 52.9658 48.8735 51.833 47.4762 51.833C46.0789 51.833 44.9462 52.9658 44.9462 54.3631C44.9462 55.7604 46.0789 56.8931 47.4762 56.8931Z" stroke="white" stroke-width="1.0186" stroke-miterlimit="10" stroke-linecap="round" stroke-linejoin="round"/>
<path d="M84.4745 75.4116C85.8718 75.4116 87.0045 74.2789 87.0045 72.8816C87.0045 71.4843 85.8718 70.3516 84.4745 70.3516C83.0772 70.3516 81.9445 71.4843 81.9445 72.8816C81.9445 74.2789 83.0772 75.4116 84.4745 75.4116Z" stroke="white" stroke-width="1.0186" stroke-miterlimit="10" stroke-linecap="round" stroke-linejoin="round"/>
<path d="M17.6085 99.3501C19.0058 99.3501 20.1385 98.2173 20.1385 96.82C20.1385 95.4227 19.0058 94.29 17.6085 94.29C16.2112 94.29 15.0785 95.4227 15.0785 96.82C15.0785 98.2173 16.2112 99.3501 17.6085 99.3501Z" stroke="white" stroke-width="1.0186" stroke-miterlimit="10" stroke-linecap="round" stroke-linejoin="round"/>
</svg>
